<?xml version="1.0" encoding="utf-8"?>
<!-- Generator: Adobe Illustrator 16.0.0, SVG Export Plug-In . SVG Version: 6.00 Build 0)  -->
<!DOCTYPE svg PUBLIC "-//W3C//DTD SVG 1.1//EN" "http://www.w3.org/Graphics/SVG/1.1/DTD/svg11.dtd">
<svg version="1.1" id="Layer_1" xmlns="http://www.w3.org/2000/svg" xmlns:xlink="http://www.w3.org/1999/xlink" x="0px" y="0px"
	 width="56.693px" height="56.693px" viewBox="0 0 56.693 56.693" enable-background="new 0 0 56.693 56.693" xml:space="preserve">
<path fill-rule="evenodd" clip-rule="evenodd" fill="#8DC63F" d="M11.687,34.594c-1.696,1.697-3.363,3.366-4.967,4.973
	c4.843,4.856,9.747,9.768,14.627,14.662C31.707,43.862,42.083,33.478,52.414,23.14c-1.61-1.627-3.261-3.295-4.983-5.032
	c-8.682,8.695-17.376,17.399-26.108,26.144C18.053,40.975,14.826,37.74,11.687,34.594z"/>
<path fill-rule="evenodd" clip-rule="evenodd" fill="#8DC63F" d="M6.643,23.009c4.908,4.911,9.829,9.834,14.724,14.733
	C31.715,27.384,42.091,16.999,52.378,6.699c-1.629-1.646-3.286-3.322-4.999-5.054c-8.664,8.662-17.355,17.354-26.132,26.128
	c-3.229-3.228-6.471-6.467-9.688-9.682C9.923,19.729,8.274,21.377,6.643,23.009z"/>
<path fill-rule="evenodd" clip-rule="evenodd" fill="#8DC63F" d="M11.687,34.594c3.139,3.146,6.366,6.381,9.635,9.657
	c8.732-8.745,17.427-17.449,26.108-26.144c1.723,1.737,3.373,3.405,4.983,5.032C42.083,33.478,31.707,43.862,21.348,54.229
	c-4.881-4.895-9.784-9.806-14.627-14.662C8.324,37.96,9.991,36.292,11.687,34.594z"/>
<path fill-rule="evenodd" clip-rule="evenodd" fill="#8DC63F" d="M6.643,23.009c1.632-1.632,3.28-3.28,4.917-4.917
	c3.217,3.215,6.458,6.454,9.688,9.682c8.776-8.775,17.468-17.467,26.132-26.128c1.713,1.732,3.37,3.408,4.999,5.054
	C42.091,16.999,31.715,27.384,21.366,37.743C16.471,32.843,11.55,27.92,6.643,23.009z"/>
</svg>
