<?xml version="1.0" encoding="utf-8"?>
<!-- Generator: Adobe Illustrator 16.0.0, SVG Export Plug-In . SVG Version: 6.00 Build 0)  -->
<!DOCTYPE svg PUBLIC "-//W3C//DTD SVG 1.1//EN" "http://www.w3.org/Graphics/SVG/1.1/DTD/svg11.dtd">
<svg version="1.1" id="Layer_1" xmlns="http://www.w3.org/2000/svg" xmlns:xlink="http://www.w3.org/1999/xlink" x="0px" y="0px"
	 width="58.417px" height="14px" viewBox="0 0 58.417 14" enable-background="new 0 0 58.417 14" xml:space="preserve">
<g>
	<polygon fill="#009444" points="18.425,13.273 0.3,13.273 3.229,6.721 0.3,0.523 18.425,0.523 21.458,6.773 	"/>
	<polygon fill="#009444" points="18.425,13.273 18.425,13.223 0.377,13.223 3.285,6.72 0.379,0.573 18.394,0.573 21.403,6.773 
		18.38,13.252 18.425,13.273 18.425,13.223 18.425,13.273 18.471,13.294 21.513,6.773 18.457,0.473 0.221,0.473 3.174,6.721 
		0.223,13.323 18.457,13.323 18.471,13.294 	"/>
</g>
<g>
	<polygon fill="#F7F7F7" points="36.509,13.273 18.384,13.273 21.313,6.721 18.384,0.523 36.509,0.523 39.541,6.773 	"/>
	<polygon fill="#8C8C8C" points="36.509,13.273 36.509,13.223 18.461,13.223 21.368,6.72 18.463,0.573 36.479,0.573 39.485,6.773 
		36.464,13.252 36.509,13.273 36.509,13.223 36.509,13.273 36.555,13.294 39.597,6.773 36.541,0.473 18.305,0.473 21.258,6.721 
		18.307,13.323 36.542,13.323 36.555,13.294 	"/>
</g>
<g>
	<polygon fill="#F7F7F7" points="54.471,13.273 36.346,13.273 39.273,6.721 36.346,0.523 54.471,0.523 57.501,6.773 	"/>
	<polygon fill="#8C8C8C" points="54.471,13.273 54.471,13.223 36.423,13.223 39.328,6.72 36.425,0.573 54.439,0.573 57.446,6.773 
		54.425,13.252 54.471,13.273 54.471,13.223 54.471,13.273 54.516,13.294 57.558,6.773 54.501,0.473 36.267,0.473 39.219,6.721 
		36.269,13.323 54.503,13.323 54.516,13.294 	"/>
</g>
<g>
	<path fill="#FFFFFF" d="M14.919,4.403c0.181,0,0.256,0.151,0.256,0.286c0,0.188-0.145,0.305-0.368,0.434
		c-0.096-0.119-0.168-0.24-0.168-0.398C14.639,4.554,14.734,4.403,14.919,4.403z M14.856,6.28c-0.266,0-0.455-0.195-0.455-0.448
		c0-0.234,0.168-0.375,0.287-0.451c0.246,0.284,0.493,0.553,0.625,0.699C15.208,6.194,15.047,6.28,14.856,6.28z M16.005,6.461
		c-0.132-0.142-0.247-0.267-0.365-0.392c0.165-0.195,0.26-0.472,0.319-0.819h-0.264c-0.042,0.279-0.112,0.493-0.213,0.648
		c-0.142-0.158-0.352-0.401-0.54-0.62v-0.01c0.352-0.174,0.488-0.359,0.488-0.591c0-0.288-0.214-0.472-0.491-0.472
		c-0.368,0-0.563,0.277-0.563,0.547c0,0.158,0.069,0.318,0.184,0.464v0.009c-0.253,0.139-0.435,0.345-0.435,0.648
		c0,0.332,0.25,0.623,0.683,0.623c0.242,0,0.458-0.076,0.648-0.253c0.086,0.091,0.146,0.154,0.207,0.217H16.005z M11.738,6.461h0.29
		V5.503l0.02-0.136c0.049-0.161,0.198-0.296,0.388-0.296c0.273,0,0.369,0.214,0.369,0.472v0.918h0.29V5.51
		c0-0.547-0.343-0.679-0.563-0.679c-0.263,0-0.448,0.148-0.526,0.301h-0.007l-0.017-0.264h-0.256C11.735,5,11.738,5.136,11.738,5.3
		V6.461z M11.113,4.239c-0.105,0-0.181,0.079-0.181,0.18c0,0.1,0.073,0.179,0.174,0.179c0.115,0,0.188-0.079,0.186-0.179
		C11.292,4.316,11.221,4.239,11.113,4.239z M11.257,6.461V4.867h-0.289v1.594H11.257z M10.221,5.783l-0.023,0.155
		c-0.063,0.184-0.224,0.296-0.401,0.296c-0.313,0-0.472-0.26-0.472-0.572c0-0.369,0.197-0.603,0.475-0.603
		c0.21,0,0.352,0.139,0.404,0.305l0.016,0.132L10.221,5.783L10.221,5.783z M10.267,4.867l-0.014,0.241h-0.006
		c-0.069-0.131-0.221-0.277-0.498-0.277c-0.366,0-0.718,0.307-0.718,0.847c0,0.441,0.282,0.778,0.679,0.778
		c0.247,0,0.417-0.119,0.506-0.266h0.005v0.177c0,0.403-0.216,0.557-0.513,0.557c-0.197,0-0.362-0.06-0.467-0.125l-0.073,0.22
		c0.129,0.086,0.341,0.132,0.53,0.132c0.201,0,0.426-0.045,0.581-0.191c0.154-0.138,0.227-0.362,0.227-0.728V5.308
		c0-0.195,0.007-0.322,0.014-0.438h-0.253V4.867z M8.008,5.048c0.342,0,0.478,0.342,0.478,0.613c0,0.359-0.207,0.619-0.484,0.619
		c-0.282,0-0.483-0.263-0.483-0.612C7.517,5.363,7.667,5.048,8.008,5.048z M8.014,4.83c-0.44,0-0.789,0.313-0.789,0.847
		c0,0.505,0.333,0.82,0.765,0.82c0.385,0,0.793-0.257,0.793-0.847C8.782,5.163,8.472,4.83,8.014,4.83z M5.842,6.461h1.234V6.22
		H6.128V4.24H5.842V6.461z"/>
	<path fill="#FFFFFF" d="M18.021,8.857l-0.013,0.124c-0.054,0.219-0.23,0.347-0.425,0.347c-0.313,0-0.472-0.268-0.472-0.59
		c0-0.353,0.179-0.615,0.478-0.615c0.217,0,0.375,0.15,0.418,0.335l0.013,0.122V8.857z M18.021,7.188V8.14h-0.007
		c-0.072-0.13-0.237-0.245-0.48-0.245c-0.388,0-0.718,0.326-0.714,0.857c0,0.484,0.296,0.809,0.682,0.809
		c0.26,0,0.454-0.136,0.543-0.312h0.007l0.014,0.276h0.26c-0.009-0.108-0.013-0.27-0.013-0.41V7.188H18.021z M15.891,9.525h0.286
		V8.677l0.013-0.138c0.04-0.217,0.184-0.371,0.388-0.371l0.099,0.011V7.905l-0.082-0.011c-0.194,0-0.369,0.136-0.441,0.35H16.14
		l-0.009-0.313h-0.254c0.01,0.148,0.014,0.311,0.014,0.498V9.525z M14.751,8.113c0.342,0,0.478,0.342,0.478,0.612
		c0,0.359-0.208,0.619-0.484,0.619c-0.282,0-0.483-0.263-0.483-0.612C14.261,8.429,14.409,8.113,14.751,8.113z M14.757,7.896
		c-0.441,0-0.79,0.313-0.79,0.847c0,0.505,0.333,0.82,0.765,0.82c0.386,0,0.794-0.258,0.794-0.847
		C15.525,8.229,15.215,7.896,14.757,7.896z M11.51,7.932l0.481,1.594h0.264l0.257-0.757c0.057-0.172,0.106-0.336,0.146-0.526h0.007
		c0.04,0.187,0.085,0.346,0.141,0.523l0.244,0.76h0.264l0.514-1.594h-0.286l-0.228,0.801c-0.052,0.188-0.096,0.355-0.122,0.517
		h-0.01c-0.037-0.161-0.082-0.329-0.142-0.521l-0.247-0.798H12.55L12.29,8.744c-0.052,0.17-0.105,0.344-0.141,0.505h-0.009
		c-0.029-0.164-0.073-0.331-0.118-0.507L11.81,7.932H11.51L11.51,7.932z M10.277,9.45c0.112,0.065,0.273,0.108,0.448,0.108
		c0.378,0,0.596-0.198,0.596-0.478c0-0.237-0.141-0.376-0.418-0.481c-0.207-0.079-0.302-0.14-0.302-0.27
		c0-0.119,0.095-0.219,0.265-0.219c0.148,0,0.264,0.054,0.327,0.094l0.072-0.211c-0.089-0.053-0.23-0.102-0.392-0.102
		c-0.342,0-0.549,0.213-0.549,0.469c0,0.188,0.135,0.348,0.421,0.45c0.214,0.079,0.297,0.155,0.297,0.293
		c0,0.134-0.1,0.237-0.31,0.237c-0.145,0-0.296-0.061-0.382-0.113L10.277,9.45z M8.972,9.45C9.084,9.516,9.246,9.559,9.42,9.559
		c0.379,0,0.596-0.198,0.596-0.478c0-0.237-0.141-0.376-0.417-0.481C9.392,8.521,9.295,8.46,9.295,8.33
		c0-0.119,0.097-0.219,0.267-0.219c0.148,0,0.263,0.054,0.326,0.094L9.96,7.994C9.872,7.941,9.73,7.893,9.569,7.893
		c-0.343,0-0.55,0.213-0.55,0.469c0,0.188,0.136,0.348,0.422,0.45c0.214,0.079,0.297,0.155,0.297,0.293
		c0,0.134-0.1,0.237-0.309,0.237c-0.145,0-0.297-0.061-0.383-0.113L8.972,9.45z M8.337,8.988L8.321,9.082
		C8.275,9.217,8.143,9.348,7.937,9.348c-0.148,0-0.274-0.089-0.274-0.276c0-0.309,0.359-0.364,0.675-0.358V8.988z M8.643,9.525
		C8.625,9.416,8.618,9.281,8.618,9.143V8.548c0-0.319-0.119-0.653-0.606-0.653c-0.202,0-0.392,0.057-0.524,0.143l0.066,0.189
		c0.113-0.072,0.268-0.119,0.416-0.119c0.326,0,0.363,0.238,0.363,0.369V8.51C7.716,8.506,7.375,8.716,7.375,9.101
		c0,0.23,0.164,0.458,0.486,0.458c0.228,0,0.399-0.111,0.487-0.235h0.01l0.022,0.2h0.263V9.525z M6.128,7.541
		c0.049-0.015,0.146-0.023,0.27-0.023c0.316,0,0.523,0.143,0.523,0.434c0,0.306-0.211,0.474-0.556,0.474
		c-0.096,0-0.176-0.007-0.237-0.021V7.541z M5.842,9.525h0.286V8.637l0.23,0.02c0.279,0,0.526-0.082,0.678-0.242
		C7.149,8.299,7.208,8.14,7.208,7.939c0-0.196-0.072-0.359-0.194-0.463C6.882,7.358,6.675,7.293,6.391,7.293
		c-0.229,0-0.411,0.02-0.549,0.043V9.525z"/>
</g>
<g>
	<path fill="#808285" d="M31.23,4.861c0.022-0.201,0.151-0.471,0.445-0.471c0.326,0,0.406,0.287,0.402,0.471H31.23z M32.348,5.07
		l0.01-0.136c0-0.294-0.139-0.752-0.659-0.752c-0.467,0-0.749,0.38-0.749,0.861c0,0.482,0.294,0.807,0.786,0.807
		c0.254,0,0.429-0.054,0.532-0.1l-0.05-0.208c-0.108,0.045-0.234,0.083-0.442,0.083c-0.291,0-0.544-0.163-0.547-0.555H32.348z
		 M30.285,5.815h0.291V3.471h-0.291V5.815z M28.875,5.815V4.438h0.641v1.377h0.287V4.217h-0.928V4.139
		c0-0.256,0.089-0.469,0.396-0.469c0.142,0,0.267,0.042,0.337,0.092l0.082-0.221c-0.082-0.06-0.258-0.105-0.406-0.105
		c-0.45,0-0.697,0.274-0.697,0.698v0.085h-0.225V4.44h0.225v1.377h0.287V5.815z M27.415,4.398c0.344,0,0.479,0.343,0.479,0.614
		c0,0.36-0.208,0.622-0.485,0.622c-0.284,0-0.485-0.265-0.485-0.614C26.924,4.716,27.073,4.398,27.415,4.398z M27.421,4.182
		c-0.442,0-0.792,0.313-0.792,0.849c0,0.505,0.334,0.822,0.767,0.822c0.386,0,0.795-0.258,0.795-0.848
		C28.191,4.515,27.88,4.182,27.421,4.182z M25.698,5.815h0.288V4.964l0.013-0.137c0.04-0.218,0.184-0.374,0.39-0.374l0.098,0.011
		V4.19l-0.082-0.01c-0.195,0-0.37,0.136-0.442,0.349h-0.014l-0.01-0.313h-0.254c0.01,0.148,0.014,0.31,0.014,0.499L25.698,5.815
		L25.698,5.815z M24.292,3.825c0.049-0.014,0.146-0.023,0.271-0.023c0.316,0,0.524,0.142,0.524,0.436
		c0,0.308-0.211,0.476-0.558,0.476c-0.097,0-0.176-0.007-0.238-0.023V3.825z M24.005,5.815h0.287V4.924l0.231,0.021
		c0.28,0,0.528-0.083,0.68-0.245c0.113-0.116,0.172-0.274,0.172-0.476c0-0.198-0.073-0.36-0.195-0.466
		c-0.132-0.118-0.34-0.184-0.625-0.184c-0.23,0-0.412,0.02-0.55,0.042V5.815z"/>
	<path fill="#808285" d="M33.822,8.732c0.111,0.065,0.273,0.108,0.449,0.108c0.381,0,0.597-0.198,0.597-0.479
		c0-0.237-0.142-0.376-0.419-0.481c-0.209-0.079-0.303-0.14-0.303-0.271c0-0.119,0.094-0.218,0.265-0.218
		c0.147,0,0.264,0.054,0.326,0.094l0.073-0.212c-0.09-0.053-0.23-0.101-0.394-0.101c-0.343,0-0.55,0.212-0.55,0.469
		c0,0.191,0.137,0.35,0.423,0.453c0.216,0.079,0.298,0.154,0.298,0.293c0,0.134-0.099,0.239-0.311,0.239
		c-0.143,0-0.297-0.062-0.384-0.116L33.822,8.732z M33.165,8.127l-0.022,0.156C33.08,8.467,32.919,8.58,32.74,8.58
		c-0.313,0-0.472-0.262-0.472-0.575c0-0.369,0.198-0.604,0.476-0.604c0.211,0,0.352,0.141,0.406,0.306l0.017,0.133L33.165,8.127
		L33.165,8.127z M33.21,7.21l-0.013,0.241H33.19c-0.068-0.134-0.223-0.277-0.499-0.277c-0.365,0-0.72,0.305-0.72,0.848
		c0,0.443,0.284,0.781,0.681,0.781c0.248,0,0.42-0.12,0.508-0.268h0.007v0.18c0,0.403-0.22,0.558-0.515,0.558
		c-0.197,0-0.362-0.061-0.469-0.127l-0.072,0.223C32.24,9.453,32.451,9.5,32.642,9.5c0.203,0,0.427-0.047,0.583-0.191
		c0.154-0.139,0.227-0.362,0.227-0.73V7.651c0-0.194,0.008-0.324,0.015-0.439H33.21V7.21z M30.255,8.808h0.29V7.847l0.021-0.136
		c0.05-0.162,0.199-0.298,0.389-0.298c0.274,0,0.37,0.216,0.37,0.473v0.92h0.292V7.853c0-0.548-0.344-0.681-0.564-0.681
		c-0.264,0-0.449,0.15-0.528,0.302h-0.007L30.5,7.21h-0.258c0.01,0.134,0.013,0.267,0.013,0.433L30.255,8.808L30.255,8.808z
		 M29.628,6.58c-0.106,0-0.183,0.079-0.183,0.181c0,0.101,0.073,0.18,0.175,0.18c0.115,0,0.188-0.08,0.185-0.18
		C29.806,6.658,29.736,6.58,29.628,6.58z M29.774,8.808V7.21h-0.291v1.598H29.774z M28.456,6.826V7.21h-0.247v0.223h0.247v0.871
		c0,0.187,0.029,0.331,0.113,0.417c0.068,0.079,0.178,0.122,0.313,0.122c0.113,0,0.203-0.018,0.259-0.04l-0.015-0.219l-0.168,0.021
		c-0.162,0-0.218-0.113-0.218-0.31V7.432h0.417V7.208h-0.417v-0.46L28.456,6.826z M27.363,6.826V7.21h-0.248v0.223h0.248v0.871
		c0,0.187,0.03,0.331,0.112,0.417c0.069,0.079,0.179,0.122,0.313,0.122c0.113,0,0.202-0.018,0.259-0.04l-0.015-0.219l-0.168,0.021
		c-0.162,0-0.218-0.113-0.218-0.31V7.432h0.417V7.208h-0.417v-0.46L27.363,6.826z M25.808,7.854
		c0.024-0.203,0.153-0.472,0.445-0.472c0.328,0,0.406,0.288,0.403,0.472H25.808z M26.928,8.061l0.009-0.135
		c0-0.295-0.138-0.752-0.659-0.752c-0.466,0-0.75,0.38-0.75,0.861c0,0.482,0.295,0.807,0.787,0.807c0.254,0,0.429-0.053,0.531-0.101
		l-0.049-0.206c-0.109,0.045-0.235,0.081-0.443,0.081c-0.291,0-0.542-0.161-0.549-0.556H26.928z M23.893,8.7
		c0.119,0.077,0.354,0.142,0.567,0.142c0.525,0,0.779-0.299,0.779-0.641c0-0.327-0.191-0.508-0.567-0.654
		c-0.307-0.119-0.443-0.221-0.443-0.429c0-0.151,0.116-0.334,0.42-0.334c0.202,0,0.349,0.066,0.422,0.104l0.08-0.232
		C25.053,6.6,24.888,6.546,24.66,6.546c-0.432,0-0.72,0.26-0.72,0.605c0,0.313,0.225,0.502,0.588,0.63
		c0.301,0.115,0.419,0.234,0.419,0.441c0,0.225-0.171,0.382-0.466,0.382c-0.198,0-0.386-0.065-0.515-0.146L23.893,8.7z"/>
</g>
<g>
	<path fill="#808285" d="M47.465,2.813v0.383h-0.249v0.223h0.249v0.872c0,0.188,0.03,0.33,0.112,0.418
		c0.07,0.078,0.178,0.121,0.314,0.121c0.112,0,0.201-0.017,0.259-0.04l-0.013-0.218l-0.17,0.021c-0.161,0-0.219-0.113-0.219-0.312
		V3.419h0.416V3.195H47.75V2.737L47.465,2.813z M46.239,4.798h0.286V3.943l0.014-0.136c0.04-0.218,0.187-0.374,0.392-0.374
		l0.099,0.011V3.169L46.947,3.16c-0.194,0-0.37,0.136-0.444,0.35H46.49l-0.01-0.314h-0.254c0.009,0.149,0.013,0.312,0.013,0.5V4.798
		z M45.095,3.379c0.344,0,0.479,0.344,0.479,0.615c0,0.36-0.208,0.622-0.485,0.622c-0.285,0-0.486-0.264-0.486-0.615
		C44.602,3.695,44.75,3.379,45.095,3.379z M45.101,3.16c-0.443,0-0.793,0.314-0.793,0.85c0,0.507,0.334,0.825,0.769,0.825
		c0.386,0,0.796-0.259,0.796-0.851C45.873,3.494,45.561,3.16,45.101,3.16z M42.83,3.872l0.021-0.119
		c0.058-0.22,0.241-0.361,0.439-0.361c0.308,0,0.477,0.274,0.477,0.595c0,0.367-0.18,0.619-0.486,0.619
		c-0.209,0-0.384-0.141-0.437-0.342l-0.014-0.12V3.872z M42.541,5.453h0.289V4.582h0.006c0.098,0.16,0.281,0.252,0.494,0.252
		c0.377,0,0.727-0.285,0.727-0.86c0-0.486-0.29-0.814-0.677-0.814c-0.263,0-0.45,0.116-0.569,0.311h-0.007l-0.013-0.275h-0.265
		c0.009,0.153,0.015,0.318,0.015,0.523V5.453z M40.809,4.688c0.118,0.079,0.353,0.142,0.568,0.142c0.526,0,0.781-0.299,0.781-0.642
		c0-0.328-0.191-0.51-0.569-0.655c-0.307-0.119-0.442-0.223-0.442-0.43c0-0.153,0.114-0.335,0.421-0.335
		c0.203,0,0.35,0.066,0.424,0.105l0.079-0.235c-0.102-0.055-0.267-0.107-0.495-0.107c-0.433,0-0.721,0.258-0.721,0.605
		c0,0.314,0.224,0.502,0.588,0.631c0.302,0.115,0.421,0.234,0.421,0.442c0,0.225-0.172,0.381-0.466,0.381
		c-0.198,0-0.385-0.066-0.514-0.146L40.809,4.688z"/>
	<path fill="#808285" d="M53.586,8.002c0.112,0.065,0.275,0.109,0.45,0.109c0.382,0,0.6-0.199,0.6-0.482
		c0-0.237-0.142-0.375-0.422-0.481c-0.207-0.08-0.304-0.141-0.304-0.271c0-0.12,0.097-0.219,0.267-0.219
		c0.148,0,0.264,0.054,0.327,0.094l0.073-0.211c-0.091-0.053-0.232-0.101-0.395-0.101c-0.344,0-0.551,0.212-0.551,0.47
		c0,0.191,0.137,0.35,0.424,0.453c0.216,0.08,0.299,0.156,0.299,0.295c0,0.133-0.101,0.238-0.311,0.238
		c-0.145,0-0.299-0.061-0.385-0.115L53.586,8.002z M51.865,8.078h0.291V7.116l0.02-0.136c0.052-0.164,0.199-0.299,0.391-0.299
		c0.275,0,0.371,0.216,0.371,0.474v0.923h0.291V7.121c0-0.549-0.344-0.682-0.566-0.682c-0.263,0-0.45,0.149-0.527,0.302h-0.008
		l-0.018-0.265h-0.258c0.01,0.133,0.014,0.269,0.014,0.434V8.078z M50.719,6.659c0.344,0,0.48,0.344,0.48,0.615
		c0,0.36-0.21,0.622-0.486,0.622c-0.284,0-0.485-0.265-0.485-0.616C50.228,6.976,50.375,6.659,50.719,6.659z M50.727,6.439
		c-0.443,0-0.794,0.314-0.794,0.85c0,0.507,0.334,0.824,0.769,0.824c0.386,0,0.796-0.259,0.796-0.851
		C51.498,6.775,51.187,6.439,50.727,6.439z M49.419,5.845c-0.105,0-0.183,0.08-0.183,0.182c0,0.101,0.073,0.18,0.176,0.18
		c0.115,0,0.188-0.08,0.185-0.18C49.599,5.924,49.529,5.845,49.419,5.845z M49.565,8.078V6.477h-0.289v1.602H49.565z M48.246,6.093
		v0.383h-0.249V6.7h0.249v0.873c0,0.188,0.029,0.33,0.111,0.418c0.07,0.077,0.18,0.121,0.314,0.121c0.112,0,0.201-0.017,0.26-0.04
		l-0.015-0.218l-0.169,0.021c-0.162,0-0.219-0.113-0.219-0.312V6.7h0.416V6.477h-0.416V6.018L48.246,6.093z M47.747,7.8
		c-0.083,0.036-0.192,0.08-0.357,0.08c-0.317,0-0.556-0.229-0.556-0.599c0-0.334,0.199-0.605,0.566-0.605
		c0.158,0,0.267,0.037,0.339,0.077l0.065-0.224c-0.08-0.04-0.23-0.084-0.404-0.084c-0.521,0-0.861,0.357-0.861,0.851
		c0,0.49,0.315,0.816,0.798,0.816c0.214,0,0.384-0.054,0.459-0.094L47.747,7.8z M45.165,7.121c0.022-0.202,0.151-0.472,0.446-0.472
		c0.326,0,0.406,0.287,0.402,0.472H45.165z M46.285,7.329l0.01-0.136c0-0.295-0.139-0.754-0.661-0.754
		c-0.468,0-0.75,0.382-0.75,0.863c0,0.484,0.295,0.809,0.788,0.809c0.255,0,0.429-0.054,0.532-0.101l-0.05-0.208
		c-0.108,0.046-0.234,0.083-0.443,0.083c-0.29,0-0.545-0.163-0.546-0.557H46.285z M44.218,8.078h0.291V5.729h-0.291V8.078z
		 M42.726,7.121c0.023-0.202,0.152-0.472,0.446-0.472c0.329,0,0.406,0.287,0.404,0.472H42.726z M43.848,7.329l0.01-0.136
		c0-0.295-0.139-0.754-0.661-0.754c-0.467,0-0.75,0.382-0.75,0.863c0,0.484,0.295,0.809,0.787,0.809
		c0.255,0,0.431-0.054,0.533-0.101l-0.05-0.208c-0.11,0.046-0.235,0.083-0.444,0.083c-0.29,0-0.544-0.163-0.549-0.557H43.848z
		 M40.809,7.968c0.118,0.079,0.353,0.142,0.568,0.142c0.526,0,0.781-0.298,0.781-0.641c0-0.328-0.191-0.51-0.569-0.656
		c-0.307-0.12-0.442-0.222-0.442-0.429c0-0.153,0.114-0.334,0.421-0.334c0.203,0,0.35,0.065,0.424,0.104l0.079-0.234
		c-0.099-0.057-0.263-0.109-0.493-0.109c-0.433,0-0.721,0.258-0.721,0.605c0,0.314,0.225,0.502,0.589,0.63
		c0.301,0.116,0.42,0.235,0.42,0.443c0,0.225-0.172,0.381-0.466,0.381c-0.2,0-0.386-0.065-0.516-0.146L40.809,7.968z"/>
	<path fill="#808285" d="M51.617,10.998c0.113,0.065,0.274,0.109,0.449,0.109c0.381,0,0.6-0.199,0.6-0.48
		c0-0.237-0.143-0.376-0.423-0.482c-0.208-0.078-0.304-0.139-0.304-0.271c0-0.118,0.096-0.218,0.268-0.218
		c0.147,0,0.264,0.053,0.326,0.093l0.074-0.212c-0.091-0.054-0.232-0.102-0.396-0.102c-0.343,0-0.55,0.213-0.55,0.47
		c0,0.191,0.135,0.351,0.424,0.454c0.216,0.079,0.299,0.155,0.299,0.294c0,0.134-0.102,0.238-0.312,0.238
		c-0.144,0-0.298-0.06-0.383-0.113L51.617,10.998z M50.947,11.073h0.293V8.725h-0.293V11.073z M50.32,8.841
		c-0.105,0-0.183,0.079-0.183,0.182c0,0.101,0.072,0.181,0.176,0.181c0.116,0,0.188-0.08,0.185-0.181
		C50.499,8.92,50.429,8.841,50.32,8.841z M50.465,11.073v-1.6h-0.291v1.601L50.465,11.073L50.465,11.073z M49.422,10.534
		l-0.017,0.094c-0.047,0.137-0.179,0.267-0.386,0.267c-0.149,0-0.274-0.089-0.274-0.277c0-0.309,0.361-0.366,0.677-0.36V10.534z
		 M49.73,11.073c-0.019-0.108-0.026-0.245-0.026-0.385v-0.597c0-0.321-0.116-0.657-0.607-0.657c-0.201,0-0.392,0.06-0.526,0.143
		l0.066,0.189c0.112-0.071,0.268-0.117,0.416-0.117c0.328,0,0.365,0.237,0.365,0.371v0.031c-0.619-0.002-0.962,0.209-0.962,0.595
		c0,0.232,0.166,0.461,0.489,0.461c0.228,0,0.399-0.111,0.49-0.236h0.011l0.021,0.2h0.263V11.073z M47.55,9.089v0.385h-0.246v0.222
		h0.246v0.873c0,0.188,0.031,0.332,0.113,0.418c0.069,0.079,0.181,0.121,0.314,0.121c0.111,0,0.201-0.017,0.258-0.04l-0.013-0.218
		l-0.169,0.021c-0.162,0-0.219-0.112-0.219-0.311V9.695h0.416V9.474h-0.416v-0.46L47.55,9.089z M45.995,10.117
		c0.022-0.201,0.151-0.472,0.446-0.472c0.328,0,0.406,0.286,0.403,0.472H45.995z M47.116,10.326l0.01-0.136
		c0-0.294-0.139-0.755-0.663-0.755c-0.466,0-0.75,0.381-0.75,0.865c0,0.482,0.296,0.807,0.788,0.807c0.256,0,0.43-0.055,0.534-0.1
		l-0.05-0.209c-0.11,0.047-0.235,0.083-0.444,0.083c-0.291,0-0.544-0.163-0.549-0.556H47.116z M43.912,9.086
		c0.075-0.018,0.187-0.029,0.336-0.029c0.61,0,0.907,0.334,0.904,0.86c0,0.602-0.334,0.945-0.95,0.945
		c-0.112,0-0.22-0.002-0.29-0.016V9.086z M43.623,11.067c0.146,0.018,0.317,0.024,0.522,0.024c0.434,0,0.778-0.109,0.986-0.32
		c0.21-0.205,0.319-0.502,0.319-0.867c0-0.36-0.115-0.619-0.311-0.8c-0.196-0.183-0.491-0.278-0.906-0.278
		c-0.226,0-0.436,0.021-0.611,0.049V11.067z M41.568,9.008c0.183,0,0.26,0.151,0.26,0.287c0,0.188-0.146,0.307-0.37,0.436
		c-0.099-0.119-0.169-0.24-0.169-0.4C41.289,9.159,41.383,9.008,41.568,9.008z M41.505,10.892c-0.268,0-0.456-0.194-0.456-0.45
		c0-0.234,0.169-0.376,0.287-0.453c0.249,0.285,0.497,0.555,0.629,0.701C41.861,10.806,41.699,10.892,41.505,10.892z M42.66,11.073
		c-0.134-0.143-0.246-0.267-0.366-0.392c0.165-0.196,0.261-0.475,0.321-0.825h-0.266c-0.041,0.28-0.111,0.497-0.215,0.652
		c-0.143-0.159-0.353-0.403-0.544-0.622V9.875c0.354-0.176,0.489-0.36,0.489-0.594c0-0.287-0.214-0.473-0.492-0.473
		c-0.37,0-0.564,0.277-0.564,0.547c0,0.159,0.068,0.321,0.184,0.467v0.01c-0.256,0.14-0.437,0.345-0.437,0.651
		c0,0.335,0.253,0.628,0.686,0.628c0.245,0,0.459-0.078,0.651-0.258c0.086,0.095,0.145,0.156,0.209,0.22H42.66L42.66,11.073z"/>
</g>
</svg>
