<?xml version="1.0" encoding="utf-8"?>
<!-- Generator: Adobe Illustrator 16.0.0, SVG Export Plug-In . SVG Version: 6.00 Build 0)  -->
<!DOCTYPE svg PUBLIC "-//W3C//DTD SVG 1.1//EN" "http://www.w3.org/Graphics/SVG/1.1/DTD/svg11.dtd">
<svg version="1.1" id="Layer_1" xmlns="http://www.w3.org/2000/svg" xmlns:xlink="http://www.w3.org/1999/xlink" x="0px" y="0px"
	 width="63.126px" height="14px" viewBox="65 -15.639 63.126 14" enable-background="new 65 -15.639 63.126 14"
	 xml:space="preserve">
<g>
	<g>
		<path fill-rule="evenodd" clip-rule="evenodd" fill="#FFFFFF" d="M108.023-14.047c0.412,0,11.064,0.002,11.439,0.002
			c0.783,0,1.566,0.003,2.35-0.002c0.123-0.001,0.199,0.034,0.268,0.139c1.168,1.757,2.336,3.512,3.51,5.264
			c0.076,0.116,0.074,0.194-0.002,0.309c-1.172,1.752-2.34,3.508-3.516,5.26c-0.043,0.066-0.145,0.137-0.221,0.137
			c-1.145,0.01-17.33-0.004-15.15-0.004c0.045-0.07,5.088-5.415,4.998-5.548C110.542-10.215,108.082-13.958,108.023-14.047z"/>
		<path fill-rule="evenodd" clip-rule="evenodd" fill="#FFFFFF" d="M104.513-14.045c0.412,0,0.785,0,1.162,0
			c0.781,0,1.566,0.003,2.348-0.002c0.125-0.001,0.199,0.034,0.27,0.139c1.166,1.757,2.336,3.512,3.508,5.264
			c0.078,0.116,0.076,0.194,0,0.309c-1.174,1.752-2.34,3.508-3.516,5.26c-0.045,0.066-0.146,0.137-0.221,0.137
			c-1.146,0.01-2.293,0.008-3.438,0.006c-0.027,0-0.051-0.004-0.105-0.01c0.043-0.07,0.078-0.129,0.115-0.186
			c1.152-1.729,2.303-3.457,3.459-5.183c0.09-0.133,0.092-0.223,0-0.355c-1.154-1.725-2.305-3.453-3.457-5.182
			C104.603-13.9,104.57-13.955,104.513-14.045z"/>
	</g>
	<g>
		<g>
			<path fill-rule="evenodd" clip-rule="evenodd" fill="#245E30" d="M106.546-14.98c0.48,0,12.92,0.004,13.359,0.004
				c0.914,0,1.828,0.003,2.744-0.004c0.143,0,0.23,0.04,0.313,0.163c1.361,2.052,2.729,4.102,4.098,6.148
				c0.092,0.135,0.088,0.226-0.002,0.361c-1.369,2.047-2.732,4.098-4.104,6.143c-0.053,0.078-0.172,0.158-0.26,0.158
				c-1.338,0.012-29.83,0.002-17.693-0.004c0.051-0.084,5.941-6.324,5.836-6.48C109.488-10.505,106.613-14.875,106.546-14.98z"/>
			<path fill-rule="evenodd" clip-rule="evenodd" fill="#245E30" d="M102.447-14.977c0.479,0,0.918,0,1.355,0
				c0.914,0,1.83,0.003,2.744-0.004c0.145,0,0.23,0.04,0.313,0.163c1.363,2.052,2.727,4.102,4.098,6.148
				c0.09,0.135,0.088,0.226,0,0.361c-1.371,2.047-2.734,4.098-4.105,6.143c-0.053,0.078-0.172,0.158-0.26,0.158
				c-1.336,0.012-2.676,0.008-4.014,0.008c-0.029,0-0.059-0.006-0.125-0.012c0.053-0.084,0.094-0.152,0.137-0.217
				c1.344-2.018,2.689-4.037,4.037-6.053c0.105-0.155,0.107-0.259,0.004-0.415c-1.35-2.015-2.693-4.033-4.037-6.051
				C102.552-14.808,102.513-14.872,102.447-14.977z"/>
		</g>
		<g>
			<path fill-rule="evenodd" clip-rule="evenodd" fill="#FFFFFF" d="M106.978-14.705c0.459,0,12.371,0.002,12.791,0.002
				c0.873,0,1.75,0.003,2.625-0.002c0.139-0.001,0.223,0.038,0.301,0.156c1.303,1.964,2.611,3.926,3.922,5.886
				c0.088,0.129,0.086,0.216,0,0.344c-1.313,1.962-2.617,3.925-3.932,5.884c-0.049,0.072-0.162,0.15-0.246,0.15
				c-1.281,0.012-19.379-0.006-16.941-0.006c0.051-0.078,5.689-6.053,5.59-6.202C109.794-10.42,107.042-14.604,106.978-14.705z"/>
			<path fill-rule="evenodd" clip-rule="evenodd" fill="#FFFFFF" d="M103.054-14.702c0.459,0,0.879,0,1.297,0
				c0.875,0,1.752,0.003,2.627-0.002c0.137-0.001,0.221,0.038,0.299,0.156c1.305,1.964,2.611,3.926,3.924,5.886
				c0.086,0.129,0.084,0.216,0,0.344c-1.313,1.962-2.617,3.925-3.932,5.884c-0.049,0.072-0.162,0.15-0.246,0.15
				c-1.281,0.012-2.563,0.008-3.844,0.008c-0.029,0-0.057-0.006-0.119-0.014c0.049-0.078,0.088-0.143,0.131-0.207
				c1.287-1.93,2.574-3.863,3.865-5.794c0.1-0.147,0.104-0.248,0.004-0.397c-1.295-1.928-2.58-3.86-3.865-5.792
				C103.156-14.541,103.117-14.602,103.054-14.702z"/>
		</g>
	</g>
	<g>
		<g>
			<path fill-rule="evenodd" clip-rule="evenodd" fill="#245E30" d="M107.294-14.449c0.443,0,11.953,0.003,12.357,0.003
				c0.848,0,1.693,0.003,2.541-0.003c0.133,0,0.213,0.037,0.287,0.151c1.262,1.898,2.525,3.794,3.793,5.688
				c0.084,0.125,0.082,0.208-0.002,0.333c-1.268,1.894-2.527,3.792-3.797,5.683c-0.049,0.074-0.158,0.148-0.24,0.148
				c-1.238,0.01-27.596,0.002-16.369-0.004c0.049-0.078,5.498-5.852,5.4-5.995C110.015-10.309,107.355-14.352,107.294-14.449z"/>
			<path fill-rule="evenodd" clip-rule="evenodd" fill="#245E30" d="M103.501-14.446c0.443,0,0.85,0,1.254,0
				c0.846,0,1.693,0.003,2.539-0.003c0.133,0,0.215,0.037,0.289,0.151c1.26,1.898,2.523,3.794,3.791,5.688
				c0.084,0.125,0.082,0.208,0,0.333c-1.27,1.894-2.531,3.792-3.799,5.683c-0.049,0.074-0.156,0.148-0.24,0.148
				c-1.236,0.01-2.475,0.006-3.713,0.006c-0.027,0-0.055-0.006-0.113-0.01c0.047-0.078,0.086-0.141,0.125-0.203
				c1.244-1.865,2.486-3.732,3.736-5.599c0.096-0.142,0.098-0.239,0.002-0.383c-1.248-1.864-2.492-3.732-3.734-5.599
				C103.597-14.291,103.564-14.349,103.501-14.446z"/>
		</g>
		<g>
			<path fill-rule="evenodd" clip-rule="evenodd" fill="#245E30" d="M107.693-14.194c0.426,0,11.443,0.002,11.832,0.002
				c0.811,0,1.621,0.002,2.432-0.002c0.127-0.001,0.205,0.035,0.277,0.144c1.205,1.817,2.416,3.632,3.629,5.445
				c0.08,0.12,0.078,0.2-0.002,0.32c-1.213,1.813-2.42,3.628-3.635,5.44c-0.047,0.068-0.152,0.141-0.23,0.143
				c-1.184,0.008-17.926-0.008-15.67-0.008c0.047-0.072,5.262-5.598,5.17-5.738C110.298-10.231,107.751-14.102,107.693-14.194z"/>
			<path fill-rule="evenodd" clip-rule="evenodd" fill="#245E30" d="M104.064-14.191c0.424,0,0.813,0,1.201,0
				c0.809,0,1.619,0.002,2.428-0.002c0.129-0.001,0.205,0.035,0.279,0.144c1.205,1.817,2.416,3.632,3.629,5.445
				c0.078,0.12,0.078,0.2-0.002,0.32c-1.213,1.813-2.42,3.628-3.635,5.44c-0.047,0.068-0.152,0.141-0.23,0.143
				c-1.184,0.008-2.369,0.006-3.555,0.004c-0.025,0-0.053-0.004-0.109-0.012c0.047-0.072,0.08-0.133,0.121-0.191
				c1.191-1.787,2.381-3.574,3.576-5.359c0.092-0.137,0.094-0.229,0.002-0.369c-1.195-1.783-2.387-3.571-3.576-5.358
				C104.158-14.042,104.123-14.099,104.064-14.191z"/>
		</g>
	</g>
</g>
<g>
	<g>
		<g>
			<path fill-rule="evenodd" clip-rule="evenodd" fill="#245E30" d="M88.025-14.979c0.48,0,12.922,0.004,13.359,0.004
				c0.916,0,1.83,0.003,2.746-0.004c0.143,0,0.23,0.04,0.313,0.163c1.361,2.052,2.727,4.102,4.098,6.148
				c0.09,0.135,0.086,0.226-0.002,0.361c-1.369,2.046-2.734,4.097-4.104,6.142c-0.055,0.079-0.172,0.159-0.262,0.159
				c-1.336,0.011-29.83,0.002-17.693-0.005c0.053-0.083,5.941-6.323,5.838-6.479C90.968-10.504,88.091-14.874,88.025-14.979z"/>
			<path fill-rule="evenodd" clip-rule="evenodd" fill="#245E30" d="M83.925-14.976c0.48,0,0.918,0,1.357,0
				c0.912,0,1.828,0.003,2.742-0.004c0.145,0,0.232,0.04,0.313,0.163c1.363,2.052,2.729,4.102,4.1,6.148
				c0.09,0.135,0.088,0.226-0.002,0.361c-1.371,2.046-2.732,4.097-4.105,6.142c-0.051,0.079-0.17,0.159-0.258,0.159
				c-1.338,0.011-2.678,0.008-4.016,0.008c-0.029,0-0.059-0.006-0.123-0.013c0.051-0.083,0.092-0.152,0.135-0.216
				c1.346-2.019,2.689-4.037,4.039-6.053c0.104-0.155,0.107-0.259,0.004-0.415c-1.352-2.015-2.695-4.033-4.039-6.051
				C84.031-14.807,83.992-14.871,83.925-14.976z"/>
		</g>
		<g>
			<path fill-rule="evenodd" clip-rule="evenodd" fill="#FFFFFF" d="M88.457-14.704c0.461,0,12.371,0.002,12.791,0.002
				c0.875,0,1.75,0.003,2.625-0.002c0.141-0.001,0.223,0.038,0.301,0.156c1.305,1.964,2.613,3.926,3.924,5.886
				c0.086,0.129,0.086,0.216-0.002,0.344c-1.311,1.96-2.617,3.923-3.93,5.882c-0.049,0.073-0.162,0.15-0.248,0.151
				C102.638-2.273,84.541-2.29,86.978-2.29c0.051-0.079,5.689-6.052,5.588-6.202C91.273-10.419,88.521-14.604,88.457-14.704z"/>
			<path fill-rule="evenodd" clip-rule="evenodd" fill="#FFFFFF" d="M84.533-14.701c0.459,0,0.879,0,1.297,0
				c0.877,0,1.752,0.003,2.627-0.002c0.139-0.001,0.223,0.038,0.301,0.156c1.305,1.964,2.611,3.926,3.924,5.886
				c0.086,0.129,0.084,0.216-0.002,0.344c-1.311,1.96-2.617,3.923-3.93,5.882c-0.051,0.073-0.164,0.15-0.248,0.151
				c-1.281,0.011-2.561,0.008-3.842,0.007c-0.029,0-0.057-0.005-0.119-0.013c0.049-0.079,0.088-0.144,0.129-0.207
				c1.287-1.931,2.574-3.864,3.867-5.794c0.098-0.147,0.104-0.248,0.002-0.397c-1.293-1.928-2.578-3.86-3.865-5.792
				C84.634-14.54,84.597-14.601,84.533-14.701z"/>
		</g>
	</g>
	<g>
		<g>
			<path fill-rule="evenodd" clip-rule="evenodd" fill="#245E30" d="M88.773-14.448c0.445,0,11.955,0.003,12.359,0.003
				c0.848,0,1.693,0.003,2.539-0.003c0.133,0,0.213,0.037,0.289,0.151c1.262,1.898,2.525,3.794,3.791,5.688
				c0.084,0.125,0.082,0.208,0,0.333c-1.268,1.893-2.529,3.791-3.799,5.682c-0.047,0.073-0.156,0.147-0.24,0.147
				c-1.238,0.01-27.596,0.002-16.369-0.004c0.049-0.077,5.498-5.85,5.402-5.994C91.496-10.308,88.833-14.351,88.773-14.448z"/>
			<path fill-rule="evenodd" clip-rule="evenodd" fill="#245E30" d="M84.982-14.445c0.443,0,0.848,0,1.252,0
				c0.846,0,1.693,0.003,2.539-0.003c0.135,0,0.215,0.037,0.291,0.151c1.258,1.898,2.523,3.794,3.791,5.688
				c0.084,0.125,0.082,0.208-0.002,0.333c-1.268,1.893-2.529,3.791-3.797,5.682c-0.049,0.073-0.158,0.147-0.24,0.147
				c-1.238,0.01-2.475,0.007-3.713,0.006c-0.027,0-0.055-0.005-0.115-0.01c0.049-0.077,0.086-0.141,0.127-0.202
				c1.242-1.866,2.486-3.733,3.736-5.598c0.096-0.142,0.098-0.239,0.002-0.383c-1.25-1.864-2.492-3.732-3.736-5.599
				C85.078-14.29,85.042-14.348,84.982-14.445z"/>
		</g>
		<g>
			<path fill-rule="evenodd" clip-rule="evenodd" fill="#FFFFFF" d="M89.173-14.193c0.426,0,11.443,0.002,11.83,0.002
				c0.813,0,1.621,0.002,2.432-0.002c0.127-0.001,0.205,0.035,0.277,0.144c1.207,1.817,2.418,3.632,3.629,5.445
				c0.08,0.12,0.08,0.2,0,0.32c-1.215,1.812-2.422,3.627-3.635,5.44c-0.047,0.068-0.152,0.14-0.23,0.142
				c-1.184,0.008-17.928-0.007-15.67-0.007c0.045-0.072,5.262-5.598,5.168-5.737C91.779-10.23,89.232-14.101,89.173-14.193z"/>
			<path fill-rule="evenodd" clip-rule="evenodd" fill="#FFFFFF" d="M85.542-14.19c0.426,0,0.813,0,1.201,0
				c0.811,0,1.619,0.002,2.43-0.002c0.127-0.001,0.205,0.035,0.277,0.144c1.207,1.817,2.416,3.632,3.631,5.445
				c0.078,0.12,0.076,0.2-0.004,0.32c-1.211,1.812-2.42,3.627-3.635,5.44c-0.047,0.068-0.15,0.14-0.229,0.142
				c-1.186,0.008-2.371,0.006-3.555,0.005c-0.025,0-0.055-0.005-0.111-0.012c0.047-0.072,0.082-0.134,0.121-0.191
				c1.191-1.787,2.383-3.575,3.578-5.359c0.09-0.137,0.094-0.229,0-0.369c-1.195-1.783-2.385-3.571-3.576-5.358
				C85.636-14.041,85.601-14.098,85.542-14.19z"/>
		</g>
	</g>
	<g>
		<path fill-rule="evenodd" clip-rule="evenodd" fill="#FFFFFF" d="M89.503-14.046c0.412,0,11.064,0.002,11.439,0.002
			c0.783,0,1.566,0.003,2.35-0.002c0.121-0.001,0.197,0.034,0.268,0.139c1.166,1.757,2.336,3.512,3.51,5.264
			c0.076,0.116,0.074,0.194-0.002,0.309c-1.174,1.751-2.34,3.508-3.516,5.259c-0.045,0.066-0.145,0.137-0.221,0.137
			c-1.146,0.009-17.33-0.005-15.15-0.005c0.043-0.07,5.086-5.413,4.996-5.547C92.023-10.214,89.56-13.957,89.503-14.046z"/>
		<path fill-rule="evenodd" clip-rule="evenodd" fill="#FFFFFF" d="M85.994-14.044c0.41,0,0.785,0,1.16,0
			c0.783,0,1.566,0.003,2.35-0.002c0.123-0.001,0.199,0.034,0.27,0.139c1.164,1.757,2.334,3.512,3.508,5.264
			c0.076,0.116,0.076,0.194,0,0.309c-1.176,1.751-2.342,3.508-3.516,5.259c-0.045,0.066-0.146,0.137-0.223,0.137
			c-1.145,0.009-2.291,0.007-3.436,0.005c-0.027,0-0.053-0.004-0.105-0.01c0.043-0.07,0.076-0.128,0.115-0.185
			c1.15-1.729,2.301-3.458,3.457-5.182c0.09-0.133,0.092-0.223,0.002-0.355c-1.156-1.725-2.307-3.453-3.459-5.182
			C86.083-13.899,86.05-13.954,85.994-14.044z"/>
	</g>
</g>
<g>
	<path fill="#FFFFFF" d="M110.832-9.563l0.697,1.74l0.697-1.74h0.365v2.132h-0.281v-0.831l0.025-0.896l-0.699,1.727h-0.217
		l-0.697-1.722l0.027,0.892v0.831h-0.281v-2.132H110.832z"/>
	<path fill="#FFFFFF" d="M113.564-7.828l0.369-1.187h0.289l-0.637,1.829c-0.1,0.264-0.256,0.396-0.471,0.396l-0.051-0.004
		l-0.102-0.02v-0.22l0.074,0.006c0.092,0,0.162-0.019,0.215-0.056c0.051-0.037,0.092-0.104,0.125-0.203l0.061-0.161l-0.564-1.567
		h0.295L113.564-7.828z"/>
	<path fill="#FFFFFF" d="M115.529-8.265v0.835h-0.281v-2.132h0.787c0.234,0,0.416,0.06,0.549,0.179s0.199,0.277,0.199,0.473
		c0,0.207-0.066,0.366-0.195,0.478s-0.314,0.167-0.555,0.167H115.529z M115.529-8.495h0.506c0.15,0,0.266-0.035,0.346-0.106
		c0.08-0.071,0.121-0.174,0.121-0.308c0-0.127-0.041-0.229-0.121-0.305s-0.189-0.116-0.33-0.119h-0.521V-8.495z"/>
	<path fill="#FFFFFF" d="M117.865-8.772c-0.041-0.006-0.086-0.01-0.133-0.01c-0.178,0-0.299,0.075-0.363,0.227v1.125h-0.27v-1.584
		h0.264l0.004,0.183c0.088-0.142,0.215-0.212,0.377-0.212c0.053,0,0.094,0.007,0.121,0.021V-8.772z"/>
	<path fill="#FFFFFF" d="M118.011-8.237c0-0.155,0.031-0.295,0.092-0.419c0.063-0.124,0.146-0.219,0.256-0.287
		s0.232-0.101,0.373-0.101c0.215,0,0.391,0.075,0.523,0.224c0.133,0.149,0.199,0.348,0.199,0.596v0.019
		c0,0.154-0.029,0.293-0.088,0.416c-0.061,0.122-0.145,0.218-0.254,0.286s-0.236,0.103-0.379,0.103
		c-0.215,0-0.389-0.075-0.521-0.224c-0.133-0.15-0.201-0.348-0.201-0.594V-8.237z M118.285-8.205c0,0.176,0.041,0.317,0.123,0.423
		c0.08,0.106,0.189,0.159,0.326,0.159c0.139,0,0.248-0.053,0.328-0.161c0.082-0.108,0.121-0.259,0.121-0.454
		c0-0.174-0.041-0.314-0.123-0.422s-0.191-0.162-0.328-0.162c-0.135,0-0.242,0.053-0.324,0.159
		C118.326-8.556,118.285-8.403,118.285-8.205z"/>
	<path fill="#FFFFFF" d="M119.927-7.43v-1.375h-0.25v-0.209h0.25v-0.163c0-0.17,0.047-0.301,0.137-0.394
		c0.092-0.093,0.219-0.139,0.385-0.139c0.063,0,0.125,0.008,0.188,0.025l-0.016,0.218c-0.045-0.009-0.094-0.013-0.146-0.013
		c-0.088,0-0.156,0.025-0.203,0.077c-0.049,0.051-0.072,0.125-0.072,0.221v0.167h0.338v0.209h-0.338v1.375H119.927z"/>
	<path fill="#FFFFFF" d="M120.837-9.435c0-0.044,0.014-0.081,0.041-0.111c0.025-0.03,0.066-0.045,0.119-0.045
		s0.092,0.015,0.119,0.045s0.041,0.067,0.041,0.111s-0.014,0.081-0.041,0.11s-0.066,0.044-0.119,0.044s-0.094-0.015-0.119-0.044
		C120.851-9.354,120.837-9.391,120.837-9.435z M121.13-7.43h-0.271v-1.584h0.271V-7.43z"/>
	<path fill="#FFFFFF" d="M121.857-7.43h-0.27v-2.25h0.27V-7.43z"/>
	<path fill="#FFFFFF" d="M122.949-7.401c-0.215,0-0.389-0.07-0.523-0.212c-0.135-0.141-0.203-0.33-0.203-0.566v-0.05
		c0-0.157,0.031-0.297,0.092-0.421c0.059-0.124,0.143-0.22,0.252-0.29c0.107-0.07,0.225-0.104,0.35-0.104
		c0.207,0,0.367,0.068,0.48,0.204c0.115,0.135,0.172,0.33,0.172,0.583v0.113h-1.074c0.004,0.156,0.051,0.282,0.137,0.379
		c0.088,0.097,0.199,0.144,0.334,0.144c0.096,0,0.176-0.02,0.242-0.059s0.125-0.09,0.176-0.154l0.164,0.129
		C123.414-7.503,123.214-7.401,122.949-7.401z M122.916-8.821c-0.109,0-0.201,0.04-0.275,0.119s-0.119,0.191-0.137,0.334h0.793
		v-0.021c-0.008-0.138-0.045-0.244-0.111-0.32S123.029-8.821,122.916-8.821z"/>
</g>
<g>
	<g>
		<path fill-rule="evenodd" clip-rule="evenodd" fill="#245E30" d="M69.542-14.979c0.48,0,12.922,0.003,13.359,0.003
			c0.914,0,1.83,0.003,2.742-0.003c0.146-0.001,0.232,0.04,0.314,0.164c1.363,2.052,2.727,4.101,4.1,6.147
			c0.09,0.135,0.086,0.227-0.002,0.36c-1.373,2.047-2.734,4.099-4.105,6.144c-0.053,0.078-0.17,0.159-0.26,0.159
			c-1.338,0.011-29.83,0.002-17.693-0.006c0.051-0.084,5.941-6.321,5.836-6.479C72.484-10.504,69.609-14.875,69.542-14.979z"/>
		<path fill-rule="evenodd" clip-rule="evenodd" fill="#245E30" d="M65.441-14.976c0.48,0,0.918,0,1.355,0
			c0.916,0,1.832,0.003,2.746-0.003c0.143-0.001,0.23,0.04,0.314,0.164c1.361,2.052,2.727,4.101,4.096,6.147
			c0.09,0.135,0.09,0.227,0,0.36c-1.371,2.047-2.734,4.099-4.105,6.144c-0.053,0.078-0.17,0.159-0.258,0.159
			C68.251-1.995,66.912-1.999,65.574-2c-0.031,0-0.061-0.006-0.125-0.012c0.051-0.084,0.092-0.15,0.137-0.217
			c1.346-2.019,2.688-4.037,4.039-6.05c0.104-0.155,0.107-0.26,0.002-0.417c-1.35-2.014-2.693-4.033-4.039-6.051
			C65.546-14.808,65.507-14.872,65.441-14.976z"/>
	</g>
	<g>
		<g>
			<path fill-rule="evenodd" clip-rule="evenodd" fill="#FFFFFF" d="M69.906-14.729c0.463,0,12.434,0.003,12.855,0.003
				c0.879,0,1.762,0.002,2.641-0.003c0.139-0.001,0.223,0.039,0.301,0.157c1.311,1.974,2.625,3.947,3.943,5.915
				c0.088,0.131,0.086,0.218,0,0.347c-1.32,1.97-2.631,3.942-3.951,5.912c-0.051,0.075-0.164,0.151-0.25,0.154
				c-1.285,0.008-28.701,0-17.025-0.007c0.051-0.081,5.719-6.083,5.619-6.234C72.738-10.423,69.972-14.629,69.906-14.729z"/>
			<path fill-rule="evenodd" clip-rule="evenodd" fill="#FFFFFF" d="M65.962-14.726c0.461,0,0.883,0,1.305,0
				c0.879,0,1.76,0.002,2.639-0.003c0.141-0.001,0.225,0.039,0.303,0.157c1.311,1.974,2.625,3.947,3.943,5.915
				c0.086,0.131,0.086,0.218-0.002,0.347c-1.318,1.97-2.629,3.942-3.949,5.912c-0.049,0.075-0.164,0.151-0.25,0.154
				c-1.287,0.008-2.574,0.005-3.863,0.005c-0.027,0-0.055-0.005-0.117-0.012c0.049-0.081,0.088-0.146,0.129-0.208
				c1.295-1.943,2.588-3.886,3.889-5.823c0.098-0.148,0.102-0.249,0.002-0.401c-1.301-1.937-2.592-3.88-3.887-5.821
				C66.064-14.564,66.027-14.626,65.962-14.726z"/>
		</g>
		<g>
			<path fill-rule="evenodd" clip-rule="evenodd" fill="#245E30" d="M70.324-14.465c0.441,0,11.902,0.003,12.305,0.003
				c0.844,0,1.686,0.003,2.527-0.003c0.133,0,0.215,0.037,0.289,0.15c1.254,1.89,2.514,3.778,3.775,5.664
				c0.084,0.124,0.082,0.208-0.004,0.332c-1.26,1.886-2.516,3.774-3.779,5.658c-0.049,0.072-0.156,0.146-0.238,0.146
				C83.966-2.505,66.552-2.521,68.9-2.521c0.047-0.074,5.473-5.822,5.377-5.967C73.033-10.342,70.386-14.368,70.324-14.465z"/>
			<path fill-rule="evenodd" clip-rule="evenodd" fill="#245E30" d="M66.546-14.462c0.441,0,0.846,0,1.25,0
				c0.842,0,1.684,0.003,2.527-0.003c0.133,0,0.213,0.037,0.287,0.15c1.256,1.89,2.514,3.778,3.775,5.664
				c0.084,0.124,0.082,0.208-0.002,0.332c-1.262,1.886-2.518,3.774-3.781,5.658c-0.047,0.072-0.156,0.146-0.238,0.146
				c-1.232,0.01-2.463,0.007-3.697,0.006c-0.029,0-0.057-0.005-0.115-0.013c0.049-0.074,0.086-0.138,0.127-0.196
				c1.238-1.859,2.475-3.72,3.721-5.575c0.096-0.143,0.098-0.238,0.002-0.383c-1.244-1.855-2.482-3.715-3.721-5.574
				C66.642-14.307,66.607-14.365,66.546-14.462z"/>
		</g>
		<g>
			<path fill-rule="evenodd" clip-rule="evenodd" fill="#FFFFFF" d="M70.65-14.264c0.428,0,11.502,0.003,11.891,0.003
				c0.816,0,1.629,0.003,2.443-0.003c0.129,0,0.207,0.036,0.279,0.146c1.211,1.827,2.43,3.651,3.65,5.473
				c0.08,0.12,0.078,0.201-0.006,0.321c-1.217,1.823-2.432,3.646-3.652,5.468c-0.047,0.07-0.15,0.142-0.23,0.142
				c-1.191,0.009-18.02-0.007-15.75-0.007c0.045-0.072,5.289-5.626,5.195-5.766C73.269-10.28,70.71-14.17,70.65-14.264z"/>
			<path fill-rule="evenodd" clip-rule="evenodd" fill="#FFFFFF" d="M67.001-14.261c0.424,0,0.814,0,1.205,0
				c0.814,0,1.627,0.003,2.443-0.003c0.127,0,0.205,0.036,0.277,0.146c1.213,1.827,2.43,3.651,3.648,5.473
				c0.08,0.12,0.08,0.201-0.002,0.321c-1.219,1.823-2.432,3.646-3.654,5.468c-0.045,0.07-0.15,0.142-0.23,0.142
				c-1.189,0.009-2.381,0.006-3.572,0.005c-0.027,0-0.053-0.005-0.111-0.013c0.049-0.072,0.084-0.133,0.123-0.189
				c1.197-1.797,2.391-3.595,3.594-5.388c0.094-0.139,0.096-0.23,0.002-0.371c-1.201-1.793-2.396-3.59-3.594-5.386
				C67.093-14.111,67.058-14.167,67.001-14.261z"/>
		</g>
	</g>
</g>
<g>
	<path fill="#245E30" d="M73.867-9.501l0.713,1.778l0.712-1.778h0.373v2.18h-0.287V-8.17l0.027-0.916l-0.716,1.765h-0.221
		l-0.714-1.761l0.029,0.912v0.849h-0.288v-2.18H73.867z"/>
	<path fill="#245E30" d="M76.659-7.727l0.377-1.214h0.297l-0.651,1.87c-0.102,0.27-0.261,0.404-0.479,0.404l-0.054-0.004
		l-0.104-0.02v-0.225L76.12-6.91c0.095,0,0.168-0.019,0.22-0.057c0.052-0.038,0.095-0.107,0.13-0.208l0.061-0.165l-0.577-1.602
		h0.303L76.659-7.727z"/>
	<path fill="#245E30" d="M78.67-7.557h1.033v0.235h-1.322v-2.18h0.289V-7.557z"/>
	<path fill="#245E30" d="M79.915-8.146c0-0.159,0.031-0.302,0.094-0.429c0.063-0.126,0.149-0.224,0.261-0.293
		s0.237-0.104,0.381-0.104c0.221,0,0.398,0.077,0.534,0.229c0.137,0.153,0.205,0.356,0.205,0.609v0.02
		c0,0.158-0.03,0.299-0.091,0.424c-0.06,0.125-0.146,0.223-0.259,0.293c-0.112,0.069-0.241,0.104-0.387,0.104
		c-0.22,0-0.397-0.076-0.533-0.229c-0.137-0.152-0.205-0.355-0.205-0.606V-8.146z M80.193-8.113c0,0.18,0.042,0.324,0.125,0.433
		c0.084,0.108,0.195,0.163,0.335,0.163c0.141,0,0.253-0.055,0.336-0.166c0.082-0.11,0.123-0.265,0.123-0.463
		c0-0.178-0.041-0.322-0.126-0.432c-0.084-0.11-0.196-0.166-0.336-0.166c-0.137,0-0.247,0.054-0.33,0.163
		C80.235-8.471,80.193-8.316,80.193-8.113z"/>
	<path fill="#245E30" d="M81.671-8.145c0-0.252,0.059-0.453,0.175-0.603c0.116-0.149,0.271-0.224,0.464-0.224
		c0.198,0,0.352,0.07,0.463,0.209l0.014-0.18h0.252v1.581c0,0.209-0.062,0.375-0.186,0.496c-0.125,0.121-0.291,0.181-0.501,0.181
		c-0.116,0-0.231-0.025-0.343-0.075c-0.112-0.05-0.197-0.118-0.256-0.206l0.144-0.166c0.119,0.147,0.264,0.22,0.436,0.22
		c0.135,0,0.24-0.038,0.315-0.114s0.112-0.183,0.112-0.321v-0.139c-0.11,0.128-0.262,0.192-0.453,0.192
		c-0.189,0-0.344-0.076-0.46-0.229C81.73-7.673,81.671-7.881,81.671-8.145z M81.949-8.113c0,0.183,0.038,0.326,0.113,0.43
		c0.074,0.104,0.179,0.157,0.314,0.157c0.174,0,0.303-0.08,0.384-0.238v-0.74c-0.084-0.154-0.212-0.231-0.382-0.231
		c-0.134,0-0.239,0.052-0.315,0.157C81.987-8.474,81.949-8.319,81.949-8.113z"/>
	<path fill="#245E30" d="M83.458-9.371c0-0.045,0.014-0.083,0.041-0.114c0.027-0.031,0.067-0.047,0.122-0.047
		c0.054,0,0.095,0.016,0.122,0.047c0.029,0.031,0.042,0.069,0.042,0.114s-0.013,0.082-0.042,0.112
		c-0.027,0.03-0.068,0.045-0.122,0.045c-0.055,0-0.095-0.015-0.122-0.045C83.472-9.289,83.458-9.326,83.458-9.371z M83.757-7.321
		h-0.276v-1.62h0.276V-7.321z"/>
	<path fill="#245E30" d="M84.462-8.941l0.01,0.204c0.123-0.156,0.285-0.234,0.485-0.234c0.341,0,0.514,0.193,0.518,0.58v1.07h-0.277
		v-1.072c-0.001-0.116-0.027-0.203-0.08-0.259c-0.052-0.056-0.134-0.083-0.244-0.083c-0.091,0-0.17,0.023-0.237,0.071
		s-0.12,0.111-0.158,0.189v1.154h-0.277v-1.62H84.462z"/>
</g>
<g>
	<path fill="#245E30" d="M92.1-9.562l0.697,1.74l0.697-1.74h0.365v2.133h-0.281V-8.26l0.027-0.896l-0.701,1.727H92.69l-0.699-1.723
		l0.027,0.892v0.831h-0.281v-2.133H92.1z"/>
	<path fill="#245E30" d="M94.833-7.828l0.369-1.187h0.291l-0.639,1.829c-0.098,0.264-0.254,0.395-0.469,0.395l-0.053-0.004
		l-0.1-0.02v-0.219l0.072,0.006c0.092,0,0.164-0.02,0.215-0.057s0.094-0.104,0.127-0.203l0.061-0.16l-0.566-1.567h0.297
		L94.833-7.828z"/>
	<path fill="#245E30" d="M97.147-8.38c-0.242-0.069-0.418-0.154-0.527-0.255s-0.164-0.226-0.164-0.374
		c0-0.168,0.066-0.307,0.201-0.417s0.309-0.165,0.523-0.165c0.146,0,0.277,0.028,0.393,0.085c0.113,0.057,0.203,0.135,0.266,0.234
		s0.094,0.208,0.094,0.327h-0.281c0-0.129-0.041-0.231-0.123-0.305s-0.199-0.111-0.348-0.111c-0.139,0-0.246,0.03-0.324,0.092
		c-0.078,0.061-0.117,0.146-0.117,0.254c0,0.087,0.037,0.161,0.111,0.221s0.199,0.115,0.377,0.165
		c0.176,0.05,0.314,0.105,0.414,0.165c0.102,0.06,0.176,0.13,0.223,0.21c0.049,0.08,0.074,0.174,0.074,0.283
		c0,0.173-0.068,0.312-0.203,0.416S97.42-7.4,97.194-7.4c-0.146,0-0.283-0.029-0.41-0.084c-0.127-0.057-0.225-0.135-0.293-0.232
		s-0.104-0.207-0.104-0.332h0.283c0,0.128,0.047,0.23,0.143,0.306c0.096,0.074,0.223,0.111,0.381,0.111
		c0.148,0,0.264-0.031,0.342-0.092c0.08-0.061,0.119-0.143,0.119-0.247c0-0.104-0.037-0.185-0.109-0.242
		C97.471-8.268,97.338-8.325,97.147-8.38z"/>
	<path fill="#245E30" d="M99.594-8.205c0,0.241-0.057,0.436-0.166,0.582C99.317-7.474,99.168-7.4,98.979-7.4
		c-0.191,0-0.344-0.063-0.453-0.184v0.764h-0.271v-2.194h0.248l0.014,0.176c0.109-0.137,0.264-0.205,0.459-0.205
		c0.191,0,0.342,0.072,0.451,0.215c0.111,0.143,0.168,0.343,0.168,0.599V-8.205z M99.323-8.235c0-0.179-0.039-0.32-0.115-0.423
		c-0.076-0.103-0.18-0.155-0.313-0.155c-0.164,0-0.287,0.073-0.369,0.218v0.756c0.08,0.145,0.205,0.217,0.371,0.217
		c0.131,0,0.234-0.051,0.311-0.154C99.284-7.878,99.323-8.032,99.323-8.235z"/>
	<path fill="#245E30" d="M99.866-8.237c0-0.155,0.031-0.295,0.092-0.419c0.061-0.124,0.146-0.219,0.254-0.287
		c0.109-0.067,0.234-0.101,0.373-0.101c0.217,0,0.391,0.075,0.523,0.224c0.133,0.149,0.201,0.348,0.201,0.596v0.019
		c0,0.154-0.031,0.293-0.09,0.416c-0.059,0.121-0.143,0.217-0.252,0.285c-0.111,0.068-0.236,0.104-0.379,0.104
		c-0.215,0-0.389-0.076-0.523-0.225c-0.133-0.15-0.199-0.347-0.199-0.593V-8.237z M100.137-8.205c0,0.176,0.041,0.316,0.123,0.424
		c0.082,0.105,0.191,0.158,0.328,0.158s0.246-0.053,0.328-0.16c0.08-0.109,0.121-0.26,0.121-0.454c0-0.174-0.041-0.314-0.123-0.422
		c-0.084-0.108-0.193-0.162-0.33-0.162c-0.133,0-0.242,0.053-0.324,0.159C100.178-8.555,100.137-8.403,100.137-8.205z"/>
	<path fill="#245E30" d="M102.415-8.771c-0.041-0.006-0.086-0.01-0.133-0.01c-0.178,0-0.299,0.075-0.363,0.227v1.125h-0.27v-1.585
		h0.264l0.004,0.183c0.088-0.142,0.215-0.212,0.377-0.212c0.053,0,0.094,0.007,0.121,0.021V-8.771z"/>
	<path fill="#245E30" d="M103.104-9.398v0.384h0.295v0.209h-0.295v0.983c0,0.064,0.014,0.111,0.039,0.143
		c0.027,0.033,0.072,0.049,0.135,0.049c0.031,0,0.074-0.006,0.129-0.018v0.219c-0.07,0.02-0.141,0.029-0.207,0.029
		c-0.121,0-0.213-0.037-0.275-0.111c-0.061-0.072-0.092-0.176-0.092-0.311v-0.983h-0.289v-0.209h0.289v-0.384H103.104z"/>
	<path fill="#245E30" d="M104.639-7.851c0-0.072-0.027-0.128-0.082-0.169c-0.055-0.041-0.152-0.076-0.289-0.105
		s-0.246-0.064-0.326-0.105s-0.141-0.09-0.18-0.146c-0.037-0.057-0.057-0.124-0.057-0.202c0-0.129,0.055-0.239,0.164-0.329
		s0.25-0.135,0.422-0.135c0.18,0,0.324,0.046,0.438,0.139c0.111,0.093,0.166,0.211,0.166,0.355h-0.271
		c0-0.074-0.031-0.138-0.094-0.192c-0.064-0.053-0.143-0.08-0.238-0.08c-0.1,0-0.176,0.021-0.232,0.064
		c-0.055,0.043-0.084,0.099-0.084,0.168c0,0.065,0.027,0.115,0.078,0.148c0.053,0.033,0.146,0.065,0.281,0.095
		s0.244,0.066,0.328,0.108s0.146,0.093,0.188,0.152c0.039,0.059,0.061,0.131,0.061,0.216c0,0.141-0.057,0.254-0.17,0.34
		s-0.26,0.129-0.441,0.129c-0.127,0-0.238-0.023-0.336-0.068s-0.174-0.107-0.23-0.188c-0.055-0.08-0.082-0.168-0.082-0.262h0.271
		c0.004,0.09,0.041,0.162,0.109,0.217c0.066,0.053,0.156,0.078,0.268,0.078c0.104,0,0.186-0.02,0.248-0.061
		C104.608-7.726,104.639-7.781,104.639-7.851z"/>
</g>
</svg>
