<?xml version="1.0" encoding="utf-8"?>
<!-- Generator: Adobe Illustrator 16.0.0, SVG Export Plug-In . SVG Version: 6.00 Build 0)  -->
<!DOCTYPE svg PUBLIC "-//W3C//DTD SVG 1.1//EN" "http://www.w3.org/Graphics/SVG/1.1/DTD/svg11.dtd">
<svg version="1.1" id="Layer_1" xmlns="http://www.w3.org/2000/svg" xmlns:xlink="http://www.w3.org/1999/xlink" x="0px" y="0px"
	 width="58.417px" height="14px" viewBox="1.667 5.892 58.417 14" enable-background="new 1.667 5.892 58.417 14"
	 xml:space="preserve">
<g>
	<polygon fill="#009444" points="20.425,19.273 2.3,19.273 5.229,12.721 2.3,6.523 20.425,6.523 23.458,12.774 	"/>
	<polygon fill="#009444" points="20.425,19.273 20.425,19.223 2.377,19.223 5.285,12.72 2.379,6.573 20.394,6.573 23.403,12.774 
		20.38,19.252 20.425,19.273 20.425,19.223 20.425,19.273 20.471,19.294 23.513,12.773 20.457,6.473 2.221,6.473 5.174,12.721 
		2.223,19.323 20.457,19.323 20.471,19.294 	"/>
</g>
<g>
	<polygon fill="#F7F7F7" points="38.509,19.273 20.384,19.273 23.313,12.721 20.384,6.523 38.509,6.523 41.541,12.774 	"/>
	<polygon fill="#8C8C8C" points="38.509,19.273 38.509,19.223 20.461,19.223 23.368,12.72 20.463,6.573 38.479,6.573 41.485,12.774 
		38.464,19.252 38.509,19.273 38.509,19.223 38.509,19.273 38.555,19.294 41.597,12.773 38.541,6.473 20.305,6.473 23.258,12.721 
		20.307,19.323 38.542,19.323 38.555,19.294 	"/>
</g>
<g>
	<polygon fill="#F7F7F7" points="56.471,19.273 38.346,19.273 41.273,12.721 38.346,6.523 56.471,6.523 59.501,12.774 	"/>
	<polygon fill="#8C8C8C" points="56.471,19.273 56.471,19.223 38.423,19.223 41.328,12.72 38.425,6.573 56.439,6.573 59.446,12.774 
		56.425,19.252 56.471,19.273 56.471,19.223 56.471,19.273 56.516,19.294 59.558,12.773 56.501,6.473 38.267,6.473 41.219,12.721 
		38.269,19.323 56.503,19.323 56.516,19.294 	"/>
</g>
<g>
	<path fill="#FFFFFF" d="M16.222,9.945c0.187,0,0.265,0.156,0.265,0.296c0,0.194-0.15,0.316-0.381,0.449
		c-0.099-0.123-0.174-0.249-0.174-0.412C15.932,10.102,16.031,9.945,16.222,9.945z M16.157,11.885c-0.275,0-0.47-0.201-0.47-0.463
		c0-0.242,0.174-0.388,0.296-0.466c0.255,0.293,0.51,0.572,0.646,0.722C16.521,11.796,16.354,11.885,16.157,11.885z M17.344,12.072
		c-0.136-0.146-0.255-0.275-0.377-0.405c0.17-0.201,0.269-0.487,0.33-0.847h-0.272c-0.044,0.289-0.116,0.51-0.221,0.67
		c-0.146-0.163-0.364-0.415-0.558-0.64v-0.01c0.364-0.18,0.504-0.371,0.504-0.612c0-0.296-0.221-0.487-0.507-0.487
		c-0.381,0-0.582,0.286-0.582,0.565c0,0.164,0.071,0.33,0.19,0.48v0.01c-0.262,0.143-0.449,0.357-0.449,0.67
		c0,0.343,0.259,0.643,0.705,0.643c0.251,0,0.473-0.079,0.67-0.262c0.089,0.095,0.15,0.16,0.214,0.225H17.344z M12.935,12.072h0.299
		v-0.99l0.021-0.14c0.051-0.167,0.204-0.306,0.401-0.306c0.282,0,0.381,0.221,0.381,0.487v0.949h0.299v-0.983
		c0-0.565-0.354-0.701-0.582-0.701c-0.272,0-0.463,0.153-0.544,0.31h-0.007l-0.017-0.272h-0.265c0.01,0.136,0.014,0.276,0.014,0.446
		V12.072z M12.289,9.775c-0.109,0-0.187,0.082-0.187,0.187c0,0.102,0.075,0.184,0.18,0.184c0.119,0,0.194-0.082,0.191-0.184
		C12.473,9.856,12.401,9.775,12.289,9.775z M12.438,12.072v-1.647h-0.299v1.647H12.438z M11.367,11.371l-0.024,0.16
		c-0.065,0.19-0.231,0.306-0.415,0.306c-0.323,0-0.487-0.269-0.487-0.592c0-0.381,0.204-0.623,0.49-0.623
		c0.218,0,0.364,0.143,0.418,0.316l0.017,0.136L11.367,11.371L11.367,11.371z M11.415,10.425l-0.014,0.249h-0.007
		c-0.071-0.136-0.228-0.286-0.514-0.286c-0.378,0-0.742,0.317-0.742,0.875c0,0.456,0.292,0.803,0.701,0.803
		c0.255,0,0.432-0.123,0.524-0.275h0.006v0.184c0,0.415-0.224,0.575-0.531,0.575c-0.204,0-0.374-0.062-0.483-0.129l-0.075,0.228
		c0.133,0.088,0.351,0.136,0.548,0.136c0.208,0,0.439-0.047,0.599-0.197c0.16-0.143,0.235-0.374,0.235-0.752V10.88
		c0-0.201,0.007-0.333,0.014-0.453h-0.261V10.425z M9.08,10.612c0.354,0,0.494,0.354,0.494,0.633c0,0.371-0.214,0.64-0.5,0.64
		c-0.292,0-0.5-0.272-0.5-0.633C8.573,10.938,8.727,10.612,9.08,10.612z M9.087,10.387c-0.456,0-0.816,0.323-0.816,0.875
		c0,0.521,0.344,0.848,0.79,0.848c0.398,0,0.82-0.266,0.82-0.875C9.88,10.731,9.56,10.387,9.087,10.387z M6.842,12.072h1.276v-0.249
		h-0.98V9.778H6.842V12.072z"/>
	<path fill="#FFFFFF" d="M19.427,15.464l-0.013,0.129c-0.055,0.226-0.238,0.357-0.439,0.357c-0.323,0-0.487-0.276-0.487-0.609
		c0-0.364,0.184-0.636,0.494-0.636c0.224,0,0.388,0.156,0.432,0.347l0.013,0.126V15.464z M19.427,13.739v0.983H19.42
		c-0.075-0.134-0.245-0.252-0.497-0.252c-0.401,0-0.742,0.336-0.738,0.885c0,0.5,0.306,0.836,0.704,0.836
		c0.269,0,0.47-0.14,0.562-0.322h0.007l0.014,0.285h0.269c-0.01-0.111-0.014-0.278-0.014-0.424v-1.991H19.427z M17.226,16.154h0.296
		v-0.877l0.014-0.141c0.041-0.225,0.19-0.384,0.401-0.384l0.102,0.011V14.48l-0.085-0.01c-0.201,0-0.381,0.139-0.456,0.36h-0.014
		l-0.01-0.323h-0.262c0.01,0.153,0.014,0.32,0.014,0.514V16.154z M16.048,14.695c0.354,0,0.494,0.354,0.494,0.633
		c0,0.371-0.214,0.64-0.5,0.64c-0.292,0-0.5-0.272-0.5-0.633C15.542,15.021,15.695,14.695,16.048,14.695z M16.055,14.471
		c-0.456,0-0.816,0.322-0.816,0.875c0,0.521,0.344,0.848,0.79,0.848c0.398,0,0.82-0.267,0.82-0.875
		C16.848,14.814,16.528,14.471,16.055,14.471z M12.7,14.508l0.497,1.646h0.272l0.266-0.782c0.058-0.177,0.109-0.347,0.15-0.544
		h0.007c0.041,0.193,0.088,0.357,0.146,0.541l0.252,0.785h0.272l0.531-1.646h-0.296l-0.235,0.827
		c-0.054,0.194-0.099,0.367-0.126,0.534h-0.01c-0.038-0.167-0.085-0.34-0.146-0.538l-0.255-0.824h-0.251l-0.269,0.841
		c-0.054,0.176-0.109,0.354-0.146,0.521h-0.01c-0.03-0.17-0.075-0.341-0.122-0.524l-0.218-0.837L12.7,14.508L12.7,14.508z
		 M11.425,16.077c0.116,0.067,0.282,0.112,0.463,0.112c0.391,0,0.616-0.205,0.616-0.494c0-0.245-0.146-0.389-0.432-0.497
		c-0.214-0.082-0.313-0.144-0.313-0.279c0-0.123,0.099-0.226,0.275-0.226c0.153,0,0.272,0.056,0.337,0.097l0.075-0.218
		c-0.092-0.055-0.238-0.104-0.405-0.104c-0.354,0-0.568,0.219-0.568,0.483c0,0.196,0.14,0.36,0.436,0.466
		c0.221,0.082,0.307,0.16,0.307,0.303c0,0.137-0.103,0.245-0.32,0.245c-0.149,0-0.306-0.062-0.395-0.118L11.425,16.077z
		 M10.077,16.077c0.116,0.067,0.282,0.112,0.463,0.112c0.391,0,0.616-0.205,0.616-0.494c0-0.245-0.146-0.389-0.432-0.497
		c-0.214-0.082-0.313-0.144-0.313-0.279c0-0.123,0.099-0.226,0.275-0.226c0.153,0,0.272,0.056,0.337,0.097l0.075-0.218
		c-0.092-0.055-0.238-0.104-0.405-0.104c-0.354,0-0.568,0.219-0.568,0.483c0,0.196,0.14,0.36,0.436,0.466
		c0.221,0.082,0.307,0.16,0.307,0.303c0,0.137-0.103,0.245-0.32,0.245c-0.149,0-0.306-0.062-0.395-0.118L10.077,16.077z M9.421,15.6
		l-0.017,0.096c-0.048,0.14-0.184,0.275-0.398,0.275c-0.153,0-0.283-0.092-0.283-0.285c0-0.32,0.371-0.377,0.698-0.371V15.6z
		 M9.737,16.154c-0.02-0.112-0.027-0.252-0.027-0.395v-0.615c0-0.33-0.123-0.674-0.626-0.674c-0.208,0-0.405,0.057-0.541,0.146
		l0.068,0.196c0.116-0.074,0.276-0.123,0.429-0.123c0.337,0,0.375,0.246,0.375,0.381v0.035c-0.636-0.004-0.99,0.213-0.99,0.611
		c0,0.238,0.17,0.473,0.503,0.473c0.235,0,0.412-0.115,0.504-0.244h0.01l0.023,0.207h0.272V16.154z M7.138,14.104
		c0.051-0.015,0.15-0.024,0.279-0.024c0.327,0,0.541,0.146,0.541,0.448c0,0.316-0.218,0.49-0.575,0.49
		c-0.099,0-0.181-0.007-0.245-0.022V14.104z M6.842,16.154h0.296v-0.918l0.238,0.021c0.289,0,0.544-0.085,0.701-0.251
		c0.116-0.119,0.177-0.283,0.177-0.49c0-0.203-0.075-0.371-0.201-0.479c-0.136-0.122-0.35-0.19-0.643-0.19
		c-0.238,0-0.425,0.021-0.568,0.045V16.154z"/>
</g>
<g>
	<path fill="#808285" d="M33.453,10.813c0.023-0.208,0.156-0.486,0.459-0.486c0.336,0,0.418,0.296,0.414,0.486H33.453z
		 M34.605,11.027l0.01-0.14c0-0.303-0.143-0.775-0.68-0.775c-0.48,0-0.771,0.392-0.771,0.888c0,0.497,0.303,0.831,0.81,0.831
		c0.262,0,0.442-0.055,0.548-0.103l-0.051-0.214c-0.112,0.047-0.241,0.085-0.456,0.085c-0.3,0-0.56-0.167-0.563-0.572H34.605z
		 M32.479,11.796h0.3V9.38h-0.3V11.796z M31.027,11.796v-1.419h0.66v1.419h0.296v-1.647h-0.956v-0.081
		c0-0.263,0.092-0.483,0.408-0.483c0.146,0,0.275,0.044,0.348,0.095l0.084-0.228c-0.084-0.062-0.266-0.108-0.418-0.108
		c-0.463,0-0.718,0.282-0.718,0.718v0.088H30.5v0.229h0.231v1.419h0.296V11.796z M29.522,10.336c0.354,0,0.494,0.354,0.494,0.633
		c0,0.371-0.214,0.64-0.5,0.64c-0.292,0-0.5-0.272-0.5-0.633C29.016,10.663,29.169,10.336,29.522,10.336z M29.529,10.112
		c-0.456,0-0.816,0.323-0.816,0.874c0,0.521,0.344,0.848,0.79,0.848c0.398,0,0.82-0.266,0.82-0.874
		C30.322,10.456,30.002,10.112,29.529,10.112z M27.753,11.796h0.296v-0.878l0.014-0.14c0.041-0.225,0.19-0.385,0.401-0.385
		l0.102,0.011v-0.283l-0.085-0.01c-0.201,0-0.381,0.14-0.456,0.36h-0.014l-0.01-0.323H27.74c0.01,0.153,0.014,0.32,0.014,0.514
		L27.753,11.796L27.753,11.796z M26.304,9.745c0.051-0.014,0.15-0.024,0.279-0.024c0.327,0,0.541,0.146,0.541,0.449
		c0,0.316-0.218,0.49-0.575,0.49c-0.099,0-0.181-0.007-0.245-0.023V9.745z M26.008,11.796h0.296v-0.919l0.238,0.021
		c0.289,0,0.544-0.085,0.701-0.252c0.116-0.119,0.177-0.282,0.177-0.49c0-0.204-0.075-0.371-0.201-0.479
		c-0.136-0.122-0.35-0.19-0.643-0.19c-0.238,0-0.425,0.021-0.568,0.044V11.796z"/>
	<path fill="#808285" d="M36.123,15.801c0.115,0.067,0.282,0.112,0.463,0.112c0.392,0,0.615-0.204,0.615-0.494
		c0-0.245-0.146-0.388-0.432-0.496c-0.215-0.082-0.313-0.144-0.313-0.278c0-0.123,0.098-0.226,0.274-0.226
		c0.151,0,0.271,0.056,0.336,0.097l0.075-0.219c-0.092-0.055-0.237-0.104-0.405-0.104c-0.354,0-0.567,0.219-0.567,0.483
		c0,0.197,0.141,0.36,0.436,0.466c0.223,0.082,0.307,0.16,0.307,0.303c0,0.138-0.102,0.246-0.32,0.246
		c-0.147,0-0.305-0.063-0.395-0.119L36.123,15.801z M35.446,15.178l-0.024,0.16c-0.063,0.189-0.229,0.307-0.414,0.307
		c-0.323,0-0.486-0.27-0.486-0.593c0-0.381,0.204-0.622,0.49-0.622c0.218,0,0.363,0.144,0.419,0.315l0.017,0.137L35.446,15.178
		L35.446,15.178z M35.494,14.232L35.48,14.48h-0.008c-0.07-0.137-0.229-0.285-0.514-0.285c-0.377,0-0.742,0.315-0.742,0.873
		c0,0.457,0.293,0.805,0.701,0.805c0.256,0,0.433-0.123,0.524-0.275h0.007v0.185c0,0.415-0.226,0.575-0.531,0.575
		c-0.203,0-0.373-0.063-0.482-0.131l-0.074,0.229c0.133,0.088,0.35,0.136,0.547,0.136c0.209,0,0.439-0.048,0.6-0.197
		c0.16-0.143,0.234-0.373,0.234-0.752v-0.955c0-0.201,0.008-0.334,0.014-0.453h-0.262V14.232z M32.449,15.879h0.299v-0.99
		l0.021-0.14c0.051-0.167,0.204-0.308,0.4-0.308c0.283,0,0.381,0.223,0.381,0.488v0.948h0.301v-0.983
		c0-0.564-0.354-0.701-0.582-0.701c-0.271,0-0.463,0.154-0.544,0.311h-0.007l-0.018-0.271h-0.266
		c0.01,0.137,0.014,0.275,0.014,0.445V15.879z M31.802,13.583c-0.109,0-0.188,0.081-0.188,0.187c0,0.103,0.075,0.185,0.18,0.185
		c0.119,0,0.194-0.082,0.191-0.185C31.986,13.664,31.914,13.583,31.802,13.583z M31.953,15.879v-1.646h-0.3v1.646H31.953z
		 M30.594,13.837v0.396h-0.255v0.229h0.255v0.898c0,0.192,0.031,0.34,0.116,0.429c0.071,0.081,0.184,0.126,0.323,0.126
		c0.116,0,0.209-0.018,0.266-0.041l-0.014-0.225l-0.174,0.021c-0.167,0-0.225-0.116-0.225-0.319v-0.89h0.429V14.23h-0.429v-0.473
		L30.594,13.837z M29.468,13.837v0.396h-0.255v0.229h0.255v0.898c0,0.192,0.031,0.34,0.116,0.429
		c0.071,0.081,0.184,0.126,0.323,0.126c0.116,0,0.208-0.018,0.266-0.041l-0.014-0.225l-0.174,0.021
		c-0.167,0-0.225-0.116-0.225-0.319v-0.89h0.429V14.23H29.76v-0.473L29.468,13.837z M27.866,14.896
		c0.024-0.209,0.157-0.486,0.459-0.486c0.337,0,0.418,0.296,0.415,0.486H27.866z M29.02,15.109l0.01-0.139
		c0-0.304-0.143-0.775-0.68-0.775c-0.48,0-0.772,0.392-0.772,0.888c0,0.497,0.303,0.831,0.81,0.831c0.262,0,0.442-0.055,0.548-0.104
		l-0.051-0.213c-0.112,0.047-0.242,0.084-0.456,0.084c-0.299,0-0.558-0.166-0.565-0.572H29.02z M25.893,15.768
		c0.123,0.08,0.364,0.146,0.585,0.146c0.541,0,0.803-0.308,0.803-0.66c0-0.337-0.197-0.524-0.585-0.674
		c-0.316-0.123-0.456-0.229-0.456-0.442c0-0.156,0.119-0.344,0.432-0.344c0.208,0,0.36,0.068,0.436,0.107l0.082-0.24
		c-0.102-0.058-0.272-0.112-0.507-0.112c-0.445,0-0.742,0.267-0.742,0.623c0,0.323,0.231,0.517,0.606,0.649
		c0.31,0.119,0.432,0.242,0.432,0.455c0,0.231-0.177,0.393-0.48,0.393c-0.204,0-0.398-0.068-0.531-0.15L25.893,15.768z"/>
</g>
<g>
	<path fill="#808285" d="M49.658,7.989v0.395h-0.256v0.229h0.256V9.51c0,0.193,0.031,0.34,0.115,0.429
		c0.072,0.081,0.184,0.126,0.324,0.126c0.115,0,0.207-0.018,0.266-0.041L50.35,9.799L50.175,9.82c-0.166,0-0.225-0.116-0.225-0.32
		V8.612h0.428V8.383h-0.428V7.911L49.658,7.989z M48.396,10.031h0.295V9.153l0.014-0.14c0.041-0.225,0.191-0.385,0.402-0.385
		l0.102,0.011V8.356l-0.084-0.01c-0.201,0-0.381,0.14-0.457,0.36h-0.014l-0.01-0.323h-0.262c0.01,0.153,0.014,0.32,0.014,0.514
		V10.031z M47.219,8.571c0.354,0,0.493,0.354,0.493,0.633c0,0.371-0.215,0.64-0.5,0.64c-0.293,0-0.5-0.272-0.5-0.633
		C46.712,8.897,46.865,8.571,47.219,8.571z M47.226,8.346c-0.456,0-0.816,0.323-0.816,0.874c0,0.521,0.344,0.848,0.791,0.848
		c0.396,0,0.818-0.266,0.818-0.874C48.019,8.69,47.699,8.346,47.226,8.346z M44.889,9.078l0.021-0.122
		c0.059-0.225,0.248-0.371,0.452-0.371c0.316,0,0.49,0.282,0.49,0.612c0,0.378-0.185,0.637-0.5,0.637
		c-0.215,0-0.396-0.144-0.449-0.351L44.889,9.36V9.078z M44.591,10.705h0.298V9.809h0.006c0.101,0.164,0.289,0.259,0.508,0.259
		c0.388,0,0.748-0.293,0.748-0.885c0-0.5-0.299-0.837-0.696-0.837c-0.271,0-0.463,0.119-0.586,0.32h-0.007l-0.014-0.283h-0.271
		c0.008,0.157,0.014,0.327,0.014,0.538V10.705z M42.81,9.918c0.122,0.081,0.363,0.146,0.585,0.146c0.541,0,0.804-0.307,0.804-0.66
		c0-0.337-0.197-0.524-0.586-0.674c-0.316-0.123-0.455-0.229-0.455-0.442c0-0.157,0.118-0.344,0.432-0.344
		c0.209,0,0.361,0.068,0.437,0.108l0.081-0.241C44.003,7.754,43.833,7.7,43.599,7.7c-0.445,0-0.741,0.266-0.741,0.623
		c0,0.323,0.229,0.517,0.604,0.649c0.311,0.119,0.433,0.242,0.433,0.456c0,0.231-0.177,0.392-0.479,0.392
		c-0.203,0-0.396-0.068-0.529-0.15L42.81,9.918z"/>
	<path fill="#808285" d="M55.955,14.036c0.116,0.067,0.283,0.112,0.463,0.112c0.393,0,0.617-0.205,0.617-0.495
		c0-0.245-0.146-0.388-0.434-0.496c-0.214-0.082-0.313-0.144-0.313-0.279c0-0.123,0.099-0.225,0.274-0.225
		c0.153,0,0.272,0.055,0.337,0.096l0.075-0.218c-0.093-0.055-0.238-0.103-0.405-0.103c-0.354,0-0.568,0.218-0.568,0.483
		c0,0.197,0.141,0.36,0.437,0.466c0.222,0.082,0.308,0.16,0.308,0.303c0,0.137-0.104,0.245-0.32,0.245
		c-0.149,0-0.307-0.062-0.396-0.119L55.955,14.036z M54.184,14.114h0.299v-0.99l0.021-0.14c0.052-0.167,0.205-0.307,0.401-0.307
		c0.283,0,0.382,0.222,0.382,0.487v0.949h0.299V13.13c0-0.565-0.354-0.701-0.582-0.701c-0.271,0-0.463,0.153-0.543,0.31h-0.008
		l-0.018-0.272h-0.266c0.011,0.137,0.015,0.276,0.015,0.446V14.114z M53.005,12.654c0.354,0,0.494,0.354,0.494,0.633
		c0,0.371-0.215,0.64-0.5,0.64c-0.293,0-0.5-0.272-0.5-0.633C52.5,12.98,52.652,12.654,53.005,12.654z M53.013,12.429
		c-0.456,0-0.816,0.323-0.816,0.874c0,0.521,0.344,0.847,0.79,0.847c0.397,0,0.819-0.266,0.819-0.874
		C53.806,12.773,53.486,12.429,53.013,12.429z M51.667,11.817c-0.107,0-0.187,0.081-0.187,0.187c0,0.103,0.075,0.185,0.181,0.185
		c0.119,0,0.193-0.082,0.19-0.185C51.853,11.898,51.781,11.817,51.667,11.817z M51.818,14.114v-1.647H51.52v1.647H51.818z
		 M50.46,12.072v0.395h-0.256v0.229h0.256v0.898c0,0.193,0.031,0.34,0.115,0.43c0.072,0.08,0.184,0.125,0.324,0.125
		c0.115,0,0.207-0.018,0.266-0.041l-0.014-0.225l-0.174,0.021c-0.167,0-0.225-0.116-0.225-0.32v-0.888h0.428v-0.229h-0.428v-0.473
		L50.46,12.072z M49.947,13.828c-0.085,0.037-0.197,0.082-0.367,0.082c-0.326,0-0.572-0.235-0.572-0.616
		c0-0.344,0.205-0.623,0.582-0.623c0.164,0,0.275,0.038,0.349,0.079l0.067-0.231c-0.082-0.041-0.237-0.086-0.416-0.086
		c-0.536,0-0.885,0.368-0.885,0.875c0,0.504,0.324,0.84,0.82,0.84c0.221,0,0.395-0.055,0.473-0.096L49.947,13.828z M47.291,13.13
		c0.023-0.208,0.156-0.486,0.459-0.486c0.336,0,0.418,0.296,0.414,0.486H47.291z M48.443,13.344l0.01-0.14
		c0-0.303-0.143-0.775-0.68-0.775c-0.48,0-0.771,0.392-0.771,0.888c0,0.498,0.303,0.832,0.81,0.832c0.263,0,0.442-0.056,0.548-0.104
		l-0.051-0.214c-0.112,0.047-0.241,0.085-0.456,0.085c-0.299,0-0.56-0.167-0.563-0.572H48.443z M46.317,14.114h0.3v-2.416h-0.3
		V14.114z M44.783,13.13c0.023-0.208,0.156-0.486,0.459-0.486c0.338,0,0.418,0.296,0.416,0.486H44.783z M45.937,13.344l0.01-0.14
		c0-0.303-0.143-0.775-0.681-0.775c-0.479,0-0.771,0.392-0.771,0.888c0,0.498,0.303,0.832,0.809,0.832
		c0.263,0,0.443-0.056,0.549-0.104l-0.051-0.214c-0.113,0.047-0.242,0.085-0.457,0.085c-0.299,0-0.559-0.167-0.564-0.572H45.937z
		 M42.81,14.001c0.122,0.081,0.363,0.146,0.585,0.146c0.541,0,0.804-0.307,0.804-0.66c0-0.337-0.197-0.524-0.586-0.674
		c-0.316-0.123-0.455-0.229-0.455-0.442c0-0.157,0.118-0.344,0.432-0.344c0.209,0,0.361,0.068,0.437,0.108l0.081-0.241
		c-0.102-0.058-0.271-0.112-0.507-0.112c-0.445,0-0.741,0.266-0.741,0.623c0,0.323,0.23,0.517,0.605,0.649
		c0.31,0.119,0.432,0.242,0.432,0.456c0,0.231-0.177,0.393-0.479,0.393c-0.205,0-0.397-0.068-0.53-0.15L42.81,14.001z"/>
	<path fill="#808285" d="M53.928,18.118c0.116,0.067,0.282,0.112,0.463,0.112c0.392,0,0.616-0.205,0.616-0.494
		c0-0.244-0.146-0.387-0.434-0.496c-0.214-0.081-0.313-0.143-0.313-0.279c0-0.122,0.099-0.225,0.275-0.225
		c0.152,0,0.271,0.055,0.336,0.096l0.076-0.218c-0.093-0.056-0.238-0.104-0.406-0.104c-0.354,0-0.567,0.218-0.567,0.483
		c0,0.197,0.14,0.361,0.437,0.467c0.221,0.081,0.307,0.159,0.307,0.303c0,0.137-0.104,0.245-0.32,0.245
		c-0.148,0-0.307-0.062-0.395-0.118L53.928,18.118z M53.24,18.195h0.301v-2.416H53.24V18.195z M52.594,15.898
		c-0.108,0-0.187,0.082-0.187,0.188c0,0.103,0.074,0.185,0.18,0.185c0.119,0,0.193-0.082,0.19-0.185
		C52.778,15.98,52.707,15.898,52.594,15.898z M52.744,18.195V16.55h-0.299v1.646H52.744z M51.671,17.641l-0.017,0.096
		c-0.048,0.141-0.184,0.275-0.397,0.275c-0.153,0-0.282-0.092-0.282-0.285c0-0.319,0.371-0.377,0.696-0.371V17.641z M51.988,18.195
		c-0.02-0.111-0.027-0.252-0.027-0.395v-0.615c0-0.33-0.121-0.675-0.625-0.675c-0.207,0-0.404,0.06-0.541,0.146l0.067,0.196
		c0.116-0.074,0.276-0.121,0.429-0.121c0.338,0,0.375,0.244,0.375,0.381v0.033c-0.637-0.002-0.99,0.215-0.99,0.612
		c0,0.238,0.171,0.474,0.504,0.474c0.234,0,0.41-0.115,0.504-0.244h0.011l0.022,0.207H51.988L51.988,18.195z M49.746,16.154v0.396
		h-0.254v0.228h0.254v0.898c0,0.194,0.031,0.342,0.116,0.43c0.071,0.082,0.185,0.125,0.323,0.125c0.115,0,0.207-0.017,0.266-0.041
		l-0.014-0.225l-0.174,0.021c-0.166,0-0.225-0.115-0.225-0.319v-0.89h0.428V16.55h-0.428v-0.474L49.746,16.154z M48.145,17.212
		c0.022-0.207,0.155-0.485,0.459-0.485c0.337,0,0.418,0.295,0.415,0.485H48.145z M49.298,17.427l0.01-0.14
		c0-0.303-0.143-0.776-0.682-0.776c-0.479,0-0.771,0.392-0.771,0.89c0,0.496,0.304,0.83,0.81,0.83c0.263,0,0.442-0.056,0.549-0.103
		l-0.051-0.215c-0.113,0.048-0.242,0.085-0.457,0.085c-0.299,0-0.559-0.167-0.564-0.571H49.298z M46.001,16.15
		c0.078-0.017,0.193-0.029,0.347-0.029c0.627,0,0.933,0.344,0.93,0.885c0,0.619-0.344,0.973-0.978,0.973
		c-0.115,0-0.225-0.002-0.299-0.017V16.15z M45.705,18.189c0.149,0.018,0.326,0.026,0.537,0.026c0.446,0,0.801-0.114,1.014-0.33
		c0.216-0.211,0.33-0.517,0.33-0.892c0-0.371-0.119-0.637-0.321-0.823c-0.201-0.188-0.505-0.286-0.931-0.286
		c-0.233,0-0.449,0.021-0.629,0.049V18.189z M43.591,16.07c0.188,0,0.267,0.156,0.267,0.296c0,0.192-0.149,0.315-0.381,0.448
		c-0.101-0.123-0.174-0.248-0.174-0.412C43.303,16.227,43.401,16.07,43.591,16.07z M43.527,18.009c-0.275,0-0.47-0.2-0.47-0.463
		c0-0.241,0.174-0.388,0.296-0.467c0.256,0.293,0.511,0.571,0.646,0.722C43.892,17.92,43.725,18.009,43.527,18.009z M44.714,18.195
		c-0.137-0.146-0.254-0.274-0.377-0.403c0.17-0.201,0.269-0.487,0.33-0.849h-0.272c-0.043,0.289-0.115,0.512-0.222,0.671
		c-0.146-0.163-0.362-0.415-0.559-0.64v-0.011c0.365-0.181,0.504-0.371,0.504-0.612c0-0.295-0.221-0.486-0.507-0.486
		c-0.381,0-0.581,0.285-0.581,0.564c0,0.163,0.07,0.33,0.189,0.479v0.011c-0.262,0.143-0.449,0.355-0.449,0.67
		c0,0.344,0.26,0.645,0.705,0.645c0.252,0,0.473-0.08,0.67-0.264c0.089,0.096,0.15,0.16,0.215,0.225H44.714L44.714,18.195z"/>
</g>
</svg>
