<?xml version="1.0" encoding="utf-8"?>
<!-- Generator: Adobe Illustrator 16.0.0, SVG Export Plug-In . SVG Version: 6.00 Build 0)  -->
<!DOCTYPE svg PUBLIC "-//W3C//DTD SVG 1.1//EN" "http://www.w3.org/Graphics/SVG/1.1/DTD/svg11.dtd">
<svg version="1.1" id="Layer_1" xmlns="http://www.w3.org/2000/svg" xmlns:xlink="http://www.w3.org/1999/xlink" x="0px" y="0px"
	 width="58.167px" height="13.833px" viewBox="0 0 58.167 13.833" enable-background="new 0 0 58.167 13.833" xml:space="preserve">
<g>
	<polygon fill="#F7F7F7" points="18.425,13.273 0.3,13.273 3.229,6.721 0.3,0.523 18.425,0.523 21.458,6.774 	"/>
	<polygon fill="#8C8C8C" points="18.425,13.273 18.425,13.223 0.377,13.223 3.285,6.719 0.379,0.573 18.394,0.573 21.403,6.774 
		18.38,13.252 18.425,13.273 18.425,13.223 18.425,13.273 18.471,13.293 21.513,6.773 18.457,0.473 0.221,0.473 3.174,6.721 
		0.223,13.323 18.457,13.323 18.471,13.293 	"/>
</g>
<g>
	<polygon fill="#009444" points="36.509,13.273 18.384,13.273 21.313,6.721 18.384,0.523 36.509,0.523 39.541,6.774 	"/>
	<polygon fill="#009444" points="36.509,13.273 36.509,13.223 18.461,13.223 21.368,6.719 18.463,0.573 36.479,0.573 39.485,6.774 
		36.464,13.252 36.509,13.273 36.509,13.223 36.509,13.273 36.555,13.293 39.597,6.773 36.541,0.473 18.305,0.473 21.258,6.721 
		18.307,13.323 36.542,13.323 36.555,13.293 	"/>
</g>
<g>
	<polygon fill="#F7F7F7" points="54.471,13.273 36.346,13.273 39.273,6.721 36.346,0.523 54.471,0.523 57.501,6.774 	"/>
	<polygon fill="#8C8C8C" points="54.471,13.273 54.471,13.223 36.423,13.223 39.328,6.719 36.425,0.573 54.439,0.573 57.446,6.774 
		54.425,13.252 54.471,13.273 54.471,13.223 54.471,13.273 54.516,13.293 57.558,6.773 54.501,0.473 36.267,0.473 39.219,6.721 
		36.269,13.323 54.503,13.323 54.516,13.293 	"/>
</g>
<g>
	<path fill="#808285" d="M14.365,4.247c0.176,0,0.25,0.147,0.25,0.279c0,0.183-0.142,0.298-0.359,0.424
		c-0.093-0.116-0.164-0.235-0.164-0.389C14.092,4.395,14.185,4.247,14.365,4.247z M14.304,6.077c-0.259,0-0.443-0.189-0.443-0.437
		c0-0.229,0.164-0.367,0.279-0.44c0.241,0.276,0.481,0.54,0.609,0.682C14.647,5.992,14.49,6.077,14.304,6.077z M15.424,6.253
		c-0.128-0.138-0.24-0.26-0.355-0.383c0.16-0.19,0.253-0.459,0.312-0.799h-0.257c-0.042,0.272-0.11,0.481-0.208,0.633
		C14.776,5.55,14.571,5.312,14.388,5.1V5.091c0.343-0.17,0.475-0.351,0.475-0.578c0-0.279-0.208-0.459-0.479-0.459
		c-0.359,0-0.549,0.27-0.549,0.534c0,0.153,0.067,0.31,0.18,0.452v0.009c-0.247,0.135-0.424,0.337-0.424,0.632
		c0,0.324,0.244,0.607,0.665,0.607c0.237,0,0.446-0.075,0.632-0.247c0.084,0.09,0.142,0.15,0.202,0.213H15.424z M11.265,6.253h0.282
		V5.319l0.02-0.132c0.049-0.158,0.192-0.29,0.378-0.29c0.267,0,0.36,0.209,0.36,0.46v0.896h0.281V5.325
		c0-0.533-0.333-0.662-0.549-0.662c-0.256,0-0.437,0.146-0.513,0.293h-0.007l-0.016-0.256h-0.25c0.01,0.128,0.013,0.26,0.013,0.42
		V6.253z M10.655,4.086c-0.103,0-0.176,0.078-0.176,0.176c0,0.097,0.071,0.174,0.169,0.174c0.112,0,0.184-0.077,0.181-0.174
		C10.829,4.163,10.761,4.086,10.655,4.086z M10.796,6.253V4.699h-0.282v1.555H10.796z M9.785,5.592L9.764,5.743
		C9.702,5.922,9.545,6.031,9.372,6.031c-0.305,0-0.46-0.253-0.46-0.559c0-0.359,0.192-0.587,0.462-0.587
		c0.206,0,0.343,0.135,0.394,0.298l0.016,0.129L9.785,5.592L9.785,5.592z M9.831,4.699L9.817,4.935H9.812
		C9.744,4.806,9.596,4.664,9.326,4.664c-0.356,0-0.7,0.3-0.7,0.825c0,0.432,0.276,0.758,0.662,0.758c0.24,0,0.407-0.116,0.494-0.259
		h0.005v0.173c0,0.392-0.211,0.542-0.5,0.542c-0.192,0-0.352-0.057-0.456-0.122L8.76,6.797C8.886,6.88,9.092,6.926,9.277,6.926
		c0.196,0,0.415-0.044,0.566-0.187c0.15-0.135,0.221-0.354,0.221-0.709V5.128c0-0.19,0.006-0.313,0.013-0.427H9.831V4.699z
		 M7.628,4.875c0.334,0,0.466,0.333,0.466,0.597c0,0.351-0.202,0.604-0.472,0.604c-0.276,0-0.472-0.256-0.472-0.597
		C7.15,5.183,7.295,4.875,7.628,4.875z M7.635,4.664c-0.43,0-0.77,0.304-0.77,0.825c0,0.492,0.324,0.8,0.745,0.8
		c0.375,0,0.774-0.25,0.774-0.825C8.383,4.988,8.081,4.664,7.635,4.664z M5.518,6.253h1.203V6.018H5.797V4.089H5.518V6.253z"/>
	<path fill="#808285" d="M17.389,8.452l-0.012,0.121c-0.052,0.214-0.224,0.338-0.414,0.338c-0.305,0-0.459-0.26-0.459-0.575
		c0-0.343,0.174-0.599,0.466-0.599c0.211,0,0.366,0.146,0.408,0.326l0.012,0.119V8.452z M17.389,6.825v0.928h-0.007
		c-0.07-0.126-0.23-0.238-0.468-0.238c-0.378,0-0.7,0.317-0.697,0.835c0,0.472,0.289,0.789,0.665,0.789
		c0.253,0,0.443-0.132,0.53-0.304h0.007l0.013,0.27h0.253c-0.009-0.105-0.013-0.264-0.013-0.401V6.825H17.389z M15.313,9.104h0.279
		V8.276l0.013-0.134c0.039-0.212,0.18-0.361,0.379-0.361l0.096,0.01V7.524l-0.08-0.01c-0.189,0-0.359,0.131-0.43,0.341h-0.014
		l-0.009-0.306h-0.248c0.01,0.145,0.014,0.302,0.014,0.484V9.104z M14.202,7.727c0.333,0,0.465,0.334,0.465,0.598
		c0,0.35-0.202,0.603-0.472,0.603c-0.275,0-0.472-0.257-0.472-0.598C13.724,8.034,13.868,7.727,14.202,7.727z M14.208,7.516
		c-0.43,0-0.77,0.304-0.77,0.825c0,0.491,0.325,0.8,0.745,0.8c0.376,0,0.774-0.253,0.774-0.826
		C14.956,7.839,14.654,7.516,14.208,7.516z M11.043,7.55l0.469,1.554h0.257l0.251-0.739c0.055-0.167,0.103-0.327,0.142-0.512h0.006
		c0.039,0.181,0.083,0.336,0.138,0.51l0.237,0.741H12.8l0.501-1.554h-0.279L12.8,8.33c-0.051,0.185-0.094,0.347-0.119,0.505h-0.009
		c-0.036-0.158-0.08-0.32-0.138-0.508l-0.24-0.777h-0.237l-0.254,0.793c-0.051,0.166-0.103,0.334-0.138,0.492h-0.009
		c-0.028-0.16-0.071-0.322-0.115-0.495L11.335,7.55H11.043L11.043,7.55z M9.841,9.03c0.109,0.063,0.266,0.106,0.437,0.106
		c0.368,0,0.581-0.193,0.581-0.467c0-0.23-0.138-0.366-0.408-0.469c-0.201-0.077-0.294-0.136-0.294-0.263
		c0-0.116,0.093-0.213,0.259-0.213c0.145,0,0.257,0.052,0.318,0.091l0.07-0.204c-0.086-0.053-0.224-0.1-0.382-0.1
		c-0.333,0-0.536,0.207-0.536,0.457c0,0.184,0.132,0.339,0.411,0.438c0.208,0.077,0.29,0.15,0.29,0.285
		c0,0.13-0.098,0.232-0.302,0.232c-0.14,0-0.289-0.06-0.373-0.111L9.841,9.03z M8.568,9.03c0.11,0.063,0.267,0.106,0.438,0.106
		c0.369,0,0.581-0.193,0.581-0.467c0-0.23-0.137-0.366-0.407-0.469C8.978,8.124,8.884,8.065,8.884,7.938
		c0-0.116,0.094-0.213,0.26-0.213c0.145,0,0.256,0.052,0.317,0.091l0.071-0.204c-0.087-0.053-0.225-0.1-0.382-0.1
		c-0.333,0-0.536,0.207-0.536,0.457c0,0.184,0.132,0.339,0.411,0.438c0.208,0.077,0.289,0.15,0.289,0.285
		c0,0.13-0.097,0.232-0.301,0.232c-0.141,0-0.29-0.06-0.373-0.111L8.568,9.03z M7.95,8.581L7.934,8.67
		C7.889,8.803,7.761,8.93,7.559,8.93c-0.145,0-0.267-0.086-0.267-0.269c0-0.302,0.35-0.355,0.658-0.351V8.581z M8.248,9.104
		C8.229,8.997,8.223,8.865,8.223,8.73V8.15c0-0.311-0.116-0.636-0.591-0.636c-0.196,0-0.382,0.054-0.51,0.138l0.063,0.186
		c0.11-0.069,0.261-0.116,0.405-0.116c0.317,0,0.354,0.232,0.354,0.359v0.033c-0.6-0.004-0.934,0.2-0.934,0.575
		c0,0.225,0.16,0.447,0.475,0.447c0.222,0,0.389-0.108,0.475-0.23H7.97l0.022,0.195h0.256V9.104z M5.797,7.169
		C5.845,7.155,5.938,7.147,6.06,7.147c0.309,0,0.511,0.138,0.511,0.422c0,0.299-0.206,0.463-0.542,0.463
		c-0.094,0-0.171-0.008-0.231-0.021V7.169z M5.518,9.104h0.279V8.237l0.224,0.02c0.273,0,0.513-0.079,0.661-0.236
		c0.11-0.112,0.167-0.267,0.167-0.462c0-0.192-0.071-0.35-0.189-0.452C6.531,6.991,6.329,6.927,6.053,6.927
		c-0.224,0-0.4,0.019-0.535,0.042V9.104z"/>
</g>
<g>
	<path fill="#FFFFFF" d="M31.883,5.107c0.022-0.2,0.149-0.467,0.44-0.467c0.322,0,0.401,0.285,0.397,0.467H31.883z M32.99,5.312
		l0.009-0.134c0-0.291-0.137-0.745-0.652-0.745c-0.461,0-0.74,0.376-0.74,0.853s0.291,0.797,0.777,0.797
		c0.252,0,0.424-0.052,0.526-0.098L32.861,5.78c-0.107,0.045-0.231,0.082-0.438,0.082c-0.288,0-0.538-0.16-0.541-0.549H32.99z
		 M30.948,6.05h0.288V3.73h-0.288V6.05z M29.554,6.05V4.688h0.634V6.05h0.284V4.469h-0.918V4.391c0-0.252,0.088-0.464,0.392-0.464
		c0.141,0,0.265,0.043,0.334,0.092l0.08-0.22c-0.08-0.059-0.255-0.103-0.401-0.103c-0.444,0-0.688,0.27-0.688,0.689V4.47h-0.223
		v0.22h0.223v1.361h0.284V6.05z M28.109,4.649c0.34,0,0.475,0.34,0.475,0.608c0,0.356-0.206,0.614-0.48,0.614
		c-0.28,0-0.48-0.261-0.48-0.607C27.623,4.962,27.77,4.649,28.109,4.649z M28.116,4.434c-0.438,0-0.784,0.31-0.784,0.839
		c0,0.5,0.331,0.815,0.758,0.815c0.382,0,0.787-0.256,0.787-0.84C28.877,4.763,28.569,4.434,28.116,4.434z M26.41,6.05h0.285V5.208
		l0.013-0.135c0.04-0.215,0.182-0.369,0.385-0.369l0.098,0.011V4.443l-0.082-0.01c-0.193,0-0.366,0.134-0.438,0.346h-0.013
		l-0.01-0.31h-0.25c0.01,0.147,0.013,0.307,0.013,0.494L26.41,6.05L26.41,6.05z M25.019,4.081c0.049-0.013,0.144-0.022,0.268-0.022
		c0.314,0,0.52,0.141,0.52,0.432c0,0.303-0.209,0.471-0.552,0.471c-0.096,0-0.174-0.008-0.235-0.022V4.081z M24.735,6.05h0.284
		V5.168l0.229,0.02c0.277,0,0.522-0.081,0.673-0.242c0.111-0.114,0.17-0.271,0.17-0.47c0-0.197-0.071-0.356-0.192-0.461
		c-0.131-0.116-0.337-0.182-0.618-0.182c-0.229,0-0.408,0.021-0.545,0.043V6.05z"/>
	<path fill="#FFFFFF" d="M34.447,8.762c0.11,0.063,0.271,0.106,0.444,0.106c0.377,0,0.591-0.195,0.591-0.475
		c0-0.234-0.14-0.371-0.415-0.477c-0.206-0.078-0.3-0.137-0.3-0.266c0-0.118,0.094-0.218,0.263-0.218
		c0.146,0,0.261,0.055,0.322,0.094l0.072-0.21c-0.088-0.053-0.228-0.101-0.389-0.101c-0.34,0-0.544,0.211-0.544,0.464
		c0,0.189,0.135,0.346,0.418,0.447c0.214,0.079,0.295,0.153,0.295,0.291c0,0.132-0.098,0.236-0.307,0.236
		c-0.142,0-0.294-0.061-0.38-0.113L34.447,8.762z M33.797,8.164l-0.023,0.153c-0.061,0.182-0.22,0.295-0.397,0.295
		c-0.31,0-0.467-0.259-0.467-0.57c0-0.365,0.196-0.597,0.471-0.597c0.209,0,0.349,0.14,0.402,0.303l0.017,0.131L33.797,8.164
		L33.797,8.164z M33.842,7.255L33.83,7.493h-0.007c-0.068-0.132-0.221-0.273-0.494-0.273c-0.361,0-0.713,0.303-0.713,0.838
		c0,0.439,0.282,0.774,0.674,0.774c0.246,0,0.416-0.118,0.503-0.265h0.007v0.178c0,0.397-0.217,0.552-0.51,0.552
		c-0.195,0-0.358-0.061-0.463-0.126l-0.071,0.22c0.127,0.084,0.335,0.131,0.524,0.131c0.201,0,0.422-0.047,0.577-0.189
		c0.153-0.137,0.224-0.358,0.224-0.722V7.693c0-0.193,0.008-0.321,0.015-0.435h-0.253V7.255z M30.919,8.836h0.286v-0.95l0.021-0.136
		c0.049-0.159,0.195-0.295,0.384-0.295c0.271,0,0.366,0.215,0.366,0.468v0.911h0.289V7.891c0-0.542-0.34-0.674-0.56-0.674
		c-0.261,0-0.444,0.148-0.522,0.299h-0.006l-0.018-0.26h-0.256c0.01,0.131,0.014,0.264,0.014,0.427L30.919,8.836L30.919,8.836z
		 M30.298,6.631c-0.105,0-0.181,0.079-0.181,0.18c0,0.099,0.072,0.178,0.173,0.178c0.114,0,0.187-0.079,0.183-0.178
		C30.475,6.71,30.405,6.631,30.298,6.631z M30.443,8.836V7.256h-0.288v1.581H30.443z M29.138,6.875v0.381h-0.244v0.219h0.244v0.863
		c0,0.184,0.029,0.326,0.112,0.412c0.068,0.077,0.176,0.12,0.31,0.12c0.111,0,0.2-0.017,0.256-0.039l-0.015-0.216l-0.167,0.021
		c-0.16,0-0.216-0.112-0.216-0.307V7.475h0.412V7.253h-0.412V6.798L29.138,6.875z M28.057,6.875v0.381h-0.245v0.219h0.245v0.863
		c0,0.184,0.03,0.326,0.111,0.412c0.068,0.077,0.177,0.12,0.31,0.12c0.112,0,0.2-0.017,0.256-0.039L28.72,8.616l-0.167,0.021
		c-0.16,0-0.216-0.112-0.216-0.307V7.475h0.412V7.253h-0.412V6.798L28.057,6.875z M26.519,7.893
		c0.023-0.201,0.151-0.467,0.441-0.467c0.324,0,0.401,0.283,0.398,0.467H26.519z M27.627,8.097l0.009-0.134
		c0-0.291-0.137-0.744-0.652-0.744c-0.461,0-0.742,0.376-0.742,0.853c0,0.478,0.292,0.799,0.778,0.799
		c0.251,0,0.425-0.054,0.526-0.101l-0.049-0.204c-0.108,0.045-0.232,0.08-0.438,0.08c-0.288,0-0.536-0.159-0.543-0.549H27.627z
		 M24.625,8.73c0.118,0.077,0.35,0.141,0.562,0.141c0.52,0,0.771-0.296,0.771-0.634c0-0.324-0.188-0.504-0.562-0.647
		c-0.303-0.118-0.438-0.22-0.438-0.425c0-0.149,0.114-0.33,0.415-0.33c0.199,0,0.345,0.065,0.418,0.103l0.079-0.23
		C25.772,6.651,25.609,6.6,25.383,6.6c-0.428,0-0.713,0.256-0.713,0.598c0,0.31,0.222,0.496,0.582,0.623
		c0.298,0.114,0.415,0.232,0.415,0.437c0,0.222-0.17,0.377-0.461,0.377c-0.196,0-0.382-0.064-0.51-0.144L24.625,8.73z"/>
</g>
<g>
	<path fill="#808285" d="M46.564,3.348V3.68h-0.216v0.194h0.216v0.754c0,0.163,0.025,0.286,0.096,0.361
		c0.062,0.068,0.154,0.106,0.272,0.106c0.099,0,0.175-0.015,0.224-0.035l-0.01-0.189l-0.147,0.018c-0.14,0-0.19-0.098-0.19-0.269
		V3.872h0.361V3.68h-0.361V3.282L46.564,3.348z M45.501,5.066h0.248V4.327l0.012-0.118c0.035-0.188,0.162-0.323,0.339-0.323
		l0.085,0.01V3.657l-0.07-0.008c-0.168,0-0.32,0.117-0.385,0.302h-0.011L45.71,3.68h-0.22c0.009,0.128,0.011,0.269,0.011,0.432
		V5.066z M44.512,3.837c0.298,0,0.415,0.297,0.415,0.532c0,0.312-0.182,0.539-0.421,0.539c-0.246,0-0.421-0.228-0.421-0.532
		C44.085,4.112,44.214,3.837,44.512,3.837z M44.517,3.648c-0.383,0-0.686,0.271-0.686,0.734c0,0.439,0.289,0.714,0.664,0.714
		c0.335,0,0.689-0.225,0.689-0.735C45.185,3.938,44.916,3.648,44.517,3.648z M42.552,4.265l0.018-0.104
		c0.05-0.189,0.208-0.312,0.38-0.312c0.267,0,0.413,0.238,0.413,0.516c0,0.317-0.155,0.536-0.421,0.536
		c-0.181,0-0.333-0.122-0.378-0.296l-0.012-0.103V4.265z M42.302,5.633h0.25V4.879h0.005c0.085,0.138,0.243,0.218,0.427,0.218
		c0.327,0,0.629-0.247,0.629-0.745c0-0.42-0.25-0.704-0.585-0.704c-0.228,0-0.39,0.101-0.493,0.27h-0.006L42.518,3.68H42.29
		c0.008,0.131,0.013,0.274,0.013,0.452V5.633z M40.804,4.971c0.102,0.068,0.305,0.123,0.491,0.123c0.455,0,0.676-0.259,0.676-0.555
		c0-0.284-0.165-0.442-0.492-0.567c-0.266-0.104-0.383-0.193-0.383-0.372c0-0.131,0.1-0.29,0.364-0.29
		c0.176,0,0.303,0.058,0.366,0.09l0.068-0.202c-0.087-0.048-0.23-0.094-0.427-0.094c-0.376,0-0.624,0.224-0.624,0.524
		c0,0.272,0.192,0.436,0.508,0.547c0.262,0.099,0.364,0.203,0.364,0.383c0,0.194-0.148,0.33-0.403,0.33
		c-0.171,0-0.333-0.057-0.444-0.126L40.804,4.971z"/>
	<path fill="#808285" d="M51.86,7.836c0.098,0.057,0.237,0.095,0.389,0.095c0.332,0,0.52-0.173,0.52-0.417
		c0-0.205-0.123-0.326-0.364-0.417c-0.181-0.069-0.264-0.122-0.264-0.235c0-0.104,0.083-0.189,0.23-0.189
		c0.129,0,0.229,0.046,0.283,0.08l0.063-0.182c-0.078-0.047-0.201-0.087-0.341-0.087c-0.298,0-0.478,0.183-0.478,0.406
		c0,0.166,0.118,0.303,0.366,0.393c0.188,0.069,0.26,0.135,0.26,0.254c0,0.116-0.088,0.206-0.269,0.206
		c-0.126,0-0.259-0.051-0.333-0.1L51.86,7.836z M50.371,7.902h0.251V7.069l0.017-0.117c0.046-0.141,0.174-0.259,0.339-0.259
		c0.237,0,0.321,0.188,0.321,0.411v0.798h0.25V7.074c0-0.475-0.297-0.59-0.488-0.59c-0.228,0-0.39,0.129-0.457,0.261h-0.007
		l-0.015-0.229h-0.224c0.01,0.115,0.013,0.231,0.013,0.375V7.902z M49.379,6.675c0.297,0,0.415,0.297,0.415,0.532
		c0,0.312-0.182,0.538-0.42,0.538c-0.247,0-0.421-0.229-0.421-0.533C48.954,6.948,49.082,6.675,49.379,6.675z M49.386,6.484
		c-0.385,0-0.688,0.273-0.688,0.736c0,0.438,0.289,0.712,0.664,0.712c0.335,0,0.689-0.225,0.689-0.735
		C50.052,6.774,49.783,6.484,49.386,6.484z M48.253,5.97c-0.091,0-0.157,0.068-0.157,0.158c0,0.086,0.063,0.155,0.151,0.155
		c0.101,0,0.163-0.068,0.16-0.155C48.41,6.039,48.349,5.97,48.253,5.97z M48.38,7.902V6.517h-0.251v1.385H48.38z M47.239,6.185
		v0.332h-0.216v0.192h0.216v0.756c0,0.162,0.025,0.285,0.096,0.361c0.062,0.067,0.155,0.104,0.272,0.104
		c0.098,0,0.175-0.014,0.225-0.033l-0.013-0.19l-0.146,0.02c-0.14,0-0.189-0.1-0.189-0.27V6.709h0.36V6.517h-0.36V6.12L47.239,6.185
		z M46.806,7.663c-0.07,0.031-0.166,0.068-0.309,0.068c-0.274,0-0.48-0.199-0.48-0.519c0-0.289,0.172-0.524,0.489-0.524
		c0.137,0,0.23,0.033,0.294,0.067l0.057-0.194c-0.069-0.035-0.201-0.072-0.351-0.072c-0.451,0-0.745,0.31-0.745,0.736
		c0,0.424,0.273,0.707,0.69,0.707c0.186,0,0.331-0.047,0.397-0.081L46.806,7.663z M44.572,7.074c0.02-0.174,0.132-0.408,0.387-0.408
		c0.282,0,0.352,0.249,0.348,0.408H44.572z M45.542,7.255l0.009-0.119c0-0.254-0.121-0.652-0.572-0.652
		c-0.404,0-0.649,0.33-0.649,0.747c0,0.419,0.256,0.7,0.683,0.7c0.221,0,0.371-0.047,0.461-0.086l-0.043-0.182
		c-0.096,0.04-0.203,0.072-0.384,0.072c-0.252,0-0.472-0.141-0.474-0.48H45.542z M43.753,7.902h0.252V5.87h-0.252V7.902z
		 M42.462,7.074c0.02-0.174,0.132-0.408,0.387-0.408c0.284,0,0.351,0.249,0.35,0.408H42.462z M43.434,7.255l0.008-0.119
		c0-0.254-0.12-0.652-0.572-0.652c-0.403,0-0.648,0.33-0.648,0.747c0,0.419,0.255,0.7,0.68,0.7c0.222,0,0.373-0.047,0.462-0.086
		L43.32,7.664c-0.095,0.04-0.203,0.072-0.384,0.072c-0.251,0-0.471-0.141-0.475-0.48H43.434z M40.804,7.806
		c0.102,0.069,0.305,0.124,0.491,0.124c0.455,0,0.676-0.258,0.676-0.555c0-0.283-0.165-0.441-0.492-0.567
		c-0.266-0.104-0.383-0.192-0.383-0.371c0-0.133,0.1-0.29,0.364-0.29c0.176,0,0.303,0.057,0.366,0.091l0.068-0.203
		C41.81,5.987,41.667,5.94,41.468,5.94c-0.374,0-0.622,0.224-0.622,0.524c0,0.272,0.193,0.435,0.509,0.545
		c0.261,0.101,0.363,0.204,0.363,0.384c0,0.194-0.148,0.331-0.403,0.331c-0.173,0-0.333-0.058-0.445-0.127L40.804,7.806z"/>
	<path fill="#808285" d="M50.155,10.36c0.098,0.058,0.238,0.096,0.39,0.096c0.329,0,0.519-0.173,0.519-0.416
		c0-0.205-0.124-0.325-0.366-0.417c-0.18-0.068-0.263-0.121-0.263-0.234c0-0.104,0.083-0.189,0.231-0.189
		c0.127,0,0.228,0.047,0.282,0.08l0.063-0.183c-0.078-0.047-0.199-0.088-0.341-0.088c-0.298,0-0.477,0.184-0.477,0.406
		c0,0.166,0.117,0.303,0.367,0.393c0.187,0.068,0.258,0.135,0.258,0.254c0,0.116-0.087,0.207-0.269,0.207
		c-0.125,0-0.258-0.053-0.332-0.1L50.155,10.36z M49.576,10.425h0.254V8.394h-0.254V10.425z M49.033,8.493
		c-0.09,0-0.158,0.07-0.158,0.159c0,0.086,0.063,0.155,0.152,0.155c0.101,0,0.162-0.069,0.16-0.155
		C49.188,8.563,49.127,8.493,49.033,8.493z M49.159,10.425V9.042h-0.251v1.385L49.159,10.425L49.159,10.425z M48.257,9.96
		l-0.016,0.079c-0.039,0.119-0.154,0.232-0.333,0.232c-0.129,0-0.238-0.077-0.238-0.24c0-0.268,0.313-0.316,0.587-0.313V9.96z
		 M48.524,10.425c-0.018-0.093-0.024-0.212-0.024-0.333V9.576c0-0.276-0.1-0.567-0.525-0.567c-0.174,0-0.339,0.05-0.455,0.123
		l0.057,0.165c0.098-0.063,0.232-0.103,0.361-0.103c0.284,0,0.315,0.205,0.315,0.321v0.027c-0.536-0.001-0.833,0.181-0.833,0.515
		c0,0.2,0.145,0.398,0.424,0.398c0.196,0,0.346-0.098,0.425-0.205h0.009l0.019,0.174L48.524,10.425L48.524,10.425z M46.637,8.709
		v0.332h-0.214v0.191h0.214v0.756c0,0.163,0.026,0.288,0.099,0.362c0.06,0.068,0.155,0.104,0.271,0.104
		c0.097,0,0.174-0.015,0.224-0.034l-0.011-0.188l-0.146,0.017c-0.141,0-0.189-0.096-0.189-0.269V9.233h0.36V9.042h-0.36V8.643
		L46.637,8.709z M45.291,9.598c0.02-0.174,0.131-0.407,0.387-0.407c0.283,0,0.352,0.248,0.349,0.407H45.291z M46.261,9.779
		l0.008-0.116c0-0.256-0.12-0.654-0.573-0.654c-0.403,0-0.649,0.33-0.649,0.749c0,0.418,0.256,0.698,0.682,0.698
		c0.222,0,0.372-0.047,0.463-0.087l-0.044-0.181c-0.095,0.041-0.202,0.072-0.384,0.072c-0.253,0-0.471-0.142-0.475-0.481H46.261z
		 M43.488,8.706c0.066-0.015,0.162-0.023,0.291-0.023c0.527,0,0.785,0.289,0.783,0.743c0,0.521-0.289,0.818-0.823,0.818
		c-0.097,0-0.189-0.002-0.251-0.015V8.706z M43.238,10.42c0.127,0.016,0.275,0.022,0.452,0.022c0.376,0,0.674-0.097,0.853-0.278
		c0.183-0.177,0.277-0.435,0.277-0.75c0-0.313-0.1-0.535-0.27-0.692c-0.169-0.157-0.424-0.241-0.783-0.241
		c-0.195,0-0.377,0.019-0.529,0.042V10.42z M41.46,8.637c0.158,0,0.225,0.132,0.225,0.249c0,0.163-0.126,0.267-0.32,0.378
		c-0.085-0.104-0.146-0.209-0.146-0.347C41.218,8.77,41.3,8.637,41.46,8.637z M41.407,10.268c-0.231,0-0.396-0.167-0.396-0.389
		c0-0.202,0.146-0.325,0.249-0.393c0.215,0.246,0.429,0.479,0.544,0.607C41.714,10.195,41.573,10.268,41.407,10.268z M42.406,10.425
		c-0.116-0.122-0.214-0.23-0.318-0.339c0.145-0.17,0.227-0.409,0.278-0.714h-0.229c-0.035,0.243-0.097,0.431-0.186,0.564
		c-0.124-0.137-0.305-0.349-0.472-0.538V9.39c0.309-0.153,0.425-0.313,0.425-0.516c0-0.248-0.186-0.408-0.427-0.408
		c-0.32,0-0.488,0.239-0.488,0.473c0,0.139,0.059,0.278,0.159,0.405v0.008c-0.221,0.121-0.378,0.299-0.378,0.563
		c0,0.291,0.219,0.543,0.593,0.543c0.212,0,0.398-0.065,0.563-0.223c0.075,0.082,0.126,0.136,0.181,0.19H42.406L42.406,10.425z"/>
</g>
</svg>
