<?xml version="1.0" encoding="utf-8"?>
<!-- Generator: Adobe Illustrator 16.0.0, SVG Export Plug-In . SVG Version: 6.00 Build 0)  -->
<!DOCTYPE svg PUBLIC "-//W3C//DTD SVG 1.1//EN" "http://www.w3.org/Graphics/SVG/1.1/DTD/svg11.dtd">
<svg version="1.1" id="Layer_1" xmlns="http://www.w3.org/2000/svg" xmlns:xlink="http://www.w3.org/1999/xlink" x="0px" y="0px"
	 width="63.126px" height="14px" viewBox="65 -45.055 63.126 14" enable-background="new 65 -45.055 63.126 14"
	 xml:space="preserve">
<g>
	<g>
		<path fill-rule="evenodd" clip-rule="evenodd" fill="#FFFFFF" d="M108.525-43.613c0.412,0,11.064,0.002,11.439,0.002
			c0.783,0,1.566,0.003,2.35-0.002c0.121-0.001,0.197,0.034,0.268,0.139c1.166,1.757,2.336,3.512,3.51,5.264
			c0.076,0.116,0.074,0.194-0.002,0.309c-1.174,1.752-2.34,3.508-3.516,5.26c-0.045,0.066-0.145,0.137-0.221,0.137
			c-1.146,0.01-17.33-0.004-15.15-0.004c0.043-0.07,5.086-5.415,4.996-5.548C111.044-39.781,108.582-43.523,108.525-43.613z"/>
		<path fill-rule="evenodd" clip-rule="evenodd" fill="#FFFFFF" d="M105.015-43.611c0.41,0,0.785,0,1.16,0
			c0.783,0,1.566,0.003,2.35-0.002c0.123-0.001,0.199,0.034,0.27,0.139c1.164,1.757,2.334,3.512,3.508,5.264
			c0.076,0.116,0.076,0.194,0,0.309c-1.176,1.752-2.342,3.508-3.516,5.26c-0.045,0.066-0.146,0.137-0.223,0.137
			c-1.145,0.01-2.291,0.008-3.436,0.006c-0.027,0-0.053-0.004-0.105-0.01c0.043-0.07,0.076-0.129,0.115-0.186
			c1.15-1.729,2.301-3.457,3.457-5.183c0.09-0.133,0.092-0.223,0.002-0.355c-1.156-1.725-2.307-3.453-3.459-5.182
			C105.105-43.466,105.072-43.521,105.015-43.611z"/>
	</g>
	<g>
		<g>
			<path fill-rule="evenodd" clip-rule="evenodd" fill="#245E30" d="M107.046-44.546c0.48,0,12.922,0.004,13.359,0.004
				c0.916,0,1.83,0.003,2.746-0.004c0.143,0,0.23,0.04,0.313,0.163c1.361,2.052,2.727,4.102,4.098,6.148
				c0.09,0.135,0.086,0.226-0.002,0.361c-1.369,2.047-2.734,4.098-4.104,6.143c-0.055,0.078-0.172,0.158-0.262,0.158
				c-1.336,0.012-29.829,0.002-17.693-0.004c0.053-0.084,5.941-6.324,5.838-6.48C109.99-40.071,107.113-44.44,107.046-44.546z"/>
			<path fill-rule="evenodd" clip-rule="evenodd" fill="#245E30" d="M102.947-44.542c0.48,0,0.918,0,1.357,0
				c0.912,0,1.828,0.003,2.742-0.004c0.145,0,0.232,0.04,0.313,0.163c1.363,2.052,2.729,4.102,4.1,6.148
				c0.09,0.135,0.088,0.226-0.002,0.361c-1.371,2.047-2.732,4.098-4.105,6.143c-0.051,0.078-0.17,0.158-0.258,0.158
				c-1.338,0.012-2.678,0.008-4.016,0.008c-0.029,0-0.059-0.006-0.123-0.012c0.051-0.084,0.092-0.152,0.135-0.217
				c1.346-2.018,2.689-4.037,4.039-6.053c0.104-0.155,0.107-0.259,0.004-0.415c-1.352-2.015-2.695-4.033-4.039-6.051
				C103.052-44.374,103.013-44.438,102.947-44.542z"/>
		</g>
		<g>
			<path fill-rule="evenodd" clip-rule="evenodd" fill="#FFFFFF" d="M107.478-44.271c0.461,0,12.371,0.002,12.791,0.002
				c0.875,0,1.75,0.003,2.625-0.002c0.141-0.001,0.223,0.038,0.301,0.156c1.305,1.964,2.613,3.926,3.924,5.886
				c0.086,0.129,0.086,0.216-0.002,0.344c-1.311,1.962-2.617,3.925-3.93,5.884c-0.049,0.072-0.162,0.15-0.248,0.15
				c-1.279,0.012-19.377-0.006-16.939-0.006c0.051-0.078,5.689-6.053,5.588-6.202C110.294-39.986,107.542-44.17,107.478-44.271z"/>
			<path fill-rule="evenodd" clip-rule="evenodd" fill="#FFFFFF" d="M103.554-44.268c0.459,0,0.879,0,1.297,0
				c0.877,0,1.752,0.003,2.627-0.002c0.139-0.001,0.223,0.038,0.301,0.156c1.305,1.964,2.611,3.926,3.924,5.886
				c0.086,0.129,0.084,0.216-0.002,0.344c-1.311,1.962-2.617,3.925-3.93,5.884c-0.051,0.072-0.164,0.15-0.248,0.15
				c-1.281,0.012-2.561,0.008-3.842,0.008c-0.029,0-0.057-0.006-0.119-0.014c0.049-0.078,0.088-0.143,0.129-0.207
				c1.287-1.93,2.574-3.863,3.867-5.794c0.098-0.147,0.104-0.248,0.002-0.397c-1.293-1.928-2.578-3.86-3.865-5.792
				C103.656-44.107,103.619-44.168,103.554-44.268z"/>
		</g>
	</g>
	<g>
		<g>
			<path fill-rule="evenodd" clip-rule="evenodd" fill="#245E30" d="M107.794-44.015c0.445,0,11.955,0.003,12.359,0.003
				c0.848,0,1.693,0.003,2.539-0.003c0.133,0,0.213,0.037,0.289,0.151c1.262,1.898,2.525,3.794,3.791,5.688
				c0.084,0.125,0.082,0.208,0,0.333c-1.268,1.894-2.529,3.792-3.799,5.683c-0.047,0.074-0.156,0.148-0.24,0.148
				c-1.238,0.01-27.596,0.002-16.369-0.004c0.049-0.078,5.498-5.852,5.402-5.995C110.517-39.875,107.855-43.918,107.794-44.015z"/>
			<path fill-rule="evenodd" clip-rule="evenodd" fill="#245E30" d="M104.003-44.012c0.443,0,0.848,0,1.252,0
				c0.846,0,1.693,0.003,2.539-0.003c0.135,0,0.215,0.037,0.291,0.151c1.258,1.898,2.523,3.794,3.791,5.688
				c0.084,0.125,0.082,0.208-0.002,0.333c-1.268,1.894-2.529,3.792-3.797,5.683c-0.049,0.074-0.158,0.148-0.24,0.148
				c-1.238,0.01-2.475,0.006-3.713,0.006c-0.027,0-0.055-0.006-0.115-0.01c0.049-0.078,0.086-0.141,0.127-0.203
				c1.242-1.865,2.486-3.732,3.736-5.599c0.096-0.142,0.098-0.239,0.002-0.383c-1.25-1.864-2.492-3.732-3.736-5.599
				C104.099-43.856,104.064-43.915,104.003-44.012z"/>
		</g>
		<g>
			<path fill-rule="evenodd" clip-rule="evenodd" fill="#FFFFFF" d="M108.195-43.76c0.426,0,11.443,0.002,11.83,0.002
				c0.813,0,1.621,0.002,2.432-0.002c0.127-0.001,0.205,0.035,0.277,0.144c1.207,1.817,2.418,3.632,3.629,5.445
				c0.08,0.12,0.08,0.2,0,0.32c-1.215,1.813-2.422,3.628-3.635,5.44c-0.047,0.068-0.152,0.141-0.23,0.143
				c-1.184,0.008-17.928-0.008-15.67-0.008c0.045-0.072,5.262-5.598,5.168-5.738C110.8-39.797,108.253-43.667,108.195-43.76z"/>
			<path fill-rule="evenodd" clip-rule="evenodd" fill="#FFFFFF" d="M104.564-43.757c0.426,0,0.813,0,1.201,0
				c0.811,0,1.619,0.002,2.43-0.002c0.127-0.001,0.205,0.035,0.277,0.144c1.207,1.817,2.416,3.632,3.631,5.445
				c0.078,0.12,0.076,0.2-0.004,0.32c-1.211,1.813-2.42,3.628-3.635,5.44c-0.047,0.068-0.15,0.141-0.229,0.143
				c-1.186,0.008-2.371,0.006-3.555,0.004c-0.025,0-0.055-0.004-0.111-0.012c0.047-0.072,0.082-0.133,0.121-0.191
				c1.191-1.787,2.383-3.574,3.578-5.359c0.09-0.137,0.094-0.229,0-0.369c-1.195-1.783-2.385-3.571-3.576-5.358
				C104.658-43.608,104.623-43.665,104.564-43.757z"/>
		</g>
	</g>
</g>
<g>
	<g>
		<g>
			<path fill-rule="evenodd" clip-rule="evenodd" fill="#245E30" d="M88.528-44.545c0.48,0,12.919,0.004,13.358,0.004
				c0.914,0,1.828,0.003,2.744-0.004c0.143,0,0.23,0.04,0.313,0.163c1.361,2.052,2.729,4.102,4.098,6.148
				c0.092,0.135,0.088,0.226-0.002,0.361c-1.369,2.046-2.732,4.097-4.104,6.142c-0.053,0.079-0.172,0.159-0.26,0.159
				c-1.338,0.011-29.829,0.002-17.692-0.005c0.051-0.083,5.941-6.323,5.836-6.479C91.469-40.07,88.594-44.439,88.528-44.545z"/>
			<path fill-rule="evenodd" clip-rule="evenodd" fill="#245E30" d="M84.428-44.542c0.479,0,0.918,0,1.355,0
				c0.914,0,1.83,0.003,2.744-0.004c0.145,0,0.23,0.04,0.313,0.163c1.363,2.052,2.727,4.102,4.098,6.148
				c0.09,0.135,0.088,0.226,0,0.361c-1.371,2.046-2.734,4.097-4.105,6.142c-0.053,0.079-0.172,0.159-0.26,0.159
				c-1.336,0.011-2.676,0.008-4.014,0.008c-0.029,0-0.059-0.006-0.125-0.013c0.053-0.083,0.094-0.152,0.137-0.216
				c1.344-2.019,2.689-4.037,4.037-6.053c0.105-0.155,0.107-0.259,0.004-0.415c-1.35-2.015-2.693-4.033-4.037-6.051
				C84.534-44.373,84.495-44.437,84.428-44.542z"/>
		</g>
		<g>
			<path fill-rule="evenodd" clip-rule="evenodd" fill="#FFFFFF" d="M88.959-44.27c0.459,0,12.37,0.002,12.79,0.002
				c0.873,0,1.75,0.003,2.625-0.002c0.139-0.001,0.223,0.038,0.301,0.156c1.303,1.964,2.611,3.926,3.922,5.886
				c0.088,0.129,0.086,0.216,0,0.344c-1.313,1.96-2.617,3.923-3.932,5.882c-0.049,0.073-0.162,0.15-0.246,0.151
				c-1.281,0.011-19.378-0.006-16.94-0.006c0.051-0.079,5.689-6.052,5.59-6.202C91.776-39.985,89.024-44.169,88.959-44.27z"/>
			<path fill-rule="evenodd" clip-rule="evenodd" fill="#FFFFFF" d="M85.036-44.267c0.459,0,0.879,0,1.297,0
				c0.875,0,1.752,0.003,2.627-0.002c0.137-0.001,0.221,0.038,0.299,0.156c1.305,1.964,2.611,3.926,3.924,5.886
				c0.086,0.129,0.084,0.216,0,0.344c-1.313,1.96-2.617,3.923-3.932,5.882c-0.049,0.073-0.162,0.15-0.246,0.151
				c-1.281,0.011-2.563,0.008-3.844,0.007c-0.029,0-0.057-0.005-0.119-0.013c0.049-0.079,0.088-0.144,0.131-0.207
				c1.287-1.931,2.574-3.864,3.865-5.794c0.1-0.147,0.104-0.248,0.004-0.397c-1.295-1.928-2.58-3.86-3.865-5.792
				C85.137-44.106,85.098-44.167,85.036-44.267z"/>
		</g>
	</g>
	<g>
		<g>
			<path fill-rule="evenodd" clip-rule="evenodd" fill="#245E30" d="M89.276-44.014c0.443,0,11.952,0.003,12.356,0.003
				c0.848,0,1.693,0.003,2.541-0.003c0.133,0,0.213,0.037,0.287,0.151c1.262,1.898,2.525,3.794,3.793,5.688
				c0.084,0.125,0.082,0.208-0.002,0.333c-1.268,1.893-2.527,3.791-3.797,5.682c-0.049,0.073-0.158,0.147-0.24,0.147
				c-1.238,0.01-27.595,0.002-16.368-0.004c0.049-0.077,5.498-5.85,5.4-5.994C91.997-39.874,89.336-43.917,89.276-44.014z"/>
			<path fill-rule="evenodd" clip-rule="evenodd" fill="#245E30" d="M85.483-44.011c0.443,0,0.85,0,1.254,0
				c0.846,0,1.693,0.003,2.539-0.003c0.133,0,0.215,0.037,0.289,0.151c1.26,1.898,2.523,3.794,3.791,5.688
				c0.084,0.125,0.082,0.208,0,0.333c-1.27,1.893-2.531,3.791-3.799,5.682c-0.049,0.073-0.156,0.147-0.24,0.147
				c-1.236,0.01-2.475,0.007-3.713,0.006c-0.027,0-0.055-0.005-0.113-0.01c0.047-0.077,0.086-0.141,0.125-0.202
				c1.244-1.866,2.486-3.733,3.736-5.598c0.096-0.142,0.098-0.239,0.002-0.383c-1.248-1.864-2.492-3.732-3.734-5.599
				C85.579-43.855,85.545-43.914,85.483-44.011z"/>
		</g>
		<g>
			<path fill-rule="evenodd" clip-rule="evenodd" fill="#FFFFFF" d="M89.674-43.759c0.426,0,11.442,0.002,11.831,0.002
				c0.811,0,1.621,0.002,2.432-0.002c0.127-0.001,0.205,0.035,0.277,0.144c1.205,1.817,2.416,3.632,3.629,5.445
				c0.08,0.12,0.078,0.2-0.002,0.32c-1.213,1.812-2.42,3.627-3.635,5.44c-0.047,0.068-0.152,0.14-0.23,0.142
				c-1.184,0.008-17.925-0.007-15.669-0.007c0.047-0.072,5.262-5.598,5.17-5.737C92.28-39.796,89.733-43.667,89.674-43.759z"/>
			<path fill-rule="evenodd" clip-rule="evenodd" fill="#FFFFFF" d="M86.045-43.756c0.424,0,0.813,0,1.201,0
				c0.809,0,1.619,0.002,2.428-0.002c0.129-0.001,0.205,0.035,0.279,0.144c1.205,1.817,2.416,3.632,3.629,5.445
				c0.078,0.12,0.078,0.2-0.002,0.32c-1.213,1.812-2.42,3.627-3.635,5.44c-0.047,0.068-0.152,0.14-0.23,0.142
				c-1.184,0.008-2.369,0.006-3.555,0.005c-0.025,0-0.053-0.005-0.109-0.012c0.047-0.072,0.08-0.134,0.121-0.191
				c1.191-1.787,2.381-3.575,3.576-5.359c0.092-0.137,0.094-0.229,0.002-0.369c-1.195-1.783-2.387-3.571-3.576-5.358
				C86.139-43.607,86.104-43.664,86.045-43.756z"/>
		</g>
	</g>
	<g>
		<path fill-rule="evenodd" clip-rule="evenodd" fill="#FFFFFF" d="M90.004-43.612c0.412,0,11.063,0.002,11.438,0.002
			c0.783,0,1.566,0.003,2.35-0.002c0.123-0.001,0.199,0.034,0.268,0.139c1.168,1.757,2.336,3.512,3.51,5.264
			c0.076,0.116,0.074,0.194-0.002,0.309c-1.172,1.751-2.34,3.508-3.516,5.259c-0.043,0.066-0.145,0.137-0.221,0.137
			c-1.145,0.009-17.329-0.005-15.149-0.005c0.045-0.07,5.088-5.413,4.998-5.547C92.524-39.78,90.063-43.522,90.004-43.612z"/>
		<path fill-rule="evenodd" clip-rule="evenodd" fill="#FFFFFF" d="M86.495-43.61c0.412,0,0.785,0,1.162,0
			c0.781,0,1.566,0.003,2.348-0.002c0.125-0.001,0.199,0.034,0.27,0.139c1.166,1.757,2.336,3.512,3.508,5.264
			c0.078,0.116,0.076,0.194,0,0.309c-1.174,1.751-2.34,3.508-3.516,5.259c-0.045,0.066-0.146,0.137-0.221,0.137
			c-1.146,0.009-2.293,0.007-3.438,0.005c-0.027,0-0.051-0.004-0.105-0.01c0.043-0.07,0.078-0.128,0.115-0.185
			c1.152-1.729,2.303-3.458,3.459-5.182c0.09-0.133,0.092-0.223,0-0.355c-1.154-1.725-2.305-3.453-3.457-5.182
			C86.584-43.465,86.551-43.52,86.495-43.61z"/>
	</g>
</g>
<g>
	<path fill="#245E30" d="M111.333-39.128l0.697,1.74l0.697-1.74h0.365v2.132h-0.281v-0.831l0.027-0.896l-0.701,1.727h-0.215
		l-0.699-1.722l0.027,0.892v0.831h-0.281v-2.132H111.333z"/>
	<path fill="#245E30" d="M114.064-37.394l0.369-1.187h0.291l-0.639,1.829c-0.098,0.264-0.254,0.396-0.469,0.396l-0.052-0.004
		l-0.1-0.02v-0.22l0.072,0.006c0.091,0,0.163-0.019,0.214-0.056s0.094-0.104,0.127-0.203l0.061-0.161l-0.565-1.567h0.296
		L114.064-37.394z"/>
	<path fill="#245E30" d="M116.031-37.831v0.835h-0.281v-2.132h0.787c0.232,0,0.416,0.06,0.547,0.179
		c0.133,0.119,0.199,0.277,0.199,0.473c0,0.207-0.064,0.366-0.193,0.478c-0.131,0.112-0.314,0.167-0.557,0.167H116.031z
		 M116.031-38.061h0.506c0.15,0,0.266-0.035,0.346-0.106c0.08-0.071,0.119-0.174,0.119-0.308c0-0.127-0.039-0.229-0.119-0.305
		s-0.191-0.116-0.33-0.119h-0.521V-38.061z"/>
	<path fill="#245E30" d="M118.365-38.338c-0.041-0.006-0.084-0.01-0.133-0.01c-0.178,0-0.299,0.075-0.361,0.227v1.125h-0.271v-1.584
		h0.264l0.004,0.183c0.09-0.142,0.215-0.212,0.379-0.212c0.053,0,0.092,0.007,0.119,0.021V-38.338z"/>
	<path fill="#245E30" d="M118.513-37.803c0-0.155,0.031-0.295,0.092-0.419c0.061-0.124,0.146-0.219,0.254-0.287
		c0.109-0.067,0.234-0.101,0.373-0.101c0.217,0,0.391,0.075,0.523,0.224c0.133,0.149,0.201,0.348,0.201,0.596v0.019
		c0,0.154-0.031,0.293-0.09,0.416s-0.143,0.218-0.252,0.286c-0.111,0.068-0.236,0.103-0.379,0.103c-0.215,0-0.389-0.075-0.523-0.224
		c-0.133-0.15-0.199-0.348-0.199-0.594V-37.803z M118.785-37.771c0,0.176,0.041,0.317,0.123,0.423s0.191,0.159,0.328,0.159
		s0.246-0.053,0.328-0.161c0.08-0.108,0.121-0.259,0.121-0.454c0-0.174-0.041-0.314-0.123-0.422
		c-0.084-0.108-0.193-0.162-0.33-0.162c-0.133,0-0.242,0.053-0.324,0.159C118.826-38.122,118.785-37.969,118.785-37.771z"/>
	<path fill="#245E30" d="M120.429-36.996v-1.375h-0.25v-0.209h0.25v-0.163c0-0.17,0.045-0.301,0.137-0.394
		c0.09-0.093,0.219-0.139,0.385-0.139c0.063,0,0.125,0.008,0.186,0.025l-0.014,0.218c-0.047-0.009-0.096-0.013-0.146-0.013
		c-0.088,0-0.156,0.025-0.205,0.077c-0.047,0.051-0.07,0.125-0.07,0.221v0.167h0.338v0.209h-0.338v1.375H120.429z"/>
	<path fill="#245E30" d="M121.337-39.001c0-0.044,0.014-0.081,0.041-0.111s0.066-0.045,0.119-0.045s0.094,0.015,0.121,0.045
		s0.041,0.067,0.041,0.111s-0.014,0.081-0.041,0.11s-0.068,0.044-0.121,0.044s-0.092-0.015-0.119-0.044
		S121.337-38.957,121.337-39.001z M121.63-36.996h-0.27v-1.584h0.27V-36.996z"/>
	<path fill="#245E30" d="M122.359-36.996h-0.271v-2.25h0.271V-36.996z"/>
	<path fill="#245E30" d="M123.451-36.967c-0.215,0-0.391-0.07-0.525-0.212c-0.135-0.141-0.201-0.33-0.201-0.566v-0.05
		c0-0.157,0.029-0.297,0.09-0.421s0.145-0.22,0.252-0.29s0.225-0.104,0.352-0.104c0.205,0,0.365,0.068,0.48,0.204
		c0.113,0.135,0.17,0.33,0.17,0.583v0.113h-1.072c0.004,0.156,0.049,0.282,0.137,0.379s0.197,0.144,0.332,0.144
		c0.096,0,0.178-0.02,0.244-0.059s0.125-0.09,0.174-0.154l0.166,0.129C123.916-37.069,123.716-36.967,123.451-36.967z
		 M123.417-38.387c-0.109,0-0.201,0.04-0.275,0.119s-0.121,0.191-0.139,0.334h0.795v-0.021c-0.008-0.138-0.045-0.244-0.111-0.32
		S123.531-38.387,123.417-38.387z"/>
</g>
<g>
	<g>
		<path fill-rule="evenodd" clip-rule="evenodd" fill="#245E30" d="M70.044-44.545c0.48,0,12.923,0.003,13.36,0.003
			c0.914,0,1.828,0.003,2.742-0.003c0.145-0.001,0.23,0.04,0.314,0.164c1.361,2.052,2.727,4.101,4.098,6.147
			c0.09,0.135,0.086,0.227-0.002,0.36c-1.371,2.047-2.732,4.099-4.105,6.144c-0.053,0.078-0.17,0.159-0.26,0.159
			c-1.336,0.011-29.828,0.002-17.691-0.006c0.05-0.084,5.941-6.321,5.836-6.479C72.987-40.07,70.111-44.44,70.044-44.545z"/>
		<path fill-rule="evenodd" clip-rule="evenodd" fill="#245E30" d="M65.945-44.542c0.479,0,0.918,0,1.355,0
			c0.915,0,1.83,0.003,2.744-0.003c0.143-0.001,0.231,0.04,0.314,0.164c1.362,2.052,2.728,4.101,4.097,6.147
			c0.09,0.135,0.09,0.227,0,0.36c-1.371,2.047-2.734,4.099-4.106,6.144c-0.052,0.078-0.17,0.159-0.258,0.159
			c-1.338,0.011-2.677,0.007-4.015,0.006c-0.03,0-0.06-0.006-0.124-0.012c0.051-0.084,0.092-0.15,0.136-0.217
			c1.345-2.019,2.688-4.037,4.038-6.05c0.104-0.155,0.107-0.26,0.002-0.417c-1.349-2.014-2.692-4.033-4.037-6.051
			C66.05-44.374,66.011-44.438,65.945-44.542z"/>
	</g>
	<g>
		<g>
			<path fill-rule="evenodd" clip-rule="evenodd" fill="#FFFFFF" d="M70.409-44.295c0.463,0,12.434,0.003,12.855,0.003
				c0.879,0,1.76,0.002,2.639-0.003c0.139-0.001,0.223,0.039,0.303,0.157c1.309,1.974,2.625,3.947,3.941,5.915
				c0.088,0.131,0.086,0.218,0,0.347c-1.318,1.97-2.631,3.942-3.949,5.912c-0.051,0.075-0.166,0.151-0.25,0.154
				c-1.287,0.008-28.702,0-17.025-0.007c0.051-0.081,5.719-6.083,5.619-6.234C73.241-39.989,70.474-44.195,70.409-44.295z"/>
			<path fill-rule="evenodd" clip-rule="evenodd" fill="#FFFFFF" d="M66.465-44.292c0.462,0,0.883,0,1.305,0
				c0.879,0,1.76,0.002,2.639-0.003c0.14-0.001,0.224,0.039,0.302,0.157c1.312,1.974,2.626,3.947,3.944,5.915
				c0.086,0.131,0.086,0.218-0.002,0.347c-1.318,1.97-2.629,3.942-3.95,5.912c-0.049,0.075-0.164,0.151-0.249,0.154
				c-1.287,0.008-2.575,0.005-3.862,0.005c-0.028,0-0.056-0.005-0.118-0.012c0.049-0.081,0.088-0.146,0.13-0.208
				c1.294-1.943,2.587-3.886,3.887-5.823c0.098-0.148,0.103-0.249,0.002-0.401c-1.3-1.937-2.592-3.88-3.886-5.821
				C66.567-44.13,66.53-44.192,66.465-44.292z"/>
		</g>
		<g>
			<path fill-rule="evenodd" clip-rule="evenodd" fill="#245E30" d="M70.826-44.031c0.442,0,11.903,0.003,12.306,0.003
				c0.844,0,1.684,0.003,2.527-0.003c0.133,0,0.213,0.037,0.289,0.15c1.252,1.89,2.512,3.778,3.775,5.664
				c0.082,0.124,0.08,0.208-0.004,0.332c-1.262,1.886-2.518,3.774-3.781,5.658c-0.047,0.072-0.156,0.146-0.238,0.146
				c-1.23,0.01-18.645-0.007-16.297-0.007c0.047-0.074,5.473-5.822,5.377-5.967C73.536-39.908,70.888-43.934,70.826-44.031z"/>
			<path fill-rule="evenodd" clip-rule="evenodd" fill="#245E30" d="M67.05-44.028c0.44,0,0.844,0,1.248,0
				c0.843,0,1.684,0.003,2.527-0.003c0.133,0,0.213,0.037,0.287,0.15c1.257,1.89,2.515,3.778,3.776,5.664
				c0.084,0.124,0.082,0.208-0.002,0.332c-1.262,1.886-2.518,3.774-3.782,5.658c-0.047,0.072-0.156,0.146-0.238,0.146
				c-1.231,0.01-2.463,0.007-3.696,0.006c-0.028,0-0.056-0.005-0.115-0.013c0.05-0.074,0.086-0.138,0.127-0.196
				c1.238-1.859,2.475-3.72,3.72-5.575c0.096-0.143,0.099-0.238,0.002-0.383c-1.244-1.855-2.481-3.715-3.72-5.574
				C67.145-43.873,67.111-43.931,67.05-44.028z"/>
		</g>
	</g>
</g>
<g>
	<path fill="#FFFFFF" d="M73.867-39.246l0.713,1.778l0.712-1.778h0.373v2.18h-0.287v-0.849l0.027-0.916l-0.716,1.765h-0.221
		l-0.714-1.761l0.029,0.912v0.849h-0.288v-2.18H73.867z"/>
	<path fill="#FFFFFF" d="M76.659-37.472l0.377-1.214h0.297l-0.651,1.87c-0.102,0.27-0.261,0.404-0.479,0.404l-0.054-0.004
		l-0.104-0.02v-0.225l0.075,0.006c0.095,0,0.168-0.019,0.22-0.057c0.052-0.038,0.095-0.107,0.13-0.208l0.061-0.165l-0.577-1.602
		h0.303L76.659-37.472z"/>
	<path fill="#FFFFFF" d="M78.67-37.302h1.033v0.235h-1.322v-2.18h0.289V-37.302z"/>
	<path fill="#FFFFFF" d="M79.915-37.891c0-0.159,0.031-0.302,0.094-0.429c0.063-0.126,0.149-0.224,0.261-0.293
		s0.237-0.104,0.381-0.104c0.221,0,0.398,0.077,0.534,0.229c0.137,0.153,0.205,0.356,0.205,0.609v0.02
		c0,0.158-0.03,0.299-0.091,0.424c-0.06,0.125-0.146,0.223-0.259,0.293c-0.112,0.069-0.241,0.104-0.387,0.104
		c-0.22,0-0.397-0.076-0.533-0.229c-0.137-0.152-0.205-0.355-0.205-0.606V-37.891z M80.193-37.858c0,0.18,0.042,0.324,0.125,0.433
		c0.084,0.108,0.195,0.163,0.335,0.163c0.141,0,0.253-0.055,0.336-0.166c0.082-0.11,0.123-0.265,0.123-0.463
		c0-0.178-0.041-0.322-0.126-0.432c-0.084-0.11-0.196-0.166-0.336-0.166c-0.137,0-0.247,0.054-0.33,0.163
		C80.235-38.216,80.193-38.062,80.193-37.858z"/>
	<path fill="#FFFFFF" d="M81.671-37.89c0-0.252,0.059-0.453,0.175-0.603c0.116-0.149,0.271-0.224,0.464-0.224
		c0.198,0,0.352,0.07,0.463,0.209l0.014-0.18h0.252v1.581c0,0.209-0.062,0.375-0.186,0.496c-0.125,0.121-0.291,0.181-0.501,0.181
		c-0.116,0-0.231-0.025-0.343-0.075c-0.112-0.05-0.197-0.118-0.256-0.206l0.144-0.166c0.119,0.147,0.264,0.22,0.436,0.22
		c0.135,0,0.24-0.038,0.315-0.114s0.112-0.183,0.112-0.321v-0.139c-0.11,0.128-0.262,0.192-0.453,0.192
		c-0.189,0-0.344-0.076-0.46-0.229C81.73-37.418,81.671-37.626,81.671-37.89z M81.949-37.858c0,0.183,0.038,0.326,0.113,0.43
		c0.074,0.104,0.179,0.157,0.314,0.157c0.174,0,0.303-0.08,0.384-0.238v-0.74c-0.084-0.154-0.212-0.231-0.382-0.231
		c-0.134,0-0.239,0.052-0.315,0.157C81.987-38.219,81.949-38.064,81.949-37.858z"/>
	<path fill="#FFFFFF" d="M83.458-39.116c0-0.045,0.014-0.083,0.041-0.114c0.027-0.031,0.067-0.047,0.122-0.047
		c0.054,0,0.095,0.016,0.122,0.047c0.029,0.031,0.042,0.069,0.042,0.114s-0.013,0.082-0.042,0.112
		c-0.027,0.03-0.068,0.045-0.122,0.045c-0.055,0-0.095-0.015-0.122-0.045C83.472-39.034,83.458-39.071,83.458-39.116z
		 M83.757-37.066h-0.276v-1.62h0.276V-37.066z"/>
	<path fill="#FFFFFF" d="M84.462-38.687l0.01,0.204c0.123-0.156,0.285-0.234,0.485-0.234c0.341,0,0.514,0.193,0.518,0.58v1.07
		h-0.277v-1.072c-0.001-0.116-0.027-0.203-0.08-0.259c-0.052-0.056-0.134-0.083-0.244-0.083c-0.091,0-0.17,0.023-0.237,0.071
		s-0.12,0.111-0.158,0.189v1.154h-0.277v-1.62H84.462z"/>
</g>
<g>
	<path fill="#245E30" d="M92.602-39.128l0.697,1.74l0.697-1.74h0.365v2.133h-0.281v-0.831l0.025-0.896l-0.699,1.727H93.19
		l-0.697-1.723l0.027,0.892v0.831h-0.281v-2.133H92.602z"/>
	<path fill="#245E30" d="M95.334-37.394l0.369-1.187h0.289l-0.637,1.829c-0.1,0.264-0.256,0.395-0.471,0.395l-0.051-0.004
		l-0.102-0.02v-0.219l0.074,0.006c0.092,0,0.162-0.02,0.215-0.057c0.051-0.037,0.092-0.104,0.125-0.203l0.061-0.16l-0.564-1.567
		h0.295L95.334-37.394z"/>
	<path fill="#245E30" d="M97.647-37.946c-0.24-0.069-0.416-0.154-0.525-0.255c-0.111-0.101-0.166-0.226-0.166-0.374
		c0-0.168,0.068-0.307,0.201-0.417c0.135-0.11,0.309-0.165,0.523-0.165c0.146,0,0.277,0.028,0.393,0.085s0.203,0.135,0.266,0.234
		c0.064,0.1,0.096,0.208,0.096,0.327h-0.283c0-0.129-0.041-0.231-0.123-0.305s-0.197-0.111-0.348-0.111
		c-0.139,0-0.246,0.03-0.324,0.092c-0.076,0.061-0.115,0.146-0.115,0.254c0,0.087,0.037,0.161,0.109,0.221
		c0.074,0.06,0.199,0.115,0.377,0.165s0.316,0.105,0.416,0.165s0.174,0.13,0.223,0.21s0.072,0.174,0.072,0.283
		c0,0.173-0.066,0.312-0.201,0.416s-0.316,0.156-0.541,0.156c-0.146,0-0.283-0.029-0.41-0.084c-0.127-0.057-0.225-0.135-0.293-0.232
		c-0.07-0.098-0.104-0.207-0.104-0.332h0.281c0,0.128,0.049,0.23,0.145,0.306c0.094,0.074,0.221,0.111,0.381,0.111
		c0.148,0,0.262-0.031,0.342-0.092c0.078-0.061,0.117-0.143,0.117-0.247c0-0.104-0.035-0.185-0.109-0.242
		C97.973-37.834,97.84-37.891,97.647-37.946z"/>
	<path fill="#245E30" d="M100.094-37.771c0,0.241-0.055,0.436-0.166,0.582c-0.109,0.148-0.26,0.223-0.447,0.223
		c-0.193,0-0.344-0.063-0.455-0.184v0.764h-0.27v-2.194h0.246l0.014,0.176c0.111-0.137,0.264-0.205,0.461-0.205
		c0.189,0,0.34,0.072,0.451,0.215c0.111,0.143,0.166,0.343,0.166,0.599V-37.771z M99.823-37.801c0-0.179-0.037-0.32-0.113-0.423
		c-0.076-0.103-0.182-0.155-0.314-0.155c-0.164,0-0.287,0.073-0.369,0.218v0.756c0.082,0.145,0.205,0.217,0.373,0.217
		c0.129,0,0.232-0.051,0.311-0.154C99.786-37.444,99.823-37.598,99.823-37.801z"/>
	<path fill="#245E30" d="M100.366-37.803c0-0.155,0.031-0.295,0.092-0.419c0.063-0.124,0.146-0.219,0.256-0.287
		s0.232-0.101,0.373-0.101c0.215,0,0.391,0.075,0.523,0.224c0.133,0.149,0.199,0.348,0.199,0.596v0.019
		c0,0.154-0.029,0.293-0.088,0.416c-0.061,0.121-0.145,0.217-0.254,0.285s-0.236,0.104-0.379,0.104
		c-0.215,0-0.389-0.076-0.521-0.225c-0.133-0.15-0.201-0.347-0.201-0.593V-37.803z M100.639-37.771c0,0.176,0.041,0.316,0.123,0.424
		c0.08,0.105,0.189,0.158,0.326,0.158c0.139,0,0.248-0.053,0.328-0.16c0.082-0.109,0.121-0.26,0.121-0.454
		c0-0.174-0.041-0.314-0.123-0.422s-0.191-0.162-0.328-0.162c-0.135,0-0.242,0.053-0.324,0.159
		C100.68-38.121,100.639-37.969,100.639-37.771z"/>
	<path fill="#245E30" d="M102.915-38.337c-0.041-0.006-0.084-0.01-0.133-0.01c-0.178,0-0.299,0.075-0.361,0.227v1.125h-0.271v-1.585
		h0.264l0.004,0.183c0.09-0.142,0.215-0.212,0.379-0.212c0.053,0,0.092,0.007,0.119,0.021V-38.337z"/>
	<path fill="#245E30" d="M103.604-38.964v0.384h0.297v0.209h-0.297v0.983c0,0.064,0.014,0.111,0.041,0.143
		c0.025,0.033,0.07,0.049,0.135,0.049c0.031,0,0.074-0.006,0.129-0.018v0.219c-0.072,0.02-0.141,0.029-0.209,0.029
		c-0.121,0-0.213-0.037-0.273-0.111c-0.063-0.072-0.092-0.176-0.092-0.311v-0.983h-0.289v-0.209h0.289v-0.384H103.604z"/>
	<path fill="#245E30" d="M105.141-37.417c0-0.072-0.027-0.128-0.084-0.169c-0.055-0.041-0.15-0.076-0.287-0.105
		c-0.139-0.029-0.246-0.064-0.328-0.105c-0.08-0.041-0.139-0.09-0.178-0.146s-0.059-0.124-0.059-0.202
		c0-0.129,0.055-0.239,0.166-0.329c0.109-0.09,0.25-0.135,0.42-0.135c0.18,0,0.326,0.046,0.438,0.139s0.168,0.211,0.168,0.355
		h-0.273c0-0.074-0.031-0.138-0.094-0.192c-0.063-0.053-0.143-0.08-0.238-0.08c-0.098,0-0.176,0.021-0.23,0.064
		c-0.057,0.043-0.084,0.099-0.084,0.168c0,0.065,0.025,0.115,0.078,0.148c0.051,0.033,0.145,0.065,0.279,0.095
		c0.137,0.03,0.246,0.066,0.33,0.108s0.146,0.093,0.186,0.152c0.041,0.059,0.061,0.131,0.061,0.216c0,0.141-0.057,0.254-0.17,0.34
		s-0.26,0.129-0.439,0.129c-0.127,0-0.24-0.023-0.338-0.068s-0.174-0.107-0.229-0.188s-0.084-0.168-0.084-0.262h0.271
		c0.006,0.09,0.041,0.162,0.109,0.217c0.068,0.053,0.158,0.078,0.27,0.078c0.102,0,0.184-0.02,0.246-0.061
		C105.11-37.292,105.141-37.347,105.141-37.417z"/>
</g>
</svg>
