<?xml version="1.0" encoding="utf-8"?>
<!-- Generator: Adobe Illustrator 16.0.0, SVG Export Plug-In . SVG Version: 6.00 Build 0)  -->
<!DOCTYPE svg PUBLIC "-//W3C//DTD SVG 1.1//EN" "http://www.w3.org/Graphics/SVG/1.1/DTD/svg11.dtd">
<svg version="1.1" id="Layer_1" xmlns="http://www.w3.org/2000/svg" xmlns:xlink="http://www.w3.org/1999/xlink" x="0px" y="0px"
	 width="58.333px" height="13.75px" viewBox="0 0 58.333 13.75" enable-background="new 0 0 58.333 13.75" xml:space="preserve">
<g>
	<polygon fill="#F7F7F7" points="18.425,13.273 0.3,13.273 3.229,6.721 0.3,0.523 18.425,0.523 21.458,6.773 	"/>
	<polygon fill="#8C8C8C" points="18.425,13.273 18.425,13.223 0.377,13.223 3.285,6.72 0.379,0.573 18.394,0.573 21.403,6.773 
		18.38,13.252 18.425,13.273 18.425,13.223 18.425,13.273 18.471,13.294 21.513,6.773 18.457,0.473 0.221,0.473 3.174,6.721 
		0.223,13.323 18.457,13.323 18.471,13.294 	"/>
</g>
<g>
	<polygon fill="#F7F7F7" points="36.509,13.273 18.384,13.273 21.313,6.721 18.384,0.523 36.509,0.523 39.542,6.773 	"/>
	<polygon fill="#8C8C8C" points="36.509,13.273 36.509,13.223 18.461,13.223 21.368,6.72 18.463,0.573 36.479,0.573 39.485,6.773 
		36.464,13.252 36.509,13.273 36.509,13.223 36.509,13.273 36.555,13.294 39.597,6.773 36.542,0.473 18.305,0.473 21.258,6.721 
		18.307,13.323 36.542,13.323 36.555,13.294 	"/>
</g>
<g>
	<polygon fill="#009444" points="54.471,13.273 36.346,13.273 39.273,6.721 36.346,0.523 54.471,0.523 57.5,6.773 	"/>
	<polygon fill="#009444" points="54.471,13.273 54.471,13.223 36.423,13.223 39.328,6.72 36.425,0.573 54.439,0.573 57.446,6.773 
		54.425,13.252 54.471,13.273 54.471,13.223 54.471,13.273 54.516,13.294 57.558,6.773 54.5,0.473 36.267,0.473 39.219,6.721 
		36.269,13.323 54.502,13.323 54.516,13.294 	"/>
</g>
<g>
	<path fill="#808285" d="M14.457,4.425c0.174,0,0.246,0.145,0.246,0.275c0,0.181-0.139,0.293-0.354,0.417
		c-0.092-0.114-0.162-0.23-0.162-0.383C14.188,4.57,14.279,4.425,14.457,4.425z M14.396,6.229c-0.255,0-0.437-0.187-0.437-0.431
		c0-0.225,0.162-0.36,0.275-0.433c0.237,0.272,0.475,0.531,0.601,0.671C14.735,6.146,14.58,6.229,14.396,6.229z M15.501,6.403
		c-0.127-0.136-0.237-0.256-0.351-0.377c0.158-0.187,0.25-0.453,0.307-0.787h-0.253c-0.041,0.269-0.108,0.474-0.205,0.623
		c-0.136-0.152-0.339-0.386-0.519-0.596V5.257c0.338-0.167,0.469-0.345,0.469-0.568c0-0.276-0.206-0.453-0.472-0.453
		c-0.354,0-0.542,0.266-0.542,0.526c0,0.152,0.066,0.306,0.178,0.446v0.009c-0.244,0.133-0.418,0.332-0.418,0.623
		c0,0.319,0.24,0.599,0.656,0.599c0.233,0,0.44-0.074,0.623-0.244c0.083,0.087,0.14,0.148,0.199,0.209H15.501z M11.4,6.403h0.278
		V5.482l0.02-0.131c0.048-0.154,0.19-0.284,0.373-0.284c0.263,0,0.354,0.206,0.354,0.453v0.883h0.278V5.489
		c0-0.526-0.33-0.652-0.542-0.652c-0.253,0-0.431,0.143-0.506,0.289h-0.007l-0.015-0.253h-0.247c0.01,0.127,0.013,0.257,0.013,0.415
		V6.403z M10.799,4.267c-0.101,0-0.174,0.076-0.174,0.173c0,0.096,0.07,0.172,0.167,0.172c0.111,0,0.181-0.076,0.178-0.172
		C10.971,4.342,10.903,4.267,10.799,4.267z M10.938,6.403V4.871H10.66v1.532H10.938z M9.941,5.751L9.92,5.9
		C9.858,6.076,9.704,6.185,9.533,6.185c-0.3,0-0.453-0.25-0.453-0.551c0-0.354,0.19-0.579,0.456-0.579
		c0.203,0,0.338,0.133,0.389,0.293L9.94,5.475L9.941,5.751L9.941,5.751z M9.986,4.871L9.973,5.103H9.967
		C9.9,4.977,9.755,4.836,9.488,4.836c-0.351,0-0.689,0.295-0.689,0.814c0,0.424,0.271,0.748,0.652,0.748
		c0.237,0,0.401-0.115,0.486-0.256h0.006v0.171c0,0.387-0.208,0.535-0.494,0.535C9.26,6.848,9.102,6.79,9,6.728l-0.07,0.212
		C9.055,7.022,9.258,7.066,9.44,7.066c0.194,0,0.409-0.044,0.558-0.184c0.149-0.133,0.218-0.348,0.218-0.699V5.294
		c0-0.187,0.007-0.31,0.014-0.421H9.986V4.871z M7.814,5.045c0.33,0,0.459,0.329,0.459,0.588c0,0.345-0.199,0.595-0.465,0.595
		c-0.271,0-0.465-0.252-0.465-0.588C7.343,5.348,7.486,5.045,7.814,5.045z M7.821,4.836c-0.424,0-0.759,0.3-0.759,0.813
		c0,0.485,0.319,0.789,0.734,0.789c0.37,0,0.763-0.247,0.763-0.814C8.559,5.155,8.261,4.836,7.821,4.836z M5.733,6.403H6.92V6.172
		H6.009V4.269H5.733V6.403z"/>
	<path fill="#808285" d="M17.438,8.672l-0.012,0.12c-0.051,0.21-0.221,0.332-0.408,0.332c-0.301,0-0.453-0.257-0.453-0.566
		c0-0.339,0.171-0.591,0.459-0.591c0.208,0,0.361,0.145,0.402,0.322l0.012,0.117V8.672z M17.438,7.068v0.914h-0.007
		c-0.069-0.125-0.228-0.235-0.461-0.235c-0.374,0-0.69,0.313-0.687,0.824c0,0.465,0.284,0.777,0.655,0.777
		c0.25,0,0.437-0.131,0.522-0.3h0.007l0.013,0.266h0.25c-0.009-0.104-0.013-0.259-0.013-0.395V7.068H17.438z M15.391,9.314h0.275
		V8.499l0.013-0.132c0.038-0.209,0.177-0.357,0.373-0.357l0.095,0.011V7.758l-0.079-0.011c-0.187,0-0.354,0.131-0.424,0.336h-0.013
		l-0.009-0.301h-0.244c0.009,0.143,0.013,0.298,0.013,0.479V9.314z M14.295,7.957c0.329,0,0.459,0.329,0.459,0.589
		c0,0.345-0.2,0.595-0.465,0.595c-0.271,0-0.465-0.252-0.465-0.589C13.824,8.261,13.967,7.957,14.295,7.957z M14.302,7.748
		c-0.424,0-0.759,0.3-0.759,0.814c0,0.484,0.32,0.788,0.735,0.788c0.371,0,0.763-0.248,0.763-0.813
		C15.039,8.068,14.741,7.748,14.302,7.748z M11.181,7.783l0.462,1.531h0.253l0.247-0.728c0.055-0.164,0.102-0.322,0.14-0.506h0.006
		c0.038,0.18,0.082,0.332,0.136,0.503l0.234,0.73h0.253l0.494-1.531h-0.275l-0.219,0.769c-0.05,0.182-0.092,0.342-0.117,0.497
		h-0.009c-0.036-0.155-0.079-0.315-0.137-0.5l-0.237-0.767H12.18l-0.25,0.782c-0.05,0.163-0.101,0.329-0.136,0.484h-0.009
		c-0.028-0.158-0.07-0.317-0.113-0.487l-0.203-0.778H11.181L11.181,7.783z M9.996,9.242c0.107,0.063,0.262,0.104,0.43,0.104
		c0.363,0,0.573-0.19,0.573-0.459c0-0.229-0.136-0.361-0.402-0.463c-0.199-0.076-0.291-0.134-0.291-0.26
		c0-0.114,0.092-0.209,0.255-0.209c0.143,0,0.254,0.051,0.314,0.09l0.07-0.203c-0.086-0.051-0.222-0.097-0.377-0.097
		c-0.329,0-0.528,0.204-0.528,0.449c0,0.182,0.13,0.334,0.405,0.434c0.206,0.076,0.286,0.148,0.286,0.281
		c0,0.128-0.096,0.228-0.298,0.228c-0.139,0-0.284-0.058-0.367-0.108L9.996,9.242z M8.741,9.242C8.85,9.306,9.004,9.347,9.173,9.347
		c0.363,0,0.572-0.19,0.572-0.459c0-0.229-0.135-0.361-0.401-0.463c-0.199-0.076-0.292-0.134-0.292-0.26
		c0-0.114,0.092-0.209,0.256-0.209c0.143,0,0.253,0.051,0.313,0.09l0.07-0.203C9.606,7.792,9.47,7.746,9.314,7.746
		c-0.329,0-0.528,0.204-0.528,0.449c0,0.182,0.13,0.334,0.406,0.434C9.397,8.705,9.478,8.777,9.478,8.91
		c0,0.128-0.096,0.228-0.297,0.228c-0.139,0-0.285-0.058-0.368-0.108L8.741,9.242z M8.132,8.798L8.116,8.889
		c-0.044,0.13-0.17,0.255-0.37,0.255c-0.143,0-0.264-0.086-0.264-0.266c0-0.297,0.346-0.351,0.649-0.345V8.798z M8.426,9.314
		C8.407,9.21,8.4,9.08,8.4,8.946V8.375c0-0.307-0.114-0.628-0.582-0.628c-0.193,0-0.376,0.054-0.503,0.137l0.063,0.183
		c0.108-0.069,0.257-0.114,0.399-0.114c0.313,0,0.349,0.229,0.349,0.354v0.033c-0.592-0.004-0.92,0.198-0.92,0.567
		c0,0.222,0.158,0.44,0.468,0.44c0.218,0,0.383-0.107,0.468-0.227h0.009l0.021,0.192h0.253V9.314z M6.009,7.407
		c0.047-0.014,0.14-0.021,0.259-0.021c0.304,0,0.503,0.136,0.503,0.415c0,0.295-0.203,0.456-0.535,0.456
		c-0.092,0-0.169-0.006-0.228-0.02V7.407z M5.733,9.314h0.275V8.46l0.221,0.02c0.27,0,0.506-0.079,0.652-0.233
		c0.107-0.11,0.165-0.264,0.165-0.456c0-0.188-0.07-0.345-0.187-0.445C6.733,7.231,6.534,7.169,6.261,7.169
		c-0.221,0-0.395,0.02-0.528,0.042V9.314z"/>
</g>
<g>
	<path fill="#808285" d="M30.925,5.153c0.021-0.193,0.146-0.452,0.428-0.452c0.313,0,0.389,0.275,0.384,0.452H30.925z M31.997,5.353
		l0.01-0.131c0-0.282-0.133-0.72-0.633-0.72c-0.445,0-0.717,0.364-0.717,0.826c0,0.462,0.282,0.773,0.754,0.773
		c0.243,0,0.411-0.052,0.51-0.096l-0.048-0.2c-0.104,0.043-0.224,0.08-0.424,0.08c-0.279,0-0.521-0.156-0.524-0.532H31.997z
		 M30.02,6.068h0.278V3.82H30.02V6.068z M28.668,6.068v-1.32h0.614v1.32h0.275V4.535h-0.89V4.461c0-0.245,0.086-0.45,0.38-0.45
		c0.136,0,0.255,0.041,0.323,0.088l0.078-0.211c-0.078-0.057-0.247-0.101-0.389-0.101c-0.431,0-0.667,0.263-0.667,0.669v0.082
		h-0.214V4.75h0.214v1.319h0.275V6.068z M27.269,4.71c0.329,0,0.459,0.329,0.459,0.588c0,0.345-0.199,0.596-0.465,0.596
		c-0.271,0-0.465-0.254-0.465-0.589C26.798,5.014,26.94,4.71,27.269,4.71z M27.275,4.502c-0.424,0-0.759,0.3-0.759,0.813
		c0,0.484,0.32,0.789,0.735,0.789c0.37,0,0.762-0.247,0.762-0.813C28.013,4.821,27.716,4.502,27.275,4.502z M25.624,6.068h0.275
		V5.251l0.013-0.131c0.038-0.209,0.177-0.357,0.374-0.357l0.094,0.011V4.51L26.3,4.501c-0.187,0-0.354,0.13-0.424,0.334h-0.013
		l-0.01-0.3h-0.243c0.01,0.142,0.014,0.297,0.014,0.478L25.624,6.068L25.624,6.068z M24.276,4.16
		c0.047-0.014,0.139-0.022,0.259-0.022c0.304,0,0.504,0.136,0.504,0.417c0,0.294-0.203,0.456-0.535,0.456
		c-0.093,0-0.169-0.007-0.228-0.022V4.16z M24,6.068h0.275V5.213l0.221,0.02c0.269,0,0.506-0.08,0.652-0.234
		c0.107-0.111,0.165-0.262,0.165-0.456c0-0.19-0.07-0.345-0.187-0.446C25,3.983,24.801,3.92,24.528,3.92
		c-0.221,0-0.395,0.019-0.527,0.041V6.068z"/>
	<path fill="#808285" d="M33.41,8.849c0.106,0.063,0.262,0.104,0.431,0.104c0.364,0,0.571-0.19,0.571-0.46
		c0-0.228-0.136-0.36-0.401-0.461c-0.2-0.076-0.292-0.134-0.292-0.26c0-0.114,0.092-0.21,0.256-0.21
		c0.141,0,0.251,0.053,0.313,0.091l0.069-0.204c-0.085-0.051-0.221-0.096-0.377-0.096c-0.328,0-0.527,0.203-0.527,0.448
		c0,0.184,0.132,0.336,0.406,0.435c0.208,0.076,0.286,0.147,0.286,0.281c0,0.128-0.096,0.229-0.298,0.229
		c-0.138,0-0.284-0.06-0.368-0.111L33.41,8.849z M32.78,8.269l-0.022,0.149c-0.059,0.176-0.214,0.285-0.385,0.285
		c-0.301,0-0.452-0.251-0.452-0.552c0-0.354,0.189-0.578,0.455-0.578c0.203,0,0.338,0.135,0.391,0.293l0.015,0.127L32.78,8.269
		L32.78,8.269z M32.824,7.39l-0.013,0.23h-0.007c-0.065-0.128-0.214-0.265-0.479-0.265c-0.351,0-0.689,0.292-0.689,0.812
		c0,0.426,0.273,0.749,0.651,0.749c0.239,0,0.403-0.114,0.488-0.257h0.006v0.173c0,0.386-0.21,0.534-0.494,0.534
		c-0.188,0-0.347-0.059-0.447-0.122L31.77,9.458c0.123,0.082,0.326,0.126,0.509,0.126c0.194,0,0.409-0.044,0.559-0.184
		c0.149-0.132,0.217-0.347,0.217-0.699V7.813c0-0.186,0.009-0.311,0.014-0.421h-0.244V7.39z M29.992,8.921h0.278V8l0.02-0.13
		c0.047-0.155,0.189-0.286,0.371-0.286c0.264,0,0.355,0.207,0.355,0.453v0.882h0.279V8.006c0-0.525-0.329-0.652-0.541-0.652
		c-0.252,0-0.431,0.143-0.506,0.288h-0.006L30.225,7.39h-0.247c0.009,0.128,0.013,0.256,0.013,0.414L29.992,8.921L29.992,8.921z
		 M29.39,6.786c-0.102,0-0.176,0.075-0.176,0.173c0,0.096,0.07,0.173,0.167,0.173c0.111,0,0.181-0.077,0.178-0.173
		C29.561,6.861,29.495,6.786,29.39,6.786z M29.53,8.921V7.39h-0.279v1.531H29.53z M28.266,7.021V7.39h-0.237v0.213h0.237v0.835
		c0,0.18,0.029,0.317,0.107,0.4c0.066,0.075,0.172,0.117,0.301,0.117c0.108,0,0.194-0.018,0.248-0.038l-0.014-0.21l-0.162,0.02
		c-0.155,0-0.209-0.108-0.209-0.296V7.603h0.399V7.388h-0.399v-0.44L28.266,7.021z M27.219,7.021V7.39h-0.238v0.213h0.238v0.835
		c0,0.18,0.028,0.317,0.107,0.4c0.065,0.075,0.171,0.117,0.3,0.117c0.108,0,0.194-0.018,0.248-0.038l-0.014-0.21L27.7,8.727
		c-0.155,0-0.209-0.108-0.209-0.296V7.603h0.398V7.388h-0.398v-0.44L27.219,7.021z M25.728,8.007
		c0.023-0.194,0.146-0.452,0.427-0.452c0.314,0,0.389,0.275,0.387,0.452H25.728z M26.802,8.205l0.009-0.13
		c0-0.282-0.133-0.72-0.632-0.72c-0.447,0-0.718,0.365-0.718,0.826c0,0.463,0.282,0.773,0.754,0.773c0.243,0,0.411-0.051,0.51-0.097
		l-0.048-0.198c-0.104,0.044-0.225,0.078-0.424,0.078c-0.278,0-0.52-0.154-0.526-0.532H26.802z M23.893,8.817
		c0.114,0.074,0.339,0.137,0.544,0.137c0.504,0,0.747-0.287,0.747-0.614c0-0.313-0.183-0.487-0.544-0.627
		c-0.294-0.114-0.425-0.213-0.425-0.412c0-0.144,0.111-0.32,0.403-0.32c0.193,0,0.334,0.064,0.405,0.099L25.1,6.858
		c-0.095-0.054-0.253-0.104-0.471-0.104c-0.415,0-0.69,0.249-0.69,0.579c0,0.301,0.215,0.481,0.563,0.604
		c0.288,0.109,0.402,0.225,0.402,0.422c0,0.216-0.165,0.366-0.447,0.366c-0.189,0-0.37-0.063-0.493-0.139L23.893,8.817z"/>
</g>
<g>
	<path fill="#FFFFFF" d="M47.222,3.2v0.37h-0.24v0.215h0.24v0.84c0,0.181,0.029,0.318,0.107,0.402
		c0.068,0.075,0.173,0.117,0.304,0.117c0.107,0,0.194-0.017,0.249-0.039l-0.012-0.21l-0.164,0.021c-0.155,0-0.211-0.109-0.211-0.3
		V3.783h0.4V3.568h-0.4V3.126L47.222,3.2z M46.04,5.112h0.277V4.289l0.014-0.131c0.038-0.21,0.178-0.36,0.375-0.36l0.097,0.01V3.542
		l-0.079-0.009c-0.188,0-0.357,0.132-0.428,0.338h-0.014l-0.01-0.303h-0.244c0.009,0.144,0.012,0.3,0.012,0.481V5.112z
		 M44.938,3.745c0.331,0,0.461,0.331,0.461,0.593c0,0.347-0.201,0.599-0.469,0.599c-0.274,0-0.468-0.254-0.468-0.593
		C44.462,4.049,44.606,3.745,44.938,3.745z M44.944,3.533c-0.427,0-0.765,0.303-0.765,0.819c0,0.488,0.323,0.795,0.741,0.795
		c0.371,0,0.767-0.25,0.767-0.82C45.687,3.855,45.387,3.533,44.944,3.533z M42.755,4.22l0.019-0.114
		c0.057-0.211,0.232-0.348,0.424-0.348c0.297,0,0.459,0.264,0.459,0.573c0,0.354-0.174,0.597-0.468,0.597
		c-0.202,0-0.372-0.136-0.421-0.33l-0.013-0.115V4.22z M42.476,5.744h0.279v-0.84h0.005c0.096,0.154,0.271,0.244,0.477,0.244
		c0.363,0,0.7-0.274,0.7-0.829c0-0.468-0.28-0.785-0.651-0.785c-0.254,0-0.435,0.112-0.55,0.3h-0.007l-0.013-0.265h-0.254
		c0.007,0.147,0.014,0.307,0.014,0.504V5.744z M40.807,5.006c0.115,0.076,0.341,0.137,0.549,0.137c0.506,0,0.752-0.288,0.752-0.618
		c0-0.317-0.184-0.491-0.549-0.631c-0.295-0.115-0.426-0.215-0.426-0.415c0-0.147,0.11-0.323,0.405-0.323
		c0.195,0,0.337,0.064,0.409,0.102l0.075-0.226c-0.099-0.053-0.258-0.104-0.477-0.104c-0.417,0-0.694,0.249-0.694,0.584
		c0,0.303,0.215,0.483,0.565,0.608c0.292,0.11,0.406,0.226,0.406,0.426c0,0.217-0.165,0.368-0.448,0.368
		c-0.19,0-0.371-0.064-0.496-0.141L40.807,5.006z"/>
	<path fill="#FFFFFF" d="M53.122,7.966c0.107,0.063,0.264,0.104,0.434,0.104c0.367,0,0.577-0.191,0.577-0.464
		c0-0.229-0.137-0.362-0.406-0.464c-0.2-0.077-0.294-0.136-0.294-0.262c0-0.115,0.094-0.211,0.258-0.211
		c0.143,0,0.255,0.052,0.315,0.09l0.07-0.204c-0.087-0.051-0.224-0.097-0.38-0.097c-0.331,0-0.532,0.205-0.532,0.453
		c0,0.184,0.133,0.337,0.409,0.436c0.208,0.077,0.289,0.15,0.289,0.284c0,0.128-0.098,0.229-0.3,0.229
		c-0.14,0-0.288-0.058-0.371-0.11L53.122,7.966z M51.461,8.039h0.28V7.111l0.021-0.131c0.049-0.157,0.191-0.288,0.375-0.288
		c0.266,0,0.358,0.208,0.358,0.457v0.889h0.28V7.117c0-0.53-0.332-0.657-0.545-0.657c-0.255,0-0.434,0.144-0.51,0.291h-0.008
		l-0.017-0.255h-0.249c0.011,0.128,0.014,0.259,0.014,0.418V8.039z M50.357,6.671c0.332,0,0.463,0.331,0.463,0.593
		c0,0.347-0.201,0.599-0.468,0.599c-0.275,0-0.469-0.254-0.469-0.593C49.885,6.977,50.027,6.671,50.357,6.671z M50.366,6.46
		c-0.428,0-0.766,0.303-0.766,0.819c0,0.489,0.323,0.793,0.74,0.793c0.373,0,0.768-0.249,0.768-0.819
		C51.108,6.783,50.808,6.46,50.366,6.46z M49.104,5.886c-0.1,0-0.175,0.077-0.175,0.176c0,0.097,0.07,0.174,0.169,0.174
		c0.111,0,0.182-0.077,0.179-0.174C49.278,5.963,49.21,5.886,49.104,5.886z M49.246,8.039V6.496h-0.279v1.543H49.246z M47.973,6.126
		v0.37h-0.24V6.71h0.24v0.84c0,0.182,0.029,0.318,0.107,0.403c0.068,0.075,0.174,0.116,0.305,0.116c0.107,0,0.193-0.016,0.248-0.038
		l-0.013-0.21l-0.163,0.02c-0.156,0-0.21-0.108-0.21-0.3V6.71h0.4V6.496h-0.4V6.053L47.973,6.126z M47.493,7.771
		c-0.08,0.035-0.184,0.077-0.343,0.077c-0.306,0-0.536-0.221-0.536-0.577c0-0.322,0.191-0.584,0.545-0.584
		c0.154,0,0.257,0.036,0.326,0.074l0.063-0.216c-0.077-0.038-0.222-0.081-0.39-0.081c-0.502,0-0.828,0.344-0.828,0.82
		c0,0.472,0.303,0.786,0.768,0.786c0.207,0,0.37-0.052,0.443-0.09L47.493,7.771z M45.005,7.117c0.021-0.195,0.146-0.455,0.43-0.455
		c0.315,0,0.392,0.276,0.388,0.455H45.005z M46.084,7.317l0.009-0.13c0-0.285-0.134-0.727-0.637-0.727
		c-0.449,0-0.722,0.368-0.722,0.832c0,0.466,0.283,0.779,0.758,0.779c0.246,0,0.415-0.052,0.514-0.097l-0.048-0.2
		c-0.104,0.044-0.226,0.08-0.427,0.08c-0.28,0-0.524-0.157-0.528-0.537H46.084z M44.092,8.039h0.281V5.775h-0.281V8.039z
		 M42.655,7.117c0.022-0.195,0.146-0.455,0.431-0.455c0.317,0,0.392,0.276,0.39,0.455H42.655z M43.737,7.317l0.009-0.13
		c0-0.285-0.134-0.727-0.638-0.727c-0.448,0-0.723,0.368-0.723,0.832c0,0.466,0.285,0.779,0.759,0.779
		c0.246,0,0.414-0.052,0.514-0.097l-0.048-0.2c-0.105,0.044-0.227,0.08-0.428,0.08c-0.281,0-0.524-0.157-0.528-0.537H43.737z
		 M40.807,7.933c0.115,0.076,0.341,0.137,0.549,0.137c0.506,0,0.752-0.288,0.752-0.618c0-0.315-0.184-0.491-0.549-0.632
		c-0.295-0.115-0.426-0.214-0.426-0.414c0-0.147,0.11-0.322,0.405-0.322c0.195,0,0.337,0.063,0.409,0.101l0.075-0.225
		c-0.095-0.055-0.254-0.105-0.475-0.105c-0.417,0-0.694,0.249-0.694,0.583c0,0.303,0.216,0.484,0.567,0.607
		c0.29,0.112,0.404,0.227,0.404,0.427c0,0.217-0.165,0.367-0.448,0.367c-0.192,0-0.372-0.063-0.497-0.14L40.807,7.933z"/>
	<path fill="#FFFFFF" d="M51.222,10.808c0.108,0.063,0.264,0.105,0.434,0.105c0.367,0,0.577-0.192,0.577-0.463
		c0-0.229-0.137-0.362-0.406-0.465c-0.201-0.076-0.293-0.134-0.293-0.262c0-0.114,0.092-0.21,0.257-0.21
		c0.143,0,0.254,0.051,0.315,0.09l0.07-0.204c-0.087-0.053-0.223-0.099-0.379-0.099c-0.332,0-0.532,0.205-0.532,0.453
		c0,0.184,0.131,0.338,0.409,0.438c0.207,0.076,0.288,0.149,0.288,0.283c0,0.129-0.098,0.229-0.3,0.229
		c-0.139,0-0.287-0.058-0.371-0.109L51.222,10.808z M50.578,10.88h0.282V8.617h-0.282V10.88z M49.973,8.729
		c-0.102,0-0.176,0.077-0.176,0.176c0,0.097,0.069,0.174,0.168,0.174c0.111,0,0.182-0.077,0.179-0.174
		C50.145,8.806,50.079,8.729,49.973,8.729z M50.113,10.88V9.339h-0.28v1.542L50.113,10.88L50.113,10.88z M49.108,10.36l-0.016,0.091
		c-0.045,0.132-0.172,0.257-0.372,0.257c-0.144,0-0.265-0.086-0.265-0.267c0-0.299,0.348-0.354,0.652-0.348V10.36z M49.405,10.88
		c-0.019-0.104-0.025-0.235-0.025-0.37V9.935c0-0.31-0.113-0.634-0.585-0.634c-0.194,0-0.379,0.057-0.507,0.138l0.063,0.183
		c0.108-0.069,0.259-0.113,0.402-0.113c0.316,0,0.352,0.229,0.352,0.357v0.03c-0.598-0.001-0.928,0.201-0.928,0.574
		c0,0.223,0.16,0.443,0.472,0.443c0.22,0,0.384-0.107,0.472-0.228h0.011l0.021,0.192h0.254V10.88z M47.305,8.969v0.37h-0.238v0.213
		h0.238v0.842c0,0.182,0.028,0.32,0.107,0.402c0.067,0.077,0.174,0.117,0.303,0.117c0.108,0,0.194-0.016,0.25-0.038l-0.014-0.211
		l-0.162,0.021c-0.156,0-0.212-0.108-0.212-0.3V9.552h0.401V9.339h-0.401V8.895L47.305,8.969z M45.805,9.959
		c0.02-0.194,0.146-0.455,0.43-0.455c0.315,0,0.392,0.276,0.389,0.455H45.805z M46.885,10.16l0.01-0.131
		c0-0.283-0.135-0.728-0.64-0.728c-0.448,0-0.722,0.367-0.722,0.834c0,0.465,0.284,0.777,0.758,0.777
		c0.247,0,0.414-0.052,0.516-0.096l-0.049-0.201c-0.105,0.044-0.227,0.079-0.428,0.079c-0.28,0-0.523-0.156-0.528-0.535H46.885z
		 M43.796,8.965c0.073-0.017,0.181-0.027,0.325-0.027c0.588,0,0.874,0.321,0.871,0.828c0,0.58-0.322,0.911-0.916,0.911
		c-0.107,0-0.211-0.001-0.28-0.016V8.965z M43.52,10.875c0.139,0.016,0.305,0.023,0.502,0.023c0.418,0,0.751-0.106,0.95-0.31
		c0.202-0.197,0.31-0.483,0.31-0.835c0-0.348-0.111-0.598-0.301-0.771c-0.188-0.175-0.473-0.268-0.872-0.268
		c-0.219,0-0.421,0.021-0.589,0.047V10.875z M41.54,8.89c0.176,0,0.25,0.146,0.25,0.277c0,0.18-0.14,0.295-0.357,0.42
		C41.337,9.472,41.27,9.354,41.27,9.2C41.27,9.036,41.361,8.89,41.54,8.89z M41.479,10.705c-0.257,0-0.44-0.188-0.44-0.434
		c0-0.226,0.163-0.363,0.277-0.437c0.239,0.274,0.479,0.535,0.604,0.676C41.821,10.622,41.665,10.705,41.479,10.705z M42.591,10.88
		c-0.129-0.137-0.239-0.257-0.354-0.378c0.16-0.188,0.253-0.456,0.31-0.795h-0.254c-0.04,0.271-0.108,0.479-0.208,0.629
		c-0.137-0.152-0.34-0.389-0.524-0.6V9.726c0.343-0.169,0.473-0.348,0.473-0.572c0-0.276-0.207-0.456-0.476-0.456
		c-0.356,0-0.544,0.268-0.544,0.528c0,0.152,0.065,0.309,0.178,0.449v0.01c-0.245,0.135-0.421,0.332-0.421,0.628
		c0,0.322,0.243,0.604,0.66,0.604c0.236,0,0.443-0.075,0.628-0.248c0.083,0.091,0.141,0.149,0.201,0.211H42.591L42.591,10.88z"/>
</g>
</svg>
