<?xml version="1.0" encoding="utf-8"?>
<!-- Generator: Adobe Illustrator 16.0.0, SVG Export Plug-In . SVG Version: 6.00 Build 0)  -->
<!DOCTYPE svg PUBLIC "-//W3C//DTD SVG 1.1//EN" "http://www.w3.org/Graphics/SVG/1.1/DTD/svg11.dtd">
<svg version="1.1" id="Layer_1" xmlns="http://www.w3.org/2000/svg" xmlns:xlink="http://www.w3.org/1999/xlink" x="0px" y="0px"
	 width="63.125px" height="14px" viewBox="0 -45.055 63.125 14" enable-background="new 0 -45.055 63.125 14" xml:space="preserve">
<g>
	<g>
		<path fill-rule="evenodd" clip-rule="evenodd" fill="#FFFFFF" d="M43.022-43.47c0.412,0,11.064,0.002,11.439,0.002
			c0.783,0,1.566,0.003,2.35-0.002c0.122-0.001,0.198,0.034,0.268,0.139c1.167,1.757,2.336,3.512,3.51,5.264
			c0.076,0.116,0.074,0.194-0.002,0.309c-1.173,1.752-2.34,3.508-3.516,5.26c-0.044,0.066-0.145,0.137-0.221,0.137
			c-1.146,0.01-17.33-0.004-15.15-0.004c0.044-0.07,5.087-5.415,4.997-5.548C45.542-39.638,43.08-43.381,43.022-43.47z"/>
		<path fill-rule="evenodd" clip-rule="evenodd" fill="#FFFFFF" d="M39.512-43.468c0.411,0,0.785,0,1.161,0
			c0.782,0,1.566,0.003,2.349-0.002c0.124-0.001,0.199,0.034,0.27,0.139c1.165,1.757,2.335,3.512,3.508,5.264
			c0.077,0.116,0.076,0.194,0,0.309c-1.175,1.752-2.341,3.508-3.516,5.26c-0.045,0.066-0.146,0.137-0.222,0.137
			c-1.146,0.01-2.292,0.008-3.437,0.006c-0.027,0-0.052-0.004-0.105-0.01c0.043-0.07,0.077-0.129,0.115-0.186
			c1.151-1.729,2.302-3.457,3.458-5.183c0.09-0.133,0.092-0.223,0.001-0.355c-1.155-1.725-2.306-3.453-3.458-5.182
			C39.602-43.324,39.569-43.378,39.512-43.468z"/>
	</g>
	<g>
		<g>
			<path fill-rule="evenodd" clip-rule="evenodd" fill="#245E30" d="M41.544-44.404c0.48,0,12.921,0.004,13.359,0.004
				c0.915,0,1.829,0.003,2.745-0.004c0.143,0,0.23,0.04,0.313,0.163c1.361,2.052,2.728,4.102,4.098,6.148
				c0.091,0.135,0.087,0.226-0.002,0.361c-1.369,2.047-2.733,4.098-4.104,6.143c-0.054,0.078-0.172,0.158-0.261,0.158
				c-1.337,0.012-29.83,0.002-17.693-0.004c0.052-0.084,5.941-6.324,5.837-6.48C44.487-39.928,41.611-44.298,41.544-44.404z"/>
			<path fill-rule="evenodd" clip-rule="evenodd" fill="#245E30" d="M37.445-44.4c0.479,0,0.918,0,1.356,0
				c0.913,0,1.829,0.003,2.743-0.004c0.145,0,0.231,0.04,0.313,0.163c1.363,2.052,2.728,4.102,4.099,6.148
				c0.09,0.135,0.088,0.226-0.001,0.361c-1.371,2.047-2.733,4.098-4.105,6.143c-0.052,0.078-0.171,0.158-0.259,0.158
				c-1.337,0.012-2.677,0.008-4.015,0.008c-0.029,0-0.059-0.006-0.124-0.012c0.052-0.084,0.093-0.152,0.136-0.217
				c1.345-2.018,2.689-4.037,4.038-6.053c0.104-0.155,0.107-0.259,0.004-0.415c-1.351-2.015-2.694-4.033-4.038-6.051
				C37.55-44.231,37.511-44.295,37.445-44.4z"/>
		</g>
		<g>
			<path fill-rule="evenodd" clip-rule="evenodd" fill="#FFFFFF" d="M41.976-44.128c0.46,0,12.371,0.002,12.791,0.002
				c0.874,0,1.75,0.003,2.625-0.002c0.14-0.001,0.223,0.038,0.301,0.156c1.304,1.964,2.612,3.926,3.923,5.886
				c0.087,0.129,0.086,0.216-0.001,0.344c-1.312,1.962-2.617,3.925-3.931,5.884c-0.049,0.072-0.162,0.15-0.247,0.15
				c-1.28,0.012-19.378-0.006-16.94-0.006c0.051-0.078,5.689-6.053,5.589-6.202C44.792-39.844,42.041-44.028,41.976-44.128z"/>
			<path fill-rule="evenodd" clip-rule="evenodd" fill="#FFFFFF" d="M38.052-44.125c0.459,0,0.879,0,1.297,0
				c0.876,0,1.752,0.003,2.627-0.002c0.138-0.001,0.222,0.038,0.3,0.156c1.305,1.964,2.611,3.926,3.924,5.886
				c0.086,0.129,0.084,0.216-0.001,0.344c-1.312,1.962-2.617,3.925-3.931,5.884c-0.05,0.072-0.163,0.15-0.247,0.15
				c-1.281,0.012-2.562,0.008-3.843,0.008c-0.029,0-0.057-0.006-0.119-0.014c0.049-0.078,0.088-0.143,0.13-0.207
				c1.287-1.93,2.574-3.863,3.866-5.794c0.099-0.147,0.104-0.248,0.003-0.397c-1.294-1.928-2.579-3.86-3.865-5.792
				C38.154-43.964,38.116-44.025,38.052-44.125z"/>
		</g>
	</g>
	<g>
		<g>
			<path fill-rule="evenodd" clip-rule="evenodd" fill="#245E30" d="M42.292-43.873c0.444,0,11.954,0.003,12.358,0.003
				c0.848,0,1.693,0.003,2.54-0.003c0.133,0,0.213,0.037,0.288,0.151c1.262,1.898,2.525,3.794,3.792,5.688
				c0.084,0.125,0.082,0.208-0.001,0.333c-1.268,1.894-2.528,3.792-3.798,5.683c-0.048,0.074-0.157,0.148-0.24,0.148
				c-1.238,0.01-27.596,0.002-16.369-0.004c0.049-0.078,5.498-5.852,5.401-5.995C45.014-39.732,42.353-43.775,42.292-43.873z"/>
			<path fill-rule="evenodd" clip-rule="evenodd" fill="#245E30" d="M38.5-43.87c0.443,0,0.849,0,1.253,0
				c0.846,0,1.693,0.003,2.539-0.003c0.134,0,0.215,0.037,0.29,0.151c1.259,1.898,2.523,3.794,3.791,5.688
				c0.084,0.125,0.082,0.208-0.001,0.333c-1.269,1.894-2.53,3.792-3.798,5.683c-0.049,0.074-0.157,0.148-0.24,0.148
				c-1.237,0.01-2.475,0.006-3.713,0.006c-0.027,0-0.055-0.006-0.114-0.01c0.048-0.078,0.086-0.141,0.126-0.203
				c1.243-1.865,2.486-3.732,3.736-5.599c0.096-0.142,0.098-0.239,0.002-0.383c-1.249-1.864-2.492-3.732-3.735-5.599
				C38.596-43.714,38.562-43.772,38.5-43.87z"/>
		</g>
		<g>
			<path fill-rule="evenodd" clip-rule="evenodd" fill="#FFFFFF" d="M42.692-43.617c0.426,0,11.443,0.002,11.831,0.002
				c0.812,0,1.621,0.002,2.432-0.002c0.127-0.001,0.205,0.035,0.277,0.144c1.206,1.817,2.417,3.632,3.629,5.445
				c0.08,0.12,0.079,0.2-0.001,0.32c-1.214,1.813-2.421,3.628-3.635,5.44c-0.047,0.068-0.152,0.141-0.23,0.143
				c-1.184,0.008-17.927-0.008-15.67-0.008c0.046-0.072,5.262-5.598,5.169-5.738C45.297-39.654,42.75-43.525,42.692-43.617z"/>
			<path fill-rule="evenodd" clip-rule="evenodd" fill="#FFFFFF" d="M39.062-43.615c0.425,0,0.813,0,1.201,0
				c0.81,0,1.619,0.002,2.429-0.002c0.128-0.001,0.205,0.035,0.278,0.144c1.206,1.817,2.416,3.632,3.63,5.445
				c0.078,0.12,0.077,0.2-0.003,0.32c-1.212,1.813-2.42,3.628-3.635,5.44c-0.047,0.068-0.151,0.141-0.229,0.143
				c-1.185,0.008-2.37,0.006-3.555,0.004c-0.025,0-0.054-0.004-0.11-0.012c0.047-0.072,0.081-0.133,0.121-0.191
				c1.191-1.787,2.382-3.574,3.577-5.359c0.091-0.137,0.094-0.229,0.001-0.369c-1.195-1.783-2.386-3.571-3.576-5.358
				C39.156-43.465,39.121-43.522,39.062-43.615z"/>
		</g>
	</g>
	<g>
		<path fill="#245E30" d="M45.444-38.987l0.697,1.74l0.697-1.74h0.365v2.133h-0.281v-0.831l0.026-0.896l-0.7,1.727h-0.216
			l-0.698-1.723l0.027,0.892v0.831h-0.281v-2.133H45.444z"/>
		<path fill="#245E30" d="M48.176-37.252l0.369-1.187h0.29l-0.638,1.829c-0.099,0.264-0.255,0.395-0.47,0.395l-0.052-0.004
			l-0.101-0.02v-0.219l0.073,0.006c0.092,0,0.163-0.02,0.215-0.057c0.051-0.037,0.093-0.104,0.126-0.203l0.061-0.16l-0.565-1.567
			h0.296L48.176-37.252z"/>
		<path fill="#245E30" d="M50.49-37.805c-0.241-0.069-0.417-0.154-0.526-0.255c-0.11-0.101-0.165-0.226-0.165-0.374
			c0-0.168,0.067-0.307,0.201-0.417c0.135-0.11,0.309-0.165,0.523-0.165c0.146,0,0.277,0.028,0.393,0.085
			c0.114,0.057,0.203,0.135,0.266,0.234c0.063,0.1,0.095,0.208,0.095,0.327h-0.282c0-0.129-0.041-0.231-0.123-0.305
			s-0.198-0.111-0.348-0.111c-0.139,0-0.246,0.03-0.324,0.092c-0.077,0.061-0.116,0.146-0.116,0.254c0,0.087,0.037,0.161,0.11,0.221
			c0.074,0.06,0.199,0.115,0.377,0.165c0.177,0.05,0.315,0.105,0.415,0.165c0.101,0.06,0.175,0.13,0.223,0.21
			c0.049,0.08,0.073,0.174,0.073,0.283c0,0.173-0.067,0.312-0.202,0.416s-0.315,0.156-0.541,0.156c-0.146,0-0.283-0.029-0.41-0.084
			c-0.127-0.057-0.225-0.135-0.293-0.232c-0.069-0.098-0.104-0.207-0.104-0.332h0.282c0,0.128,0.048,0.23,0.144,0.306
			c0.095,0.074,0.222,0.111,0.381,0.111c0.148,0,0.263-0.031,0.342-0.092s0.118-0.143,0.118-0.247c0-0.104-0.036-0.185-0.109-0.242
			S50.682-37.75,50.49-37.805z"/>
		<path fill="#245E30" d="M52.937-37.629c0,0.241-0.056,0.436-0.166,0.582c-0.11,0.148-0.26,0.223-0.448,0.223
			c-0.192,0-0.344-0.063-0.454-0.184v0.764h-0.271v-2.194h0.247l0.014,0.176c0.11-0.137,0.264-0.205,0.46-0.205
			c0.19,0,0.341,0.072,0.451,0.215c0.111,0.143,0.167,0.343,0.167,0.599V-37.629z M52.666-37.66c0-0.179-0.038-0.32-0.114-0.423
			c-0.076-0.103-0.181-0.155-0.313-0.155c-0.164,0-0.287,0.073-0.369,0.218v0.756c0.081,0.145,0.205,0.217,0.372,0.217
			c0.13,0,0.233-0.051,0.311-0.154C52.627-37.303,52.666-37.457,52.666-37.66z"/>
		<path fill="#245E30" d="M53.208-37.662c0-0.155,0.031-0.295,0.092-0.419c0.062-0.124,0.146-0.219,0.255-0.287
			c0.109-0.067,0.233-0.101,0.373-0.101c0.216,0,0.391,0.075,0.523,0.224c0.133,0.149,0.2,0.348,0.2,0.596v0.019
			c0,0.154-0.03,0.293-0.089,0.416c-0.06,0.121-0.144,0.217-0.253,0.285c-0.11,0.068-0.236,0.104-0.379,0.104
			c-0.215,0-0.389-0.076-0.522-0.225c-0.133-0.15-0.2-0.347-0.2-0.593V-37.662z M53.481-37.629c0,0.176,0.041,0.316,0.123,0.424
			c0.081,0.105,0.19,0.158,0.327,0.158c0.138,0,0.247-0.053,0.328-0.16c0.081-0.109,0.121-0.26,0.121-0.454
			c0-0.174-0.041-0.314-0.123-0.422c-0.083-0.108-0.192-0.162-0.329-0.162c-0.134,0-0.242,0.053-0.324,0.159
			C53.522-37.98,53.481-37.828,53.481-37.629z"/>
		<path fill="#245E30" d="M55.757-38.196c-0.041-0.006-0.085-0.01-0.133-0.01c-0.178,0-0.299,0.075-0.362,0.227v1.125h-0.271v-1.585
			h0.264l0.004,0.183c0.089-0.142,0.215-0.212,0.378-0.212c0.053,0,0.093,0.007,0.12,0.021V-38.196z"/>
		<path fill="#245E30" d="M56.447-38.823v0.384h0.296v0.209h-0.296v0.983c0,0.064,0.014,0.111,0.04,0.143
			c0.026,0.033,0.071,0.049,0.135,0.049c0.031,0,0.074-0.006,0.129-0.018v0.219c-0.071,0.02-0.141,0.029-0.208,0.029
			c-0.121,0-0.213-0.037-0.274-0.111c-0.062-0.072-0.092-0.176-0.092-0.311v-0.983h-0.289v-0.209h0.289v-0.384H56.447z"/>
		<path fill="#245E30" d="M57.983-37.276c0-0.072-0.027-0.128-0.083-0.169c-0.055-0.041-0.151-0.076-0.288-0.105
			c-0.138-0.029-0.246-0.064-0.327-0.105c-0.08-0.041-0.14-0.09-0.179-0.146c-0.038-0.057-0.058-0.124-0.058-0.202
			c0-0.129,0.055-0.239,0.165-0.329c0.109-0.09,0.25-0.135,0.421-0.135c0.18,0,0.325,0.046,0.438,0.139
			c0.111,0.093,0.167,0.211,0.167,0.355h-0.272c0-0.074-0.031-0.138-0.094-0.192c-0.063-0.053-0.143-0.08-0.238-0.08
			c-0.099,0-0.176,0.021-0.231,0.064c-0.056,0.043-0.084,0.099-0.084,0.168c0,0.065,0.026,0.115,0.078,0.148s0.146,0.065,0.28,0.095
			c0.136,0.03,0.245,0.066,0.329,0.108s0.146,0.093,0.187,0.152s0.061,0.131,0.061,0.216c0,0.141-0.057,0.254-0.17,0.34
			s-0.26,0.129-0.44,0.129c-0.127,0-0.239-0.023-0.337-0.068S57.132-37,57.077-37.081c-0.055-0.08-0.083-0.168-0.083-0.262h0.271
			c0.005,0.09,0.041,0.162,0.109,0.217c0.067,0.053,0.157,0.078,0.269,0.078c0.103,0,0.185-0.02,0.247-0.061
			C57.952-37.151,57.983-37.206,57.983-37.276z"/>
	</g>
</g>
<g>
	<g>
		<path fill-rule="evenodd" clip-rule="evenodd" fill="#245E30" d="M23.024-44.396c0.48,0,12.921,0.004,13.359,0.004
			c0.915,0,1.829,0.003,2.745-0.004c0.143,0,0.23,0.04,0.313,0.163c1.361,2.052,2.728,4.102,4.098,6.148
			c0.091,0.135,0.087,0.226-0.002,0.361c-1.369,2.046-2.733,4.097-4.104,6.142c-0.054,0.079-0.172,0.159-0.261,0.159
			c-1.337,0.011-29.83,0.002-17.693-0.005c0.052-0.083,5.941-6.323,5.837-6.479C25.966-39.92,23.09-44.29,23.024-44.396z"/>
		<path fill-rule="evenodd" clip-rule="evenodd" fill="#245E30" d="M18.924-44.392c0.479,0,0.918,0,1.356,0
			c0.913,0,1.829,0.003,2.743-0.004c0.145,0,0.231,0.04,0.313,0.163c1.363,2.052,2.728,4.102,4.099,6.148
			c0.09,0.135,0.088,0.226-0.001,0.361c-1.371,2.046-2.733,4.097-4.105,6.142c-0.052,0.079-0.171,0.159-0.259,0.159
			c-1.337,0.011-2.677,0.008-4.015,0.008c-0.029,0-0.059-0.006-0.124-0.013c0.052-0.083,0.093-0.152,0.136-0.216
			c1.345-2.019,2.689-4.037,4.038-6.053c0.104-0.155,0.107-0.259,0.004-0.415c-1.351-2.015-2.694-4.033-4.038-6.051
			C19.03-44.224,18.991-44.288,18.924-44.392z"/>
	</g>
	<g>
		<path fill-rule="evenodd" clip-rule="evenodd" fill="#FFFFFF" d="M23.456-44.12c0.46,0,12.371,0.002,12.791,0.002
			c0.874,0,1.75,0.003,2.625-0.002c0.14-0.001,0.223,0.038,0.301,0.156c1.304,1.964,2.612,3.926,3.923,5.886
			c0.087,0.129,0.086,0.216-0.001,0.344c-1.312,1.96-2.617,3.923-3.931,5.882c-0.049,0.073-0.162,0.15-0.247,0.151
			c-1.28,0.011-19.378-0.006-16.94-0.006c0.051-0.079,5.689-6.052,5.589-6.202C26.272-39.836,23.52-44.02,23.456-44.12z"/>
		<path fill-rule="evenodd" clip-rule="evenodd" fill="#FFFFFF" d="M19.532-44.118c0.459,0,0.879,0,1.297,0
			c0.876,0,1.752,0.003,2.627-0.002c0.138-0.001,0.222,0.038,0.3,0.156c1.305,1.964,2.611,3.926,3.924,5.886
			c0.086,0.129,0.084,0.216-0.001,0.344c-1.312,1.96-2.617,3.923-3.931,5.882c-0.05,0.073-0.163,0.15-0.247,0.151
			c-1.281,0.011-2.562,0.008-3.843,0.007c-0.029,0-0.057-0.005-0.119-0.013c0.049-0.079,0.088-0.144,0.13-0.207
			c1.287-1.931,2.574-3.864,3.866-5.794c0.099-0.147,0.104-0.248,0.003-0.397c-1.294-1.928-2.579-3.86-3.865-5.792
			C19.633-43.957,19.595-44.018,19.532-44.118z"/>
	</g>
</g>
<g>
	<g>
		<path fill-rule="evenodd" clip-rule="evenodd" fill="#245E30" d="M23.772-43.865c0.444,0,11.954,0.003,12.358,0.003
			c0.848,0,1.693,0.003,2.54-0.003c0.133,0,0.213,0.037,0.288,0.151c1.262,1.898,2.525,3.794,3.792,5.688
			c0.084,0.125,0.082,0.208-0.001,0.333c-1.268,1.893-2.528,3.791-3.798,5.682c-0.048,0.073-0.157,0.147-0.24,0.147
			c-1.238,0.01-27.596,0.002-16.369-0.004c0.049-0.077,5.498-5.85,5.401-5.994C26.494-39.725,23.833-43.768,23.772-43.865z"/>
		<path fill-rule="evenodd" clip-rule="evenodd" fill="#245E30" d="M19.98-43.862c0.443,0,0.849,0,1.253,0
			c0.846,0,1.693,0.003,2.539-0.003c0.134,0,0.215,0.037,0.29,0.151c1.259,1.898,2.523,3.794,3.791,5.688
			c0.084,0.125,0.082,0.208-0.001,0.333c-1.269,1.893-2.53,3.791-3.798,5.682c-0.049,0.073-0.157,0.147-0.24,0.147
			c-1.237,0.01-2.475,0.007-3.713,0.006c-0.027,0-0.055-0.005-0.114-0.01c0.048-0.077,0.086-0.141,0.126-0.202
			c1.243-1.866,2.486-3.733,3.736-5.598c0.096-0.142,0.098-0.239,0.002-0.383c-1.249-1.864-2.492-3.732-3.735-5.599
			C20.076-43.706,20.042-43.765,19.98-43.862z"/>
	</g>
	<g>
		<path fill-rule="evenodd" clip-rule="evenodd" fill="#FFFFFF" d="M24.171-43.609c0.426,0,11.443,0.002,11.831,0.002
			c0.812,0,1.621,0.002,2.432-0.002c0.127-0.001,0.205,0.035,0.277,0.144c1.206,1.817,2.417,3.632,3.629,5.445
			c0.08,0.12,0.079,0.2-0.001,0.32c-1.214,1.812-2.421,3.627-3.635,5.44c-0.047,0.068-0.152,0.14-0.23,0.142
			c-1.184,0.008-17.927-0.007-15.67-0.007c0.046-0.072,5.262-5.598,5.169-5.737C26.777-39.646,24.23-43.517,24.171-43.609z"/>
		<path fill-rule="evenodd" clip-rule="evenodd" fill="#FFFFFF" d="M20.542-43.607c0.425,0,0.813,0,1.201,0
			c0.81,0,1.619,0.002,2.429-0.002c0.128-0.001,0.205,0.035,0.278,0.144c1.206,1.817,2.416,3.632,3.63,5.445
			c0.078,0.12,0.077,0.2-0.003,0.32c-1.212,1.812-2.42,3.627-3.635,5.44c-0.047,0.068-0.151,0.14-0.229,0.142
			c-1.185,0.008-2.37,0.006-3.555,0.005c-0.025,0-0.054-0.005-0.11-0.012c0.047-0.072,0.081-0.134,0.121-0.191
			c1.191-1.787,2.382-3.575,3.577-5.359c0.091-0.137,0.094-0.229,0.001-0.369c-1.195-1.783-2.386-3.571-3.576-5.358
			C20.635-43.458,20.6-43.514,20.542-43.607z"/>
	</g>
</g>
<g>
	<g>
		<path fill-rule="evenodd" clip-rule="evenodd" fill="#FFFFFF" d="M24.501-43.462c0.412,0,11.064,0.002,11.439,0.002
			c0.783,0,1.566,0.003,2.35-0.002c0.122-0.001,0.198,0.034,0.268,0.139c1.167,1.757,2.336,3.512,3.51,5.264
			c0.076,0.116,0.074,0.194-0.002,0.309c-1.173,1.751-2.34,3.508-3.516,5.259c-0.044,0.066-0.145,0.137-0.221,0.137
			c-1.146,0.009-17.33-0.005-15.15-0.005c0.044-0.07,5.087-5.413,4.997-5.547C27.021-39.63,24.559-43.373,24.501-43.462z"/>
		<path fill-rule="evenodd" clip-rule="evenodd" fill="#FFFFFF" d="M20.992-43.46c0.411,0,0.785,0,1.161,0
			c0.782,0,1.566,0.003,2.349-0.002c0.124-0.001,0.199,0.034,0.27,0.139c1.165,1.757,2.335,3.512,3.508,5.264
			c0.077,0.116,0.076,0.194,0,0.309c-1.175,1.751-2.341,3.508-3.516,5.259c-0.045,0.066-0.146,0.137-0.222,0.137
			c-1.146,0.009-2.292,0.007-3.437,0.005c-0.027,0-0.052-0.004-0.105-0.01c0.043-0.07,0.077-0.128,0.115-0.185
			c1.151-1.729,2.302-3.458,3.458-5.182c0.09-0.133,0.092-0.223,0.001-0.355c-1.155-1.725-2.306-3.453-3.458-5.182
			C21.082-43.316,21.048-43.37,20.992-43.46z"/>
	</g>
	<g>
		<path fill="#245E30" d="M26.923-38.979l0.697,1.74l0.697-1.74h0.365v2.132h-0.281v-0.831l0.026-0.896l-0.7,1.727h-0.216
			l-0.698-1.722l0.027,0.892v0.831H26.56v-2.132H26.923z"/>
		<path fill="#245E30" d="M29.656-37.244l0.369-1.187h0.29l-0.638,1.829c-0.099,0.264-0.255,0.396-0.47,0.396l-0.052-0.004
			l-0.101-0.02v-0.22l0.073,0.006c0.092,0,0.163-0.019,0.215-0.056c0.051-0.037,0.093-0.104,0.126-0.203l0.061-0.161l-0.565-1.567
			h0.296L29.656-37.244z"/>
		<path fill="#245E30" d="M31.622-37.682v0.835H31.34v-2.132h0.787c0.233,0,0.416,0.06,0.548,0.179
			c0.133,0.119,0.199,0.277,0.199,0.473c0,0.207-0.065,0.366-0.194,0.478c-0.13,0.112-0.314,0.167-0.556,0.167H31.622z
			 M31.622-37.912h0.506c0.15,0,0.266-0.035,0.346-0.106c0.08-0.071,0.12-0.174,0.12-0.308c0-0.127-0.04-0.229-0.12-0.305
			s-0.19-0.116-0.33-0.119h-0.521V-37.912z"/>
		<path fill="#245E30" d="M33.957-38.188c-0.041-0.006-0.085-0.01-0.133-0.01c-0.178,0-0.299,0.075-0.362,0.227v1.125h-0.271v-1.584
			h0.264l0.004,0.183c0.089-0.142,0.215-0.212,0.378-0.212c0.053,0,0.093,0.007,0.12,0.021V-38.188z"/>
		<path fill="#245E30" d="M34.104-37.654c0-0.155,0.031-0.295,0.092-0.419c0.062-0.124,0.146-0.219,0.255-0.287
			c0.109-0.067,0.233-0.101,0.373-0.101c0.216,0,0.391,0.075,0.523,0.224c0.133,0.149,0.2,0.348,0.2,0.596v0.019
			c0,0.154-0.03,0.293-0.089,0.416c-0.06,0.122-0.144,0.218-0.253,0.286c-0.11,0.068-0.236,0.103-0.379,0.103
			c-0.215,0-0.389-0.075-0.522-0.224c-0.133-0.15-0.2-0.348-0.2-0.594V-37.654z M34.376-37.622c0,0.176,0.041,0.317,0.123,0.423
			c0.081,0.106,0.19,0.159,0.327,0.159c0.138,0,0.247-0.053,0.328-0.161s0.121-0.259,0.121-0.454c0-0.174-0.041-0.314-0.123-0.422
			c-0.083-0.108-0.192-0.162-0.329-0.162c-0.134,0-0.242,0.053-0.324,0.159C34.417-37.972,34.376-37.82,34.376-37.622z"/>
		<path fill="#245E30" d="M36.02-36.847v-1.375h-0.25v-0.209h0.25v-0.163c0-0.17,0.046-0.301,0.137-0.394s0.219-0.139,0.385-0.139
			c0.063,0,0.125,0.008,0.187,0.025l-0.015,0.218c-0.046-0.009-0.095-0.013-0.146-0.013c-0.088,0-0.156,0.025-0.204,0.077
			c-0.048,0.051-0.071,0.125-0.071,0.221v0.167h0.338v0.209h-0.338v1.375H36.02z"/>
		<path fill="#245E30" d="M36.929-38.852c0-0.044,0.014-0.081,0.041-0.111c0.026-0.03,0.066-0.045,0.119-0.045
			s0.093,0.015,0.12,0.045s0.041,0.067,0.041,0.111s-0.014,0.081-0.041,0.11s-0.067,0.044-0.12,0.044s-0.093-0.015-0.119-0.044
			C36.943-38.771,36.929-38.808,36.929-38.852z M37.222-36.847h-0.271v-1.584h0.271V-36.847z"/>
		<path fill="#245E30" d="M37.95-36.847h-0.271v-2.25h0.271V-36.847z"/>
		<path fill="#245E30" d="M39.042-36.817c-0.215,0-0.39-0.07-0.524-0.212c-0.135-0.141-0.202-0.33-0.202-0.566v-0.05
			c0-0.157,0.03-0.297,0.091-0.421c0.06-0.124,0.144-0.22,0.252-0.29c0.107-0.07,0.225-0.104,0.351-0.104
			c0.206,0,0.366,0.068,0.48,0.204c0.114,0.135,0.171,0.33,0.171,0.583v0.113h-1.073c0.004,0.156,0.05,0.282,0.137,0.379
			c0.088,0.097,0.198,0.144,0.333,0.144c0.096,0,0.177-0.02,0.243-0.059s0.125-0.09,0.175-0.154l0.165,0.129
			C39.506-36.92,39.307-36.817,39.042-36.817z M39.008-38.238c-0.109,0-0.201,0.04-0.275,0.119s-0.12,0.191-0.138,0.334h0.794
			v-0.021c-0.008-0.138-0.045-0.244-0.111-0.32S39.122-38.238,39.008-38.238z"/>
	</g>
</g>
<g>
	<g>
		<path fill-rule="evenodd" clip-rule="evenodd" fill="#245E30" d="M4.541-44.545c0.48,0,12.922,0.003,13.359,0.003
			c0.914,0,1.83,0.003,2.743-0.003c0.146-0.001,0.231,0.04,0.314,0.164c1.362,2.052,2.727,4.101,4.098,6.147
			c0.09,0.135,0.086,0.227-0.002,0.36c-1.372,2.047-2.733,4.099-4.105,6.144c-0.053,0.078-0.17,0.159-0.26,0.159
			C19.353-31.561-9.14-31.57,2.997-31.578c0.05-0.084,5.941-6.321,5.836-6.479C7.482-40.07,4.607-44.44,4.541-44.545z"/>
		<path fill-rule="evenodd" clip-rule="evenodd" fill="#245E30" d="M0.441-44.542c0.479,0,0.918,0,1.355,0
			c0.915,0,1.83,0.003,2.744-0.003c0.143-0.001,0.231,0.04,0.314,0.164c1.361,2.052,2.727,4.101,4.097,6.147
			c0.09,0.135,0.089,0.227,0,0.36c-1.371,2.047-2.735,4.099-4.106,6.144c-0.052,0.078-0.17,0.159-0.258,0.159
			c-1.338,0.011-2.677,0.007-4.015,0.006c-0.03,0-0.06-0.006-0.124-0.012c0.051-0.084,0.092-0.15,0.136-0.217
			c1.345-2.019,2.688-4.037,4.038-6.05C4.728-38,4.73-38.105,4.625-38.261c-1.349-2.014-2.692-4.033-4.037-6.051
			C0.547-44.374,0.508-44.438,0.441-44.542z"/>
	</g>
	<g>
		<g>
			<path fill-rule="evenodd" clip-rule="evenodd" fill="#FFFFFF" d="M4.905-44.295c0.463,0,12.433,0.003,12.854,0.003
				c0.88,0,1.762,0.002,2.641-0.003c0.139-0.001,0.223,0.039,0.302,0.157c1.31,1.974,2.625,3.947,3.942,5.915
				c0.087,0.131,0.085,0.218,0,0.347c-1.319,1.97-2.631,3.942-3.95,5.912c-0.051,0.075-0.165,0.151-0.25,0.154
				c-1.286,0.008-28.702,0-17.025-0.007c0.051-0.081,5.718-6.083,5.618-6.234C7.737-39.989,4.971-44.195,4.905-44.295z"/>
			<path fill-rule="evenodd" clip-rule="evenodd" fill="#FFFFFF" d="M0.962-44.292c0.462,0,0.883,0,1.305,0
				c0.879,0,1.76,0.002,2.639-0.003c0.14-0.001,0.224,0.039,0.302,0.157c1.311,1.974,2.625,3.947,3.944,5.915
				c0.086,0.131,0.085,0.218-0.002,0.347c-1.318,1.97-2.63,3.942-3.95,5.912C5.15-31.89,5.035-31.814,4.95-31.811
				c-1.287,0.008-2.575,0.005-3.862,0.005c-0.028,0-0.056-0.005-0.118-0.012c0.049-0.081,0.088-0.146,0.13-0.208
				c1.294-1.943,2.587-3.886,3.887-5.823c0.098-0.148,0.103-0.249,0.002-0.401c-1.3-1.937-2.592-3.88-3.886-5.821
				C1.063-44.13,1.026-44.192,0.962-44.292z"/>
		</g>
		<g>
			<path fill-rule="evenodd" clip-rule="evenodd" fill="#245E30" d="M5.322-44.031c0.442,0,11.902,0.003,12.305,0.003
				c0.844,0,1.686,0.003,2.528-0.003c0.133,0,0.214,0.037,0.289,0.15c1.253,1.89,2.513,3.778,3.775,5.664
				c0.083,0.124,0.081,0.208-0.004,0.332c-1.261,1.886-2.517,3.774-3.78,5.658c-0.048,0.072-0.156,0.146-0.238,0.146
				c-1.232,0.01-18.646-0.007-16.298-0.007c0.047-0.074,5.473-5.822,5.376-5.967C8.032-39.908,5.385-43.934,5.322-44.031z"/>
			<path fill-rule="evenodd" clip-rule="evenodd" fill="#245E30" d="M1.547-44.028c0.44,0,0.844,0,1.248,0
				c0.843,0,1.684,0.003,2.527-0.003c0.133,0,0.213,0.037,0.287,0.15c1.256,1.89,2.514,3.778,3.776,5.664
				c0.083,0.124,0.082,0.208-0.002,0.332c-1.263,1.886-2.518,3.774-3.782,5.658c-0.047,0.072-0.156,0.146-0.238,0.146
				c-1.231,0.01-2.463,0.007-3.696,0.006c-0.028,0-0.056-0.005-0.115-0.013c0.05-0.074,0.086-0.138,0.127-0.196
				c1.238-1.859,2.475-3.72,3.72-5.575c0.096-0.143,0.099-0.238,0.002-0.383c-1.244-1.855-2.481-3.715-3.72-5.574
				C1.642-43.873,1.607-43.931,1.547-44.028z"/>
		</g>
	</g>
	<g>
		<path fill="#FFFFFF" d="M7.958-38.437h1.011v0.23H7.674v-2.133h0.283V-38.437z"/>
		<path fill="#FFFFFF" d="M9.174-39.015c0-0.154,0.031-0.295,0.092-0.418c0.062-0.125,0.146-0.221,0.255-0.287
			c0.109-0.068,0.233-0.102,0.373-0.102c0.216,0,0.391,0.074,0.523,0.225c0.133,0.148,0.2,0.348,0.2,0.596v0.02
			c0,0.154-0.03,0.293-0.089,0.416c-0.06,0.121-0.144,0.217-0.253,0.285c-0.11,0.068-0.236,0.104-0.379,0.104
			c-0.215,0-0.389-0.076-0.522-0.225c-0.133-0.15-0.2-0.348-0.2-0.594V-39.015z M9.447-38.981c0,0.176,0.041,0.316,0.123,0.424
			c0.081,0.105,0.19,0.158,0.327,0.158c0.138,0,0.247-0.053,0.328-0.16c0.081-0.109,0.121-0.26,0.121-0.455
			c0-0.174-0.041-0.314-0.123-0.422c-0.083-0.107-0.192-0.162-0.329-0.162c-0.134,0-0.242,0.053-0.324,0.16
			C9.488-39.333,9.447-39.181,9.447-38.981z"/>
		<path fill="#FFFFFF" d="M10.892-39.013c0-0.248,0.057-0.443,0.171-0.59s0.266-0.219,0.454-0.219c0.193,0,0.345,0.068,0.453,0.205
			l0.013-0.176h0.248v1.547c0,0.205-0.062,0.367-0.183,0.484c-0.121,0.119-0.285,0.178-0.49,0.178c-0.114,0-0.226-0.023-0.335-0.072
			s-0.193-0.117-0.251-0.201l0.141-0.162c0.116,0.143,0.259,0.215,0.427,0.215c0.132,0,0.234-0.037,0.309-0.111
			c0.073-0.074,0.11-0.18,0.11-0.314v-0.135c-0.108,0.125-0.257,0.188-0.444,0.188c-0.186,0-0.335-0.076-0.45-0.225
			C10.95-38.552,10.892-38.755,10.892-39.013z M11.165-38.981c0,0.178,0.036,0.318,0.109,0.422c0.073,0.102,0.176,0.152,0.308,0.152
			c0.171,0,0.297-0.078,0.377-0.232v-0.725c-0.083-0.15-0.208-0.227-0.374-0.227c-0.132,0-0.234,0.051-0.309,0.152
			C11.202-39.335,11.165-39.183,11.165-38.981z"/>
		<path fill="#FFFFFF" d="M12.641-40.212c0-0.045,0.014-0.082,0.041-0.111c0.026-0.029,0.066-0.045,0.119-0.045
			s0.093,0.016,0.12,0.045s0.041,0.066,0.041,0.111c0,0.043-0.014,0.08-0.041,0.109s-0.067,0.045-0.12,0.045
			s-0.093-0.016-0.119-0.045C12.655-40.132,12.641-40.169,12.641-40.212z M12.934-38.206h-0.271v-1.586h0.271V-38.206z"/>
		<path fill="#FFFFFF" d="M13.624-39.792l0.008,0.199c0.121-0.152,0.279-0.229,0.475-0.229c0.336,0,0.504,0.189,0.508,0.566v1.049
			h-0.271v-1.051c0-0.113-0.027-0.197-0.078-0.252s-0.131-0.082-0.24-0.082c-0.088,0-0.164,0.023-0.23,0.07
			s-0.119,0.107-0.156,0.184v1.131h-0.27v-1.586H13.624z"/>
		<path fill="#FFFFFF" d="M15.708-38.78c0-0.102,0.029-0.195,0.086-0.281s0.166-0.188,0.326-0.301
			c-0.094-0.115-0.158-0.209-0.189-0.279c-0.033-0.07-0.049-0.139-0.049-0.209c0-0.162,0.049-0.289,0.145-0.381
			s0.225-0.137,0.389-0.137c0.146,0,0.268,0.041,0.363,0.127s0.145,0.193,0.145,0.324c0,0.086-0.023,0.164-0.066,0.236
			c-0.043,0.074-0.119,0.15-0.227,0.23l-0.158,0.115l0.475,0.566c0.066-0.127,0.1-0.268,0.1-0.424h0.246
			c0,0.25-0.061,0.457-0.182,0.621l0.305,0.365h-0.324l-0.143-0.17c-0.072,0.064-0.156,0.115-0.254,0.148s-0.195,0.051-0.297,0.051
			c-0.207,0-0.375-0.057-0.5-0.166C15.771-38.454,15.708-38.599,15.708-38.78z M16.397-38.399c0.145,0,0.275-0.055,0.395-0.164
			l-0.52-0.623l-0.049,0.037c-0.164,0.119-0.244,0.242-0.244,0.369c0,0.115,0.037,0.209,0.111,0.277
			C16.165-38.433,16.269-38.399,16.397-38.399z M16.153-39.858c0,0.094,0.057,0.211,0.172,0.35l0.174-0.121
			c0.066-0.047,0.111-0.092,0.137-0.133c0.023-0.043,0.035-0.094,0.035-0.154c0-0.066-0.023-0.121-0.072-0.164
			s-0.111-0.064-0.186-0.064c-0.08,0-0.143,0.025-0.189,0.08S16.153-39.942,16.153-39.858z"/>
	</g>
	<g>
		<path fill="#FFFFFF" d="M7.956-36.609v0.836H7.675v-2.132h0.787c0.233,0,0.416,0.061,0.548,0.179
			c0.132,0.119,0.198,0.275,0.198,0.473c0,0.207-0.064,0.365-0.194,0.479c-0.129,0.111-0.315,0.166-0.556,0.166H7.956z
			 M7.956-36.837h0.505c0.15,0,0.266-0.035,0.345-0.107c0.08-0.07,0.12-0.174,0.12-0.307c0-0.127-0.04-0.229-0.12-0.305
			c-0.08-0.076-0.189-0.117-0.329-0.119H7.956V-36.837z"/>
		<path fill="#FFFFFF" d="M10.487-35.773c-0.016-0.031-0.028-0.088-0.038-0.168c-0.126,0.131-0.276,0.197-0.451,0.197
			c-0.156,0-0.285-0.045-0.385-0.133s-0.15-0.201-0.15-0.336c0-0.166,0.063-0.293,0.188-0.385s0.302-0.137,0.53-0.137h0.264v-0.125
			c0-0.094-0.028-0.17-0.085-0.227c-0.057-0.055-0.14-0.084-0.25-0.084c-0.097,0-0.178,0.025-0.243,0.074s-0.098,0.107-0.098,0.176
			H9.495c0-0.078,0.028-0.154,0.084-0.229s0.132-0.131,0.229-0.174s0.202-0.064,0.317-0.064c0.183,0,0.326,0.045,0.429,0.137
			c0.103,0.09,0.157,0.217,0.161,0.377v0.729c0,0.146,0.019,0.262,0.056,0.348v0.023H10.487z M10.037-35.98
			c0.085,0,0.166-0.021,0.242-0.066c0.076-0.043,0.131-0.1,0.166-0.17v-0.326h-0.212c-0.332,0-0.498,0.098-0.498,0.291
			c0,0.086,0.028,0.152,0.085,0.199C9.875-36.003,9.948-35.98,10.037-35.98z"/>
		<path fill="#FFFFFF" d="M12.063-36.193c0-0.074-0.028-0.131-0.083-0.172c-0.055-0.039-0.151-0.074-0.289-0.104
			s-0.246-0.064-0.327-0.105s-0.14-0.09-0.179-0.146s-0.058-0.125-0.058-0.203c0-0.129,0.055-0.238,0.165-0.328
			s0.25-0.135,0.421-0.135c0.18,0,0.325,0.045,0.437,0.139c0.112,0.092,0.167,0.211,0.167,0.355h-0.272
			c0-0.074-0.032-0.139-0.095-0.191c-0.063-0.055-0.142-0.08-0.238-0.08c-0.099,0-0.176,0.021-0.231,0.063
			c-0.056,0.045-0.083,0.1-0.083,0.17c0,0.064,0.026,0.113,0.078,0.146s0.145,0.066,0.28,0.096c0.135,0.031,0.245,0.066,0.329,0.109
			c0.084,0.041,0.146,0.092,0.187,0.15c0.041,0.061,0.061,0.131,0.061,0.217c0,0.141-0.057,0.256-0.169,0.34
			c-0.113,0.086-0.26,0.129-0.441,0.129c-0.127,0-0.239-0.023-0.337-0.068S11.212-35.919,11.157-36s-0.083-0.168-0.083-0.262h0.271
			c0.005,0.092,0.041,0.164,0.109,0.217s0.158,0.08,0.269,0.08c0.103,0,0.185-0.021,0.247-0.063S12.063-36.125,12.063-36.193z"/>
		<path fill="#FFFFFF" d="M13.609-36.193c0-0.074-0.028-0.131-0.083-0.172c-0.055-0.039-0.151-0.074-0.289-0.104
			s-0.246-0.064-0.327-0.105s-0.14-0.09-0.179-0.146s-0.058-0.125-0.058-0.203c0-0.129,0.055-0.238,0.165-0.328
			s0.25-0.135,0.421-0.135c0.18,0,0.325,0.045,0.438,0.139c0.111,0.092,0.167,0.211,0.167,0.355h-0.272
			c0-0.074-0.031-0.139-0.094-0.191c-0.063-0.055-0.143-0.08-0.238-0.08c-0.099,0-0.176,0.021-0.231,0.063
			c-0.056,0.045-0.083,0.1-0.083,0.17c0,0.064,0.026,0.113,0.078,0.146s0.145,0.066,0.28,0.096c0.135,0.031,0.245,0.066,0.329,0.109
			c0.084,0.041,0.146,0.092,0.187,0.15c0.041,0.061,0.061,0.131,0.061,0.217c0,0.141-0.057,0.256-0.17,0.34
			c-0.113,0.086-0.26,0.129-0.44,0.129c-0.127,0-0.239-0.023-0.337-0.068S12.758-35.919,12.703-36s-0.083-0.168-0.083-0.262h0.271
			c0.005,0.092,0.041,0.164,0.109,0.217s0.158,0.08,0.269,0.08c0.103,0,0.185-0.021,0.247-0.063
			C13.578-36.068,13.609-36.125,13.609-36.193z"/>
		<path fill="#FFFFFF" d="M15.636-36.146l0.305-1.211h0.271l-0.462,1.584h-0.22l-0.385-1.201l-0.375,1.201h-0.22l-0.46-1.584h0.27
			l0.313,1.186l0.369-1.186h0.218L15.636-36.146z"/>
		<path fill="#FFFFFF" d="M16.415-36.58c0-0.156,0.031-0.295,0.092-0.42c0.061-0.123,0.146-0.219,0.255-0.287
			c0.108-0.066,0.233-0.1,0.373-0.1c0.216,0,0.39,0.074,0.523,0.223c0.134,0.15,0.2,0.348,0.2,0.596v0.02
			c0,0.154-0.029,0.293-0.089,0.416s-0.144,0.217-0.253,0.285c-0.11,0.068-0.236,0.104-0.379,0.104
			c-0.215,0-0.389-0.074-0.522-0.225c-0.134-0.148-0.2-0.348-0.2-0.594V-36.58z M16.688-36.548c0,0.176,0.04,0.316,0.121,0.424
			c0.082,0.105,0.191,0.16,0.328,0.16c0.138,0,0.247-0.055,0.328-0.162s0.121-0.26,0.121-0.453c0-0.174-0.041-0.314-0.123-0.424
			c-0.083-0.107-0.192-0.16-0.329-0.16c-0.134,0-0.241,0.053-0.323,0.158C16.729-36.898,16.688-36.746,16.688-36.548z"/>
		<path fill="#FFFFFF" d="M18.964-37.115c-0.041-0.006-0.086-0.01-0.133-0.01c-0.178,0-0.299,0.074-0.362,0.227v1.125h-0.271v-1.584
			h0.264l0.004,0.182c0.089-0.141,0.215-0.211,0.378-0.211c0.053,0,0.093,0.006,0.12,0.02V-37.115z"/>
		<path fill="#FFFFFF" d="M19.119-36.58c0-0.242,0.058-0.438,0.173-0.586s0.266-0.221,0.453-0.221c0.186,0,0.332,0.063,0.44,0.189
			v-0.826h0.271v2.25h-0.248l-0.014-0.17c-0.108,0.133-0.26,0.199-0.453,0.199c-0.184,0-0.333-0.076-0.449-0.227
			c-0.115-0.15-0.173-0.346-0.173-0.588V-36.58z M19.39-36.548c0,0.18,0.037,0.32,0.111,0.422s0.178,0.152,0.309,0.152
			c0.172,0,0.297-0.076,0.376-0.23v-0.729c-0.081-0.15-0.206-0.225-0.374-0.225c-0.133,0-0.236,0.051-0.311,0.154
			C19.427-36.902,19.39-36.75,19.39-36.548z"/>
	</g>
</g>
</svg>
