<?xml version="1.0" encoding="utf-8"?>
<!-- Generator: Adobe Illustrator 16.0.0, SVG Export Plug-In . SVG Version: 6.00 Build 0)  -->
<!DOCTYPE svg PUBLIC "-//W3C//DTD SVG 1.1//EN" "http://www.w3.org/Graphics/SVG/1.1/DTD/svg11.dtd">
<svg version="1.1" id="Layer_1" xmlns="http://www.w3.org/2000/svg" xmlns:xlink="http://www.w3.org/1999/xlink" x="0px" y="0px"
	 width="16px" height="16px" viewBox="0 0 16 16" enable-background="new 0 0 16 16" xml:space="preserve">
<g>
	<path fill-rule="evenodd" clip-rule="evenodd" d="M4.632,3.194c0-0.144-0.004-0.279,0.001-0.416C4.644,2.46,4.774,2.2,5.039,2.02
		c0.525-0.357,1.242-0.059,1.367,0.575c0.027,0.136,0.019,0.28,0.024,0.421c0.003,0.057,0,0.113,0,0.175c0.31,0,0.611,0,0.922,0
		c0-0.08-0.003-0.157,0-0.233c0.007-0.132,0.002-0.266,0.03-0.394c0.094-0.43,0.5-0.727,0.931-0.696
		c0.43,0.032,0.791,0.386,0.829,0.82c0.011,0.138,0.006,0.277,0.009,0.417c0,0.026,0,0.053,0,0.084c0.309,0,0.609,0,0.921,0
		c0-0.128,0-0.254-0.001-0.382c-0.001-0.138,0.026-0.271,0.083-0.398c0.173-0.387,0.574-0.603,0.981-0.526
		c0.406,0.077,0.717,0.439,0.73,0.859c0.006,0.147,0.001,0.295,0.001,0.454c0.123,0,0.238-0.001,0.354,0
		c0.231,0,0.454,0.044,0.659,0.153c0.507,0.272,0.784,0.7,0.787,1.276c0.006,2.191,0.002,4.384,0.002,6.576
		c0,0.492,0.001,0.985,0.001,1.478c-0.001,0.727-0.491,1.313-1.205,1.435c-0.153,0.025-0.313,0.021-0.47,0.021
		c-2.1,0.001-4.199,0-6.298,0c-0.503,0-1.007,0.001-1.511,0.001c-0.726-0.001-1.309-0.483-1.435-1.197
		c-0.027-0.153-0.022-0.313-0.022-0.471c-0.001-2.134,0-4.27,0-6.405c0-0.472-0.001-0.943,0-1.415
		c0.002-0.728,0.492-1.312,1.208-1.432C4.077,3.191,4.22,3.199,4.36,3.194C4.447,3.192,4.534,3.194,4.632,3.194z M3.57,5.3
		c0,0.038,0,0.067,0,0.097c0,0.738,0,1.477,0,2.215c0,1.684,0,3.369,0,5.053c0,0.374,0.25,0.63,0.617,0.63c2.675,0,5.351,0,8.028,0
		c0.361,0,0.612-0.256,0.612-0.618c0-2.427,0-4.854,0-7.281c0-0.095,0-0.095-0.096-0.095c-3.022,0-6.044,0-9.067,0
		C3.638,5.3,3.611,5.3,3.57,5.3z M5.926,3.613c0-0.259,0-0.519,0-0.779c0-0.04-0.001-0.081-0.008-0.122
		C5.886,2.522,5.732,2.383,5.551,2.373C5.374,2.364,5.208,2.482,5.158,2.662c-0.014,0.053-0.02,0.107-0.02,0.162
		C5.137,3.125,5.137,3.425,5.137,3.727c0,0.236-0.002,0.474,0.001,0.711c0.004,0.279,0.241,0.476,0.49,0.409
		C5.804,4.8,5.924,4.636,5.925,4.428C5.927,4.156,5.926,3.885,5.926,3.613z M7.858,3.613C7.858,3.613,7.859,3.613,7.858,3.613
		C7.859,3.897,7.855,4.183,7.86,4.468c0.004,0.201,0.164,0.37,0.355,0.391c0.188,0.02,0.368-0.114,0.417-0.313
		c0.011-0.044,0.015-0.09,0.015-0.136c0-0.53,0-1.062,0-1.593c0-0.033-0.003-0.068-0.008-0.102C8.609,2.526,8.451,2.38,8.267,2.373
		C8.085,2.365,7.919,2.491,7.874,2.679C7.862,2.727,7.859,2.777,7.859,2.827C7.857,3.089,7.858,3.352,7.858,3.613z M10.579,3.613
		C10.579,3.613,10.579,3.613,10.579,3.613c-0.001,0.142-0.001,0.283-0.001,0.424c0.001,0.142-0.002,0.283,0.003,0.424
		c0.006,0.26,0.244,0.448,0.484,0.387c0.181-0.047,0.301-0.214,0.301-0.431c0.001-0.536,0-1.071,0-1.606
		c0-0.034-0.003-0.069-0.009-0.102c-0.036-0.208-0.216-0.351-0.418-0.335c-0.197,0.015-0.357,0.192-0.36,0.405
		C10.577,3.058,10.579,3.336,10.579,3.613z"/>
	<path fill-rule="evenodd" clip-rule="evenodd" d="M5.872,8.63c0,0.455,0,0.908,0,1.366c-0.511,0-1.022,0-1.537,0
		c0-0.454,0-0.906,0-1.366C4.845,8.63,5.356,8.63,5.872,8.63z"/>
	<path fill-rule="evenodd" clip-rule="evenodd" d="M6.397,9.997c0-0.458,0-0.911,0-1.368c0.513,0,1.021,0,1.538,0
		c0,0.454,0,0.908,0,1.368C7.426,9.997,6.915,9.997,6.397,9.997z"/>
	<path fill-rule="evenodd" clip-rule="evenodd" d="M10.001,9.998c-0.513,0-1.022,0-1.536,0C8.463,9.977,8.46,9.957,8.46,9.938
		c0-0.412,0.001-0.825-0.001-1.237c0-0.061,0.015-0.077,0.076-0.077c0.468,0.003,0.934,0.002,1.402,0.002
		c0.02,0,0.039,0.002,0.064,0.004C10.001,9.086,10.001,9.54,10.001,9.998z"/>
	<path fill-rule="evenodd" clip-rule="evenodd" d="M10.527,9.997c0-0.458,0-0.91,0-1.368c0.514,0,1.022,0,1.538,0
		c0,0.455,0,0.909,0,1.368C11.556,9.997,11.046,9.997,10.527,9.997z"/>
	<path fill-rule="evenodd" clip-rule="evenodd" d="M4.333,8.158c0-0.456,0-0.907,0-1.364C4.36,6.792,4.384,6.79,4.409,6.79
		c0.465,0,0.93,0,1.395,0c0.041,0,0.074-0.005,0.074,0.057C5.875,7.272,5.875,7.698,5.875,8.125c0,0.009-0.002,0.018-0.003,0.033
		C5.36,8.158,4.85,8.158,4.333,8.158z"/>
	<path fill-rule="evenodd" clip-rule="evenodd" d="M7.938,8.161c-0.516,0-1.024,0-1.539,0C6.396,8.136,6.395,8.114,6.395,8.092
		c0-0.409,0-0.82-0.001-1.229c0-0.056,0.013-0.074,0.071-0.074c0.469,0.003,0.938,0.002,1.407,0c0.044,0,0.071,0.004,0.071,0.062
		C7.94,7.272,7.942,7.696,7.941,8.12C7.941,8.131,7.939,8.142,7.938,8.161z"/>
	<path fill-rule="evenodd" clip-rule="evenodd" d="M10.001,8.16c-0.512,0-1.021,0-1.537,0C8.462,8.136,8.46,8.114,8.46,8.093
		c0-0.409,0-0.82-0.002-1.23c0-0.056,0.013-0.074,0.072-0.074C9,6.791,9.47,6.79,9.938,6.788c0.04,0,0.068,0.002,0.068,0.057
		c-0.002,0.426-0.001,0.853-0.002,1.278C10.005,8.134,10.003,8.145,10.001,8.16z"/>
	<path fill-rule="evenodd" clip-rule="evenodd" d="M12.066,6.793c0,0.458,0,0.91,0,1.367c-0.512,0-1.023,0-1.538,0
		c-0.002-0.024-0.004-0.044-0.004-0.063c0-0.412,0.001-0.824-0.001-1.236c0-0.05,0.008-0.073,0.066-0.073
		c0.479,0.004,0.956,0.003,1.435,0.003C12.036,6.79,12.047,6.792,12.066,6.793z"/>
	<path fill-rule="evenodd" clip-rule="evenodd" d="M4.334,10.468c0.514,0,1.023,0,1.538,0c0.001,0.026,0.003,0.048,0.003,0.069
		c0,0.408,0,0.816,0.002,1.224c0,0.058-0.011,0.079-0.075,0.079c-0.469-0.003-0.938-0.002-1.407-0.001
		c-0.043,0-0.067-0.005-0.066-0.058c0.001-0.427,0.001-0.853,0.001-1.279C4.331,10.494,4.332,10.485,4.334,10.468z"/>
	<path fill-rule="evenodd" clip-rule="evenodd" d="M6.395,10.468c0.519,0,1.028,0,1.543,0c0.001,0.024,0.003,0.048,0.003,0.069
		c0,0.408-0.001,0.815,0.002,1.224c0,0.066-0.022,0.078-0.082,0.078c-0.463-0.002-0.925-0.002-1.388,0.001
		c-0.062,0-0.082-0.015-0.081-0.079c0.003-0.406,0.002-0.811,0.002-1.217C6.395,10.521,6.395,10.499,6.395,10.468z"/>
	<path fill-rule="evenodd" clip-rule="evenodd" d="M8.464,10.468c0.514,0,1.022,0,1.538,0c0.001,0.022,0.004,0.042,0.004,0.062
		c0,0.413-0.001,0.825,0.001,1.238c0,0.057-0.018,0.071-0.074,0.071c-0.467-0.002-0.933-0.001-1.4,0
		c-0.041,0-0.074,0.004-0.074-0.058c0.002-0.427,0.001-0.853,0.001-1.277C8.46,10.495,8.462,10.486,8.464,10.468z"/>
	<path fill-rule="evenodd" clip-rule="evenodd" d="M12.067,10.469c0.001,0.027,0.003,0.049,0.003,0.07
		c0,0.408-0.001,0.816,0.002,1.225c0.001,0.062-0.018,0.076-0.076,0.076c-0.468-0.003-0.935-0.003-1.402-0.001
		c-0.059,0-0.07-0.021-0.07-0.075c0.002-0.41,0.001-0.819,0-1.229c0-0.044,0.002-0.072,0.06-0.072
		c0.48,0.002,0.962,0.001,1.442,0.001C12.037,10.463,12.048,10.467,12.067,10.469z"/>
</g>
</svg>
