<?xml version="1.0" encoding="utf-8"?>
<!-- Generator: Adobe Illustrator 16.0.0, SVG Export Plug-In . SVG Version: 6.00 Build 0)  -->
<!DOCTYPE svg PUBLIC "-//W3C//DTD SVG 1.1//EN" "http://www.w3.org/Graphics/SVG/1.1/DTD/svg11.dtd">
<svg version="1.1" id="Layer_1" xmlns="http://www.w3.org/2000/svg" xmlns:xlink="http://www.w3.org/1999/xlink" x="0px" y="0px"
	 width="16px" height="16px" viewBox="0 0 16 16" enable-background="new 0 0 16 16" xml:space="preserve">
<g>
	<ellipse fill-rule="evenodd" clip-rule="evenodd" cx="7.912" cy="5.9" rx="2.713" ry="2.871"/>
	<path fill-rule="evenodd" clip-rule="evenodd" d="M2.704,13.12c-0.397,0-0.554-0.188-0.483-0.576
		c0.062-0.337,0.135-0.671,0.188-1.01c0.057-0.372,0.229-0.681,0.492-0.938c0.841-0.82,1.875-1.274,3.003-1.528
		c0.174-0.039,0.391,0.013,0.563,0.083C7.47,9.563,8.473,9.583,9.472,9.165c0.286-0.12,0.557-0.139,0.838-0.062
		c0.827,0.225,1.601,0.569,2.303,1.064c0.591,0.417,0.983,0.947,1.046,1.691c0.021,0.232,0.081,0.462,0.123,0.692
		c0.066,0.375-0.09,0.568-0.468,0.568C11.751,12.584,4.583,12.667,2.704,13.12z"/>
</g>
</svg>
