<?xml version="1.0" encoding="utf-8"?>
<!-- Generator: Adobe Illustrator 16.0.0, SVG Export Plug-In . SVG Version: 6.00 Build 0)  -->
<!DOCTYPE svg PUBLIC "-//W3C//DTD SVG 1.1//EN" "http://www.w3.org/Graphics/SVG/1.1/DTD/svg11.dtd">
<svg version="1.1" id="Layer_1" xmlns="http://www.w3.org/2000/svg" xmlns:xlink="http://www.w3.org/1999/xlink" x="0px" y="0px"
	 width="16px" height="16px" viewBox="0 0 16 16" enable-background="new 0 0 16 16" xml:space="preserve">
<circle fill-rule="evenodd" clip-rule="evenodd" fill="none" stroke="#000000" stroke-width="0.8" stroke-miterlimit="10" cx="8.016" cy="8" r="6.29"/>
<g>
	<path fill-rule="evenodd" clip-rule="evenodd" d="M8.013,4.264c0.837,0,1.511,0.686,1.511,1.542
		c0.002,0.837-0.683,1.527-1.515,1.52C7.159,7.318,6.513,6.631,6.504,5.82C6.493,4.922,7.207,4.272,8.013,4.264z"/>
	<path fill-rule="evenodd" clip-rule="evenodd" d="M5.232,9.647C5.238,9.51,5.236,9.37,5.251,9.232
		c0.037-0.318,0.151-0.607,0.355-0.857C5.821,8.111,6.094,7.926,6.4,7.786c0.122-0.057,0.248-0.103,0.374-0.148
		c0.02-0.01,0.049-0.005,0.07,0.004C7.101,7.768,7.374,7.846,7.656,7.89C7.793,7.91,7.933,7.922,8.071,7.919
		C8.35,7.915,8.619,7.851,8.882,7.764c0.105-0.034,0.206-0.085,0.31-0.126c0.016-0.005,0.035-0.01,0.053-0.005
		c0.416,0.142,0.803,0.335,1.107,0.665c0.244,0.263,0.381,0.577,0.422,0.933c0.014,0.135,0.02,0.271,0.025,0.403
		c-0.078,0-0.141,0.002-0.207-0.003C10.347,9.622,6.22,9.602,6.204,9.602C5.891,9.62,5.577,9.636,5.263,9.652
		C5.256,9.652,5.25,9.649,5.232,9.647z"/>
	<path fill-rule="evenodd" clip-rule="evenodd" d="M10.505,6.796c0.01-0.722,0.58-1.274,1.271-1.258
		c0.707,0.014,1.258,0.609,1.219,1.334c-0.035,0.678-0.598,1.222-1.303,1.189C11.019,8.031,10.503,7.456,10.505,6.796z"/>
	<path fill-rule="evenodd" clip-rule="evenodd" d="M5.52,6.801C5.515,7.47,5.003,8.07,4.245,8.062
		c-0.668-0.007-1.21-0.56-1.218-1.24C3.018,6.113,3.571,5.54,4.262,5.536C4.954,5.531,5.515,6.095,5.52,6.801z"/>
	<path fill-rule="evenodd" clip-rule="evenodd" d="M5.307,8.332C5.175,8.55,5.09,8.765,5.035,8.994S4.96,9.455,4.963,9.695
		c-1.015,0.076-2.025,0.186-3.027,0.344c-0.002-0.004-0.007-0.004-0.007-0.007C1.906,9.705,1.949,9.391,2.118,9.104
		c0.164-0.277,0.403-0.47,0.686-0.612c0.125-0.062,0.258-0.11,0.389-0.163c0.02-0.007,0.049-0.004,0.07,0.005
		C3.485,8.441,3.72,8.506,3.961,8.543c0.434,0.066,0.84-0.035,1.234-0.211C5.223,8.32,5.262,8.332,5.307,8.332z"/>
	<path fill-rule="evenodd" clip-rule="evenodd" d="M14.11,10.017c-1.02-0.156-2.029-0.262-3.049-0.335
		c0.004-0.233-0.016-0.465-0.07-0.694c-0.055-0.227-0.143-0.44-0.262-0.642c0.039-0.027,0.07-0.03,0.115-0.007
		c0.217,0.105,0.449,0.167,0.688,0.204c0.436,0.066,0.842-0.035,1.238-0.214c0.016-0.007,0.037-0.009,0.051-0.002
		c0.322,0.107,0.621,0.255,0.867,0.497c0.213,0.211,0.346,0.468,0.389,0.766C14.097,9.728,14.099,9.865,14.11,10.017z"/>
</g>
</svg>
