<?xml version="1.0" encoding="utf-8"?>
<!-- Generator: Adobe Illustrator 16.0.0, SVG Export Plug-In . SVG Version: 6.00 Build 0)  -->
<!DOCTYPE svg PUBLIC "-//W3C//DTD SVG 1.1//EN" "http://www.w3.org/Graphics/SVG/1.1/DTD/svg11.dtd">
<svg version="1.1" id="Layer_1" xmlns="http://www.w3.org/2000/svg" xmlns:xlink="http://www.w3.org/1999/xlink" x="0px" y="0px"
	 width="16px" height="16px" viewBox="0 0 16 16" enable-background="new 0 0 16 16" xml:space="preserve">
<g>
	<path d="M1.747,3.41c0-0.77,0.63-1.4,1.4-1.4H13.33c0.771,0,1.4,0.63,1.4,1.4v7.746c0,0.771-0.63,1.4-1.4,1.4H6.393
		c-0.77,0-1.924,0.35-2.565,0.776l-0.916,0.611c-0.641,0.427-1.165,0.146-1.165-0.624V3.41z"/>
</g>
<g>
	<path fill-rule="evenodd" clip-rule="evenodd" fill="#FFFFFF" d="M9.707,6.171c0.705,0,1.41,0,2.117,0
		c0.191,0,0.258,0.065,0.258,0.257c0,0.519,0,1.036,0,1.553c0,0.169-0.07,0.241-0.242,0.241c-1.424,0-2.851,0-4.276,0
		c-0.122,0-0.229-0.042-0.317-0.131c-0.246-0.248-0.493-0.493-0.74-0.739c-0.101-0.103-0.101-0.208,0-0.311
		C6.753,6.795,7,6.549,7.247,6.301C7.342,6.207,7.457,6.17,7.59,6.17c0.706,0.001,1.411,0,2.117,0
		C9.707,6.171,9.707,6.171,9.707,6.171z"/>
	<path fill-rule="evenodd" clip-rule="evenodd" fill="#FFFFFF" d="M8.981,5.355c-0.467,0-0.933,0-1.399,0.002
		C7.443,5.359,7.331,5.312,7.234,5.216C6.997,4.977,6.757,4.739,6.52,4.5c-0.12-0.121-0.117-0.218,0.005-0.34
		C6.76,3.923,6.999,3.688,7.233,3.45C7.33,3.352,7.442,3.307,7.58,3.307c0.943,0,1.887,0,2.831,0c0.166,0,0.236,0.073,0.236,0.236
		c0,0.526,0,1.052,0.002,1.577c0,0.168-0.072,0.238-0.244,0.238c-0.475,0-0.949,0-1.423,0V5.355z"/>
	<path fill-rule="evenodd" clip-rule="evenodd" fill="#FFFFFF" d="M8.869,11.084c-0.425,0-0.849-0.002-1.274,0.001
		c-0.151,0.002-0.271-0.047-0.376-0.153c-0.228-0.232-0.46-0.461-0.69-0.693c-0.129-0.13-0.129-0.224-0.001-0.352
		c0.234-0.235,0.47-0.47,0.703-0.706c0.096-0.096,0.207-0.145,0.345-0.143c0.877,0.002,1.755,0,2.63,0.002
		c0.172,0,0.238,0.066,0.238,0.239c0,0.523,0,1.046,0,1.568c0,0.168-0.066,0.236-0.234,0.236
		C9.762,11.085,9.314,11.084,8.869,11.084z"/>
	<path fill-rule="evenodd" clip-rule="evenodd" fill="#FFFFFF" d="M5.535,7.78c0,0.55,0.001,1.097-0.001,1.642
		c0,0.049,0.021,0.066,0.06,0.086C5.818,9.623,5.94,9.807,5.94,10.062c0.001,0.25-0.12,0.434-0.339,0.549
		c-0.05,0.026-0.073,0.051-0.067,0.106c0.005,0.051,0,0.102,0,0.157c-0.137,0-0.267,0-0.411,0c0-0.058,0.006-0.113-0.002-0.168
		c-0.005-0.031-0.027-0.073-0.054-0.087c-0.224-0.117-0.35-0.303-0.351-0.554c0-0.259,0.127-0.447,0.359-0.566
		c0.023-0.011,0.047-0.047,0.047-0.073c0.003-0.531,0.002-1.062,0.003-1.595c0-0.043-0.019-0.061-0.055-0.08
		C4.843,7.639,4.718,7.454,4.716,7.202c-0.002-0.253,0.12-0.44,0.345-0.556c0.047-0.024,0.064-0.049,0.064-0.101
		c-0.002-0.521-0.002-1.041,0-1.562c0-0.05-0.016-0.077-0.063-0.101C4.835,4.769,4.715,4.578,4.716,4.327
		c0.002-0.246,0.124-0.433,0.346-0.545C5.11,3.757,5.129,3.733,5.125,3.68C5.121,3.628,5.124,3.576,5.124,3.518
		c0.142,0,0.272,0,0.409,0c0,0.08,0,0.155,0,0.23c0.202,0.087,0.341,0.225,0.392,0.437c0.069,0.287-0.062,0.568-0.328,0.697
		c-0.047,0.022-0.063,0.047-0.063,0.1c0.002,0.524,0.001,1.046,0.004,1.57c0,0.028,0.021,0.07,0.043,0.082
		C5.815,6.755,5.944,6.942,5.94,7.206C5.936,7.468,5.805,7.651,5.57,7.761C5.56,7.767,5.55,7.772,5.535,7.78z"/>
</g>
</svg>
