<?xml version="1.0" encoding="utf-8"?>
<!-- Generator: Adobe Illustrator 16.0.0, SVG Export Plug-In . SVG Version: 6.00 Build 0)  -->
<!DOCTYPE svg PUBLIC "-//W3C//DTD SVG 1.1//EN" "http://www.w3.org/Graphics/SVG/1.1/DTD/svg11.dtd">
<svg version="1.1" id="Layer_1" xmlns="http://www.w3.org/2000/svg" xmlns:xlink="http://www.w3.org/1999/xlink" x="0px" y="0px"
	 width="16px" height="16px" viewBox="0 0 16 16" enable-background="new 0 0 16 16" xml:space="preserve">
<g>
	<path fill-rule="evenodd" clip-rule="evenodd" d="M2.142,4.264c0.014-0.074,0.024-0.15,0.043-0.224
		c0.129-0.504,0.463-0.822,0.932-1.013c0.198-0.081,0.406-0.12,0.619-0.12C6.72,2.906,9.704,2.902,12.688,2.91
		c0.555,0.002,1.019,0.229,1.344,0.694c0.154,0.22,0.227,0.468,0.227,0.736c-0.001,1.466-0.003,2.931,0.001,4.396
		c0.001,0.627-0.303,1.052-0.844,1.327c-0.241,0.122-0.501,0.175-0.771,0.175c-1.731,0-3.463,0-5.194-0.001
		c-0.073,0-0.13,0.019-0.188,0.063c-1.185,0.902-2.372,1.802-3.557,2.702c-0.079,0.061-0.162,0.105-0.265,0.088
		c-0.187-0.033-0.294-0.215-0.235-0.402c0.194-0.619,0.384-1.239,0.575-1.859c0.051-0.164,0.102-0.328,0.153-0.493
		c0.008-0.027,0.013-0.056,0.022-0.097c-0.079,0-0.15,0.002-0.22,0c-0.398-0.011-0.761-0.128-1.071-0.383
		c-0.29-0.237-0.471-0.539-0.506-0.918c-0.002-0.02-0.011-0.038-0.017-0.057C2.142,7.342,2.142,5.803,2.142,4.264z"/>
</g>
</svg>
