<?xml version="1.0" encoding="utf-8"?>
<!-- Generator: Adobe Illustrator 16.0.0, SVG Export Plug-In . SVG Version: 6.00 Build 0)  -->
<!DOCTYPE svg PUBLIC "-//W3C//DTD SVG 1.1//EN" "http://www.w3.org/Graphics/SVG/1.1/DTD/svg11.dtd">
<svg version="1.1" id="Layer_1" xmlns="http://www.w3.org/2000/svg" xmlns:xlink="http://www.w3.org/1999/xlink" x="0px" y="0px"
	 width="16px" height="16px" viewBox="0 0 16 16" enable-background="new 0 0 16 16" xml:space="preserve">
<g>
	<path fill-rule="evenodd" clip-rule="evenodd" d="M1.786,7.347c0.272-0.481,0.545-0.962,0.816-1.443
		c0.162-0.289,0.326-0.577,0.484-0.867c0.055-0.101,0.129-0.142,0.244-0.142C5.228,4.897,7.123,4.896,9.02,4.899
		c0.043,0,0.106,0.024,0.126,0.058C9.323,5.26,9.492,5.568,9.67,5.884C9.614,5.912,9.557,5.936,9.502,5.966
		C9.347,6.051,9.215,6.162,9.216,6.355c0.001,0.188,0.123,0.316,0.282,0.376c0.221,0.082,0.451,0.155,0.685,0.187
		c0.459,0.063,0.921,0.048,1.365-0.105c0.127-0.044,0.253-0.114,0.354-0.201c0.184-0.159,0.169-0.407-0.022-0.556
		c-0.091-0.071-0.198-0.122-0.308-0.188c0.009-0.017,0.021-0.044,0.035-0.07c0.154-0.27,0.312-0.538,0.462-0.811
		c0.035-0.063,0.07-0.096,0.147-0.093c0.157,0.007,0.315,0.005,0.474,0.002c0.096-0.002,0.162,0.038,0.207,0.119
		c0.426,0.761,0.853,1.522,1.277,2.284c0.065,0.117,0.042,0.237-0.006,0.351c-0.151,0.355-0.445,0.507-0.811,0.544
		c-0.323,0.032-0.604-0.071-0.845-0.297c-0.217,0.19-0.461,0.301-0.749,0.301c-0.289,0.001-0.535-0.104-0.755-0.3
		c-0.218,0.187-0.463,0.302-0.757,0.3C9.964,8.196,9.719,8.09,9.509,7.901c-0.5,0.419-1.083,0.374-1.514-0.002
		C7.786,8.088,7.541,8.196,7.253,8.198C6.962,8.2,6.718,8.092,6.499,7.901c-0.5,0.399-1.004,0.404-1.515,0
		c-0.21,0.194-0.459,0.3-0.753,0.299C3.942,8.198,3.698,8.094,3.485,7.898C3.207,8.156,2.884,8.244,2.519,8.177
		c-0.357-0.065-0.604-0.27-0.732-0.611C1.786,7.493,1.786,7.42,1.786,7.347z M5.778,6.45c-0.809,0-1.617,0-2.426,0.001
		c-0.052,0-0.105-0.001-0.156,0.011C3.102,6.483,3.038,6.556,3.058,6.645c0.014,0.066,0.078,0.129,0.135,0.178
		c0.026,0.023,0.084,0.015,0.129,0.015c1.625,0,3.25,0,4.875,0c0.036,0,0.073,0.002,0.109-0.004
		c0.105-0.017,0.184-0.101,0.174-0.199C8.47,6.529,8.405,6.467,8.301,6.453C8.265,6.447,8.228,6.45,8.192,6.45
		C7.388,6.45,6.583,6.45,5.778,6.45z M6.152,6.061c0.667,0,1.333,0,2,0c0.161,0,0.323,0.004,0.485-0.002
		c0.116-0.005,0.188-0.088,0.187-0.197C8.823,5.761,8.749,5.685,8.639,5.676C8.578,5.671,8.518,5.673,8.457,5.673
		c-1.204,0-2.408,0-3.612,0c-0.38,0-0.76-0.001-1.139,0.001C3.565,5.675,3.485,5.745,3.481,5.86C3.478,5.982,3.56,6.055,3.704,6.061
		c0.012,0,0.023,0,0.036,0C4.544,6.061,5.349,6.061,6.152,6.061z"/>
	<path fill-rule="evenodd" clip-rule="evenodd" d="M3.315,14.02c-0.209-0.104-0.273-0.273-0.271-0.504
		c0.006-1.611,0.003-3.225,0.003-4.838c0-0.04,0.003-0.08,0.005-0.119c0.126-0.046,0.246-0.09,0.38-0.139c0,1.735,0,3.465,0,5.204
		c0.134,0,0.253,0,0.393,0c0-0.104,0-0.211,0-0.318c-0.001-1.107-0.001-2.215-0.001-3.322c0-0.631,0.447-1.148,1.04-1.201
		C5.49,8.725,6.036,9.139,6.14,9.754c0.021,0.123,0.015,0.25,0.015,0.375c0.001,1.148,0.001,2.297,0.001,3.445
		c0,0.012,0.002,0.023,0.004,0.047c2.127,0,4.256,0,6.396,0c0-1.73,0-3.463,0-5.204c0.135,0.048,0.255,0.091,0.395,0.141
		c0,0.146,0,0.303,0,0.459c0,1.508-0.004,3.016,0.002,4.523c0.001,0.225-0.076,0.379-0.271,0.479c-2.265,0-4.529,0-6.793,0
		c-0.097-0.064-0.129-0.152-0.125-0.268c0.008-0.234,0.002-0.469,0.002-0.703c0-1.025,0.003-2.053,0-3.078
		c-0.002-0.504-0.46-0.883-0.934-0.781C4.46,9.27,4.214,9.588,4.214,9.994c-0.001,1.254-0.002,2.506,0.002,3.758
		c0,0.115-0.028,0.203-0.125,0.268C3.833,14.02,3.573,14.02,3.315,14.02z"/>
	<path fill-rule="evenodd" clip-rule="evenodd" d="M10.837,1.597c0.077,0.021,0.154,0.04,0.231,0.063
		c0.86,0.247,1.447,1.24,1.097,2.185c-0.189,0.51-0.435,0.989-0.71,1.456c-0.153,0.261-0.315,0.517-0.474,0.774
		c-0.013,0.02-0.021,0.041-0.036,0.071c0.242,0.037,0.479,0.064,0.688,0.19c-0.247,0.268-1.565,0.336-2.016,0.011
		c0.203-0.146,0.442-0.158,0.68-0.206c-0.159-0.258-0.315-0.506-0.465-0.758C9.542,4.894,9.277,4.392,9.076,3.856
		c-0.388-1.033,0.335-2.099,1.281-2.239c0.015-0.002,0.028-0.013,0.043-0.02C10.546,1.597,10.691,1.597,10.837,1.597z M10.617,5.91
		c0.465-0.747,0.933-1.461,1.195-2.279c0.052-0.162,0.063-0.352,0.044-0.522c-0.087-0.74-0.786-1.245-1.495-1.092
		C9.597,2.181,9.205,3.02,9.42,3.64C9.699,4.45,10.158,5.162,10.617,5.91z"/>
	<path fill-rule="evenodd" clip-rule="evenodd" d="M8.289,9.264c0-0.098-0.001-0.182,0-0.266c0.003-0.286,0.222-0.508,0.507-0.51
		c0.372-0.002,0.743-0.002,1.115,0c0.294,0.003,0.509,0.22,0.513,0.516c0.002,0.08,0.001,0.16,0.001,0.26c0.053,0,0.099,0,0.146,0
		c0.444,0,0.889,0,1.334,0c0.205,0.002,0.269,0.066,0.269,0.268c0,1.088-0.001,2.176-0.002,3.262c0,0.248-0.106,0.354-0.354,0.354
		c-1.649,0-3.298,0-4.947,0c-0.215,0-0.328-0.111-0.328-0.328c-0.001-1.107,0-2.215,0-3.322c0-0.166,0.068-0.232,0.236-0.232
		C7.276,9.264,7.772,9.264,8.289,9.264z M6.935,12.748c1.621,0,3.231,0,4.842,0c0-0.93,0-1.848,0-2.785
		c-0.04,0.039-0.069,0.064-0.096,0.092c-0.274,0.287-0.548,0.572-0.821,0.859c-0.141,0.148-0.268,0.322-0.505,0.293
		c-0.028,0.412-0.186,0.627-0.469,0.623c-0.117-0.002-0.248-0.045-0.347-0.109c-0.174-0.115-0.198-0.311-0.185-0.482
		c-0.108-0.053-0.202-0.09-0.288-0.141c-0.671-0.404-1.341-0.811-2.011-1.217C7.02,9.859,6.982,9.84,6.935,9.813
		C6.935,10.801,6.935,11.77,6.935,12.748z M10.035,9.26c0-0.068,0-0.123,0-0.18c0.001-0.17-0.033-0.204-0.205-0.204
		c-0.271,0.001-0.542,0.006-0.813,0C8.672,8.87,8.665,8.869,8.683,9.236c0,0.006,0.008,0.014,0.016,0.023
		C9.136,9.26,9.575,9.26,10.035,9.26z M9.731,11.209c0.03,0.086,0.048,0.156,0.08,0.217c0.008,0.014,0.096,0.01,0.104-0.008
		c0.029-0.063,0.04-0.133,0.061-0.209C9.887,11.209,9.831,11.209,9.731,11.209z"/>
	<path fill-rule="evenodd" clip-rule="evenodd" d="M9.842,3.147c0.002-0.438,0.348-0.776,0.791-0.773
		c0.422,0.003,0.765,0.353,0.762,0.778c-0.002,0.438-0.348,0.776-0.791,0.774C10.182,3.924,9.841,3.576,9.842,3.147z"/>
</g>
</svg>
