<?xml version="1.0" encoding="utf-8"?>
<!-- Generator: Adobe Illustrator 16.0.0, SVG Export Plug-In . SVG Version: 6.00 Build 0)  -->
<!DOCTYPE svg PUBLIC "-//W3C//DTD SVG 1.1//EN" "http://www.w3.org/Graphics/SVG/1.1/DTD/svg11.dtd">
<svg version="1.1" id="Layer_1" xmlns="http://www.w3.org/2000/svg" xmlns:xlink="http://www.w3.org/1999/xlink" x="0px" y="0px"
	 width="16px" height="16px" viewBox="0 0 16 16" enable-background="new 0 0 16 16" xml:space="preserve">
<g>
	<path fill-rule="evenodd" clip-rule="evenodd" stroke="#000000" stroke-width="0.2" stroke-miterlimit="10" d="M4.772,7.931
		C3.917,7.382,3.425,6.62,3.374,5.608C3.332,4.789,3.615,4.08,4.188,3.491C5.32,2.328,7.22,2.356,8.338,3.562
		c0.61,0.659,0.85,1.448,0.721,2.335C8.929,6.781,8.45,7.446,7.69,7.929C7.806,7.971,7.913,8.008,8.017,8.05
		c1.183,0.476,2.054,1.286,2.612,2.432c0.048,0.099,0.077,0.21,0.092,0.318c0.02,0.144-0.039,0.225-0.174,0.277
		c-0.041,0.017-0.084,0.027-0.128,0.037c-0.157,0.03-0.256-0.021-0.319-0.17c-0.247-0.587-0.608-1.093-1.088-1.512
		c-0.684-0.6-1.48-0.941-2.388-1.031c-1.9-0.189-3.713,0.96-4.35,2.762c-0.102,0.288-0.166,0.582-0.208,0.883
		c-0.028,0.195-0.193,0.314-0.383,0.288c-0.187-0.027-0.31-0.195-0.282-0.389c0.224-1.558,1.011-2.744,2.354-3.562
		c0.288-0.176,0.597-0.31,0.917-0.416C4.701,7.957,4.729,7.947,4.772,7.931z M8.416,5.479c0-1.201-0.975-2.17-2.183-2.171
		s-2.188,0.97-2.188,2.167c0,1.198,0.979,2.173,2.183,2.174C7.433,7.649,8.417,6.674,8.416,5.479z"/>
	<path fill-rule="evenodd" clip-rule="evenodd" stroke="#000000" stroke-width="0.2" stroke-miterlimit="10" d="M10.01,7.515
		c0.157,0.1,0.308,0.188,0.453,0.285c0.552,0.368,1.029,0.814,1.425,1.347c0.084,0.113,0.15,0.247,0.194,0.382
		c0.046,0.145-0.005,0.229-0.136,0.306c-0.141,0.085-0.275,0.085-0.38-0.002c-0.035-0.028-0.065-0.063-0.09-0.1
		c-0.532-0.795-1.248-1.374-2.108-1.783c-0.08-0.038-0.157-0.094-0.219-0.158C8.995,7.625,9.027,7.396,9.219,7.275
		C9.536,7.074,9.8,6.818,9.999,6.499c0.746-1.194,0.313-2.762-0.938-3.406C8.88,2.999,8.801,2.869,8.83,2.71
		c0.041-0.227,0.282-0.342,0.5-0.232c0.377,0.186,0.701,0.44,0.974,0.76c1.057,1.24,0.964,3.074-0.213,4.203
		C10.065,7.465,10.038,7.487,10.01,7.515z"/>
	<path fill-rule="evenodd" clip-rule="evenodd" stroke="#000000" stroke-width="0.2" stroke-miterlimit="10" d="M12.399,11.328
		c0-0.095,0-0.183,0-0.271c0-0.456,0-0.913,0-1.369c0-0.15,0.035-0.186,0.188-0.186c0.054,0,0.106,0,0.16,0
		c0.134,0.001,0.174,0.042,0.174,0.175c0,0.515,0,1.029,0,1.544c0.002,0.112,0.002,0.112,0.113,0.112
		c0.507,0.001,1.014,0.001,1.52,0.001c0.169,0,0.203,0.033,0.203,0.197c0,0.054,0.001,0.106,0,0.16
		c-0.002,0.12-0.047,0.165-0.168,0.166c-0.314,0.002-0.628,0-0.942,0.002c-0.237,0-0.473,0-0.726,0c0,0.036,0,0.069,0,0.101
		c0,0.514,0,1.03,0,1.545c0,0.146-0.038,0.184-0.181,0.185c-0.062,0-0.123,0.001-0.185,0c-0.112-0.004-0.156-0.048-0.156-0.159
		c-0.001-0.362,0-0.725,0-1.086c-0.001-0.191,0-0.383,0-0.585c-0.041,0-0.073,0-0.106,0c-0.5,0-1.001,0-1.503-0.002
		c-0.201,0-0.228-0.025-0.228-0.224c0-0.044,0-0.09,0-0.134c0.002-0.121,0.045-0.165,0.168-0.166c0.337-0.001,0.674,0,1.01-0.001
		c0.19,0,0.379,0,0.568,0C12.335,11.333,12.363,11.33,12.399,11.328z"/>
</g>
</svg>
