<?xml version="1.0" encoding="utf-8"?>
<!-- Generator: Adobe Illustrator 16.0.0, SVG Export Plug-In . SVG Version: 6.00 Build 0)  -->
<!DOCTYPE svg PUBLIC "-//W3C//DTD SVG 1.1//EN" "http://www.w3.org/Graphics/SVG/1.1/DTD/svg11.dtd">
<svg version="1.1" id="Layer_1" xmlns="http://www.w3.org/2000/svg" xmlns:xlink="http://www.w3.org/1999/xlink" x="0px" y="0px"
	 width="16px" height="16px" viewBox="0 0 16 16" enable-background="new 0 0 16 16" xml:space="preserve">
<path fill-rule="evenodd" clip-rule="evenodd" d="M4.054,12.062c-0.455,0-0.892-0.004-1.329,0c-0.512,0.004-0.966-0.145-1.353-0.49
	c-0.404-0.361-0.65-0.811-0.653-1.352C0.708,8.224,0.706,6.225,0.718,4.227C0.725,3.2,1.566,2.36,2.593,2.352
	c1.749-0.014,3.498-0.006,5.246-0.007c1.82-0.001,3.639-0.003,5.459,0.001c0.977,0.002,1.732,0.601,1.939,1.53
	c0.035,0.155,0.049,0.317,0.049,0.477c0.004,1.896,0.006,3.794,0.001,5.691c-0.002,0.928-0.518,1.66-1.355,1.918
	c-0.217,0.066-0.453,0.096-0.681,0.096c-1.844,0.008-3.688,0.006-5.531,0.002c-0.129,0-0.219,0.037-0.311,0.129
	c-0.759,0.766-1.521,1.529-2.287,2.289c-0.354,0.352-0.88,0.248-1.034-0.203c-0.03-0.086-0.035-0.186-0.035-0.279
	c-0.003-0.568-0.001-1.139,0-1.707C4.054,12.218,4.054,12.149,4.054,12.062z"/>
</svg>
