<?xml version="1.0" encoding="utf-8"?>
<!-- Generator: Adobe Illustrator 16.0.0, SVG Export Plug-In . SVG Version: 6.00 Build 0)  -->
<!DOCTYPE svg PUBLIC "-//W3C//DTD SVG 1.1//EN" "http://www.w3.org/Graphics/SVG/1.1/DTD/svg11.dtd">
<svg version="1.1" id="Layer_1" xmlns="http://www.w3.org/2000/svg" xmlns:xlink="http://www.w3.org/1999/xlink" x="0px" y="0px"
	 width="16px" height="16px" viewBox="0 0 16 16" enable-background="new 0 0 16 16" xml:space="preserve">
<g>
	<path fill-rule="evenodd" clip-rule="evenodd" d="M8.166,5.268c2.143,0,4.284,0.003,6.427-0.006c0.236-0.001,0.298,0.07,0.297,0.3
		c-0.008,1.727-0.003,3.454-0.003,5.181c0,1.09,0.005,2.18-0.003,3.27c-0.002,0.271-0.005,0.555-0.081,0.812
		c-0.15,0.509-0.589,0.802-1.131,0.803c-2.357,0.003-4.715,0.002-7.072,0.002c-1.282,0-2.564,0.001-3.848-0.001
		c-0.786-0.001-1.282-0.482-1.289-1.271c-0.011-1.179-0.006-2.357-0.006-3.536c0-1.75,0.001-3.499,0.001-5.249
		c0-0.302-0.003-0.303,0.303-0.303C3.896,5.268,6.03,5.268,8.166,5.268z M9.697,11.683C9.697,11.683,9.697,11.683,9.697,11.683
		c0.341,0.001,0.682-0.005,1.022,0.003c0.161,0.004,0.224-0.052,0.222-0.218c-0.006-0.682-0.006-1.364,0.001-2.046
		c0.001-0.159-0.062-0.202-0.212-0.2c-0.682,0.006-1.363,0.008-2.045-0.001C8.501,9.219,8.46,9.296,8.461,9.46
		c0.006,0.667,0.009,1.334-0.001,2.001c-0.002,0.184,0.069,0.229,0.236,0.225C9.029,11.676,9.363,11.683,9.697,11.683z
		 M9.703,14.724c0.348,0,0.696-0.002,1.044,0.001c0.122,0.001,0.197-0.027,0.196-0.172c-0.005-0.703-0.006-1.406-0.004-2.109
		c0-0.124-0.052-0.175-0.171-0.175c-0.711,0.001-1.422,0.001-2.133-0.001c-0.121,0-0.173,0.048-0.172,0.171
		c0.003,0.696,0.005,1.393,0,2.088c-0.001,0.161,0.072,0.202,0.218,0.199C9.021,14.72,9.362,14.724,9.703,14.724z M9.709,6.162
		c-0.333,0-0.666,0.008-0.999-0.003C8.53,6.152,8.461,6.207,8.463,6.396C8.472,7.069,8.47,7.742,8.462,8.416
		C8.461,8.584,8.526,8.633,8.686,8.632c0.673-0.006,1.347-0.008,2.021,0.001c0.19,0.002,0.239-0.077,0.237-0.252
		c-0.006-0.666-0.006-1.332,0.002-1.998c0.002-0.179-0.067-0.229-0.237-0.225C10.375,6.169,10.042,6.162,9.709,6.162z M12.735,8.627
		L12.735,8.627c0.341-0.001,0.682-0.007,1.022,0.001c0.156,0.004,0.229-0.041,0.228-0.212c-0.006-0.688-0.004-1.378,0.001-2.066
		c0.001-0.146-0.06-0.193-0.199-0.192c-0.682,0.004-1.363,0.006-2.045,0.001c-0.165-0.002-0.218,0.062-0.216,0.223
		c0.005,0.682,0.004,1.363-0.002,2.045c-0.002,0.157,0.061,0.207,0.211,0.204C12.068,8.622,12.402,8.627,12.735,8.627z M6.649,6.162
		c0-0.001,0-0.001,0-0.002c-0.341,0-0.681,0.005-1.021-0.002C5.482,6.155,5.411,6.194,5.412,6.356
		c0.007,0.688,0.007,1.376,0.003,2.064c-0.001,0.155,0.06,0.208,0.21,0.207c0.688-0.003,1.377-0.002,2.064,0.003
		c0.146,0.001,0.192-0.061,0.192-0.2C7.877,7.742,7.875,7.055,7.88,6.366c0.001-0.154-0.057-0.21-0.209-0.206
		C7.33,6.167,6.99,6.162,6.649,6.162z M3.591,11.68c0.34,0,0.681-0.004,1.021,0.002c0.145,0.003,0.217-0.036,0.216-0.198
		c-0.007-0.681-0.006-1.362-0.001-2.043c0.001-0.16-0.056-0.223-0.221-0.222c-0.681,0.006-1.361,0.007-2.043,0
		c-0.162-0.001-0.202,0.07-0.201,0.215c0.003,0.681,0.004,1.361-0.002,2.042c-0.001,0.156,0.058,0.21,0.209,0.207
		C2.909,11.676,3.25,11.681,3.591,11.68z M6.634,9.225c0-0.001,0-0.001,0-0.002c-0.342,0-0.683,0.005-1.023-0.002
		c-0.145-0.003-0.195,0.05-0.194,0.193c0.005,0.689,0.005,1.379,0,2.069c-0.001,0.141,0.047,0.201,0.192,0.2
		c0.696-0.004,1.394-0.003,2.091,0c0.133,0.001,0.185-0.048,0.184-0.183c-0.004-0.689-0.005-1.379,0.001-2.068
		c0.002-0.17-0.069-0.215-0.228-0.211C7.315,9.23,6.975,9.225,6.634,9.225z M2.365,7.41L2.365,7.41
		c-0.001,0.334,0.003,0.667-0.003,1C2.359,8.557,2.4,8.629,2.562,8.628c0.688-0.005,1.378-0.004,2.066,0
		C4.77,8.629,4.827,8.577,4.826,8.434C4.821,7.745,4.82,7.056,4.823,6.367c0.001-0.15-0.055-0.212-0.208-0.211
		C3.934,6.16,3.252,6.161,2.57,6.155C2.415,6.154,2.361,6.217,2.363,6.366C2.369,6.714,2.365,7.063,2.365,7.41z M12.731,11.682
		L12.731,11.682c0.349-0.001,0.696-0.006,1.044,0.001c0.15,0.003,0.211-0.047,0.21-0.204c-0.006-0.688-0.005-1.376-0.001-2.064
		c0.001-0.143-0.05-0.195-0.194-0.194c-0.681,0.006-1.362,0.007-2.043,0.001c-0.159-0.001-0.225,0.05-0.224,0.217
		c0.006,0.681,0.006,1.361,0,2.042c-0.001,0.156,0.058,0.208,0.209,0.204C12.065,11.677,12.398,11.682,12.731,11.682z M2.363,13.464
		c0.001,0,0.001,0,0.002,0c0,0.349,0.005,0.696-0.002,1.045c-0.004,0.162,0.055,0.222,0.219,0.221c0.675-0.007,1.349-0.006,2.022,0
		c0.166,0.002,0.221-0.064,0.22-0.223c-0.004-0.682-0.003-1.363,0.002-2.045c0.001-0.146-0.059-0.193-0.199-0.192
		c-0.682,0.004-1.363,0.006-2.045-0.002c-0.183-0.002-0.227,0.076-0.222,0.241C2.37,12.827,2.363,13.146,2.363,13.464z M7.88,13.51
		C7.88,13.51,7.88,13.51,7.88,13.51c0.001-0.349-0.003-0.696,0.003-1.044c0.002-0.142-0.046-0.2-0.192-0.199
		c-0.688,0.005-1.377,0.005-2.065,0.001c-0.149,0-0.211,0.049-0.21,0.206c0.006,0.688,0.003,1.377-0.001,2.065
		c-0.001,0.13,0.044,0.188,0.18,0.188c0.696-0.005,1.393-0.007,2.088-0.001c0.163,0.001,0.202-0.072,0.199-0.217
		C7.876,14.176,7.88,13.843,7.88,13.51z M13.984,13.487c0,0-0.001,0-0.002,0c0-0.326-0.008-0.652,0.004-0.978
		c0.007-0.186-0.061-0.243-0.243-0.241c-0.666,0.008-1.333,0.006-2-0.001c-0.163-0.002-0.222,0.05-0.221,0.216
		c0.008,0.667,0.009,1.334,0.001,2.001c-0.002,0.184,0.063,0.245,0.244,0.243c0.667-0.007,1.334-0.006,2,0.001
		c0.164,0.002,0.224-0.055,0.22-0.219C13.979,14.169,13.984,13.828,13.984,13.487z"/>
	<path fill-rule="evenodd" clip-rule="evenodd" d="M8.159,4.64c-2.144,0-4.286-0.004-6.43,0.004c-0.209,0-0.29-0.048-0.276-0.27
		c0.021-0.347-0.006-0.697,0.02-1.044C1.52,2.674,2.028,2.213,2.686,2.211c0.579-0.002,1.157-0.005,1.735,0.002
		c0.18,0.002,0.251-0.053,0.246-0.241C4.658,1.58,4.664,1.187,4.674,0.794c0.006-0.21,0.132-0.348,0.329-0.398
		c0.194-0.049,0.376-0.003,0.483,0.181C5.532,0.655,5.551,0.758,5.553,0.85c0.008,0.371,0.014,0.742,0,1.112
		C5.546,2.159,5.616,2.218,5.809,2.217c1.356-0.007,2.714-0.004,4.07-0.004c0.208,0,0.416-0.01,0.623,0.004
		c0.209,0.016,0.291-0.052,0.28-0.272c-0.017-0.37-0.013-0.741-0.004-1.112c0.01-0.377,0.397-0.594,0.693-0.372
		c0.104,0.078,0.178,0.255,0.188,0.392c0.024,0.354,0.018,0.711,0.002,1.067c-0.01,0.218,0.051,0.302,0.283,0.296
		c0.563-0.015,1.127-0.001,1.69-0.004c0.716-0.003,1.239,0.507,1.247,1.225c0.004,0.319-0.01,0.639,0.004,0.957
		c0.01,0.197-0.061,0.25-0.254,0.25C12.475,4.637,10.316,4.64,8.159,4.64z M5.604,2.665C5.585,2.689,5.568,2.7,5.568,2.711
		C5.563,2.955,5.563,3.199,5.554,3.443C5.544,3.711,5.376,3.864,5.11,3.86C4.851,3.856,4.68,3.687,4.669,3.404
		C4.66,3.165,4.668,2.925,4.668,2.665C4.324,2.822,4.144,3.204,4.207,3.56c0.076,0.43,0.428,0.754,0.85,0.783
		C5.474,4.372,5.875,4.1,5.997,3.706C6.125,3.291,5.979,2.895,5.604,2.665z M10.776,2.659c-0.392,0.211-0.552,0.625-0.436,1.019
		c0.121,0.411,0.532,0.7,0.943,0.665c0.452-0.039,0.807-0.377,0.863-0.821c0.045-0.348-0.159-0.74-0.479-0.851
		c0,0.262,0.005,0.51-0.002,0.757c-0.007,0.275-0.184,0.438-0.455,0.433c-0.258-0.005-0.427-0.18-0.434-0.463
		C10.771,3.165,10.776,2.93,10.776,2.659z"/>
</g>
</svg>
