<?xml version="1.0" encoding="utf-8"?>
<!-- Generator: Adobe Illustrator 16.0.0, SVG Export Plug-In . SVG Version: 6.00 Build 0)  -->
<!DOCTYPE svg PUBLIC "-//W3C//DTD SVG 1.1//EN" "http://www.w3.org/Graphics/SVG/1.1/DTD/svg11.dtd">
<svg version="1.1" id="Layer_1" xmlns="http://www.w3.org/2000/svg" xmlns:xlink="http://www.w3.org/1999/xlink" x="0px" y="0px"
	 width="16px" height="16px" viewBox="0 0 16 16" enable-background="new 0 0 16 16" xml:space="preserve">
<path fill-rule="evenodd" clip-rule="evenodd" d="M9.061,13.947c0-1.197,0-2.385,0-3.586c-0.809,0-1.604,0-2.414,0
	c0,0.057,0,0.107,0,0.16c0,1.098-0.001,2.193,0.003,3.287c0,0.111-0.024,0.15-0.143,0.15c-1.125-0.006-2.251-0.004-3.376-0.004
	c-0.444,0-0.689-0.246-0.689-0.691c-0.002-1.441,0-2.879-0.003-4.32c0-0.105,0.03-0.174,0.112-0.242
	c1.665-1.366,3.327-2.739,4.99-4.109C7.613,4.53,7.691,4.475,7.759,4.408C7.827,4.342,7.876,4.352,7.946,4.41
	c0.579,0.482,1.161,0.959,1.74,1.438c1.157,0.953,2.313,1.905,3.47,2.857c0.077,0.063,0.11,0.127,0.11,0.229
	c-0.003,1.451-0.003,2.904-0.003,4.357c0,0.404-0.251,0.662-0.656,0.662c-1.146,0.002-2.292,0.002-3.438,0.002
	C9.138,13.955,9.105,13.949,9.061,13.947z"/>
<path fill-rule="evenodd" clip-rule="evenodd" d="M7.851,3.51c-0.554,0.461-1.097,0.914-1.64,1.366
	C4.616,6.206,3.021,7.535,1.427,8.865c-0.221,0.186-0.376,0.17-0.561-0.051C0.712,8.633,0.559,8.448,0.405,8.266
	c-0.181-0.218-0.167-0.37,0.049-0.552c1.086-0.906,2.173-1.81,3.26-2.715c1.087-0.906,2.175-1.81,3.259-2.717
	c0.222-0.187,0.451-0.346,0.753-0.372c0.331-0.027,0.622,0.055,0.876,0.269c0.711,0.594,1.423,1.188,2.133,1.781
	c0.03,0.025,0.063,0.051,0.123,0.097c0-0.067,0-0.11,0-0.152c0-0.525,0-1.05,0-1.575c0-0.301,0.101-0.403,0.399-0.403
	c0.534,0,1.068,0,1.603,0c0.301,0,0.402,0.102,0.402,0.401c0,1.204,0,2.408-0.003,3.612c0,0.086,0.023,0.143,0.093,0.2
	c0.611,0.504,1.22,1.013,1.832,1.52c0.041,0.036,0.083,0.069,0.122,0.105c0.137,0.131,0.158,0.286,0.042,0.433
	c-0.186,0.235-0.373,0.462-0.573,0.685c-0.137,0.152-0.302,0.146-0.472,0.004c-0.597-0.493-1.19-0.988-1.784-1.483
	C11.055,6.182,9.593,4.96,8.128,3.74C8.039,3.665,7.949,3.592,7.851,3.51z"/>
</svg>
