<?xml version="1.0" encoding="utf-8"?>
<!-- Generator: Adobe Illustrator 16.0.0, SVG Export Plug-In . SVG Version: 6.00 Build 0)  -->
<!DOCTYPE svg PUBLIC "-//W3C//DTD SVG 1.1//EN" "http://www.w3.org/Graphics/SVG/1.1/DTD/svg11.dtd">
<svg version="1.1" id="Layer_1" xmlns="http://www.w3.org/2000/svg" xmlns:xlink="http://www.w3.org/1999/xlink" x="0px" y="0px"
	 width="16px" height="16px" viewBox="0 0 16 16" enable-background="new 0 0 16 16" xml:space="preserve">
<path fill-rule="evenodd" clip-rule="evenodd" d="M4.472,8.083C3.556,7.497,3.039,6.674,2.996,5.583
	C2.96,4.729,3.265,3.999,3.851,3.38C4.974,2.193,6.95,2.157,8.144,3.321c0.704,0.686,1.008,1.524,0.895,2.511
	C8.928,6.82,8.415,7.547,7.576,8.095c0.08,0.032,0.131,0.058,0.184,0.076c1.329,0.491,2.317,1.364,2.936,2.639
	c0.055,0.111,0.086,0.238,0.1,0.361c0.016,0.176-0.061,0.25-0.26,0.301c-0.191,0.047-0.283,0.002-0.371-0.152
	c-0.195-0.344-0.363-0.711-0.604-1.02C8.809,9.334,7.817,8.768,6.594,8.607c-1.92-0.25-3.718,0.77-4.542,2.369
	c-0.236,0.461-0.381,0.949-0.459,1.459c-0.034,0.227-0.156,0.344-0.346,0.348c-0.203,0.004-0.363-0.131-0.342-0.33
	c0.03-0.285,0.074-0.574,0.156-0.846c0.511-1.695,1.615-2.836,3.273-3.445c0.035-0.012,0.068-0.025,0.102-0.039
	C4.444,8.121,4.449,8.111,4.472,8.083z M8.373,5.492c0.001-1.278-1.051-2.332-2.328-2.336C4.753,3.153,3.689,4.2,3.687,5.476
	c-0.002,1.276,1.06,2.338,2.342,2.339C7.304,7.816,8.372,6.757,8.373,5.492z"/>
<path fill-rule="evenodd" clip-rule="evenodd" d="M10.031,7.639c0.289,0.199,0.557,0.367,0.809,0.555
	c0.482,0.355,0.898,0.779,1.248,1.265c0.078,0.109,0.127,0.246,0.162,0.377c0.039,0.135-0.033,0.232-0.156,0.295
	c-0.125,0.064-0.248,0.082-0.367-0.01c-0.039-0.029-0.074-0.066-0.102-0.107c-0.541-0.824-1.283-1.414-2.16-1.85
	C9.369,8.116,9.273,8.061,9.193,7.991C8.977,7.798,8.994,7.555,9.238,7.395c0.363-0.236,0.656-0.534,0.869-0.91
	c0.713-1.261,0.256-2.849-1.021-3.533C8.928,2.868,8.793,2.773,8.807,2.564c0.016-0.207,0.227-0.372,0.42-0.299
	c0.168,0.063,0.33,0.149,0.475,0.25c0.789,0.551,1.289,1.296,1.406,2.257c0.131,1.05-0.162,1.977-0.92,2.737
	C10.143,7.553,10.092,7.59,10.031,7.639z"/>
<path fill-rule="evenodd" clip-rule="evenodd" d="M13.145,13.227c0,0.27-0.004,0.539,0.004,0.811
	c0.002,0.135-0.063,0.188-0.184,0.199c-0.018,0-0.037,0-0.053,0c-0.279,0.006-0.301-0.014-0.301-0.293c0-0.496,0-0.99,0-1.488
	c0-0.18,0-0.182-0.178-0.182c-0.516-0.002-1.027,0.002-1.543-0.004c-0.078,0-0.201,0.035-0.217-0.078
	c-0.018-0.133,0.002-0.271,0.025-0.404c0.004-0.023,0.102-0.045,0.156-0.045c0.508-0.004,1.018,0,1.527-0.004
	c0.229,0,0.229,0.051,0.229-0.236c0-0.494,0-0.99,0.002-1.486c0-0.209,0.018-0.225,0.221-0.227c0.311-0.002,0.311-0.002,0.311,0.303
	c0,0.496,0.006,0.99-0.002,1.486c-0.002,0.135,0.041,0.166,0.168,0.166c0.52-0.008,1.037-0.006,1.555-0.004
	c0.205,0,0.23,0.025,0.23,0.223c0,0.311,0,0.311-0.314,0.311c-0.479,0-0.955,0-1.434,0c-0.203,0-0.203,0-0.203,0.195
	C13.145,12.721,13.145,12.973,13.145,13.227z"/>
</svg>
