<?xml version="1.0" encoding="utf-8"?>
<!-- Generator: Adobe Illustrator 16.0.0, SVG Export Plug-In . SVG Version: 6.00 Build 0)  -->
<!DOCTYPE svg PUBLIC "-//W3C//DTD SVG 1.1//EN" "http://www.w3.org/Graphics/SVG/1.1/DTD/svg11.dtd">
<svg version="1.1" id="Layer_1" xmlns="http://www.w3.org/2000/svg" xmlns:xlink="http://www.w3.org/1999/xlink" x="0px" y="0px"
	 width="16px" height="16px" viewBox="0 0 16 16" enable-background="new 0 0 16 16" xml:space="preserve">
<path d="M10.849,8.091c-0.748-0.458-1.151-1.113-1.172-1.979C9.659,5.466,9.897,4.909,10.35,4.45
	c0.874-0.882,2.353-0.892,3.227-0.02c0.537,0.538,0.771,1.197,0.674,1.95c-0.097,0.749-0.499,1.311-1.162,1.714
	c0.061,0.027,0.101,0.045,0.14,0.062c1.281,0.501,2.066,1.423,2.357,2.765c0.042,0.189,0.043,0.389,0.064,0.584
	c0.006,0.07-0.024,0.105-0.099,0.1c-0.057-0.002-0.113,0-0.171,0c-0.169,0-0.169,0-0.177-0.168
	c-0.066-1.445-1.153-2.711-2.568-2.992c-1.558-0.311-3.072,0.498-3.668,1.957c-0.145,0.352-0.214,0.713-0.232,1.088
	c-0.003,0.086-0.026,0.119-0.111,0.111C8.573,11.596,8.524,11.6,8.476,11.6c-0.198,0-0.204,0-0.183-0.201
	c0.16-1.582,0.975-2.672,2.458-3.253c0.021-0.009,0.041-0.017,0.063-0.026C10.82,8.117,10.826,8.11,10.849,8.091z M13.822,6.072
	c0.031-0.874-0.695-1.845-1.848-1.849c-1.058-0.003-1.849,0.844-1.857,1.845c-0.01,1.027,0.836,1.876,1.859,1.868
	C13.091,7.929,13.852,6.994,13.822,6.072z"/>
<path d="M2.915,8.101C2.11,7.597,1.706,6.896,1.737,5.966c0.02-0.626,0.279-1.151,0.734-1.578c0.896-0.841,2.385-0.799,3.208,0.091
	C6.184,5.026,6.409,5.673,6.3,6.413C6.192,7.147,5.796,7.7,5.136,8.099c0.075,0.029,0.125,0.048,0.175,0.068
	c1.204,0.478,1.973,1.343,2.294,2.597c0.061,0.238,0.07,0.49,0.104,0.738c0.011,0.076-0.021,0.111-0.1,0.104
	c-0.08-0.002-0.159-0.002-0.238,0c-0.08,0.008-0.098-0.027-0.104-0.105c-0.097-1.344-0.75-2.33-1.983-2.863
	c-1.963-0.845-4.088,0.416-4.441,2.4c-0.027,0.154-0.043,0.313-0.057,0.471c-0.005,0.076-0.036,0.098-0.105,0.094
	c-0.064-0.004-0.128-0.008-0.192,0c-0.111,0.014-0.141-0.033-0.138-0.141c0.016-0.594,0.181-1.145,0.474-1.656
	c0.449-0.789,1.104-1.338,1.955-1.652C2.814,8.14,2.849,8.125,2.915,8.101z M4.026,7.939c1.017,0,1.865-0.842,1.858-1.862
	C5.878,5.059,5.076,4.224,4.023,4.224c-1.02-0.001-1.848,0.803-1.851,1.851C2.17,7.125,3.003,7.924,4.026,7.939z"/>
</svg>
