<?xml version="1.0" encoding="utf-8"?>
<!-- Generator: Adobe Illustrator 16.0.0, SVG Export Plug-In . SVG Version: 6.00 Build 0)  -->
<!DOCTYPE svg PUBLIC "-//W3C//DTD SVG 1.1//EN" "http://www.w3.org/Graphics/SVG/1.1/DTD/svg11.dtd">
<svg version="1.1" id="Layer_1" xmlns="http://www.w3.org/2000/svg" xmlns:xlink="http://www.w3.org/1999/xlink" x="0px" y="0px"
	 width="16px" height="16px" viewBox="0 0 16 16" enable-background="new 0 0 16 16" xml:space="preserve">
<g>
	<path fill-rule="evenodd" clip-rule="evenodd" fill="#B3B3B3" d="M3.51,2.578c0.116,0.044,0.186,0.139,0.255,0.234
		c0.291,0.398,0.525,0.83,0.744,1.271C4.99,5.049,5.383,6.053,5.738,7.071c0.057,0.164,0.114,0.328,0.173,0.491
		c0.025,0.071,0.04,0.078,0.113,0.071c0.36-0.034,0.72-0.067,1.079-0.102c0.198-0.019,0.396-0.038,0.593-0.058
		C7.705,7.474,7.714,7.471,7.74,7.465C7.704,7.441,7.68,7.423,7.654,7.408C7.551,7.345,7.443,7.289,7.344,7.22
		C7.147,7.082,7.06,6.88,7.047,6.646C7.022,6.209,7.001,5.773,6.98,5.336c-0.01-0.208,0.073-0.374,0.252-0.482
		C7.386,4.763,7.555,4.74,7.725,4.792c0.287,0.087,0.571,0.185,0.856,0.277c0.032,0.01,0.066,0.017,0.1,0.019
		c0.213,0.009,0.427,0.013,0.642,0.026c0.049,0.003,0.102,0.025,0.146,0.05c0.043,0.024,0.082,0.028,0.123,0.009
		C9.678,5.131,9.75,5.149,9.832,5.2c0.221,0.135,0.449,0.257,0.67,0.392c0.104,0.064,0.221,0.074,0.334,0.1
		c0.227,0.052,0.453,0.098,0.68,0.15c0.02,0.004,0.047,0.026,0.049,0.042c0.023,0.186,0.041,0.372,0.061,0.558
		c0.001,0.006-0.001,0.011-0.002,0.019c-0.106,0.015-0.213,0.025-0.318,0.047c-0.385,0.079-0.697,0.283-0.955,0.573
		c-0.211,0.237-0.36,0.51-0.422,0.823c-0.053,0.27-0.047,0.541,0.008,0.812C9.967,8.876,9.982,8.845,9.84,8.896
		C9.28,9.1,8.719,9.301,8.158,9.503C8.08,9.53,8.077,9.529,8.046,9.45c-0.149-0.38-0.388-0.688-0.73-0.91
		c-0.324-0.209-0.679-0.317-1.07-0.282C5.992,8.28,5.736,8.296,5.482,8.32C5.297,8.338,5.146,8.186,5.14,8.019
		c-0.007-0.17,0.135-0.316,0.318-0.325C5.529,7.69,5.547,7.67,5.524,7.6C5.45,7.368,5.375,7.136,5.293,6.907
		C4.95,5.95,4.572,5.008,4.113,4.101c-0.028-0.056-0.06-0.11-0.085-0.167C4.005,3.881,3.974,3.881,3.93,3.906
		C3.864,3.944,3.798,3.981,3.73,4.014c-0.188,0.09-0.385,0.145-0.596,0.134C2.899,4.137,2.704,4.041,2.538,3.88
		C2.501,3.844,2.466,3.807,2.431,3.771c0-0.003,0-0.007,0-0.011c0.117-0.051,0.239-0.093,0.35-0.155
		c0.176-0.099,0.322-0.238,0.455-0.39c0.069-0.08,0.133-0.163,0.198-0.243C3.404,2.936,3.379,2.907,3.358,2.876
		C3.292,2.775,3.314,2.672,3.417,2.608c0.019-0.012,0.04-0.021,0.06-0.031C3.487,2.578,3.499,2.578,3.51,2.578z M8.174,5.537
		c0,0.035-0.001,0.061,0,0.086C8.195,5.98,8.217,6.337,8.237,6.694c0.002,0.038,0.015,0.058,0.049,0.072
		C8.413,6.821,8.54,6.875,8.664,6.933c0.044,0.021,0.075,0.013,0.11-0.019C9.182,6.55,9.592,6.187,10,5.823
		c0.052-0.046,0.103-0.093,0.155-0.141c-0.009-0.009-0.013-0.013-0.017-0.016c-0.128-0.074-0.255-0.148-0.383-0.222
		c-0.088-0.05-0.129-0.04-0.191,0.042C9.553,5.504,9.542,5.522,9.532,5.541C9.488,5.62,9.42,5.664,9.331,5.669
		C9.184,5.677,9.036,5.676,8.889,5.685C8.675,5.698,8.472,5.658,8.277,5.572C8.247,5.559,8.214,5.551,8.174,5.537z"/>
	<path fill-rule="evenodd" clip-rule="evenodd" fill="#B3B3B3" d="M3.635,13.422c0-0.142,0-0.284,0-0.428
		c0.176-0.038,0.34-0.072,0.504-0.106c0.327-0.069,0.654-0.137,0.98-0.209c0.056-0.012,0.109-0.042,0.158-0.073
		c0.11-0.069,0.22-0.14,0.325-0.218c0.07-0.051,0.151-0.047,0.227-0.055c0.507-0.054,1.006-0.146,1.497-0.282
		c0.191-0.053,0.382-0.076,0.581-0.075c0.788,0.006,1.577,0.002,2.364,0.003c0.036,0,0.076,0.009,0.107,0.026
		c0.385,0.206,0.769,0.414,1.149,0.627c0.073,0.041,0.141,0.019,0.209,0.013c0.288-0.025,0.576-0.057,0.864-0.087
		c0.042-0.004,0.072,0.007,0.105,0.037c0.278,0.265,0.559,0.527,0.84,0.79c0.006,0.006,0.016,0.01,0.022,0.014
		c0,0.004,0,0.008,0,0.012c-0.677,0.001-1.354,0.003-2.03,0.005c-0.017,0-0.033,0.004-0.05,0.007
		C8.872,13.422,6.253,13.422,3.635,13.422z"/>
	<path fill-rule="evenodd" clip-rule="evenodd" fill="#B3B3B3" d="M11.489,13.422c0.017-0.003,0.033-0.007,0.05-0.007
		c0.677-0.002,1.354-0.004,2.03-0.005c-0.015,0.004-0.03,0.011-0.046,0.011C12.846,13.422,12.168,13.422,11.489,13.422z"/>
	<path fill-rule="evenodd" clip-rule="evenodd" fill="#B3B3B3" d="M13.195,8.245c0.05,0.865-0.719,1.551-1.503,1.529
		c-0.833-0.022-1.491-0.685-1.479-1.508c0.012-0.849,0.731-1.481,1.495-1.479C12.56,6.788,13.232,7.556,13.195,8.245z M12.082,8.286
		c0.006-0.182-0.118-0.38-0.369-0.385c-0.178-0.003-0.376,0.14-0.381,0.38c-0.004,0.208,0.166,0.373,0.375,0.374
		C11.926,8.656,12.081,8.504,12.082,8.286z"/>
	<path fill-rule="evenodd" clip-rule="evenodd" fill="#B3B3B3" d="M6.301,8.575c0.932-0.015,1.529,0.777,1.521,1.491
		c-0.01,0.941-0.79,1.482-1.445,1.491c-0.929,0.014-1.547-0.72-1.543-1.489C4.838,9.215,5.565,8.561,6.301,8.575z M5.95,10.069
		c-0.019,0.179,0.197,0.378,0.348,0.377c0.222-0.003,0.403-0.161,0.408-0.372c0.005-0.201-0.169-0.389-0.372-0.389
		C6.164,9.686,5.954,9.819,5.95,10.069z"/>
	<path fill-rule="evenodd" clip-rule="evenodd" fill="#B3B3B3" d="M7.554,4.54c-0.393,0.035-0.7-0.363-0.7-0.7
		c0-0.315,0.284-0.708,0.731-0.688C7.948,3.168,8.258,3.464,8.26,3.834C8.262,4.217,7.983,4.557,7.554,4.54z"/>
	<path fill-rule="evenodd" clip-rule="evenodd" fill="#B3B3B3" d="M8.174,5.537c0.04,0.014,0.073,0.021,0.103,0.035
		c0.195,0.086,0.398,0.126,0.612,0.113c0.147-0.008,0.294-0.008,0.442-0.016C9.42,5.664,9.488,5.62,9.532,5.541
		c0.01-0.019,0.021-0.037,0.032-0.053c0.063-0.082,0.104-0.092,0.191-0.042c0.128,0.073,0.255,0.147,0.383,0.222
		c0.004,0.002,0.008,0.007,0.017,0.016C10.103,5.73,10.052,5.777,10,5.823C9.592,6.187,9.182,6.55,8.774,6.914
		c-0.036,0.032-0.066,0.039-0.11,0.019C8.54,6.875,8.413,6.821,8.286,6.767C8.252,6.752,8.239,6.732,8.237,6.694
		C8.217,6.337,8.195,5.98,8.174,5.624C8.172,5.598,8.174,5.572,8.174,5.537z"/>
</g>
</svg>
