<?xml version="1.0" encoding="utf-8"?>
<!-- Generator: Adobe Illustrator 16.0.0, SVG Export Plug-In . SVG Version: 6.00 Build 0)  -->
<!DOCTYPE svg PUBLIC "-//W3C//DTD SVG 1.1//EN" "http://www.w3.org/Graphics/SVG/1.1/DTD/svg11.dtd">
<svg version="1.1" id="Layer_1" xmlns="http://www.w3.org/2000/svg" xmlns:xlink="http://www.w3.org/1999/xlink" x="0px" y="0px"
	 width="16px" height="16px" viewBox="0 0 16 16" enable-background="new 0 0 16 16" xml:space="preserve">
<g>
	<path fill-rule="evenodd" clip-rule="evenodd" fill="#B3B3B3" d="M11.709,9.76c-2.17,0-4.323,0-6.491,0
		c0.284-0.275,0.432-0.601,0.43-0.986C5.646,8.39,5.495,8.067,5.208,7.795c0.075-0.023,0.142-0.044,0.209-0.064
		C5.7,7.647,5.982,7.565,6.263,7.479C6.304,7.467,6.329,7.474,6.36,7.503C6.481,7.62,6.605,7.734,6.73,7.847
		c0.017,0.015,0.045,0.025,0.069,0.025c0.408,0.002,0.816,0,1.225,0.002c0.041,0,0.065-0.011,0.078-0.051
		c0.037-0.109,0.086-0.216,0.11-0.327c0.039-0.186,0.146-0.292,0.331-0.324c0-0.203-0.001-0.404,0-0.604
		c0-0.032-0.002-0.066,0.004-0.098c0.016-0.083,0.092-0.116,0.156-0.063c0.06,0.047,0.118,0.1,0.163,0.16
		c0.154,0.206,0.303,0.417,0.455,0.625c0.013,0.017,0.034,0.034,0.054,0.038c0.518,0.104,1.036,0.204,1.553,0.31
		c0.285,0.058,0.567,0.129,0.861,0.196c-0.315,0.263-0.492,0.591-0.507,0.995C11.267,9.131,11.414,9.471,11.709,9.76z"/>
	<path fill-rule="evenodd" clip-rule="evenodd" fill="#B3B3B3" d="M3.146,8.779C3.143,8.138,3.676,7.598,4.33,7.598
		c0.645,0,1.178,0.53,1.179,1.174c0,0.667-0.519,1.187-1.188,1.188C3.668,9.961,3.148,9.438,3.146,8.779z M4.332,9.436
		c0.358,0,0.646-0.293,0.651-0.648c0.006-0.362-0.296-0.662-0.656-0.66c-0.362,0.001-0.649,0.288-0.654,0.64
		C3.668,9.145,3.958,9.436,4.332,9.436z"/>
	<path fill-rule="evenodd" clip-rule="evenodd" fill="#B3B3B3" d="M12.337,7.476c0-0.199-0.011-0.402,0.004-0.604
		c0.012-0.167,0.191-0.321,0.362-0.322c0.558-0.003,1.115-0.001,1.673,0c0.004,0,0.008,0.002,0.018,0.005c0,0.707,0,1.416,0,2.137
		c-0.113,0-0.225,0-0.335,0c-0.026,0-0.054-0.003-0.079,0.001c-0.047,0.009-0.062-0.014-0.065-0.056
		c-0.02-0.208-0.09-0.399-0.205-0.574c-0.216-0.328-0.518-0.531-0.908-0.584C12.649,7.459,12.493,7.476,12.337,7.476z"/>
	<path fill-rule="evenodd" clip-rule="evenodd" fill="#B3B3B3" d="M13.714,9.133c-0.002,0.021,0.002,0.045-0.006,0.066
		c-0.173,0.466-0.627,0.772-1.128,0.762c-0.38-0.01-0.686-0.166-0.919-0.464c-0.015-0.019-0.023-0.042-0.034-0.062
		c0.123-0.123,0.246-0.246,0.369-0.369c0.015,0.017,0.033,0.031,0.044,0.051c0.063,0.113,0.156,0.194,0.27,0.251
		c0.438,0.218,0.95-0.105,0.947-0.596c0-0.028,0.007-0.058,0.011-0.086C13.416,8.835,13.565,8.983,13.714,9.133z"/>
	<path fill-rule="evenodd" clip-rule="evenodd" fill="#B3B3B3" d="M11.996,9.066c-0.123,0.123-0.246,0.246-0.369,0.369
		c-0.04-0.067-0.087-0.131-0.118-0.201c-0.261-0.602,0.058-1.335,0.673-1.557c0.021-0.007,0.042-0.01,0.063-0.014
		c0.152,0.153,0.306,0.306,0.458,0.458c-0.016,0.003-0.031,0.01-0.047,0.008c-0.482-0.037-0.833,0.427-0.667,0.882
		C11.995,9.029,11.994,9.049,11.996,9.066z"/>
	<path fill-rule="evenodd" clip-rule="evenodd" fill="#B3B3B3" d="M3.03,8.462C3.032,8.476,3.04,8.49,3.037,8.503
		c-0.09,0.475,0.032,0.886,0.374,1.229c0.005,0.005,0.01,0.012,0.021,0.025C3.408,9.76,3.392,9.762,3.375,9.762
		c-0.451,0-0.901,0.002-1.352-0.002C1.958,9.758,1.894,9.73,1.829,9.713c-0.008-0.003-0.013-0.02-0.02-0.029
		c0.021-0.02,0.043-0.037,0.063-0.057C2.17,9.329,2.468,9.031,2.765,8.734C2.854,8.644,2.942,8.553,3.03,8.462z"/>
	<path fill-rule="evenodd" clip-rule="evenodd" fill="#B3B3B3" d="M3.03,8.462c-0.088,0.09-0.176,0.182-0.265,0.271
		C2.468,9.031,2.17,9.329,1.872,9.627c-0.02,0.02-0.042,0.037-0.063,0.057C1.771,9.652,1.723,9.629,1.694,9.59
		C1.54,9.385,1.595,9.088,1.816,8.956C2.061,8.809,2.312,8.672,2.56,8.53c0.169-0.096,0.338-0.192,0.506-0.289
		c0.018-0.01,0.038-0.019,0.07-0.036C3.097,8.3,3.063,8.381,3.03,8.462z"/>
	<path fill-rule="evenodd" clip-rule="evenodd" fill="#B3B3B3" d="M13.714,9.133c-0.148-0.149-0.298-0.298-0.446-0.447
		c-0.013-0.029-0.028-0.059-0.038-0.089c-0.053-0.166-0.15-0.297-0.304-0.385c-0.016-0.009-0.027-0.025-0.041-0.037
		c0.123-0.123,0.247-0.246,0.37-0.369c0.088,0.076,0.188,0.142,0.262,0.229c0.21,0.251,0.291,0.547,0.259,0.872
		C13.769,8.984,13.735,9.057,13.714,9.133z"/>
	<path fill-rule="evenodd" clip-rule="evenodd" fill="#B3B3B3" d="M13.255,7.806c-0.123,0.123-0.247,0.246-0.37,0.369
		c-0.061-0.018-0.121-0.036-0.182-0.054c-0.152-0.152-0.306-0.305-0.458-0.458c0.145-0.067,0.298-0.073,0.451-0.062
		c0.194,0.015,0.374,0.08,0.539,0.182C13.244,7.788,13.249,7.799,13.255,7.806z"/>
	<path fill-rule="evenodd" clip-rule="evenodd" fill="#B3B3B3" d="M4.323,9.043C4.175,9.041,4.065,8.928,4.066,8.778
		c0.001-0.147,0.115-0.259,0.263-0.259c0.148,0,0.263,0.118,0.261,0.269C4.588,8.934,4.474,9.043,4.323,9.043z"/>
	<path fill-rule="evenodd" clip-rule="evenodd" fill="#B3B3B3" d="M12.52,8.545c0.089-0.06,0.248-0.007,0.312,0.104
		c0.052,0.091,0.041,0.225-0.025,0.3c-0.075,0.086-0.193,0.118-0.296,0.079c-0.108-0.041-0.176-0.137-0.172-0.251
		c0.001-0.026,0.017-0.052,0.025-0.078C12.415,8.647,12.468,8.596,12.52,8.545z"/>
	<path fill-rule="evenodd" clip-rule="evenodd" fill="#B3B3B3" d="M12.52,8.545c-0.052,0.051-0.104,0.103-0.156,0.154
		C12.367,8.625,12.442,8.55,12.52,8.545z"/>
</g>
</svg>
