<?xml version="1.0" encoding="utf-8"?>
<!-- Generator: Adobe Illustrator 16.0.0, SVG Export Plug-In . SVG Version: 6.00 Build 0)  -->
<!DOCTYPE svg PUBLIC "-//W3C//DTD SVG 1.1//EN" "http://www.w3.org/Graphics/SVG/1.1/DTD/svg11.dtd">
<svg version="1.1" id="Layer_1" xmlns="http://www.w3.org/2000/svg" xmlns:xlink="http://www.w3.org/1999/xlink" x="0px" y="0px"
	 width="16px" height="16px" viewBox="0 0 16 16" enable-background="new 0 0 16 16" xml:space="preserve">
<g>
	<path fill-rule="evenodd" clip-rule="evenodd" fill="#B2B2B2" d="M7.882,13.792c-0.31-0.23-0.616-0.462-0.927-0.693
		c0.064-0.084,0.127-0.169,0.189-0.254c0.481-0.643,0.963-1.285,1.447-1.925c0.038-0.054,0.037-0.109,0.047-0.169
		c0.052-0.287,0.1-0.578,0.147-0.868C8.813,9.72,8.84,9.559,8.866,9.396c-0.07-0.012-0.14-0.018-0.208-0.034
		C8.306,9.277,8.04,8.97,8.005,8.612C8.001,8.565,7.999,8.52,7.999,8.473C7.998,7.82,7.998,7.168,7.998,6.517
		c0-0.018,0-0.034,0-0.058c-0.077,0.029-0.15,0.056-0.223,0.083C7.333,6.708,6.893,6.875,6.451,7.04
		C6.104,7.168,5.742,6.963,5.669,6.602C5.615,6.327,5.78,6.047,6.056,5.947c0.243-0.089,0.486-0.181,0.729-0.271
		c0.007-0.002,0.014-0.006,0.026-0.013C6.757,5.632,6.708,5.604,6.659,5.575C6.345,5.392,6.01,5.256,5.675,5.12
		C5.273,4.955,4.87,4.797,4.473,4.625C4.294,4.547,4.127,4.443,3.958,4.348C3.656,4.18,3.358,4.008,3.057,3.84
		c-0.124-0.069-0.218-0.162-0.258-0.3C2.735,3.316,2.883,3.078,3.117,3.026C3.241,2.998,3.358,3.017,3.469,3.08
		c0.299,0.17,0.6,0.34,0.898,0.513c0.199,0.117,0.403,0.227,0.592,0.359c0.277,0.194,0.542,0.404,0.812,0.609
		c0.308,0.234,0.612,0.475,0.945,0.674C6.87,5.327,7.026,5.413,7.183,5.5c0.015,0.008,0.04,0.01,0.056,0.003
		C7.902,5.256,8.566,5.006,9.23,4.757c0.49-0.184,0.98-0.37,1.473-0.552c0.348-0.128,0.722,0.089,0.776,0.455
		c0.041,0.28-0.114,0.539-0.392,0.641c-0.244,0.089-0.486,0.181-0.73,0.27c-0.032,0.012-0.041,0.03-0.041,0.063
		c0.002,0.959,0.002,1.918,0.002,2.878c0,0.238-0.037,0.471-0.076,0.705c-0.07,0.406-0.166,0.803-0.273,1.2
		c-0.066,0.254-0.139,0.505-0.21,0.759c-0.048,0.169-0.146,0.313-0.251,0.451c-0.386,0.513-0.771,1.025-1.156,1.538
		c-0.15,0.203-0.301,0.403-0.452,0.606C7.896,13.778,7.891,13.781,7.882,13.792z"/>
	<path fill-rule="evenodd" clip-rule="evenodd" fill="#B2B2B2" d="M7.42,3.011c0.001-0.641,0.521-1.16,1.161-1.159
		c0.64,0.001,1.161,0.525,1.156,1.164C9.734,3.663,9.216,4.174,8.566,4.172C7.935,4.169,7.418,3.647,7.42,3.011z"/>
	<path fill-rule="evenodd" clip-rule="evenodd" fill="#B2B2B2" d="M10.587,10.37c0.429,0.854,0.854,1.703,1.28,2.554
		c-0.344,0.172-0.687,0.347-1.03,0.521c-0.04-0.079-0.078-0.152-0.115-0.226c-0.219-0.437-0.438-0.873-0.657-1.308
		c-0.014-0.028-0.014-0.048,0.006-0.073c0.141-0.188,0.223-0.406,0.284-0.631C10.43,10.932,10.507,10.655,10.587,10.37z"/>
	<path fill-rule="evenodd" clip-rule="evenodd" fill="#B2B2B2" d="M13.216,2.434c0,0.319-0.263,0.582-0.581,0.581
		c-0.318,0-0.577-0.264-0.577-0.585c0-0.317,0.263-0.578,0.58-0.578S13.216,2.116,13.216,2.434z"/>
</g>
</svg>
