<?xml version="1.0" encoding="utf-8"?>
<!-- Generator: Adobe Illustrator 16.0.0, SVG Export Plug-In . SVG Version: 6.00 Build 0)  -->
<!DOCTYPE svg PUBLIC "-//W3C//DTD SVG 1.1//EN" "http://www.w3.org/Graphics/SVG/1.1/DTD/svg11.dtd">
<svg version="1.1" id="Layer_1" xmlns="http://www.w3.org/2000/svg" xmlns:xlink="http://www.w3.org/1999/xlink" x="0px" y="0px"
	 width="16px" height="16px" viewBox="0 0 16 16" enable-background="new 0 0 16 16" xml:space="preserve">
<g>
	<path fill-rule="evenodd" clip-rule="evenodd" fill="#B3B3B3" d="M13.756,10.928c-0.026,0.091-0.055,0.18-0.118,0.253
		c-0.135,0.153-0.306,0.222-0.504,0.173c-0.628-0.156-1.253-0.318-1.865-0.531c-0.082-0.029-0.162-0.063-0.244-0.095
		c-0.125-0.049-0.234-0.119-0.323-0.22c-0.202-0.229-0.4-0.46-0.602-0.689c-0.009-0.01-0.016-0.025-0.026-0.031
		c-0.024-0.014-0.051-0.032-0.075-0.032C9.96,9.758,9.951,9.793,9.948,9.826c-0.011,0.122-0.023,0.244-0.032,0.367
		c-0.014,0.193-0.024,0.388-0.033,0.582c-0.002,0.026,0.01,0.059,0.026,0.078c0.383,0.455,0.773,0.903,1.195,1.322
		c0.195,0.195,0.192,0.513,0.005,0.709c-0.193,0.201-0.508,0.221-0.709,0.028c-0.462-0.439-0.912-0.89-1.289-1.406
		c-0.097-0.133-0.196-0.27-0.227-0.434c-0.025-0.126-0.035-0.258-0.028-0.387c0.023-0.43,0.059-0.859,0.084-1.289
		c0.004-0.073-0.022-0.148-0.038-0.222C8.757,8.479,8.61,7.783,8.465,7.087c-0.009-0.045-0.029-0.05-0.066-0.054
		C8.067,6.995,7.744,6.929,7.434,6.801c-0.254-0.105-0.428-0.288-0.55-0.53C6.726,5.958,6.624,5.63,6.569,5.285
		c-0.018-0.108-0.031-0.218-0.04-0.329C6.519,4.838,6.508,4.719,6.59,4.602C6.086,4.888,5.591,4.66,5.387,4.326
		c-0.223-0.363-0.151-0.844,0.17-1.115C5.9,2.923,6.375,2.93,6.709,3.23c0.296,0.263,0.42,0.797,0.056,1.224
		c0.089-0.03,0.172-0.04,0.257-0.015c0.176,0.051,0.282,0.2,0.292,0.398c0.02,0.349,0.091,0.686,0.242,1.004
		C7.57,5.87,7.587,5.897,7.599,5.926c0.042,0.107,0.128,0.159,0.233,0.192c0.274,0.086,0.555,0.127,0.84,0.149
		c0.255,0.02,0.508-0.003,0.762-0.013c0.446-0.017,0.879,0.05,1.293,0.228c0.635,0.274,1.036,0.757,1.238,1.412
		c0.025,0.084,0.047,0.169,0.065,0.254c0.042,0.208-0.083,0.403-0.29,0.459c-0.197,0.054-0.406-0.059-0.472-0.259
		C11.212,8.176,11.165,8,11.103,7.829c-0.117-0.32-0.329-0.549-0.663-0.651c-0.01-0.003-0.02-0.006-0.037-0.009
		c0.018,0.107,0.035,0.21,0.053,0.313c0.068,0.394,0.137,0.785,0.206,1.179c0.019,0.105,0.035,0.21,0.055,0.315
		c0.005,0.021,0.018,0.045,0.033,0.063c0.193,0.223,0.389,0.442,0.581,0.665c0.056,0.064,0.122,0.105,0.199,0.129
		c0.463,0.137,0.925,0.274,1.388,0.409c0.151,0.045,0.305,0.077,0.456,0.12c0.202,0.059,0.328,0.193,0.373,0.4
		c0.002,0.006,0.006,0.012,0.01,0.018C13.756,10.829,13.756,10.878,13.756,10.928z"/>
	<path fill-rule="evenodd" clip-rule="evenodd" fill="#B3B3B3" d="M3.442,4.95C3.64,4.947,3.838,4.942,4.036,4.942
		C4.685,4.94,5.334,4.94,5.982,4.94c0.014,0,0.028,0,0.053,0C5.867,5.777,5.7,6.608,5.532,7.442C5.515,7.444,5.5,7.446,5.484,7.446
		C5.018,7.447,4.551,7.447,4.085,7.449c-0.042,0-0.056-0.013-0.066-0.053C3.832,6.595,3.642,5.794,3.452,4.993
		c-0.001-0.008-0.006-0.016-0.01-0.022C3.442,4.963,3.442,4.957,3.442,4.95z M5.623,6.294c-0.003-0.001-0.007-0.003-0.01-0.005
		C5.595,6.321,5.578,6.354,5.556,6.393c-0.063-0.123-0.122-0.236-0.179-0.35C5.372,6.034,5.37,6.019,5.374,6.01
		c0.059-0.117,0.118-0.232,0.182-0.357c0.047,0.092,0.09,0.173,0.136,0.262c0.042-0.118,0.063-0.225-0.018-0.326
		C5.663,5.576,5.66,5.557,5.649,5.542C5.63,5.516,5.636,5.494,5.65,5.466c0.06-0.113,0.117-0.227,0.175-0.34
		C5.832,5.113,5.837,5.098,5.845,5.08c-0.028,0-0.047,0.002-0.066-0.001C5.721,5.069,5.686,5.09,5.663,5.147
		C5.634,5.218,5.595,5.283,5.556,5.358C5.535,5.316,5.518,5.284,5.501,5.252c-0.029-0.057-0.046-0.133-0.093-0.16
		C5.36,5.062,5.283,5.083,5.219,5.078C5.179,5.075,5.16,5.09,5.144,5.126c-0.036,0.076-0.076,0.149-0.12,0.232
		c-0.03-0.059-0.061-0.104-0.077-0.155c-0.034-0.106-0.1-0.134-0.208-0.128C4.66,5.08,4.615,5.097,4.586,5.172
		C4.563,5.234,4.526,5.292,4.492,5.357c-0.021-0.04-0.037-0.072-0.053-0.103C4.408,5.198,4.389,5.12,4.342,5.092
		c-0.048-0.029-0.126-0.007-0.19-0.01C4.114,5.08,4.095,5.093,4.079,5.126c-0.036,0.076-0.077,0.149-0.12,0.232
		C3.915,5.271,3.876,5.195,3.836,5.12C3.829,5.106,3.815,5.086,3.803,5.085C3.761,5.081,3.719,5.083,3.668,5.083
		c0.07,0.136,0.136,0.262,0.198,0.389c0.009,0.018,0.008,0.046,0,0.065C3.842,5.593,3.812,5.646,3.784,5.702
		c-0.006,0.013-0.014,0.03-0.011,0.043C3.785,5.802,3.8,5.857,3.817,5.928C3.868,5.83,3.913,5.744,3.96,5.652
		c0.062,0.12,0.12,0.232,0.176,0.345C4.143,6.01,4.147,6.028,4.141,6.041C4.083,6.157,4.023,6.271,3.962,6.393
		C3.943,6.36,3.928,6.333,3.912,6.306c0.06,0.243,0.08,0.499,0.219,0.717c0.009,0.014,0.016,0.044,0.007,0.056
		c-0.05,0.069-0.017,0.137-0.002,0.205c0.002,0.01,0.013,0.023,0.021,0.024c0.009,0,0.021-0.011,0.026-0.02
		c0.015-0.023,0.028-0.05,0.04-0.072C4.25,7.25,4.269,7.292,4.299,7.307C4.333,7.321,4.38,7.31,4.43,7.31
		C4.404,7.259,4.387,7.214,4.36,7.177c-0.056-0.079-0.055-0.15-0.001-0.232c0.05-0.078,0.087-0.165,0.135-0.256
		c0.061,0.12,0.116,0.228,0.173,0.336c0.014,0.025,0.015,0.045,0,0.072C4.63,7.165,4.596,7.234,4.56,7.306
		C4.651,7.32,4.731,7.325,4.755,7.207c0.066,0.111,0.093,0.123,0.201,0.095C4.944,7.279,4.934,7.257,4.923,7.236
		C4.895,7.178,4.842,7.12,4.842,7.063c0.001-0.06,0.052-0.119,0.082-0.178c0.032-0.063,0.064-0.126,0.101-0.195
		c0.063,0.123,0.122,0.236,0.178,0.35c0.007,0.016,0.001,0.041-0.007,0.058C5.164,7.167,5.128,7.234,5.092,7.304
		c0.121,0.022,0.132,0.017,0.198-0.09c0.036,0.038,0.036,0.127,0.123,0.091C5.455,7.234,5.431,7.171,5.391,7.11
		C5.368,7.076,5.373,7.046,5.39,7.01c0.058-0.122,0.141-0.23,0.164-0.367C5.574,6.526,5.599,6.41,5.623,6.294z"/>
	<circle fill-rule="evenodd" clip-rule="evenodd" fill="#B3B3B3" cx="9.095" cy="5.11" r="1.02"/>
	<path fill-rule="evenodd" clip-rule="evenodd" fill="#B3B3B3" d="M4.226,5.134C4.163,5.256,4.104,5.37,4.046,5.484
		C4.041,5.495,4.039,5.513,4.044,5.522c0.059,0.117,0.12,0.233,0.182,0.354c0.063-0.121,0.123-0.235,0.181-0.351
		C4.412,5.515,4.41,5.494,4.404,5.481C4.347,5.368,4.288,5.255,4.226,5.134z M4.762,5.141C4.756,5.147,4.75,5.15,4.749,5.153
		c-0.057,0.111-0.115,0.221-0.17,0.332C4.572,5.498,4.577,5.522,4.584,5.537c0.043,0.089,0.088,0.175,0.133,0.262
		c0.012,0.023,0.025,0.046,0.042,0.077C4.822,5.754,4.88,5.643,4.936,5.53c0.006-0.012,0.008-0.032,0.003-0.043
		C4.881,5.372,4.822,5.257,4.762,5.141z M4.492,6.396C4.557,6.27,4.617,6.154,4.675,6.038c0.005-0.011,0-0.03-0.006-0.043
		C4.628,5.914,4.586,5.833,4.544,5.752C4.528,5.72,4.511,5.69,4.491,5.653C4.43,5.773,4.371,5.885,4.316,5.998
		c-0.007,0.014-0.007,0.038,0,0.052C4.372,6.162,4.43,6.274,4.492,6.396z M5.025,5.652c-0.022,0.042-0.042,0.08-0.061,0.116
		C4.922,5.852,4.879,5.936,4.837,6.02c0.042,0.086,0.084,0.171,0.127,0.258c0.019,0.038,0.039,0.074,0.062,0.118
		C5.087,6.275,5.145,6.164,5.2,6.051c0.007-0.015,0.008-0.039,0.001-0.053C5.145,5.884,5.086,5.771,5.025,5.652z M4.226,6.914
		c0.047-0.092,0.084-0.18,0.135-0.259c0.052-0.081,0.052-0.148,0-0.229C4.309,6.348,4.272,6.259,4.226,6.169
		C4.164,6.291,4.105,6.402,4.05,6.515C4.042,6.529,4.042,6.552,4.049,6.566C4.105,6.679,4.164,6.791,4.226,6.914z M4.759,6.169
		C4.723,6.24,4.692,6.298,4.662,6.357C4.631,6.417,4.576,6.478,4.577,6.539c0,0.063,0.055,0.125,0.086,0.187
		c0.03,0.061,0.062,0.121,0.096,0.188C4.822,6.79,4.88,6.677,4.938,6.563c0.006-0.012,0.006-0.032,0-0.043
		C4.881,6.406,4.822,6.292,4.759,6.169z M5.291,5.878c0.063-0.125,0.123-0.242,0.183-0.36c0.003-0.007,0.004-0.018,0-0.024
		c-0.06-0.118-0.12-0.235-0.183-0.36C5.229,5.255,5.17,5.368,5.114,5.481c-0.007,0.013-0.007,0.034,0,0.048
		C5.17,5.643,5.229,5.757,5.291,5.878z M5.291,6.914c0.063-0.125,0.123-0.24,0.181-0.354c0.004-0.01,0.005-0.025,0-0.035
		C5.414,6.409,5.354,6.292,5.291,6.169c-0.063,0.123-0.122,0.236-0.18,0.353C5.105,6.532,5.107,6.552,5.113,6.564
		C5.17,6.678,5.229,6.791,5.291,6.914z"/>
	<path fill-rule="evenodd" clip-rule="evenodd" fill="#B3B3B3" d="M4.226,5.134c0.063,0.121,0.122,0.234,0.179,0.348
		C4.41,5.494,4.412,5.515,4.406,5.526c-0.058,0.116-0.118,0.23-0.181,0.351C4.164,5.756,4.103,5.64,4.044,5.522
		c-0.005-0.01-0.003-0.028,0.002-0.039C4.104,5.37,4.163,5.256,4.226,5.134z"/>
	<path fill-rule="evenodd" clip-rule="evenodd" fill="#B3B3B3" d="M4.762,5.141c0.06,0.116,0.119,0.231,0.177,0.346
		C4.944,5.498,4.942,5.518,4.936,5.53C4.88,5.643,4.822,5.754,4.759,5.876c-0.017-0.031-0.03-0.054-0.042-0.077
		c-0.044-0.087-0.09-0.173-0.133-0.262C4.577,5.522,4.572,5.498,4.579,5.485c0.055-0.11,0.113-0.221,0.17-0.332
		C4.75,5.15,4.756,5.147,4.762,5.141z"/>
	<path fill-rule="evenodd" clip-rule="evenodd" fill="#B3B3B3" d="M5.025,5.652c0.061,0.119,0.12,0.232,0.176,0.346
		C5.208,6.012,5.208,6.036,5.2,6.051C5.145,6.164,5.087,6.275,5.025,6.396C5.002,6.351,4.983,6.315,4.964,6.277
		C4.921,6.191,4.879,6.106,4.837,6.02c0.042-0.084,0.085-0.168,0.128-0.252C4.984,5.731,5.003,5.694,5.025,5.652z"/>
	<path fill-rule="evenodd" clip-rule="evenodd" fill="#B3B3B3" d="M4.226,6.914C4.164,6.791,4.105,6.679,4.049,6.566
		C4.042,6.552,4.042,6.529,4.05,6.515c0.056-0.113,0.114-0.224,0.176-0.346c0.047,0.09,0.083,0.179,0.135,0.257
		c0.052,0.081,0.052,0.148,0,0.229C4.31,6.733,4.273,6.822,4.226,6.914z"/>
	<path fill-rule="evenodd" clip-rule="evenodd" fill="#B3B3B3" d="M5.291,5.878C5.229,5.757,5.17,5.643,5.113,5.529
		c-0.007-0.014-0.006-0.035,0-0.048C5.17,5.368,5.229,5.255,5.291,5.134c0.063,0.125,0.124,0.242,0.183,0.36
		c0.003,0.007,0.003,0.018,0,0.024C5.414,5.636,5.354,5.753,5.291,5.878z"/>
	<path fill-rule="evenodd" clip-rule="evenodd" fill="#B3B3B3" d="M5.291,6.914C5.229,6.791,5.17,6.678,5.113,6.564
		C5.107,6.552,5.105,6.532,5.111,6.521c0.058-0.116,0.117-0.23,0.18-0.353c0.063,0.124,0.123,0.24,0.181,0.355
		c0.004,0.009,0.004,0.024,0,0.035C5.414,6.674,5.354,6.789,5.291,6.914z"/>
</g>
</svg>
