<?xml version="1.0" encoding="utf-8"?>
<!-- Generator: Adobe Illustrator 16.0.0, SVG Export Plug-In . SVG Version: 6.00 Build 0)  -->
<!DOCTYPE svg PUBLIC "-//W3C//DTD SVG 1.1//EN" "http://www.w3.org/Graphics/SVG/1.1/DTD/svg11.dtd">
<svg version="1.1" id="Layer_1" xmlns="http://www.w3.org/2000/svg" xmlns:xlink="http://www.w3.org/1999/xlink" x="0px" y="0px"
	 width="16px" height="16px" viewBox="0 0 16 16" enable-background="new 0 0 16 16" xml:space="preserve">
<g>
	<path fill-rule="evenodd" clip-rule="evenodd" fill="#B2B2B2" d="M9.017,7.628c1.033-0.521,1.898-1.232,2.523-2.219
		c0.542-0.855,0.86-1.796,1.074-2.778c0.008-0.037-0.003-0.09,0.019-0.111c0.097-0.1,0.203-0.269,0.305-0.268
		c0.206,0.001,0.243,0.192,0.197,0.367c-0.137,0.519-0.252,1.046-0.435,1.548c-0.562,1.55-1.498,2.807-2.954,3.635
		c-0.03,0.017-0.054,0.045-0.067,0.095c0.322-0.139,0.645-0.279,0.968-0.416c0.506-0.214,0.908,0.023,0.959,0.567
		c0.088,0.929,0.175,1.857,0.257,2.786c0.044,0.508-0.246,0.896-0.687,0.935c-0.464,0.041-0.813-0.283-0.861-0.806
		c-0.049-0.542-0.093-1.085-0.143-1.671c-0.587,0.253-1.13,0.519-1.695,0.719c-0.378,0.133-0.551,0.364-0.666,0.732
		c-0.264,0.841-0.57,1.67-0.862,2.502c-0.159,0.452-0.521,0.667-0.932,0.561c-0.476-0.122-0.699-0.54-0.532-1.033
		c0.386-1.135,0.777-2.269,1.18-3.398c0.038-0.106,0.15-0.216,0.255-0.265c0.54-0.252,1.088-0.485,1.633-0.725
		c0.502-0.219,0.502-0.218,0.473-0.767L9.017,7.628z"/>
	<path fill-rule="evenodd" clip-rule="evenodd" fill="#B2B2B2" d="M9.024,7.618C8.25,7.951,7.476,8.283,6.651,8.637
		c-0.065-0.496-0.13-0.981-0.2-1.504c-0.56,0.15-1.102,0.294-1.643,0.443C4.388,7.691,4.333,7.678,4.096,7.314
		C3.722,6.743,3.351,6.17,2.984,5.594C2.755,5.233,2.82,4.861,3.136,4.659C3.458,4.452,3.813,4.541,4.05,4.897
		c0.304,0.455,0.602,0.914,0.915,1.391C5.693,6.038,6.417,5.79,7.14,5.541C7.203,5.52,7.265,5.489,7.33,5.475
		c0.806-0.179,1.455-0.567,1.931-1.273c0.337-0.5,0.771-0.933,1.156-1.401c0.27-0.328,0.631-0.403,0.935-0.182
		c0.301,0.221,0.342,0.628,0.072,0.97c-0.591,0.747-1.165,1.51-1.799,2.22C9.183,6.303,8.916,6.814,9.034,7.486
		C9.041,7.531,9.023,7.58,9.017,7.627C9.017,7.628,9.024,7.618,9.024,7.618z"/>
	<path fill-rule="evenodd" clip-rule="evenodd" fill="#B2B2B2" d="M8.244,3.536C8.231,4.263,7.68,4.804,6.956,4.799
		C6.23,4.794,5.671,4.217,5.684,3.486c0.013-0.701,0.598-1.262,1.309-1.254C7.7,2.24,8.256,2.819,8.244,3.536z"/>
	<path fill-rule="evenodd" clip-rule="evenodd" fill="#B2B2B2" d="M9.273,10.269c0,1.206,0.005,2.39-0.01,3.573
		c-0.001,0.082-0.139,0.223-0.22,0.228c-0.08,0.005-0.189-0.114-0.246-0.204c-0.04-0.063-0.018-0.168-0.018-0.255
		c-0.001-0.925,0-1.849,0-2.773C8.78,10.4,8.78,10.4,9.273,10.269z"/>
</g>
</svg>
