<?xml version="1.0" encoding="utf-8"?>
<!-- Generator: Adobe Illustrator 16.0.0, SVG Export Plug-In . SVG Version: 6.00 Build 0)  -->
<!DOCTYPE svg PUBLIC "-//W3C//DTD SVG 1.1//EN" "http://www.w3.org/Graphics/SVG/1.1/DTD/svg11.dtd">
<svg version="1.1" id="Layer_1" xmlns="http://www.w3.org/2000/svg" xmlns:xlink="http://www.w3.org/1999/xlink" x="0px" y="0px"
	 width="16px" height="16px" viewBox="0 0 16 16" enable-background="new 0 0 16 16" xml:space="preserve">
<path fill-rule="evenodd" clip-rule="evenodd" fill="#B2B2B2" d="M8.865,2.442c0.182,0.195,0.199,0.422,0.063,0.632
	c-0.239,0.37-0.468,0.76-0.771,1.073C7.591,4.731,6.975,5.265,6.379,5.819C6.253,5.937,6.125,6.051,6.003,6.162
	c0.63,0.62,1.324,0.319,2.025,0.193C7.559,5.733,7.533,5.169,7.945,4.703c0.319-0.361,0.727-0.473,1.183-0.348
	c0.469,0.13,0.756,0.448,0.827,0.935c0.021,0.149,0.073,0.23,0.223,0.277c0.069,0.022,0.111,0.131,0.166,0.2
	c-0.093,0.021-0.188,0.068-0.277,0.058C9.821,5.797,9.578,5.716,9.334,5.713C9.206,5.711,9.077,5.828,8.949,5.892
	c0,0.032,0,0.064,0,0.097c0.225,0.055,0.449,0.109,0.672,0.166C9.687,6.171,9.79,6.182,9.803,6.219
	C9.821,6.274,9.795,6.377,9.75,6.414C9.58,6.558,9.396,6.683,9.213,6.816c0.174,0.807,0.355,1.668,0.545,2.527
	c0.021,0.103,0.07,0.199,0.117,0.295c0.479,0.997,0.961,1.992,1.441,2.988c0.105,0.22,0.131,0.44-0.022,0.651
	c-0.133,0.186-0.316,0.252-0.538,0.225c-0.229-0.028-0.356-0.184-0.46-0.369c-0.433-0.772-0.866-1.545-1.299-2.317
	c-0.16-0.286-0.271-0.281-0.483-0.026c-0.152,0.185-0.175,0.349-0.102,0.577c0.157,0.49,0.282,0.991,0.415,1.489
	c0.066,0.243-0.023,0.44-0.217,0.583c-0.197,0.146-0.421,0.161-0.62,0.018c-0.106-0.076-0.204-0.198-0.249-0.32
	c-0.241-0.652-0.463-1.312-0.693-1.969c-0.076-0.217-0.046-0.415,0.082-0.607c0.149-0.226,0.277-0.466,0.436-0.686
	C7.69,9.7,7.716,9.53,7.656,9.327C7.6,9.132,7.567,8.93,7.521,8.719C7.28,8.745,7.052,8.763,6.827,8.796
	c-0.448,0.066-0.851-0.021-1.191-0.33C5.338,8.194,5.039,7.925,4.754,7.641C4.479,7.365,4.583,6.963,4.958,6.844
	C5.095,6.801,5.134,6.745,5.12,6.601C5.084,6.244,5.247,6.073,5.604,6.038c0.07-0.007,0.154-0.051,0.2-0.104
	c1.007-1.162,2.009-2.327,3.013-3.492C8.833,2.442,8.85,2.442,8.865,2.442z M8.793,6.139C8.765,6.227,8.742,6.3,8.721,6.368
	c0.321,0.223,0.486,0.228,0.73,0.022C9.238,6.31,9.031,6.23,8.793,6.139z M7.21,7.62C6.955,7.604,6.694,7.625,6.456,7.562
	c-0.238-0.063-0.453-0.211-0.7-0.332C6.155,7.721,6.628,7.853,7.21,7.62z"/>
</svg>
