<?xml version="1.0" encoding="utf-8"?>
<!-- Generator: Adobe Illustrator 16.0.0, SVG Export Plug-In . SVG Version: 6.00 Build 0)  -->
<!DOCTYPE svg PUBLIC "-//W3C//DTD SVG 1.1//EN" "http://www.w3.org/Graphics/SVG/1.1/DTD/svg11.dtd">
<svg version="1.1" id="Layer_1" xmlns="http://www.w3.org/2000/svg" xmlns:xlink="http://www.w3.org/1999/xlink" x="0px" y="0px"
	 width="16px" height="16px" viewBox="0 0 16 16" enable-background="new 0 0 16 16" xml:space="preserve">
<g>
	<path fill-rule="evenodd" clip-rule="evenodd" fill="#B2B2B2" d="M3.135,13.088h0.191c0.077-0.039,0.144-0.09,0.203-0.148
		c0.17-0.168,0.305-0.361,0.429-0.563c0.438-0.707,0.792-1.455,1.088-2.23c0.142-0.371,0.27-0.744,0.34-1.135
		c0.026-0.145,0.044-0.289,0-0.436c-0.005-0.016,0.002-0.038,0.01-0.055C5.482,8.33,5.57,8.139,5.657,7.948
		c0.026-0.056,0.052-0.112,0.081-0.174c0.174,0.085,0.345,0.164,0.512,0.251c0.126,0.066,0.246,0.144,0.369,0.218
		c0.038,0.022,0.055,0.057,0.041,0.101c-0.039,0.12-0.077,0.24-0.119,0.358C6.51,8.783,6.537,8.867,6.61,8.904
		c0.076,0.037,0.166,0.008,0.205-0.072c0.066-0.135,0.119-0.273,0.142-0.423C6.981,8.242,6.947,8.098,6.796,8
		c-0.087-0.057-0.17-0.121-0.262-0.166C6.167,7.653,5.797,7.475,5.425,7.302C5.182,7.188,4.934,7.082,4.673,7.014
		c-0.074-0.02-0.152-0.035-0.228-0.032c-0.11,0.003-0.19,0.075-0.26,0.154C4.088,7.247,4.019,7.376,3.961,7.51
		C3.92,7.604,3.951,7.689,4.034,7.726C4.116,7.76,4.195,7.722,4.239,7.634C4.28,7.552,4.321,7.468,4.372,7.393
		c0.093-0.137,0.08-0.135,0.226-0.083C4.867,7.404,5.13,7.516,5.395,7.621c0.021,0.008,0.04,0.02,0.06,0.029
		c-0.002,0.01-0.002,0.015-0.005,0.02c-0.111,0.245-0.223,0.49-0.335,0.734C5.108,8.417,5.094,8.427,5.081,8.436
		c-0.07,0.05-0.147,0.093-0.21,0.152c-0.168,0.158-0.298,0.35-0.42,0.545C4.05,9.775,3.724,10.455,3.44,11.156
		c-0.16,0.396-0.304,0.797-0.398,1.215c-0.023,0.1-0.037,0.203-0.056,0.305v0.166c0.005,0.02,0.011,0.037,0.015,0.057
		C3.02,12.982,3.062,13.045,3.135,13.088z M3.348,12.4c0.127-0.523,0.321-1.023,0.536-1.516c0.248-0.566,0.523-1.121,0.859-1.643
		C4.83,9.107,4.93,8.98,5.025,8.852c0.021-0.029,0.048-0.055,0.072-0.08c0.005,0,0.009,0,0.014,0.002
		c-0.006,0.053-0.009,0.107-0.019,0.16C5.038,9.25,4.941,9.555,4.831,9.855c-0.296,0.807-0.654,1.584-1.106,2.314
		c-0.096,0.156-0.208,0.303-0.315,0.453c-0.031,0.043-0.07,0.082-0.106,0.121c-0.007-0.002-0.014-0.004-0.021-0.008
		C3.304,12.625,3.321,12.512,3.348,12.4z"/>
	<path fill-rule="evenodd" clip-rule="evenodd" fill="#B2B2B2" d="M11.288,3.249c0.075,0.016,0.151,0.026,0.226,0.048
		c0.495,0.145,0.803,0.595,0.77,1.125c-0.029,0.478-0.41,0.888-0.898,0.968c-0.611,0.101-1.18-0.335-1.241-0.952
		c-0.06-0.594,0.364-1.115,0.959-1.179c0.013-0.001,0.025-0.006,0.038-0.009C11.189,3.249,11.238,3.249,11.288,3.249z"/>
	<path fill-rule="evenodd" clip-rule="evenodd" fill="#B2B2B2" d="M12.807,5.743c-0.007,0.069-0.013,0.137-0.02,0.206
		c-0.059,0.531-0.137,1.058-0.375,1.546c-0.131,0.266-0.283,0.519-0.473,0.748c-0.08,0.097-0.186,0.134-0.309,0.107
		c-0.225-0.051-0.311-0.313-0.165-0.494c0.227-0.281,0.399-0.593,0.519-0.934c0.077-0.218,0.112-0.445,0.146-0.672
		c0.039-0.249,0.076-0.498,0.061-0.75c-0.008-0.13,0.021-0.225,0.109-0.323c0.153-0.168,0.234-0.377,0.271-0.603
		c0.002-0.012,0.006-0.024,0.011-0.044c0.074,0.137,0.125,0.273,0.153,0.417c0.026,0.136,0.042,0.275,0.062,0.413
		c0.003,0.02,0.007,0.039,0.01,0.058C12.807,5.526,12.807,5.635,12.807,5.743z"/>
	<path fill-rule="evenodd" clip-rule="evenodd" fill="#B2B2B2" d="M2.987,12.842c0.005,0.02,0.011,0.037,0.015,0.057
		c0.021,0.098,0.072,0.17,0.172,0.211c-0.063,0-0.125,0-0.187,0C2.987,13.02,2.987,12.932,2.987,12.842z"/>
	<path fill-rule="evenodd" clip-rule="evenodd" fill="#B2B2B2" d="M9.594,7.637C9.296,7.516,9.003,7.398,8.707,7.28
		C8.734,7.195,8.764,7.103,8.796,7c0.127,0.045,0.253,0.084,0.376,0.135c0.506,0.207,1.004,0.43,1.486,0.689
		c0.088,0.047,0.169,0.105,0.254,0.159c0.16,0.1,0.205,0.248,0.176,0.426c-0.023,0.148-0.076,0.289-0.144,0.422
		c-0.04,0.078-0.125,0.105-0.202,0.068c-0.074-0.035-0.102-0.119-0.071-0.201c0.042-0.113,0.078-0.229,0.117-0.344
		c0.02-0.058-0.004-0.099-0.054-0.128c-0.114-0.067-0.227-0.139-0.344-0.201c-0.17-0.089-0.344-0.17-0.519-0.255
		C9.863,7.786,9.855,7.796,9.851,7.808C9.742,8.043,9.635,8.279,9.528,8.516C9.52,8.537,9.518,8.566,9.523,8.589
		C9.559,8.73,9.543,8.871,9.518,9.01c-0.08,0.434-0.227,0.85-0.389,1.258c-0.277,0.705-0.604,1.389-0.997,2.035
		c-0.139,0.23-0.287,0.453-0.481,0.641c-0.042,0.039-0.087,0.076-0.136,0.105c-0.18,0.113-0.357,0.027-0.386-0.184
		c-0.023-0.17,0.008-0.334,0.045-0.498c0.11-0.484,0.284-0.949,0.477-1.406c0.262-0.623,0.556-1.232,0.918-1.805
		c0.113-0.18,0.246-0.348,0.379-0.516c0.07-0.091,0.16-0.165,0.269-0.211c0.012-0.005,0.024-0.018,0.029-0.03
		C9.359,8.15,9.473,7.902,9.594,7.637z M9.25,8.77C9.244,8.768,9.237,8.766,9.23,8.764c-0.018,0.02-0.039,0.039-0.056,0.061
		c-0.123,0.172-0.254,0.34-0.366,0.518c-0.406,0.654-0.732,1.35-1.01,2.066c-0.145,0.369-0.273,0.742-0.351,1.131
		c-0.013,0.064-0.02,0.131-0.029,0.195c0.005,0.002,0.009,0.004,0.014,0.004c0.023-0.023,0.049-0.047,0.069-0.074
		c0.101-0.137,0.208-0.271,0.3-0.414c0.33-0.512,0.6-1.055,0.844-1.611c0.215-0.492,0.411-0.99,0.537-1.514
		C9.212,9.008,9.229,8.887,9.25,8.77z"/>
	<path fill-rule="evenodd" clip-rule="evenodd" fill="#B2B2B2" d="M8.154,4.337C8.153,4.934,7.672,5.411,7.073,5.409
		c-0.592-0.002-1.07-0.486-1.068-1.081C6.007,3.735,6.49,3.256,7.085,3.258C7.68,3.26,8.156,3.741,8.154,4.337z"/>
	<path fill-rule="evenodd" clip-rule="evenodd" fill="#B2B2B2" d="M8.449,4.533c0.098,0.188,0.154,0.376,0.187,0.572
		c0.06,0.354,0.043,0.708-0.005,1.06c-0.039,0.286-0.078,0.573-0.164,0.85c-0.139,0.453-0.357,0.863-0.656,1.23
		C7.729,8.345,7.621,8.385,7.494,8.354C7.378,8.325,7.302,8.249,7.272,8.132c-0.026-0.104,0-0.196,0.068-0.281
		C7.626,7.494,7.834,7.096,7.93,6.646c0.078-0.365,0.133-0.733,0.133-1.108c0.001-0.072-0.023-0.151-0.002-0.215
		c0.02-0.062,0.087-0.107,0.131-0.163C8.323,4.99,8.404,4.796,8.439,4.583C8.441,4.571,8.444,4.559,8.449,4.533z"/>
	<path fill-rule="evenodd" clip-rule="evenodd" fill="#B2B2B2" d="M9.439,12.018c-0.112-0.004-0.201-0.053-0.259-0.15
		c-0.06-0.104-0.06-0.213,0.003-0.314c0.064-0.105,0.135-0.205,0.201-0.311c0.02-0.031,0.037-0.064,0.05-0.1
		c0.218-0.609,0.435-1.221,0.652-1.83c0.055-0.154,0.197-0.238,0.347-0.209c0.153,0.029,0.258,0.158,0.251,0.313
		c-0.002,0.035-0.011,0.072-0.022,0.105c-0.232,0.645-0.465,1.289-0.697,1.934c-0.012,0.033-0.028,0.064-0.047,0.092
		c-0.072,0.111-0.145,0.223-0.219,0.334C9.639,11.973,9.551,12.016,9.439,12.018z"/>
	<path fill-rule="evenodd" clip-rule="evenodd" fill="#B2B2B2" d="M6.249,9.104c0.217,0.002,0.357,0.209,0.282,0.42
		c-0.113,0.316-0.228,0.633-0.342,0.949c-0.116,0.322-0.232,0.645-0.35,0.967c-0.017,0.047-0.04,0.09-0.065,0.131
		c-0.067,0.107-0.136,0.215-0.208,0.318c-0.073,0.105-0.177,0.15-0.304,0.129c-0.133-0.023-0.216-0.105-0.248-0.236
		c-0.019-0.08-0.004-0.156,0.04-0.227c0.032-0.053,0.064-0.104,0.1-0.152c0.096-0.129,0.159-0.273,0.212-0.426
		c0.193-0.553,0.392-1.104,0.588-1.654C6.004,9.182,6.111,9.104,6.249,9.104z"/>
	<path fill-rule="evenodd" clip-rule="evenodd" fill="#B2B2B2" d="M5.699,4.239c-0.01,0.245,0.02,0.475,0.143,0.704
		C5.771,5.009,5.692,5.074,5.624,5.148C5.235,5.566,4.899,6.022,4.61,6.515C4.548,6.622,4.455,6.68,4.332,6.677
		C4.215,6.674,4.124,6.618,4.069,6.513C4.014,6.406,4.021,6.299,4.086,6.199c0.172-0.266,0.34-0.535,0.523-0.793
		c0.278-0.39,0.594-0.749,0.957-1.063C5.604,4.31,5.642,4.279,5.68,4.249C5.683,4.246,5.688,4.244,5.699,4.239z"/>
	<path fill-rule="evenodd" clip-rule="evenodd" fill="#B2B2B2" d="M8.944,6.182c0.04-0.35,0.054-0.685,0.011-1.021
		C8.952,5.144,8.957,5.12,8.967,5.106C9.22,4.794,9.492,4.502,9.805,4.248c0.006-0.004,0.012-0.007,0.024-0.016
		C9.822,4.477,9.85,4.71,9.968,4.926C9.579,5.302,9.25,5.724,8.944,6.182z"/>
</g>
</svg>
