<?xml version="1.0" encoding="utf-8"?>
<!-- Generator: Adobe Illustrator 16.0.0, SVG Export Plug-In . SVG Version: 6.00 Build 0)  -->
<!DOCTYPE svg PUBLIC "-//W3C//DTD SVG 1.1//EN" "http://www.w3.org/Graphics/SVG/1.1/DTD/svg11.dtd">
<svg version="1.1" id="Layer_1" xmlns="http://www.w3.org/2000/svg" xmlns:xlink="http://www.w3.org/1999/xlink" x="0px" y="0px"
	 width="16px" height="16px" viewBox="0 0 16 16" enable-background="new 0 0 16 16" xml:space="preserve">
<g>
	<path fill-rule="evenodd" clip-rule="evenodd" fill="#B2B2B2" d="M8.088,6.943C7.89,6.827,7.686,6.824,7.477,6.852
		C7.084,6.904,6.722,7.057,6.354,7.194c-0.101,0.037-0.2,0.078-0.302,0.113C5.784,7.401,5.519,7.316,5.304,7.068
		C5.104,6.839,5.066,6.585,5.198,6.332c0.579-1.116,1.159-2.231,1.738-3.347c0.079-0.151,0.204-0.223,0.343-0.202
		c0.135,0.021,0.254,0.124,0.262,0.254c0.006,0.083-0.019,0.176-0.051,0.255C7.189,4.016,6.884,4.737,6.579,5.46
		C6.565,5.493,6.552,5.529,6.535,5.57c0.219-0.042,0.423-0.094,0.632-0.122c0.631-0.085,1.251-0.044,1.849,0.197
		c0.346,0.141,0.516,0.408,0.557,0.771c0.018,0.188-0.043,0.346-0.16,0.489c-0.48,0.579-0.954,1.16-1.43,1.74
		c-0.044,0.053-0.088,0.106-0.154,0.19c0.038,0.023,0.078,0.041,0.109,0.069c0.432,0.406,0.864,0.813,1.294,1.221
		c0.168,0.158,0.207,0.396,0.104,0.592c-0.104,0.2-0.318,0.309-0.541,0.254c-0.09-0.021-0.184-0.069-0.25-0.133
		C7.98,10.316,7.425,9.789,6.869,9.264c-0.258-0.243-0.273-0.5-0.049-0.771c0.388-0.474,0.777-0.946,1.166-1.42
		C8.019,7.031,8.051,6.99,8.088,6.943z"/>
	<path fill-rule="evenodd" clip-rule="evenodd" fill="#B2B2B2" d="M4.238,6.564c0.479,0.001,0.869,0.391,0.866,0.863
		C5.101,7.917,4.708,8.299,4.215,8.295C3.749,8.292,3.368,7.898,3.372,7.423C3.375,6.94,3.757,6.562,4.238,6.564z"/>
	<path fill-rule="evenodd" clip-rule="evenodd" fill="#B2B2B2" d="M12.629,10.286c0,0.179,0,0.346,0,0.493
		c-0.459,0.112-0.91,0.204-1.352,0.333c-0.84,0.245-1.635,0.604-2.385,1.061c-0.152,0.094-0.309,0.068-0.394-0.064
		c-0.085-0.137-0.044-0.289,0.113-0.383c1.089-0.659,2.253-1.125,3.505-1.368c0.143-0.028,0.287-0.049,0.432-0.069
		C12.572,10.283,12.594,10.286,12.629,10.286z"/>
</g>
</svg>
