<?xml version="1.0" encoding="utf-8"?>
<!-- Generator: Adobe Illustrator 16.0.0, SVG Export Plug-In . SVG Version: 6.00 Build 0)  -->
<!DOCTYPE svg PUBLIC "-//W3C//DTD SVG 1.1//EN" "http://www.w3.org/Graphics/SVG/1.1/DTD/svg11.dtd">
<svg version="1.1" id="Layer_1" xmlns="http://www.w3.org/2000/svg" xmlns:xlink="http://www.w3.org/1999/xlink" x="0px" y="0px"
	 width="16px" height="16px" viewBox="0 0 16 16" enable-background="new 0 0 16 16" xml:space="preserve">
<g>
	<path fill-rule="evenodd" clip-rule="evenodd" fill="#B2B2B2" d="M4.767,7.871c-0.175,0.041-0.304,0.142-0.36,0.302
		c-0.066,0.19-0.111,0.389-0.15,0.586c-0.072,0.365-0.216,0.68-0.56,0.873C3.275,9.869,3.023,9.59,2.923,9.264
		C2.912,9.225,2.937,9.155,2.969,9.126c0.35-0.313,0.576-0.706,0.739-1.137c0.164-0.433,0.499-0.604,0.925-0.623
		c0.232-0.01,0.441-0.017,0.653-0.155c0.27-0.176,0.602-0.182,0.918-0.202c0.08-0.006,0.16,0,0.241-0.002
		c0.146-0.004,0.273,0.01,0.376,0.142c0.055,0.072,0.158,0.117,0.248,0.147c0.383,0.125,0.769,0.241,1.155,0.361
		c0.02,0.004,0.038,0.014,0.072,0.027C8.25,7.861,8.208,8.038,8.158,8.214c-0.062,0.221-0.134,0.44-0.197,0.66
		C7.846,9.271,8.13,9.636,8.544,9.624C8.752,9.62,8.975,9.459,9.045,9.24C9.219,8.693,9.394,8.146,9.46,7.572
		c0.023-0.209-0.002-0.411-0.113-0.593C9.332,6.953,9.332,6.905,9.345,6.877c0.072-0.13,0.149-0.257,0.231-0.397
		C9.444,6.49,9.328,6.506,9.211,6.506C9.079,6.507,8.945,6.502,8.815,6.485C8.642,6.46,8.521,6.366,8.478,6.189
		C8.46,6.125,8.436,6.064,8.407,5.979C8.303,6.224,8.204,6.453,8.104,6.688c0.167,0.05,0.327,0.097,0.484,0.151
		c0.104,0.035,0.205,0.085,0.311,0.124c0.218,0.074,0.34,0.211,0.304,0.535C9.169,7.77,9.11,8.042,9.045,8.308
		c-0.07,0.277-0.157,0.549-0.248,0.818C8.724,9.349,8.476,9.425,8.3,9.289C8.19,9.205,8.156,9.075,8.198,8.922
		c0.107-0.378,0.213-0.757,0.315-1.135c0.025-0.091,0.037-0.184,0.058-0.291C8.436,7.45,8.303,7.401,8.169,7.358
		C7.823,7.254,7.474,7.157,7.132,7.041C6.89,6.959,6.816,6.784,6.87,6.537c0.137-0.616,0.434-1.138,0.877-1.586
		c0.316-0.318,0.637-0.213,0.929,0.018C8.79,5.06,8.767,5.211,8.795,5.338C8.839,5.531,8.878,5.726,8.914,5.92
		c0.011,0.063,0.037,0.092,0.104,0.086c0.159-0.012,0.32-0.013,0.479-0.036c0.127-0.018,0.235-0.015,0.328,0.102
		c0.023-0.037,0.045-0.068,0.066-0.098c0.291-0.416,0.58-0.834,0.877-1.247C10.86,4.599,10.941,4.61,11.02,4.75
		c0.054,0.096,0.104,0.199,0.134,0.305c0.021,0.075,0.056,0.117,0.118,0.158c0.563,0.373,1.094,0.785,1.528,1.307
		c0.086,0.105,0.163,0.218,0.237,0.331c0.101,0.151,0.017,0.454-0.151,0.523c-0.045,0.02-0.121,0.012-0.163-0.012
		c-0.14-0.083-0.287-0.116-0.45-0.108c-0.138,0.006-0.279-0.002-0.415-0.02c-0.194-0.021-0.359-0.108-0.479-0.268
		c-0.018-0.023-0.04-0.046-0.089-0.066c-0.014,0.132-0.029,0.264-0.045,0.396c-0.048,0.481-0.062,0.97-0.157,1.439
		c-0.083,0.4-0.258,0.778-0.397,1.164c-0.077,0.209-0.167,0.414-0.252,0.616c-0.047,0.108-0.059,0.214-0.035,0.326
		c0.091,0.458,0.179,0.915,0.268,1.373c0.033,0.167-0.004,0.271-0.128,0.295c-0.227,0.043-0.356,0.027-0.419-0.144
		c-0.198-0.527-0.403-1.052-0.586-1.583c-0.039-0.116-0.008-0.26,0.004-0.392c0.02-0.198,0.047-0.391,0.074-0.608
		C8.701,9.931,7.808,9.962,6.917,9.679C6.895,9.768,6.882,9.854,6.853,9.935c-0.06,0.162-0.118,0.325-0.196,0.48
		c-0.064,0.128-0.082,0.248-0.043,0.38c0.126,0.442,0.25,0.885,0.374,1.327c0.058,0.209-0.004,0.307-0.22,0.341
		c-0.015,0-0.028,0-0.042,0.004c-0.315,0.07-0.332-0.008-0.428-0.252c-0.174-0.442-0.373-0.877-0.522-1.331
		c-0.106-0.321-0.149-0.667-0.22-1.003C5.552,9.863,5.549,9.846,5.549,9.828C5.548,9.659,5.466,9.555,5.345,9.431
		C4.934,9.015,4.731,8.503,4.77,7.906C4.77,7.898,4.768,7.886,4.767,7.871z"/>
	<path fill-rule="evenodd" clip-rule="evenodd" fill="#B2B2B2" d="M4.981,9.461c0.087,0.08,0.177,0.151,0.254,0.237
		C5.265,9.729,5.271,9.783,5.279,9.83c0.047,0.271,0.094,0.542,0.139,0.813c0.006,0.031,0.011,0.07,0.002,0.101
		c-0.128,0.489-0.259,0.975-0.389,1.463c-0.05,0.183-0.13,0.233-0.314,0.187c-0.05-0.012-0.102-0.023-0.151-0.039
		c-0.191-0.051-0.233-0.116-0.197-0.307c0.054-0.291,0.109-0.582,0.161-0.873c0.098-0.551,0.198-1.102,0.417-1.62
		C4.961,9.52,4.974,9.484,4.981,9.461z"/>
	<path fill-rule="evenodd" clip-rule="evenodd" fill="#B2B2B2" d="M10.969,9.899c0.147,0.162,0.27,0.31,0.346,0.504
		c0.205,0.523,0.427,1.04,0.64,1.56c0.082,0.197,0.029,0.299-0.181,0.353c-0.04,0.012-0.081,0.02-0.122,0.031
		c-0.108,0.023-0.193-0.004-0.248-0.101c-0.229-0.396-0.462-0.788-0.675-1.188c-0.08-0.147-0.112-0.314-0.029-0.492
		C10.8,10.356,10.878,10.132,10.969,9.899z"/>
	<path fill-rule="evenodd" clip-rule="evenodd" fill="#B2B2B2" d="M8.855,3.469C9.221,3.466,9.512,3.753,9.514,4.12
		c0.002,0.363-0.295,0.662-0.654,0.66C8.501,4.778,8.208,4.486,8.206,4.13C8.204,3.76,8.487,3.472,8.855,3.469z"/>
</g>
</svg>
