<?xml version="1.0" encoding="utf-8"?>
<!-- Generator: Adobe Illustrator 16.0.0, SVG Export Plug-In . SVG Version: 6.00 Build 0)  -->
<!DOCTYPE svg PUBLIC "-//W3C//DTD SVG 1.1//EN" "http://www.w3.org/Graphics/SVG/1.1/DTD/svg11.dtd">
<svg version="1.1" id="Layer_1" xmlns="http://www.w3.org/2000/svg" xmlns:xlink="http://www.w3.org/1999/xlink" x="0px" y="0px"
	 width="16px" height="16px" viewBox="0 0 16 16" enable-background="new 0 0 16 16" xml:space="preserve">
<g>
	<path fill-rule="evenodd" clip-rule="evenodd" fill="#B2B2B2" d="M14.729,11.855c-0.474,0.65-1.265,0.75-1.901,0.237
		c-0.292-0.234-0.409-0.232-0.702,0.012c-0.489,0.41-1.177,0.412-1.67,0.006c-0.315-0.261-0.411-0.259-0.745,0.017
		c-0.479,0.394-1.23,0.376-1.669-0.04c-0.214-0.204-0.25-0.434-0.1-0.636c0.149-0.198,0.407-0.245,0.635-0.073
		c0.242,0.179,0.435,0.16,0.664-0.028c0.509-0.415,1.157-0.414,1.679-0.024c0.326,0.245,0.41,0.243,0.726,0.006
		c0.094-0.071,0.195-0.13,0.303-0.202c-1.071-2.107-1.929-4.271-1.972-6.72C9.861,4.486,9.78,4.535,9.706,4.592
		c-0.89,0.671-1.81,1.308-2.655,2.031C6.52,7.078,5.908,7.361,5.322,7.705C5.056,7.861,4.819,7.846,4.583,7.645
		C4.428,7.51,4.26,7.392,4.07,7.247C3.879,7.754,3.7,8.232,3.505,8.753c0.36,0,0.685,0,1.008,0c0.477,0,0.657,0.12,0.834,0.564
		c0.273,0.682,0.546,1.362,0.815,2.046c0.183,0.463,0.048,0.826-0.358,0.988c-0.368,0.146-0.712-0.044-0.896-0.501
		c-0.193-0.479-0.396-0.953-0.57-1.438c-0.078-0.22-0.175-0.309-0.422-0.3c-0.598,0.022-1.196,0.012-1.794,0.01
		C1.639,10.12,1.269,9.669,1.429,9.209c0.353-1.021,0.721-2.04,1.133-3.038C2.803,5.59,3.612,5.538,4.046,6
		C4.31,6.28,4.622,6.516,4.923,6.756C4.978,6.798,5.11,6.79,5.182,6.754c0.313-0.151,0.609-0.339,0.926-0.477
		c0.139-0.06,0.317-0.022,0.476-0.042C6.688,6.224,6.811,6.218,6.888,6.16c1.044-0.781,2.082-1.57,3.121-2.357
		c0.023-0.019,0.047-0.039,0.071-0.055c0.145-0.093,0.298-0.275,0.463-0.078c0.175,0.211-0.07,0.293-0.171,0.426
		c-0.086,0.115-0.176,0.267-0.174,0.4c0.021,1.417,0.348,2.776,0.854,4.089c0.296,0.768,0.663,1.506,0.995,2.259
		c0.071,0.16,0.151,0.248,0.357,0.217c0.35-0.051,0.67,0.066,0.938,0.296c0.212,0.181,0.404,0.201,0.64,0.028
		c0.299-0.22,0.525-0.138,0.746,0.23C14.729,11.696,14.729,11.775,14.729,11.855z"/>
	<path fill-rule="evenodd" clip-rule="evenodd" fill="#B2B2B2" d="M1.272,10.658c0.149-0.071,0.297-0.201,0.45-0.208
		c0.617-0.023,1.234-0.014,1.851-0.008c0.331,0.003,0.434,0.103,0.439,0.425c0.007,0.379,0.007,0.757-0.001,1.134
		c-0.005,0.302-0.114,0.401-0.423,0.402c-0.627,0.003-1.254,0.013-1.88-0.008c-0.147-0.005-0.291-0.117-0.436-0.182
		C1.272,11.696,1.272,11.179,1.272,10.658z"/>
	<path fill-rule="evenodd" clip-rule="evenodd" fill="#B2B2B2" d="M4.23,3.594C4.8,3.598,5.224,4.027,5.223,4.599
		C5.222,5.163,4.788,5.598,4.224,5.6C3.65,5.603,3.194,5.145,3.208,4.577C3.221,4.019,3.667,3.59,4.23,3.594z"/>
</g>
</svg>
