<?xml version="1.0" encoding="utf-8"?>
<!-- Generator: Adobe Illustrator 16.0.0, SVG Export Plug-In . SVG Version: 6.00 Build 0)  -->
<!DOCTYPE svg PUBLIC "-//W3C//DTD SVG 1.1//EN" "http://www.w3.org/Graphics/SVG/1.1/DTD/svg11.dtd">
<svg version="1.1" id="Layer_1" xmlns="http://www.w3.org/2000/svg" xmlns:xlink="http://www.w3.org/1999/xlink" x="0px" y="0px"
	 width="16px" height="16px" viewBox="0 0 16 16" enable-background="new 0 0 16 16" xml:space="preserve">
<g>
	<path fill-rule="evenodd" clip-rule="evenodd" fill="#B2B2B2" d="M5.751,6.063C5.66,5.866,5.57,5.691,5.495,5.51
		C5.351,5.169,4.973,5.042,4.684,5.244C4.465,5.397,4.399,5.68,4.525,5.931c0.178,0.354,0.371,0.7,0.633,1.009
		C4.892,7.323,4.729,7.751,4.602,8.2c0.272,0.177,0.542,0.352,0.813,0.528C5.609,8.855,5.806,8.98,5.996,9.116
		c0.13,0.093,0.24,0.207,0.257,0.379c0.006,0.059,0,0.125-0.016,0.184c-0.251,0.893-0.504,1.785-0.758,2.68
		c-0.076,0.264-0.307,0.404-0.567,0.348c-0.236-0.051-0.397-0.301-0.347-0.557c0.121-0.611,0.248-1.221,0.372-1.832
		c0.035-0.168,0.068-0.34,0.106-0.508c0.013-0.055-0.004-0.08-0.054-0.105C4.464,9.446,3.944,9.178,3.417,8.926
		c-0.419-0.201-0.549-0.552-0.5-0.979c0.064-0.551,0.297-1.041,0.576-1.507c0.243-0.407,0.51-0.8,0.782-1.188
		c0.204-0.292,0.499-0.41,0.848-0.328c0.353,0.083,0.601,0.296,0.69,0.659C5.853,5.738,5.834,5.893,5.751,6.063z"/>
	<path fill-rule="evenodd" clip-rule="evenodd" fill="#B2B2B2" d="M12.647,5.334c-0.173-0.099-0.349-0.189-0.515-0.294
		c-0.273-0.174-0.607-0.046-0.735,0.207c-0.146,0.285-0.045,0.591,0.245,0.735c0.171,0.086,0.345,0.17,0.512,0.264
		c0.387,0.218,0.682,0.527,0.885,0.92c0.034,0.069,0.039,0.156,0.045,0.235c0.023,0.362,0.023,0.723-0.104,1.069
		c-0.113,0.305-0.32,0.496-0.648,0.563c-0.612,0.126-1.223,0.266-1.834,0.397c-0.059,0.014-0.074,0.039-0.076,0.1
		c-0.016,0.752-0.033,1.502-0.052,2.254c-0.007,0.234-0.137,0.416-0.345,0.484c-0.32,0.105-0.592-0.096-0.602-0.432
		c-0.021-0.715-0.048-1.432-0.072-2.148c-0.008-0.197-0.016-0.396-0.02-0.594C9.327,8.922,9.392,8.77,9.542,8.688
		c0.186-0.103,0.383-0.186,0.582-0.262c0.384-0.148,0.771-0.286,1.159-0.423c0.067-0.024,0.082-0.058,0.084-0.123
		c0.021-0.606-0.096-1.192-0.251-1.772c-0.036-0.134-0.066-0.269-0.109-0.4c-0.144-0.446,0.136-0.826,0.508-0.954
		c0.502-0.174,0.99,0.065,1.132,0.558C12.649,5.318,12.647,5.326,12.647,5.334z"/>
	<path fill-rule="evenodd" clip-rule="evenodd" fill="#B2B2B2" d="M2.961,8.813C3.335,9.132,3.802,9.28,4.222,9.511
		C4.279,9.54,4.299,9.569,4.296,9.634c-0.011,0.303-0.005,0.607-0.027,0.91c-0.012,0.16-0.063,0.318-0.107,0.475
		c-0.209,0.744-0.421,1.49-0.634,2.234c-0.072,0.252-0.282,0.387-0.538,0.35c-0.22-0.033-0.391-0.232-0.374-0.48
		c0.014-0.199,0.062-0.395,0.102-0.592c0.125-0.615,0.253-1.23,0.379-1.846c0.004-0.021,0.006-0.043,0.005-0.064
		c-0.028-0.377-0.059-0.752-0.088-1.127C2.996,9.267,2.979,9.039,2.961,8.813z"/>
	<path fill-rule="evenodd" clip-rule="evenodd" fill="#B2B2B2" d="M12.706,9.104c-0.057,0.179-0.114,0.36-0.173,0.542
		c-0.122,0.383-0.254,0.762-0.361,1.146c-0.035,0.121-0.011,0.264-0.001,0.393c0.027,0.357,0.062,0.715,0.092,1.07
		c0.025,0.279,0.045,0.557,0.074,0.836c0.025,0.232-0.178,0.492-0.41,0.514c-0.275,0.025-0.508-0.168-0.529-0.424
		c-0.037-0.436-0.082-0.869-0.124-1.305c-0.035-0.361-0.057-0.725-0.107-1.084c-0.063-0.428,0.006-0.85,0.031-1.271
		c0.003-0.051,0.018-0.068,0.069-0.078c0.33-0.061,0.661-0.119,0.989-0.19C12.406,9.219,12.553,9.156,12.706,9.104z"/>
	<path fill-rule="evenodd" clip-rule="evenodd" fill="#B2B2B2" d="M7.502,13.542c-0.548,0-0.989-0.443-0.989-0.99
		c0-0.541,0.448-0.986,0.993-0.986c0.543,0.002,0.989,0.447,0.988,0.992C8.494,13.103,8.049,13.542,7.502,13.542z"/>
	<path fill-rule="evenodd" clip-rule="evenodd" fill="#B2B2B2" d="M5.364,4.304c0-0.549,0.437-0.985,0.987-0.986
		c0.546,0,0.989,0.44,0.989,0.988c0,0.545-0.443,0.987-0.99,0.987C5.803,5.292,5.364,4.852,5.364,4.304z"/>
	<path fill-rule="evenodd" clip-rule="evenodd" fill="#B2B2B2" d="M11.974,3.723c-0.005,0.557-0.447,0.988-1.009,0.983
		C10.429,4.7,9.994,4.25,9.998,3.705c0.003-0.542,0.451-0.978,1.001-0.974C11.542,2.734,11.978,3.179,11.974,3.723z"/>
	<path fill-rule="evenodd" clip-rule="evenodd" fill="#B2B2B2" d="M5.005,5.321c0.151,0,0.258,0.09,0.335,0.251
		C5.455,5.812,5.57,6.052,5.707,6.278c0.217,0.36,0.534,0.621,0.902,0.814C6.925,7.259,7.25,7.409,7.57,7.566
		C7.765,7.663,7.806,7.883,7.656,8.04C7.576,8.124,7.474,8.16,7.368,8.11c-0.587-0.271-1.193-0.51-1.707-0.916
		c-0.376-0.297-0.641-0.682-0.864-1.1c-0.041-0.076-0.073-0.158-0.121-0.23C4.514,5.618,4.722,5.315,5.005,5.321z"/>
	<path fill-rule="evenodd" clip-rule="evenodd" fill="#B2B2B2" d="M11.862,5.12c0.042,0.012,0.086,0.016,0.123,0.035
		c0.356,0.186,0.701,0.389,1.004,0.659c0.307,0.273,0.54,0.602,0.715,0.969c0.178,0.372,0.341,0.75,0.507,1.126
		c0.047,0.105,0.036,0.208-0.044,0.295c-0.087,0.095-0.196,0.126-0.318,0.095c-0.094-0.023-0.146-0.097-0.184-0.182
		c-0.109-0.25-0.226-0.499-0.331-0.75c-0.308-0.731-0.854-1.214-1.574-1.518c-0.051-0.022-0.103-0.051-0.144-0.088
		c-0.119-0.103-0.147-0.24-0.09-0.391C11.584,5.22,11.711,5.128,11.862,5.12z"/>
	<path fill-rule="evenodd" clip-rule="evenodd" fill="#B2B2B2" d="M11.092,6.685C11.12,6.849,11.15,7,11.169,7.153
		c0.023,0.193,0.023,0.206-0.162,0.264c-0.448,0.14-0.9,0.27-1.352,0.4C9.594,7.835,9.526,7.849,9.464,7.841
		C9.333,7.823,9.239,7.705,9.231,7.566C9.224,7.421,9.294,7.314,9.437,7.274c0.219-0.062,0.439-0.116,0.658-0.179
		C10.436,6.998,10.772,6.887,11.092,6.685z"/>
	<path fill-rule="evenodd" clip-rule="evenodd" fill="#B2B2B2" d="M5.099,7.391C5.345,7.568,5.592,7.74,5.831,7.922
		c0.12,0.091,0.124,0.259,0.025,0.387C5.76,8.436,5.6,8.464,5.467,8.373C5.31,8.266,5.156,8.155,5.002,8.044
		C4.831,7.921,4.83,7.919,4.916,7.729C4.96,7.63,5.014,7.536,5.064,7.44C5.072,7.424,5.085,7.409,5.099,7.391z"/>
</g>
</svg>
