<?xml version="1.0" encoding="utf-8"?>
<!-- Generator: Adobe Illustrator 16.0.0, SVG Export Plug-In . SVG Version: 6.00 Build 0)  -->
<!DOCTYPE svg PUBLIC "-//W3C//DTD SVG 1.1//EN" "http://www.w3.org/Graphics/SVG/1.1/DTD/svg11.dtd">
<svg version="1.1" id="Layer_1" xmlns="http://www.w3.org/2000/svg" xmlns:xlink="http://www.w3.org/1999/xlink" x="0px" y="0px"
	 width="16px" height="16px" viewBox="0 0 16 16" enable-background="new 0 0 16 16" xml:space="preserve">
<g>
	<path fill-rule="evenodd" clip-rule="evenodd" fill="#B2B2B2" d="M8.721,7.302c0.004,0.001,0.009,0.003,0.011,0.003
		c0,0.018,0,0.036,0,0.052c0,0.312,0.002,0.621,0,0.931c0,0.087,0.02,0.167,0.06,0.242c0.171,0.315,0.341,0.636,0.51,0.953
		c0.106,0.199,0.211,0.4,0.321,0.6c0.093,0.168,0.281,0.249,0.459,0.206c0.271-0.065,0.405-0.354,0.277-0.6
		c-0.252-0.479-0.51-0.958-0.764-1.438C9.579,8.223,9.571,8.188,9.57,8.157C9.568,7.686,9.574,7.214,9.568,6.744
		C9.562,6.193,9.343,5.741,8.904,5.406c-0.672-0.512-1.35-1.016-2.025-1.523C6.606,3.679,6.333,3.475,6.062,3.27
		C5.967,3.197,5.859,3.158,5.741,3.181C5.683,3.191,5.639,3.18,5.596,3.146c-0.01-0.008-0.021-0.013-0.032-0.019
		C5.338,3.001,5.1,2.92,4.835,2.958C4.601,2.991,4.433,3.115,4.351,3.343C4.28,3.547,4.304,3.752,4.376,3.951
		c0.139,0.39,0.398,0.683,0.749,0.896C5.335,4.975,5.563,5.054,5.814,5.04c0.244-0.014,0.43-0.121,0.533-0.352
		C6.364,4.65,6.376,4.61,6.391,4.566C6.817,4.885,7.24,5.202,7.664,5.52C7.655,5.53,7.652,5.536,7.648,5.54
		C7.426,5.786,7.205,6.032,6.984,6.278c-0.31,0.345-0.623,0.685-0.929,1.032C5.714,7.697,5.71,8.275,6.042,8.666
		c0.101,0.117,0.212,0.225,0.318,0.337c0.499,0.532,0.998,1.067,1.499,1.598c0.024,0.026,0.033,0.052,0.033,0.087
		c0,0.295,0,0.592,0,0.888c0,0.409-0.002,0.819,0,1.229c0.001,0.299,0.262,0.499,0.539,0.418c0.188-0.056,0.3-0.218,0.3-0.435
		c0-0.773,0-1.547,0-2.32c0-0.146-0.031-0.285-0.099-0.416C8.361,9.525,8.09,9.001,7.818,8.474C7.804,8.448,7.801,8.43,7.823,8.402
		C8.057,8.118,8.287,7.834,8.519,7.55C8.586,7.468,8.653,7.385,8.721,7.302z M10.616,3.597C10.04,3.596,9.568,4.067,9.57,4.644
		c0,0.576,0.467,1.046,1.042,1.048c0.567,0.002,1.043-0.466,1.053-1.02C11.675,4.101,11.223,3.6,10.616,3.597z M6.515,10.402
		c-0.009,0.016-0.018,0.029-0.024,0.046c-0.088,0.179-0.177,0.359-0.265,0.54c-0.269,0.549-0.538,1.097-0.807,1.646
		c-0.114,0.234,0.018,0.519,0.271,0.585c0.203,0.052,0.395-0.039,0.492-0.24c0.31-0.631,0.619-1.263,0.929-1.894
		c0.012-0.027,0.01-0.043-0.01-0.063c-0.169-0.18-0.338-0.361-0.507-0.54C6.57,10.453,6.544,10.43,6.515,10.402z"/>
	<path fill-rule="evenodd" clip-rule="evenodd" fill="#B2B2B2" d="M8.721,7.302C8.653,7.385,8.586,7.468,8.519,7.55
		C8.287,7.834,8.057,8.118,7.823,8.402C7.801,8.43,7.804,8.448,7.818,8.474c0.272,0.527,0.543,1.051,0.815,1.577
		c0.067,0.131,0.099,0.271,0.099,0.416c0,0.773,0,1.547,0,2.32c0,0.217-0.112,0.379-0.3,0.435c-0.277,0.081-0.538-0.119-0.539-0.418
		c-0.002-0.409,0-0.819,0-1.229c0-0.296,0-0.593,0-0.888c0-0.035-0.009-0.061-0.033-0.087c-0.5-0.53-1-1.065-1.499-1.598
		c-0.106-0.112-0.218-0.22-0.318-0.337C5.71,8.275,5.714,7.697,6.055,7.311c0.306-0.347,0.619-0.688,0.929-1.032
		C7.205,6.032,7.426,5.786,7.648,5.54c0.004-0.004,0.007-0.01,0.015-0.02C7.24,5.202,6.817,4.885,6.391,4.566
		C6.376,4.61,6.364,4.65,6.347,4.688c-0.104,0.23-0.29,0.337-0.533,0.352C5.563,5.054,5.335,4.975,5.125,4.847
		C4.774,4.633,4.515,4.34,4.376,3.951C4.304,3.752,4.28,3.547,4.351,3.343c0.082-0.228,0.25-0.352,0.484-0.384
		C5.1,2.92,5.338,3.001,5.564,3.127c0.011,0.006,0.022,0.011,0.032,0.019C5.639,3.18,5.683,3.191,5.741,3.181
		C5.859,3.158,5.967,3.197,6.062,3.27c0.271,0.205,0.544,0.409,0.817,0.613c0.675,0.507,1.353,1.011,2.025,1.523
		c0.438,0.334,0.657,0.787,0.664,1.338c0.006,0.47,0,0.941,0.002,1.413c0.001,0.032,0.009,0.066,0.024,0.095
		c0.254,0.479,0.512,0.958,0.764,1.438c0.128,0.246-0.007,0.534-0.277,0.6c-0.178,0.043-0.366-0.038-0.459-0.206
		c-0.11-0.199-0.215-0.4-0.321-0.6C9.132,9.166,8.962,8.846,8.791,8.53c-0.04-0.076-0.06-0.155-0.06-0.242
		c0.002-0.31,0-0.619,0-0.931c0-0.017,0-0.034,0-0.052C8.729,7.305,8.725,7.304,8.721,7.302z"/>
	<path fill-rule="evenodd" clip-rule="evenodd" fill="#B2B2B2" d="M10.616,3.597c0.606,0.003,1.059,0.504,1.049,1.075
		c-0.01,0.554-0.485,1.022-1.053,1.02C10.037,5.69,9.57,5.22,9.57,4.644C9.568,4.067,10.04,3.596,10.616,3.597z"/>
	<path fill-rule="evenodd" clip-rule="evenodd" fill="#B2B2B2" d="M6.515,10.402c0.029,0.027,0.055,0.051,0.08,0.079
		c0.169,0.179,0.338,0.36,0.507,0.54c0.02,0.021,0.022,0.036,0.01,0.063c-0.31,0.631-0.619,1.263-0.929,1.894
		c-0.098,0.201-0.29,0.292-0.492,0.24c-0.253-0.066-0.386-0.351-0.271-0.585c0.269-0.549,0.538-1.097,0.807-1.646
		c0.088-0.181,0.176-0.361,0.265-0.54C6.498,10.432,6.506,10.418,6.515,10.402z"/>
</g>
</svg>
