<?xml version="1.0" encoding="utf-8"?>
<!-- Generator: Adobe Illustrator 16.0.0, SVG Export Plug-In . SVG Version: 6.00 Build 0)  -->
<!DOCTYPE svg PUBLIC "-//W3C//DTD SVG 1.1//EN" "http://www.w3.org/Graphics/SVG/1.1/DTD/svg11.dtd">
<svg version="1.1" id="Layer_1" xmlns="http://www.w3.org/2000/svg" xmlns:xlink="http://www.w3.org/1999/xlink" x="0px" y="0px"
	 width="16px" height="16px" viewBox="0 0 16 16" enable-background="new 0 0 16 16" xml:space="preserve">
<g>
	<path fill-rule="evenodd" clip-rule="evenodd" fill="#B2B2B2" d="M14.044,10.838c-0.158,0.287-0.318,0.574-0.474,0.863
		c-0.07,0.129-0.162,0.189-0.32,0.183c-0.305-0.015-0.611-0.005-0.952-0.005c0.149,0.502,0.292,0.986,0.446,1.505
		c-0.262,0-0.494,0.01-0.725-0.009c-0.051-0.005-0.115-0.108-0.138-0.178c-0.138-0.434-0.267-0.869-0.402-1.318
		c-0.803,0-1.596,0.001-2.389,0c-1.431,0-2.861,0.008-4.292-0.006c-0.229-0.002-0.312,0.076-0.366,0.28
		c-0.108,0.408-0.242,0.81-0.366,1.219c-0.267,0-0.523,0-0.808,0c0.148-0.497,0.292-0.976,0.446-1.493
		c-0.328,0-0.63-0.01-0.931,0.005c-0.174,0.009-0.278-0.053-0.356-0.203c-0.148-0.284-0.307-0.563-0.461-0.843
		c0-0.048,0-0.096,0-0.143c0.118-0.045,0.235-0.128,0.354-0.129c0.848-0.012,1.696-0.006,2.58-0.006c0-0.153,0-0.291,0-0.429
		c0-0.17,0.095-0.281,0.252-0.282c0.16-0.002,0.251,0.113,0.253,0.281c0.001,0.133,0,0.266,0,0.413c1.735,0,3.453,0,5.208,0
		c0-0.134-0.001-0.271,0-0.408c0.001-0.168,0.085-0.278,0.252-0.279c0.169-0.001,0.253,0.108,0.255,0.276
		c0.002,0.132,0,0.264,0,0.426c0.162,0,0.31,0,0.457,0c0.715,0,1.43-0.005,2.146,0.008c0.11,0.002,0.22,0.084,0.33,0.129
		C14.044,10.742,14.044,10.79,14.044,10.838z"/>
	<path fill-rule="evenodd" clip-rule="evenodd" fill="#B2B2B2" d="M7.242,5.61C7.71,5.999,8.178,6.388,8.659,6.787
		c0.335-0.422,0.612-0.814,0.935-1.167c0.633-0.698,1.283-1.381,1.943-2.054c0.273-0.279,0.648-0.248,0.868,0.026
		c0.204,0.253,0.167,0.568-0.108,0.816c-1.074,0.968-1.986,2.078-2.84,3.241C9.425,7.693,9.396,7.739,9.335,7.826
		C9.623,7.89,9.883,7.972,10.147,8c0.843,0.091,1.688,0.168,2.534,0.237c0.364,0.029,0.61,0.246,0.605,0.581
		c-0.004,0.324-0.249,0.557-0.602,0.555c-1.752-0.014-3.473-0.227-5.083-0.954c-0.624-0.282-1.186-0.7-1.775-1.058
		C5.75,7.313,5.682,7.25,5.549,7.149C5.498,7.557,5.43,7.91,5.416,8.265C5.4,8.633,5.437,9.002,5.449,9.371
		c0.009,0.266-0.102,0.42-0.316,0.441c-0.22,0.021-0.382-0.104-0.408-0.359C4.633,8.557,4.621,7.661,4.938,6.799
		c0.073-0.2,0.199-0.393,0.341-0.553c0.307-0.348,0.635-0.677,0.965-1.003C6.335,5.151,6.456,5.078,6.576,5.03
		c0.965-0.385,1.959-0.672,2.979-0.87c0.255-0.05,0.442,0.056,0.491,0.277c0.047,0.212-0.096,0.384-0.346,0.446
		C8.888,5.086,8.076,5.295,7.263,5.501C7.256,5.538,7.249,5.574,7.242,5.61z"/>
	<path fill-rule="evenodd" clip-rule="evenodd" fill="#B2B2B2" d="M5.034,5.738C4.487,5.736,4.041,5.287,4.05,4.746
		c0.009-0.533,0.451-0.974,0.982-0.978C5.575,3.765,6.02,4.209,6.02,4.756C6.02,5.311,5.589,5.74,5.034,5.738z"/>
</g>
</svg>
