<?xml version="1.0" encoding="utf-8"?>
<!-- Generator: Adobe Illustrator 16.0.0, SVG Export Plug-In . SVG Version: 6.00 Build 0)  -->
<!DOCTYPE svg PUBLIC "-//W3C//DTD SVG 1.1//EN" "http://www.w3.org/Graphics/SVG/1.1/DTD/svg11.dtd">
<svg version="1.1" id="Layer_1" xmlns="http://www.w3.org/2000/svg" xmlns:xlink="http://www.w3.org/1999/xlink" x="0px" y="0px"
	 width="16px" height="16px" viewBox="0 0 16 16" enable-background="new 0 0 16 16" xml:space="preserve">
<g>
	<path fill-rule="evenodd" clip-rule="evenodd" fill="#B2B2B2" d="M0.966,10.761c0.097-0.215,0.277-0.319,0.491-0.401
		c0.575-0.216,1.146-0.452,1.721-0.673c0.135-0.053,0.26-0.098,0.23-0.298c0.34,0.088,0.662,0.169,0.979,0.25
		c0.039,0.438-0.121,0.709-0.512,0.862c-0.691,0.277-1.385,0.547-2.077,0.823c-0.424,0.168-0.613,0.104-0.832-0.289
		C0.966,10.943,0.966,10.853,0.966,10.761z"/>
	<path fill-rule="evenodd" clip-rule="evenodd" fill="#B2B2B2" d="M7.235,7.566c-0.132-0.15-0.25-0.285-0.367-0.419
		C6.686,6.939,6.438,6.903,6.251,7.06C6.063,7.217,6.06,7.468,6.242,7.68c0.096,0.11,0.19,0.218,0.298,0.344
		C6.301,8.088,6.077,8.129,5.864,8.206c-0.389,0.14-0.772,0.3-1.158,0.452C4.614,8.694,4.571,8.762,4.556,8.866
		C4.529,9.069,4.48,9.269,4.438,9.49C4.11,9.405,3.79,9.324,3.452,9.238c0.047-0.249,0.093-0.495,0.137-0.739
		c0.037-0.194,0.075-0.387,0.104-0.582c0.038-0.25,0.189-0.421,0.388-0.556c0.671-0.451,1.411-0.704,2.217-0.767
		C6.711,6.561,7.11,6.79,7.249,7.134C7.303,7.27,7.313,7.406,7.235,7.566z"/>
	<path fill-rule="evenodd" clip-rule="evenodd" fill="#B2B2B2" d="M5.777,9.208C5.437,9.119,5.109,9.036,4.784,8.949
		C4.745,8.938,4.68,8.904,4.681,8.89c0.006-0.044,0.033-0.1,0.067-0.119c0.411-0.247,0.862-0.408,1.328-0.5
		c0.404-0.078,0.736,0.251,0.72,0.661c-0.029,0.666-0.061,1.333-0.088,2.001c-0.013,0.31-0.23,0.533-0.516,0.521
		c-0.304-0.011-0.501-0.252-0.484-0.579c0.026-0.511,0.047-1.021,0.068-1.533C5.78,9.3,5.777,9.259,5.777,9.208z"/>
	<path fill-rule="evenodd" clip-rule="evenodd" fill="#B2B2B2" d="M6.577,7.045c0.044,0.03,0.146,0.074,0.215,0.149
		c0.295,0.324,0.579,0.659,0.871,0.987c0.05,0.056,0.114,0.106,0.181,0.141c0.548,0.292,1.1,0.579,1.646,0.871
		c0.146,0.077,0.209,0.204,0.184,0.351C9.652,9.679,9.539,9.796,9.395,9.806C9.322,9.812,9.238,9.795,9.174,9.761
		C8.586,9.456,8,9.146,7.416,8.836C7.364,8.809,7.313,8.772,7.275,8.729C6.94,8.353,6.61,7.975,6.28,7.595
		C6.188,7.489,6.158,7.368,6.221,7.239C6.277,7.119,6.375,7.049,6.577,7.045z"/>
	<path fill-rule="evenodd" clip-rule="evenodd" fill="#B2B2B2" d="M8.09,5.596c0.508,0,0.924,0.408,0.924,0.909
		C9.012,7.008,8.597,7.42,8.093,7.419C7.588,7.418,7.177,7.006,7.18,6.501C7.183,6.003,7.591,5.596,8.09,5.596z"/>
	<path fill-rule="evenodd" clip-rule="evenodd" fill="#B2B2B2" d="M10.441,10.126c0.016-0.048,0.029-0.086,0.045-0.124
		c0.008-0.023,0.021-0.049,0.039-0.087c0.293,0.105,0.584,0.207,0.873,0.314c0.729,0.271,1.455,0.546,2.18,0.82
		c0.014,0.005,0.025,0.012,0.039,0.012c0.064,0.009,0.129,0.015,0.195,0.022c-0.012-0.061-0.018-0.121-0.033-0.179
		c-0.025-0.091,0.018-0.15,0.09-0.193c0.082-0.049,0.156-0.034,0.223,0.033c0.123,0.123,0.145,0.279,0.066,0.468
		c-0.074,0.175-0.209,0.268-0.398,0.252c-0.107-0.01-0.219-0.033-0.32-0.073c-0.986-0.409-1.971-0.823-2.957-1.236
		C10.471,10.151,10.461,10.141,10.441,10.126z"/>
	<circle fill-rule="evenodd" clip-rule="evenodd" fill="#B2B2B2" cx="14.803" cy="11.268" r="0.232"/>
	<path fill-rule="evenodd" clip-rule="evenodd" fill="#B2B2B2" d="M10.424,9.878c-0.033,0.08-0.057,0.143-0.088,0.217
		c-0.238-0.098-0.467-0.191-0.705-0.29c0.041-0.06,0.076-0.111,0.119-0.176C9.969,9.71,10.189,9.792,10.424,9.878z"/>
</g>
</svg>
