<?xml version="1.0" encoding="utf-8"?>
<!-- Generator: Adobe Illustrator 16.0.0, SVG Export Plug-In . SVG Version: 6.00 Build 0)  -->
<!DOCTYPE svg PUBLIC "-//W3C//DTD SVG 1.1//EN" "http://www.w3.org/Graphics/SVG/1.1/DTD/svg11.dtd">
<svg version="1.1" id="Layer_1" xmlns="http://www.w3.org/2000/svg" xmlns:xlink="http://www.w3.org/1999/xlink" x="0px" y="0px"
	 width="16px" height="16px" viewBox="0 0 16 16" enable-background="new 0 0 16 16" xml:space="preserve">
<g>
	<path fill-rule="evenodd" clip-rule="evenodd" fill="#B2B2B2" d="M12.881,4.721c-0.003,0.093-0.075,0.146-0.166,0.126
		c-0.075-0.017-0.148-0.042-0.22-0.07c-0.15-0.057-0.28-0.026-0.393,0.083c-0.394,0.381-0.789,0.76-1.18,1.145
		c-0.925,0.914-1.845,1.832-2.72,2.794c-0.753,0.829-1.438,1.708-2.047,2.647C6,11.688,5.833,11.921,5.66,12.15
		c-0.162,0.213-0.391,0.314-0.655,0.325c-0.306,0.013-0.599-0.042-0.879-0.177c-0.303-0.145-0.451-0.39-0.497-0.708
		c-0.029-0.203,0.003-0.4,0.069-0.594c0.074-0.216,0.225-0.342,0.447-0.369c0.5-0.06,0.95-0.258,1.395-0.479
		c0.567-0.28,1.047-0.684,1.513-1.098c0.668-0.594,1.318-1.209,1.972-1.82c1.106-1.036,2.21-2.076,3.315-3.114
		c0.078-0.074,0.111-0.079,0.172,0.005c0.121,0.167,0.231,0.343,0.344,0.517C12.873,4.667,12.876,4.702,12.881,4.721z"/>
	<path fill-rule="evenodd" clip-rule="evenodd" fill="#B2B2B2" d="M9.339,7.671c0.137-0.131,0.27-0.257,0.404-0.386
		c0.145,0.15,0.293,0.302,0.438,0.458c0.455,0.486,0.979,0.875,1.592,1.14c0.111,0.048,0.229,0.084,0.346,0.113
		c0.214,0.053,0.339,0.182,0.376,0.398c0.056,0.316,0.02,0.617-0.222,0.848c-0.096,0.091-0.234,0.146-0.363,0.19
		c-0.231,0.081-0.475,0.075-0.711,0.027c-0.186-0.038-0.348-0.134-0.446-0.3c-0.134-0.224-0.264-0.45-0.377-0.684
		c-0.288-0.596-0.632-1.16-0.982-1.719C9.377,7.732,9.361,7.707,9.339,7.671z"/>
	<path fill-rule="evenodd" clip-rule="evenodd" fill="#B2B2B2" d="M8.996,7.179C8.818,6.936,8.652,6.698,8.473,6.47
		c-0.801-1.013-1.607-2.021-2.41-3.033c-0.1-0.126-0.222-0.169-0.377-0.122c-0.05,0.016-0.104,0.027-0.156,0.03
		c-0.1,0.006-0.165-0.077-0.11-0.154c0.113-0.158,0.241-0.305,0.371-0.45c0.05-0.057,0.093-0.008,0.13,0.035
		c0.357,0.419,0.717,0.836,1.072,1.258C7.76,4.945,8.524,5.858,9.29,6.77c0.019,0.022,0.036,0.046,0.059,0.074
		C9.231,6.955,9.118,7.063,8.996,7.179z"/>
	<path fill-rule="evenodd" clip-rule="evenodd" fill="#B2B2B2" d="M9.987,11.501c-0.007,0.269-0.244,0.511-0.521,0.543
		c-0.404,0.047-0.738-0.294-0.681-0.696c0.02-0.137,0.061-0.176,0.199-0.191c0.117-0.014,0.225,0.017,0.321,0.08
		c0.098,0.065,0.191,0.139,0.29,0.204C9.714,11.518,9.839,11.564,9.987,11.501z"/>
	<path fill-rule="evenodd" clip-rule="evenodd" fill="#B2B2B2" d="M8.909,11.075c0.222-0.333,0.746-0.324,0.975,0.003
		c0.043,0.062,0.073,0.136,0.098,0.208c0.027,0.087-0.023,0.159-0.114,0.153c-0.065-0.004-0.134-0.026-0.192-0.055
		c-0.063-0.031-0.119-0.078-0.174-0.121C9.33,11.132,9.15,11.029,8.909,11.075z"/>
</g>
</svg>
