<?xml version="1.0" encoding="utf-8"?>
<!-- Generator: Adobe Illustrator 16.0.0, SVG Export Plug-In . SVG Version: 6.00 Build 0)  -->
<!DOCTYPE svg PUBLIC "-//W3C//DTD SVG 1.1//EN" "http://www.w3.org/Graphics/SVG/1.1/DTD/svg11.dtd">
<svg version="1.1" id="Layer_1" xmlns="http://www.w3.org/2000/svg" xmlns:xlink="http://www.w3.org/1999/xlink" x="0px" y="0px"
	 width="16px" height="16px" viewBox="0 0 16 16" enable-background="new 0 0 16 16" xml:space="preserve">
<g>
	<path fill-rule="evenodd" clip-rule="evenodd" fill="#B2B2B2" d="M8.422,6.231c-0.661,0-1.322,0.003-1.983-0.001
		C6.063,6.228,5.832,6.035,5.825,5.735C5.817,5.428,6.069,5.207,6.452,5.207c1.528-0.004,3.055-0.005,4.584,0.001
		c0.486,0.001,0.93,0.329,1.006,0.715c0.097,0.491-0.07,0.84-0.543,1.001c-0.621,0.213-1.256,0.384-1.94,0.59
		c0.326,0.336,0.643,0.656,0.954,0.98c0.871,0.907,0.797,0.687,0.535,1.91c-0.135,0.634-0.291,1.263-0.443,1.893
		c-0.099,0.405-0.457,0.672-0.784,0.596c-0.367-0.086-0.548-0.417-0.453-0.855c0.136-0.634,0.266-1.27,0.431-1.896
		c0.061-0.229-0.01-0.32-0.188-0.428c-0.829-0.5-1.646-1.019-2.476-1.518C6.778,7.98,6.576,7.7,6.631,7.271
		c0.051-0.398,0.327-0.58,0.673-0.685C7.673,6.476,8.045,6.375,8.416,6.27C8.418,6.257,8.42,6.244,8.422,6.231z"/>
	<path fill-rule="evenodd" clip-rule="evenodd" fill="#B2B2B2" d="M6.438,8.113c0.374,0.242,0.718,0.481,1.078,0.692
		c0.183,0.106,0.183,0.207,0.157,0.409c-0.098,0.77-0.507,1.137-1.275,1.243c-0.809,0.111-1.603,0.327-2.404,0.496
		c-0.427,0.091-0.754-0.1-0.833-0.481c-0.07-0.337,0.177-0.66,0.581-0.752c0.72-0.165,1.439-0.333,2.162-0.487
		c0.246-0.052,0.408-0.128,0.411-0.428C6.316,8.57,6.395,8.336,6.438,8.113z"/>
	<path fill-rule="evenodd" clip-rule="evenodd" fill="#B2B2B2" d="M13.124,6.161c-0.581,0.008-1.04-0.444-1.046-1.026
		c-0.005-0.57,0.435-1.029,0.996-1.04c0.581-0.011,1.054,0.432,1.072,1.007C14.162,5.671,13.697,6.154,13.124,6.161z"/>
	<path fill-rule="evenodd" clip-rule="evenodd" fill="#B2B2B2" d="M7.813,13.542c0-0.147,0-0.256,0-0.402c0.65,0,1.286,0,1.92,0
		c0.318,0,0.638-0.016,0.956,0.004c0.272,0.018,0.451-0.037,0.408-0.385c0.126-0.01,0.233-0.018,0.339-0.025
		c0.141,0.535-0.063,0.808-0.586,0.808C9.85,13.543,8.849,13.542,7.813,13.542z"/>
	<path fill-rule="evenodd" clip-rule="evenodd" fill="#B2B2B2" d="M1.854,9.131C2,9.07,2.101,9.029,2.223,8.979
		c0.396,0.894,0.792,1.761,1.164,2.639c0.11,0.26,0.226,0.396,0.526,0.203c0.057,0.134,0.103,0.242,0.147,0.349
		c-0.499,0.287-0.776,0.202-0.992-0.286C2.669,10.979,2.271,10.074,1.854,9.131z"/>
</g>
</svg>
