<?xml version="1.0" encoding="utf-8"?>
<!-- Generator: Adobe Illustrator 16.0.0, SVG Export Plug-In . SVG Version: 6.00 Build 0)  -->
<!DOCTYPE svg PUBLIC "-//W3C//DTD SVG 1.1//EN" "http://www.w3.org/Graphics/SVG/1.1/DTD/svg11.dtd">
<svg version="1.1" id="Layer_1" xmlns="http://www.w3.org/2000/svg" xmlns:xlink="http://www.w3.org/1999/xlink" x="0px" y="0px"
	 width="16px" height="16px" viewBox="0 0 16 16" enable-background="new 0 0 16 16" xml:space="preserve">
<g>
	<path fill-rule="evenodd" clip-rule="evenodd" fill="#B2B2B2" d="M1.662,4.46C1.708,4.381,1.747,4.297,1.8,4.223
		C1.937,4.034,1.949,4.03,2.161,4.126c0.372,0.169,0.743,0.338,1.11,0.517c0.154,0.075,0.302,0.164,0.441,0.264
		c0.083,0.06,0.167,0.141,0.211,0.231C4.067,5.432,4.302,5.61,4.592,5.74c0.405,0.182,0.805,0.376,1.206,0.566
		c0.336,0.159,0.673,0.318,1.009,0.479c0.038,0.018,0.058,0.009,0.087-0.018c0.13-0.118,0.264-0.232,0.397-0.347
		C7.327,6.391,7.356,6.392,7.4,6.417c0.401,0.236,0.805,0.229,1.206-0.002C8.646,6.392,8.674,6.392,8.707,6.42
		c0.194,0.172,0.396,0.336,0.581,0.518c0.308,0.303,0.603,0.616,0.903,0.926c0.082,0.084,0.167,0.166,0.242,0.256
		c0.1,0.119,0.154,0.249,0.032,0.396c0.091,0.043,0.175,0.086,0.259,0.125c0.323,0.15,0.646,0.3,0.971,0.449
		c0.217,0.1,0.439,0.13,0.672,0.07c0.193-0.049,0.375-0.009,0.557,0.055c0.432,0.149,0.842,0.349,1.25,0.551
		c0.035,0.018,0.076,0.029,0.115,0.029c0.383,0.002,0.764,0.001,1.146,0c0.07,0,0.117,0.029,0.141,0.094
		c0.023,0.061,0.008,0.118-0.045,0.156c-0.027,0.02-0.066,0.033-0.1,0.033c-0.545,0.001-1.09,0-1.635,0
		c-0.365,0-0.732,0.002-1.098,0.003c-0.689,0.001-1.379-0.003-2.068,0.004c-0.382,0.003-0.764,0.033-1.128,0.161
		c-0.163,0.059-0.319,0.136-0.484,0.189c-0.381,0.126-0.774,0.168-1.175,0.148c-0.365-0.017-0.724-0.071-1.06-0.221
		c-0.216-0.096-0.436-0.182-0.668-0.213c-0.262-0.033-0.525-0.059-0.789-0.064c-0.448-0.011-0.895-0.004-1.343-0.005
		c-0.029,0-0.057-0.007-0.085-0.011c0.088-0.088,0.176-0.177,0.264-0.266c0.027-0.002,0.053-0.008,0.08-0.008
		c0.389,0.001,0.778,0.002,1.167,0.002c0.016,0,0.031-0.002,0.047-0.002C5.463,9.745,5.46,9.693,5.478,9.648
		c0.015-0.037,0.046-0.086,0.081-0.096c0.772-0.241,1.546-0.478,2.32-0.715c0.006-0.001,0.013,0,0.025,0c0,0.486,0,0.971,0,1.461
		c0.066,0,0.126,0,0.192,0c0-0.488,0-0.975,0-1.469c0.187,0.057,0.365,0.111,0.542,0.166c0.588,0.18,1.176,0.363,1.766,0.54
		c0.079,0.024,0.119,0.067,0.129,0.144c0.004,0.035,0.004,0.072,0.008,0.114c0.49,0,0.982,0,1.482,0
		c-0.053-0.099-0.113-0.187-0.203-0.241c-0.135-0.085-0.277-0.161-0.42-0.23c-0.254-0.123-0.512-0.238-0.768-0.355
		c-0.115-0.053-0.23-0.103-0.347-0.154c-0.132,0.16-0.364,0.111-0.476,0.023C9.734,8.774,9.701,8.695,9.707,8.598
		c0.001-0.023-0.013-0.061-0.03-0.069C9.456,8.421,9.233,8.317,9.002,8.209C8.971,8.421,8.94,8.627,8.909,8.841
		C8.754,8.793,8.606,8.746,8.458,8.703C8.35,8.672,8.242,8.639,8.132,8.617C7.938,8.578,7.756,8.635,7.574,8.693
		C7.428,8.74,7.282,8.783,7.136,8.828c-0.015,0.005-0.03,0.006-0.05,0.008C7.039,8.506,6.993,8.18,6.944,7.839
		C6.819,7.974,6.704,8.098,6.589,8.222C6.423,8.4,6.258,8.58,6.09,8.758C5.969,8.887,5.792,8.893,5.649,8.789
		C5.47,8.66,5.439,8.491,5.479,8.287C5.576,7.79,5.667,7.291,5.762,6.792c0.006-0.034,0.022-0.066,0.036-0.104
		C5.617,6.602,5.432,6.513,5.247,6.424c-0.302-0.146-0.606-0.29-0.906-0.442C4.112,5.866,3.876,5.824,3.626,5.877
		C3.431,5.918,3.25,5.876,3.072,5.803C3.023,5.782,2.974,5.761,2.926,5.74C2.863,5.672,2.801,5.604,2.737,5.539
		C2.646,5.445,2.553,5.354,2.461,5.262C2.372,5.173,2.283,5.084,2.194,4.995C2.106,4.906,2.018,4.816,1.929,4.727
		C1.84,4.638,1.751,4.549,1.662,4.46z M6.167,7.925c0.004,0,0.008,0,0.011-0.001c0.011-0.103,0.023-0.205,0.033-0.308
		c0.007-0.076,0.029-0.14,0.086-0.197C6.404,7.311,6.5,7.193,6.606,7.074C6.467,7.007,6.335,6.945,6.198,6.88
		C6.188,7.237,6.177,7.581,6.167,7.925z M9.428,8.024c0.004-0.005,0.008-0.01,0.012-0.016C9.32,7.917,9.199,7.826,9.08,7.735
		c-0.008,0.003-0.016,0.007-0.022,0.01C9.064,7.783,9.06,7.841,9.081,7.854C9.193,7.917,9.313,7.968,9.428,8.024z"/>
	<path fill-rule="evenodd" clip-rule="evenodd" fill="#B2B2B2" d="M3.524,10.326c0.601,0,1.203-0.002,1.804,0.001
		c0.412,0.003,0.822,0.03,1.217,0.163c0.151,0.05,0.296,0.119,0.446,0.176c0.264,0.102,0.541,0.143,0.821,0.16
		c0.367,0.021,0.731-0.012,1.083-0.121c0.17-0.054,0.33-0.133,0.498-0.195c0.244-0.09,0.5-0.137,0.76-0.156
		c0.747-0.055,1.496-0.019,2.244-0.027c0.352-0.005,0.705-0.002,1.057-0.003c0.402-0.001,0.805-0.003,1.207-0.003
		c0.102,0,0.156,0.04,0.168,0.12c0.016,0.097-0.047,0.165-0.154,0.165c-0.268,0.002-0.535,0.002-0.801,0.002
		c-1.088,0.002-2.174,0-3.261,0.006c-0.378,0.002-0.755,0.034-1.114,0.162c-0.164,0.059-0.32,0.133-0.484,0.19
		C8.791,11.043,8.56,11.075,8.325,11.1c-0.267,0.027-0.532,0.019-0.797-0.016c-0.285-0.035-0.562-0.104-0.824-0.228
		c-0.279-0.132-0.576-0.208-0.882-0.216c-0.642-0.02-1.284-0.025-1.925-0.03c-0.85-0.005-1.699-0.003-2.548-0.004
		c-0.11,0-0.168-0.042-0.177-0.126c-0.008-0.085,0.043-0.152,0.129-0.158c0.063-0.006,0.126-0.002,0.189-0.002
		c0.678,0,1.356,0,2.035,0C3.524,10.322,3.524,10.324,3.524,10.326z"/>
	<path fill-rule="evenodd" clip-rule="evenodd" fill="#B2B2B2" d="M7.248,5.417c0-0.307,0.077-0.583,0.34-0.771
		c0.299-0.215,0.743-0.138,0.97,0.159C8.732,5.033,8.779,5.292,8.74,5.571C8.715,5.763,8.664,5.947,8.549,6.106
		c-0.154,0.213-0.369,0.3-0.625,0.28C7.655,6.365,7.478,6.208,7.37,5.969C7.291,5.794,7.255,5.609,7.248,5.417z"/>
	<path fill-rule="evenodd" clip-rule="evenodd" fill="#B2B2B2" d="M4.163,9.805C4.075,9.894,3.986,9.982,3.898,10.07
		c-0.024,0.004-0.048,0.01-0.072,0.01c-1.078,0-2.157,0-3.235-0.001c-0.091,0-0.147-0.03-0.169-0.097
		c-0.02-0.062-0.006-0.12,0.048-0.156c0.031-0.021,0.075-0.03,0.113-0.03c0.457,0,0.914,0.004,1.37,0.004
		C2.666,9.801,3.378,9.799,4.09,9.797C4.114,9.797,4.138,9.803,4.163,9.805z"/>
	<path fill-rule="evenodd" clip-rule="evenodd" fill="#B2B2B2" d="M1.662,4.46C1.751,4.549,1.84,4.638,1.929,4.727
		c0.088,0.089,0.177,0.179,0.265,0.268c0.089,0.089,0.178,0.178,0.267,0.267c0.092,0.092,0.185,0.183,0.276,0.277
		C2.801,5.604,2.863,5.672,2.926,5.74C2.777,5.676,2.625,5.618,2.48,5.546C2.188,5.4,1.899,5.247,1.608,5.096
		C1.499,5.039,1.474,4.996,1.505,4.879c0.033-0.124,0.078-0.244,0.12-0.365C1.632,4.495,1.649,4.478,1.662,4.46z"/>
	<path fill-rule="evenodd" clip-rule="evenodd" fill="#B2B2B2" d="M9.428,8.024c-0.115-0.056-0.234-0.107-0.347-0.17
		C9.06,7.841,9.064,7.783,9.058,7.745c0.007-0.003,0.015-0.006,0.022-0.01c0.119,0.091,0.24,0.182,0.359,0.273
		C9.436,8.014,9.432,8.019,9.428,8.024z"/>
</g>
</svg>
