<?xml version="1.0" encoding="utf-8"?>
<!-- Generator: Adobe Illustrator 16.0.0, SVG Export Plug-In . SVG Version: 6.00 Build 0)  -->
<!DOCTYPE svg PUBLIC "-//W3C//DTD SVG 1.1//EN" "http://www.w3.org/Graphics/SVG/1.1/DTD/svg11.dtd">
<svg version="1.1" id="Layer_1" xmlns="http://www.w3.org/2000/svg" xmlns:xlink="http://www.w3.org/1999/xlink" x="0px" y="0px"
	 width="16px" height="16px" viewBox="0 0 16 16" enable-background="new 0 0 16 16" xml:space="preserve">
<g>
	<path fill-rule="evenodd" clip-rule="evenodd" fill="#B2B2B2" d="M9.932,1.622c0.141,0.048,0.289,0.081,0.42,0.148
		c0.322,0.166,0.512,0.446,0.633,0.78c-0.012,0.013-0.018,0.027-0.027,0.031c-0.9,0.328-1.635,0.899-2.332,1.535
		C8.609,4.129,8.594,4.144,8.578,4.158C8.31,4.407,8.091,4.411,7.841,4.144C7.725,4.019,7.627,3.868,7.548,3.715
		C7.444,3.517,7.495,3.308,7.572,3.114c0.3-0.756,0.875-1.197,1.639-1.414c0.107-0.031,0.217-0.052,0.322-0.079
		C9.666,1.622,9.799,1.622,9.932,1.622z"/>
	<path fill-rule="evenodd" clip-rule="evenodd" fill="#B2B2B2" d="M5.042,8.214C4.993,8.367,4.957,8.484,4.919,8.6
		c-0.012-0.004-0.026-0.006-0.04-0.009C4.787,8.387,4.685,8.187,4.607,7.979C4.553,7.834,4.464,7.753,4.324,7.731
		C4.479,8.076,4.64,8.42,4.79,8.77c0.042,0.096,0.118,0.111,0.197,0.125c0.105,0.017,0.213,0.026,0.322,0.026
		c0.502,0.003,1.004,0.002,1.525,0.002c-0.04-0.052-0.076-0.098-0.112-0.146C6.567,8.578,6.41,8.378,6.256,8.178
		C6.192,8.095,6.178,8.006,6.242,7.915C6.297,7.832,6.384,7.801,6.47,7.832C6.531,7.855,6.589,7.906,6.631,7.96
		c0.46,0.583,0.917,1.168,1.375,1.753c0.162,0.207,0.322,0.413,0.482,0.619c0.065,0.08,0.1,0.163,0.047,0.264
		c-0.073,0.14-0.237,0.161-0.354,0.037c-0.074-0.077-0.134-0.168-0.202-0.251C7.79,10.14,7.6,9.899,7.412,9.655
		C7.366,9.594,7.319,9.566,7.236,9.567C6.428,9.572,5.617,9.569,4.808,9.572c-0.14,0-0.262-0.028-0.37-0.125
		C4.425,9.458,4.411,9.467,4.401,9.48C4.258,9.669,4.258,9.669,4.446,9.822c0.505,0.41,1.019,0.813,1.513,1.236
		c0.151,0.129,0.272,0.3,0.38,0.47c0.111,0.173,0.193,0.364,0.28,0.554c0.036,0.072,0.078,0.103,0.161,0.103
		c0.599,0,1.192,0.061,1.776,0.204c0.516,0.126,1.01,0.303,1.436,0.624c0.23,0.174,0.229,0.362-0.004,0.535
		c-0.465,0.347-1.002,0.528-1.559,0.652c-0.804,0.179-1.62,0.201-2.44,0.162c-0.643-0.032-1.283-0.077-1.909-0.236
		c-0.243-0.061-0.479-0.155-0.711-0.251c-0.244-0.102-0.364-0.291-0.345-0.561c0.002-0.033,0.001-0.066,0-0.1
		c-0.01-0.236,0.097-0.403,0.303-0.514c0.325-0.178,0.675-0.275,1.035-0.336c0.332-0.055,0.665-0.086,0.998-0.131
		c0.028-0.003,0.056-0.01,0.092-0.017c-0.119-0.228-0.275-0.402-0.486-0.53c-0.719-0.431-1.436-0.863-2.153-1.297
		C2.391,10.137,2.3,9.8,2.538,9.372C2.891,8.736,3.244,8.104,3.597,7.47c0.129-0.231,0.232-0.264,0.465-0.146
		C4.158,7.373,4.257,7.42,4.344,7.481C4.459,7.566,4.568,7.573,4.7,7.524c0.227-0.082,0.457-0.151,0.687-0.216
		c0.145-0.042,0.233-0.132,0.285-0.27c0.182-0.485,0.359-0.97,0.551-1.451C6.264,5.48,6.333,5.368,6.421,5.296
		c0.196-0.161,0.451-0.042,0.468,0.211C6.895,5.6,6.88,5.701,6.85,5.787C6.65,6.34,6.445,6.89,6.239,7.443
		c-0.064,0.175-0.181,0.302-0.353,0.38C5.592,7.956,5.301,8.095,5.042,8.214z"/>
	<path fill-rule="evenodd" clip-rule="evenodd" fill="#B2B2B2" d="M13.42,4.769c-0.006,1.066-0.174,1.946-0.623,2.755
		c-0.131,0.235-0.283,0.459-0.449,0.67c-0.311,0.389-0.848,0.483-1.283,0.245c-0.18-0.097-0.279-0.333-0.213-0.561
		c0.105-0.347,0.234-0.688,0.34-1.038c0.236-0.779,0.412-1.572,0.42-2.391c0.006-0.822-0.121-1.618-0.549-2.342
		c-0.053-0.089-0.115-0.172-0.166-0.262c-0.02-0.039-0.02-0.09-0.031-0.136c0.047-0.002,0.102-0.02,0.141-0.003
		c0.176,0.076,0.354,0.15,0.518,0.244c0.541,0.308,1.01,0.712,1.439,1.159c0.242,0.251,0.373,0.565,0.404,0.915
		C13.391,4.322,13.41,4.62,13.42,4.769z"/>
	<path fill-rule="evenodd" clip-rule="evenodd" fill="#B2B2B2" d="M3.753,6.361c0-0.477,0.389-0.867,0.862-0.863
		C5.084,5.501,5.469,5.886,5.47,6.354c0.003,0.472-0.394,0.87-0.862,0.866C4.139,7.215,3.754,6.829,3.753,6.361z"/>
</g>
</svg>
