<?xml version="1.0" encoding="utf-8"?>
<!-- Generator: Adobe Illustrator 16.0.0, SVG Export Plug-In . SVG Version: 6.00 Build 0)  -->
<!DOCTYPE svg PUBLIC "-//W3C//DTD SVG 1.1//EN" "http://www.w3.org/Graphics/SVG/1.1/DTD/svg11.dtd">
<svg version="1.1" id="Layer_1" xmlns="http://www.w3.org/2000/svg" xmlns:xlink="http://www.w3.org/1999/xlink" x="0px" y="0px"
	 width="16px" height="16px" viewBox="0 0 16 16" enable-background="new 0 0 16 16" xml:space="preserve">
<g>
	<path fill-rule="evenodd" clip-rule="evenodd" fill="#B2B2B2" d="M12.258,2.137c0.117,0.028,0.238,0.045,0.352,0.086
		c0.359,0.132,0.637,0.364,0.799,0.718c0.154,0.34,0.088,0.667-0.185,0.922c-0.082,0.076-0.169,0.148-0.263,0.204
		c-0.271,0.162-0.445,0.393-0.545,0.687c-0.037,0.107-0.086,0.21-0.134,0.312c-0.063,0.135-0.177,0.215-0.311,0.264
		c-0.167,0.062-0.318,0.148-0.46,0.253c-0.019,0.014-0.037,0.033-0.046,0.054c-0.266,0.591-0.53,1.183-0.794,1.775
		c-0.01,0.022-0.01,0.055-0.002,0.079c0.09,0.261-0.031,0.534-0.285,0.641c-0.023,0.01-0.047,0.032-0.058,0.054
		C10.211,8.441,10.1,8.696,9.984,8.95C9.969,8.983,9.972,9.001,10,9.026c0.151,0.134,0.204,0.306,0.155,0.499
		c-0.048,0.195-0.178,0.315-0.371,0.37C9.713,9.914,9.64,9.934,9.568,9.955C9.55,9.961,9.526,9.979,9.519,9.996
		c-0.112,0.248-0.227,0.496-0.331,0.746c-0.076,0.18-0.255,0.19-0.349,0.112c-0.073-0.063-0.096-0.155-0.053-0.254
		c0.058-0.136,0.121-0.272,0.181-0.408c0.011-0.024,0.021-0.048,0.034-0.085c-0.267,0.074-0.523,0.142-0.782,0.213
		c-0.148-0.218-0.295-0.436-0.448-0.659c-0.079,0.155-0.155,0.305-0.23,0.453c-0.045,0.089-0.092,0.176-0.135,0.266
		c-0.008,0.017-0.007,0.052,0.004,0.065c0.217,0.283,0.435,0.565,0.652,0.848c0.086,0.108,0.173,0.215,0.217,0.354
		c0.056,0.18,0.031,0.346-0.065,0.498c-0.307,0.483-0.617,0.963-0.932,1.441c-0.152,0.234-0.437,0.331-0.697,0.247
		c-0.265-0.084-0.439-0.328-0.433-0.605c0.004-0.129,0.049-0.244,0.12-0.352c0.211-0.322,0.419-0.647,0.63-0.971
		c0.027-0.041,0.024-0.066-0.005-0.104c-0.335-0.432-0.671-0.86-1.002-1.296c-0.086-0.113-0.16-0.238-0.225-0.365
		C5.546,9.898,5.554,9.645,5.659,9.399c0.094-0.218,0.202-0.43,0.308-0.644c0.186-0.369,0.376-0.733,0.559-1.103
		c0.195-0.397,0.602-0.605,0.988-0.57c0.451,0.042,0.797,0.339,0.902,0.761c0.063,0.252,0.031,0.494-0.09,0.723
		C8.301,8.612,8.301,8.645,8.331,8.687c0.101,0.145,0.198,0.29,0.297,0.436C8.645,9.147,8.66,9.154,8.691,9.146
		c0.27-0.076,0.541-0.149,0.811-0.224C9.52,8.918,9.541,8.904,9.548,8.891C9.636,8.698,9.72,8.507,9.806,8.314
		c0.001-0.003,0-0.007,0-0.019C9.43,8.397,9.057,8.499,8.693,8.599c0.028-0.177,0.07-0.35,0.079-0.524
		C8.78,7.9,8.753,7.725,8.741,7.539c0.08-0.022,0.178-0.049,0.276-0.076c0.344-0.095,0.688-0.19,1.033-0.281
		c0.065-0.017,0.138-0.022,0.204-0.014c0.053,0.007,0.068-0.009,0.087-0.052c0.185-0.417,0.372-0.833,0.559-1.25
		c0.058-0.131,0.118-0.261,0.173-0.393c0.014-0.033,0.023-0.077,0.014-0.11c-0.038-0.15-0.075-0.303-0.131-0.447
		c-0.068-0.178-0.077-0.345,0.009-0.52c0.076-0.155,0.142-0.317,0.206-0.478c0.064-0.153,0.058-0.312,0.037-0.472
		c-0.019-0.16-0.048-0.32-0.05-0.481c-0.006-0.371,0.215-0.661,0.568-0.768c0.083-0.025,0.169-0.041,0.252-0.06
		C12.073,2.137,12.165,2.137,12.258,2.137z M12.628,3.822c0.086-0.06,0.168-0.116,0.247-0.175c0.032-0.024,0.063-0.052,0.091-0.081
		c0.141-0.144,0.165-0.295,0.078-0.476c-0.196-0.405-0.697-0.642-1.136-0.54c-0.209,0.049-0.348,0.177-0.352,0.349
		c-0.003,0.158,0.018,0.316,0.027,0.478C12.041,3.291,12.385,3.438,12.628,3.822z M11.819,3.686c-0.035,0.005-0.081,0.01-0.126,0.02
		c-0.055,0.014-0.085,0.044-0.093,0.108c-0.009,0.079-0.029,0.16-0.059,0.234c-0.071,0.178-0.145,0.354-0.227,0.527
		c-0.042,0.091-0.022,0.163,0.036,0.228c0.112,0.129,0.258,0.191,0.43,0.174c0.076-0.007,0.137-0.041,0.165-0.121
		c0.035-0.097,0.079-0.19,0.121-0.284c0.07-0.161,0.128-0.329,0.245-0.464c0.039-0.043,0.037-0.08,0.013-0.125
		C12.219,3.789,12.048,3.7,11.819,3.686z"/>
	<path fill-rule="evenodd" clip-rule="evenodd" fill="#B2B2B2" d="M5.319,10.314c0.19,0.385,0.474,0.689,0.723,1.021
		c0.064,0.086,0.066,0.083,0.015,0.176c-0.137,0.245-0.278,0.491-0.415,0.737c-0.063,0.112-0.147,0.198-0.257,0.259
		c-0.649,0.362-1.299,0.725-1.95,1.084c-0.211,0.117-0.427,0.114-0.633-0.011c-0.199-0.125-0.298-0.313-0.29-0.547
		c0.008-0.233,0.124-0.409,0.33-0.523c0.315-0.177,0.632-0.352,0.948-0.526c0.27-0.15,0.541-0.299,0.809-0.452
		c0.034-0.02,0.063-0.057,0.083-0.092c0.206-0.362,0.41-0.725,0.614-1.087C5.3,10.342,5.307,10.334,5.319,10.314z"/>
	<path fill-rule="evenodd" clip-rule="evenodd" fill="#B2B2B2" d="M8.411,6.83c-0.677,0.004-1.238-0.549-1.24-1.223
		C7.168,4.908,7.715,4.35,8.406,4.348c0.679-0.002,1.239,0.547,1.244,1.22C9.651,6.272,9.109,6.826,8.411,6.83z"/>
	<path fill-rule="evenodd" clip-rule="evenodd" fill="#B2B2B2" d="M11.956,4.519C11.954,4.647,11.85,4.75,11.718,4.75
		c-0.131,0-0.237-0.106-0.236-0.239c0-0.131,0.11-0.238,0.241-0.235C11.854,4.278,11.956,4.384,11.956,4.519z"/>
</g>
</svg>
