<?xml version="1.0" encoding="utf-8"?>
<!-- Generator: Adobe Illustrator 16.0.0, SVG Export Plug-In . SVG Version: 6.00 Build 0)  -->
<!DOCTYPE svg PUBLIC "-//W3C//DTD SVG 1.1//EN" "http://www.w3.org/Graphics/SVG/1.1/DTD/svg11.dtd">
<svg version="1.1" id="Layer_1" xmlns="http://www.w3.org/2000/svg" xmlns:xlink="http://www.w3.org/1999/xlink" x="0px" y="0px"
	 width="16px" height="16px" viewBox="0 0 16 16" enable-background="new 0 0 16 16" xml:space="preserve">
<g>
	<path fill-rule="evenodd" clip-rule="evenodd" fill="#B2B2B2" d="M9.798,8.298c0.025-0.814-0.247-1.061-0.942-0.861
		C8.795,7.243,8.74,7.045,8.674,6.853c-0.052-0.148-0.121-0.29-0.177-0.436c-0.015-0.041-0.013-0.09-0.01-0.135
		C8.498,6.104,8.525,5.924,8.52,5.747C8.514,5.581,8.404,5.475,8.275,5.465c-0.122-0.009-0.262,0.09-0.3,0.233
		C7.935,5.847,7.914,6,7.882,6.159C7.861,6.152,7.833,6.145,7.809,6.133c-0.236-0.111-0.47-0.225-0.708-0.333
		C7.027,5.767,6.992,5.72,6.999,5.64C7.014,5.458,7.01,5.272,7.046,5.094c0.056-0.28,0.227-0.478,0.495-0.592
		c0.474-0.201,0.958-0.196,1.448-0.077c0.32,0.078,0.62,0.203,0.889,0.4C9.982,4.903,10.057,5,10.11,5.123
		c0.238,0.537,0.615,0.922,1.208,1.043c0.167,0.035,0.345,0.04,0.515,0.026c0.267-0.021,0.476,0.066,0.636,0.275
		c0.176,0.231,0.254,0.503,0.299,0.784c0.092,0.573,0.091,1.145-0.08,1.703c-0.099,0.326-0.301,0.586-0.615,0.744
		c-0.084,0.043-0.149,0.047-0.197-0.049c-0.02-0.039-0.046-0.078-0.077-0.107c-0.169-0.164-0.174-0.342-0.114-0.564
		c0.073-0.277,0.097-0.571,0.123-0.857c0.007-0.076-0.034-0.203-0.088-0.227c-0.072-0.031-0.193-0.008-0.266,0.036
		c-0.185,0.111-0.353,0.249-0.531,0.37c-0.05,0.033-0.115,0.063-0.174,0.063c-0.216,0-0.433-0.008-0.647-0.021
		C10,8.337,9.9,8.314,9.798,8.298z"/>
	<path fill-rule="evenodd" clip-rule="evenodd" fill="#B2B2B2" d="M8.81,7.528c0.294-0.115,0.552-0.129,0.771,0.091
		c0.161,0.162,0.191,0.424,0.087,0.722c0.144,0.032,0.283,0.074,0.426,0.094c0.174,0.023,0.352,0.024,0.526,0.044
		c0.179,0.021,0.352,0.062,0.445,0.24c0.265,0.5,0.641,0.912,1.032,1.313c0.087,0.088,0.186,0.166,0.283,0.244
		c0.129,0.102,0.174,0.207,0.121,0.309c-0.051,0.1-0.198,0.16-0.328,0.111c-0.094-0.035-0.187-0.092-0.26-0.16
		c-0.214-0.197-0.417-0.404-0.625-0.607c-0.265-0.258-0.56-0.471-0.897-0.629C10.103,9.162,9.823,9.006,9.54,8.859
		C9.512,8.844,9.481,8.83,9.457,8.818c-0.328,0.514-0.653,1.023-0.982,1.541c-0.545-0.344-1.009-0.742-1.401-1.244
		C7.501,8.68,7.924,8.249,8.346,7.819c-0.51-0.645-1.035-1.297-1.808-1.686c-0.153-0.077-0.292-0.184-0.43-0.287
		C5.999,5.765,5.941,5.651,5.957,5.51c0.018-0.158,0.152-0.234,0.297-0.167C6.28,5.355,6.305,5.371,6.328,5.389
		C6.894,5.821,7.518,6.137,8.2,6.345c0.09,0.027,0.183,0.117,0.229,0.203c0.079,0.147,0.119,0.314,0.18,0.472
		C8.672,7.187,8.74,7.352,8.81,7.528z"/>
	<path fill-rule="evenodd" clip-rule="evenodd" fill="#B2B2B2" d="M7.393,6.889C7.672,7.203,7.942,7.508,8.22,7.82
		C8.032,7.992,7.852,8.163,7.666,8.329C7.28,8.674,6.897,9.021,6.502,9.355c-0.669,0.57-1.341,1.137-2.023,1.689
		c-0.149,0.121-0.341,0.203-0.527,0.262c-0.256,0.084-0.425-0.061-0.421-0.33c0.004-0.313,0.148-0.57,0.355-0.785
		C4.3,9.764,4.721,9.34,5.155,8.934c0.7-0.655,1.414-1.294,2.122-1.94C7.312,6.961,7.348,6.93,7.393,6.889z"/>
	<path fill-rule="evenodd" clip-rule="evenodd" fill="#B2B2B2" d="M5.793,13.256c-0.063-0.014-0.1-0.018-0.134-0.029
		c-0.263-0.1-0.472-0.268-0.625-0.502c-0.079-0.123-0.088-0.242,0.01-0.365c0.407-0.506,0.807-1.02,1.218-1.523
		c0.219-0.266,0.454-0.52,0.687-0.775C7.063,9.938,7.1,9.936,7.249,10.014c0.218,0.113,0.404,0.268,0.552,0.465
		c0.106,0.141,0.115,0.193,0.012,0.336c-0.331,0.453-0.66,0.91-1.008,1.35c-0.269,0.34-0.563,0.658-0.851,0.982
		C5.909,13.197,5.839,13.227,5.793,13.256z"/>
	<path fill-rule="evenodd" clip-rule="evenodd" fill="#B2B2B2" d="M9.449,9.01c0.371,0.254,0.713,0.52,0.987,0.863
		c0.27,0.336,0.288,0.543,0.04,0.893c-0.443,0.627-1.032,1.037-1.807,1.143c-0.097,0.014-0.199,0.008-0.295-0.01
		c-0.27-0.045-0.397-0.242-0.304-0.498c0.047-0.125,0.128-0.258,0.233-0.334c0.212-0.154,0.451-0.273,0.68-0.402
		c0.103-0.059,0.209-0.109,0.31-0.168c0.095-0.057,0.096-0.111-0.005-0.156c-0.151-0.064-0.311-0.109-0.466-0.162
		c-0.018-0.006-0.035-0.01-0.074-0.02C8.983,9.773,9.213,9.396,9.449,9.01z"/>
	<path fill-rule="evenodd" clip-rule="evenodd" fill="#B2B2B2" d="M11.605,5.987c-0.716-0.003-1.282-0.577-1.28-1.296
		c0.002-0.718,0.584-1.293,1.303-1.288c0.703,0.006,1.281,0.59,1.279,1.294C12.906,5.415,12.325,5.99,11.605,5.987z M11.726,5.45
		c0.015-0.002,0.037-0.003,0.058-0.007c0.271-0.048,0.43-0.238,0.566-0.453c0.01-0.016,0.001-0.058-0.015-0.073
		c-0.325-0.313-0.652-0.625-0.981-0.934c-0.017-0.016-0.056-0.027-0.075-0.018c-0.205,0.087-0.374,0.22-0.413,0.45
		C10.773,4.948,11.297,5.416,11.726,5.45z"/>
	<path fill-rule="evenodd" clip-rule="evenodd" fill="#B2B2B2" d="M6.61,9.924c0.075-0.113,0.146-0.229,0.225-0.338
		c0.101-0.137,0.19-0.16,0.329-0.063C7.335,9.643,7.498,9.775,7.658,9.91c0.186,0.156,0.37,0.314,0.543,0.484
		c0.168,0.164,0.163,0.277-0.004,0.441c-0.083,0.082-0.177,0.154-0.266,0.23C7.917,11.08,7.9,11.092,7.863,11.119
		c0.083-0.129,0.154-0.234,0.22-0.342c0.074-0.121,0.063-0.236-0.027-0.348C7.79,10.104,7.466,9.85,7.097,9.65
		C7.028,9.611,6.971,9.615,6.911,9.678c-0.088,0.094-0.188,0.174-0.283,0.26C6.622,9.934,6.616,9.928,6.61,9.924z"/>
</g>
</svg>
