<?xml version="1.0" encoding="utf-8"?>
<!-- Generator: Adobe Illustrator 16.0.0, SVG Export Plug-In . SVG Version: 6.00 Build 0)  -->
<!DOCTYPE svg PUBLIC "-//W3C//DTD SVG 1.1//EN" "http://www.w3.org/Graphics/SVG/1.1/DTD/svg11.dtd">
<svg version="1.1" id="Layer_1" xmlns="http://www.w3.org/2000/svg" xmlns:xlink="http://www.w3.org/1999/xlink" x="0px" y="0px"
	 width="16px" height="16px" viewBox="0 0 16 16" enable-background="new 0 0 16 16" xml:space="preserve">
<g>
	<path fill-rule="evenodd" clip-rule="evenodd" fill="#B2B2B2" d="M14.703,10.238c-0.5,0-1,0-1.501,0
		c0-0.019-0.001-0.035-0.001-0.053c0.5,0,1.001,0,1.502,0C14.703,10.203,14.703,10.22,14.703,10.238z"/>
	<path fill-rule="evenodd" clip-rule="evenodd" fill="#B2B2B2" d="M2.011,9.414C1.931,9.33,1.869,9.279,1.825,9.215
		C1.78,9.151,1.752,9.074,1.717,9.004c0.078-0.024,0.155-0.066,0.234-0.07c3.233-0.156,6.468-0.31,9.702-0.461
		c0.899-0.042,1.8-0.08,2.75-0.121c-0.064,0.077-0.099,0.128-0.144,0.17c-0.401,0.377-0.801,0.758-1.211,1.126
		c-0.086,0.077-0.204,0.136-0.317,0.162c-0.662,0.159-1.322,0.345-1.994,0.446c-0.602,0.09-1.218,0.096-1.829,0.116
		c-1.994,0.064-3.988,0.116-5.982,0.18c-0.173,0.005-0.299-0.038-0.413-0.167c-0.138-0.158-0.285-0.311-0.445-0.445
		C1.879,9.781,1.799,9.625,2.011,9.414z"/>
	<path fill-rule="evenodd" clip-rule="evenodd" fill="#B2B2B2" d="M14.409,8.239C10.208,8.436,6.008,8.633,1.808,8.83
		C1.799,8.807,1.791,8.783,1.783,8.759c0.063-0.033,0.122-0.083,0.188-0.097c0.369-0.071,0.737-0.148,1.11-0.193
		C3.288,8.444,3.45,8.376,3.57,8.209c0.132-0.185,0.304-0.247,0.536-0.247c0.83-0.002,1.662-0.017,2.492-0.052
		c0.196-0.008,0.397-0.093,0.582-0.174c0.271-0.12,0.605-0.208,0.771-0.421C8.112,7.11,8.082,6.761,8.16,6.482
		c0.036-0.129,0.106-0.264,0.199-0.359C8.563,5.914,8.787,5.957,8.936,6.21c0.031,0.053,0.06,0.107,0.093,0.158
		c0.293,0.443,0.415,0.505,0.924,0.371c0.326-0.086,0.619-0.059,0.9,0.12c0.479,0.304,0.956,0.612,1.439,0.91
		c0.099,0.061,0.218,0.11,0.331,0.12c0.497,0.042,0.995,0.059,1.492,0.104c0.113,0.01,0.221,0.094,0.331,0.145
		C14.434,8.17,14.422,8.205,14.409,8.239z M7.52,7.804c0.009,0.013,0.019,0.025,0.028,0.038c1.434,0,2.868,0,4.302,0
		c0.009-0.029,0.018-0.06,0.026-0.089c-0.428-0.245-0.85-0.5-1.287-0.727c-0.118-0.062-0.288-0.075-0.421-0.048
		C9.707,7.073,9.245,7.172,8.797,7.313C8.362,7.449,7.944,7.638,7.52,7.804z"/>
	<path fill-rule="evenodd" clip-rule="evenodd" fill="#B2B2B2" d="M12.074,3.944c0.453,0.005,0.833,0.396,0.821,0.844
		c-0.013,0.44-0.391,0.808-0.833,0.809c-0.433,0.001-0.818-0.385-0.819-0.821C11.241,4.321,11.623,3.939,12.074,3.944z
		 M12.718,4.769c0.001-0.368-0.278-0.65-0.643-0.65c-0.364,0-0.654,0.28-0.662,0.639c-0.008,0.366,0.292,0.664,0.665,0.661
		C12.446,5.415,12.718,5.141,12.718,4.769z"/>
	<path fill-rule="evenodd" clip-rule="evenodd" fill="#B2B2B2" d="M9.079,5.04c0.249,0.002,0.468,0.223,0.467,0.471
		c0,0.25-0.217,0.466-0.469,0.469C8.811,5.982,8.594,5.761,8.604,5.496C8.612,5.236,8.819,5.037,9.079,5.04z"/>
	<path fill-rule="evenodd" clip-rule="evenodd" fill="#B2B2B2" d="M6.591,6.438c-1.087,0-2.173,0-3.259,0
		c0-0.013,0-0.026-0.001-0.04c1.087,0,2.173,0,3.26,0C6.591,6.411,6.591,6.424,6.591,6.438z"/>
	<path fill-rule="evenodd" clip-rule="evenodd" fill="#B2B2B2" d="M7.593,11.469c0.771,0,1.543,0,2.314,0c0,0.016,0,0.031,0,0.047
		c-0.771,0-1.543,0-2.314,0C7.593,11.5,7.593,11.484,7.593,11.469z"/>
	<path fill-rule="evenodd" clip-rule="evenodd" fill="#B2B2B2" d="M7.04,6.644c-0.755,0-1.51,0-2.265,0c0-0.016,0-0.031,0-0.046
		c0.754,0,1.508,0,2.262,0C7.038,6.613,7.039,6.628,7.04,6.644z"/>
	<path fill-rule="evenodd" clip-rule="evenodd" fill="#B2B2B2" d="M5.686,11.049c0.761,0,1.521,0,2.281,0
		c0,0.017,0,0.033,0.001,0.051c-0.761,0-1.521,0-2.281,0C5.686,11.082,5.686,11.065,5.686,11.049z"/>
	<path fill-rule="evenodd" clip-rule="evenodd" fill="#B2B2B2" d="M10.751,11.109c-0.761,0-1.521,0-2.28,0c0-0.016,0-0.033,0-0.05
		c0.76,0,1.52,0,2.28,0C10.751,11.076,10.751,11.094,10.751,11.109z"/>
	<path fill-rule="evenodd" clip-rule="evenodd" fill="#B2B2B2" d="M6.979,11.525c-0.766,0-1.531,0-2.298,0
		c0-0.019,0-0.037,0.001-0.055c0.766,0,1.531,0,2.297,0C6.979,11.488,6.979,11.507,6.979,11.525z"/>
	<path fill-rule="evenodd" clip-rule="evenodd" fill="#B2B2B2" d="M2.981,11.107c-0.562,0-1.123,0-1.684,0
		c0-0.017-0.001-0.033-0.001-0.049c0.561,0,1.122,0,1.684,0C2.98,11.074,2.98,11.091,2.981,11.107z"/>
	<path fill-rule="evenodd" clip-rule="evenodd" fill="#B2B2B2" d="M7.509,6.23c-0.75,0-1.501,0-2.251,0c0-0.014,0-0.028,0-0.042
		c0.751,0,1.503,0,2.254,0C7.511,6.202,7.51,6.216,7.509,6.23z"/>
	<path fill-rule="evenodd" clip-rule="evenodd" fill="#B2B2B2" d="M12.177,10.753c-0.429,0-0.856,0-1.285,0
		c0-0.017-0.001-0.032-0.001-0.049c0.428,0,0.855,0,1.282,0C12.175,10.721,12.176,10.736,12.177,10.753z"/>
	<path fill-rule="evenodd" clip-rule="evenodd" fill="#B2B2B2" d="M12.622,10.701c0.423,0,0.846,0,1.268,0
		c0.001,0.014,0.001,0.027,0.001,0.042c-0.422,0-0.845,0-1.268,0C12.623,10.729,12.623,10.715,12.622,10.701z"/>
	<path fill-rule="evenodd" clip-rule="evenodd" fill="#B2B2B2" d="M6.381,3.669C6.252,3.767,6.123,3.865,5.994,3.964
		c-0.155-0.022-0.321-0.047-0.487-0.07C5.503,3.881,5.499,3.869,5.495,3.857C5.79,3.781,6.084,3.706,6.379,3.631
		C6.38,3.643,6.38,3.656,6.381,3.669z"/>
	<path fill-rule="evenodd" clip-rule="evenodd" fill="#B2B2B2" d="M1.921,11.465c0.396,0,0.792,0,1.188,0c0,0.018,0,0.037,0,0.055
		c-0.396,0-0.791,0-1.187,0C1.922,11.502,1.921,11.482,1.921,11.465z"/>
	<path fill-rule="evenodd" clip-rule="evenodd" fill="#B2B2B2" d="M6.228,4.819c-0.133,0.1-0.267,0.2-0.395,0.296
		c-0.153-0.023-0.312-0.047-0.47-0.07C5.354,5.033,5.346,5.021,5.336,5.009c0.089-0.025,0.183-0.085,0.263-0.069
		c0.147,0.03,0.252,0.008,0.365-0.098c0.057-0.054,0.171-0.048,0.259-0.069C6.224,4.788,6.226,4.804,6.228,4.819z"/>
	<path fill-rule="evenodd" clip-rule="evenodd" fill="#B2B2B2" d="M4.262,4.599c0.364-0.093,0.66-0.169,0.956-0.245
		c0.007,0.015,0.013,0.03,0.02,0.045c-0.07,0.039-0.147,0.071-0.21,0.12C4.96,4.571,4.904,4.641,4.858,4.688
		C4.676,4.661,4.51,4.636,4.262,4.599z"/>
	<path fill-rule="evenodd" clip-rule="evenodd" fill="#B2B2B2" d="M11.582,11.525c-0.299,0-0.597,0-0.895,0
		c-0.001-0.018-0.002-0.035-0.003-0.053c0.299,0,0.598,0,0.896,0C11.581,11.49,11.581,11.508,11.582,11.525z"/>
	<path fill-rule="evenodd" clip-rule="evenodd" fill="#B2B2B2" d="M12.047,10.199c0.284,0,0.569,0,0.854,0
		c0,0.017,0,0.033,0.001,0.049c-0.284,0-0.568,0-0.854,0C12.049,10.232,12.047,10.216,12.047,10.199z"/>
	<path fill-rule="evenodd" clip-rule="evenodd" fill="#B2B2B2" d="M3.922,11.104c-0.213,0-0.425,0-0.638,0
		c-0.001-0.015-0.001-0.03-0.002-0.045c0.213,0,0.426,0,0.638,0C3.921,11.074,3.921,11.09,3.922,11.104z"/>
	<path fill-rule="evenodd" clip-rule="evenodd" fill="#B2B2B2" d="M4.969,11.107c-0.215,0-0.429,0-0.644,0c0-0.017,0-0.033,0-0.051
		c0.214,0,0.429,0,0.643,0C4.968,11.074,4.968,11.091,4.969,11.107z"/>
	<path fill-rule="evenodd" clip-rule="evenodd" fill="#B2B2B2" d="M3.596,11.467c0.209,0,0.419,0,0.629,0c0,0.018,0,0.035,0,0.053
		c-0.209,0-0.419,0-0.629,0C3.596,11.502,3.596,11.484,3.596,11.467z"/>
</g>
</svg>
