<?xml version="1.0" encoding="utf-8"?>
<!-- Generator: Adobe Illustrator 16.0.0, SVG Export Plug-In . SVG Version: 6.00 Build 0)  -->
<!DOCTYPE svg PUBLIC "-//W3C//DTD SVG 1.1//EN" "http://www.w3.org/Graphics/SVG/1.1/DTD/svg11.dtd">
<svg version="1.1" id="Layer_1" xmlns="http://www.w3.org/2000/svg" xmlns:xlink="http://www.w3.org/1999/xlink" x="0px" y="0px"
	 width="16px" height="16px" viewBox="0 0 16 16" enable-background="new 0 0 16 16" xml:space="preserve">
<g>
	<path fill-rule="evenodd" clip-rule="evenodd" fill="#B2B2B2" d="M12.508,3.642c0.271,0.259,0.541,0.518,0.812,0.776
		C13.36,4.455,13.4,4.49,13.431,4.533c0.064,0.084,0.062,0.173-0.017,0.246c-0.078,0.072-0.166,0.071-0.247-0.002
		c-0.118-0.109-0.236-0.218-0.365-0.337c-0.727,0.766-1.457,1.529-2.197,2.306c0.186,0.066,0.348,0.129,0.514,0.18
		c0.04,0.013,0.102-0.006,0.139-0.031c0.199-0.127,0.386-0.273,0.592-0.389c0.132-0.074,0.28-0.131,0.43-0.151
		c0.125-0.018,0.22-0.04,0.297-0.146c0.071-0.095,0.159-0.175,0.271-0.298c-0.023,0.175-0.047,0.31-0.067,0.458
		c0.088-0.095,0.173-0.183,0.254-0.271c0.01,0.005,0.017,0.009,0.027,0.014c-0.024,0.124-0.051,0.247-0.068,0.371
		c-0.007,0.043,0.011,0.097,0.034,0.135c0.261,0.421,0.531,0.838,0.788,1.264c0.067,0.115,0.03,0.242-0.068,0.337
		c-0.091,0.089-0.199,0.164-0.331,0.111c-0.321-0.129-0.639-0.269-0.96-0.409c-0.051-0.022-0.092-0.066-0.143-0.101
		c-0.402,0.686-0.567,1.488-1.041,2.154c0.467,0.416,0.95,0.849,1.44,1.288c-0.071,0.119-0.139,0.23-0.21,0.342
		c-0.21,0.331-0.416,0.664-0.632,0.991c-0.041,0.061-0.108,0.114-0.176,0.142c-0.146,0.064-0.302,0.111-0.453,0.159
		c-0.136,0.042-0.258-0.014-0.305-0.132c-0.051-0.125,0-0.294,0.135-0.314c0.386-0.063,0.555-0.344,0.724-0.64
		c0.082-0.142,0.173-0.278,0.271-0.435c-0.364-0.165-0.727-0.311-1.071-0.492c-0.312-0.165-0.626-0.197-0.971-0.195
		c-1.009,0.007-1.979-0.182-2.88-0.663c-0.022-0.01-0.047-0.017-0.083-0.028c-0.066,0.17-0.127,0.34-0.196,0.505
		c-0.073,0.173-0.144,0.349-0.237,0.511c-0.095,0.162,0.034,0.328-0.051,0.507c-0.071,0.146-0.417-0.098-0.6,0.064
		c-0.159-0.116-0.14-0.275-0.095-0.435c0.147-0.516,0.091-0.756-0.33-1.07C5.127,9.764,4.934,9.366,5.005,8.843
		c0.003-0.022,0-0.043,0-0.092c-0.154,0.053-0.296,0.104-0.438,0.15C4.153,9.044,3.746,9.209,3.323,9.319
		c-0.384,0.1-0.776,0.071-1.148-0.152C2.653,9.014,3.02,8.702,3.416,8.438c0.271-0.18,0.555-0.344,0.849-0.479
		c0.36-0.166,0.72-0.151,1.042,0.137C5.651,7.77,6.082,7.658,6.525,7.694c0.433,0.035,0.859,0.155,1.309,0.243
		c0.13-0.299,0.272-0.621,0.413-0.943c0.06-0.133,0.113-0.266,0.173-0.398c0.139-0.313,0.456-0.455,0.784-0.343
		c0.363,0.124,0.725,0.259,1.09,0.38c0.051,0.017,0.139,0.001,0.173-0.034c0.724-0.749,1.44-1.503,2.16-2.256
		c0.011-0.012,0.018-0.027,0.021-0.036c-0.098-0.102-0.192-0.203-0.291-0.301c-0.152-0.15-0.148-0.229,0.024-0.364
		C12.42,3.642,12.464,3.642,12.508,3.642z M9.182,8.019C9.395,7.977,9.61,7.982,9.772,7.893c0.324-0.179,0.622-0.409,0.957-0.634
		c-0.156-0.057-0.284-0.106-0.413-0.148c-0.023-0.007-0.064,0.007-0.081,0.025c-0.104,0.107-0.227,0.206-0.301,0.332
		C9.856,7.598,9.769,7.646,9.623,7.637C9.316,7.619,9.316,7.625,9.208,7.923C9.201,7.943,9.198,7.962,9.182,8.019z M9.491,7.17
		C9.623,7.192,9.745,7.212,9.87,7.234c0.058-0.063,0.122-0.131,0.199-0.213C9.9,6.964,9.759,6.917,9.61,6.868
		C9.566,6.981,9.528,7.074,9.491,7.17z"/>
	<path fill-rule="evenodd" clip-rule="evenodd" fill="#B2B2B2" d="M9.6,11.032c0.268,0,0.514,0,0.778,0
		c0.04,0.144,0.229,0.791,0.264,0.913c0.114,0.404,0.111,0.402-0.284,0.524c-0.281,0.084-0.568,0.155-0.839,0.267
		c-0.307,0.129-0.62,0.088-0.933,0.081c-0.157-0.003-0.252-0.118-0.243-0.26c0.008-0.141,0.104-0.242,0.261-0.221
		c0.528,0.078,0.993-0.155,1.477-0.294C10.205,12.008,9.688,11.198,9.6,11.032z"/>
	<path fill-rule="evenodd" clip-rule="evenodd" fill="#B2B2B2" d="M9.569,4.773c0.355-0.004,0.67,0.302,0.677,0.662
		c0.003,0.361-0.315,0.683-0.677,0.679C9.21,6.109,8.904,5.802,8.904,5.443C8.904,5.083,9.207,4.778,9.569,4.773z"/>
	<path fill-rule="evenodd" clip-rule="evenodd" fill="#B2B2B2" d="M5.391,11.645c-0.012,0.151-0.003,0.306-0.003,0.504
		c-0.26-0.39-0.496-0.737-0.727-1.089c-0.068-0.105-0.047-0.212,0.036-0.295c0.079-0.077,0.172-0.142,0.26-0.209
		c0.133-0.105,0.267-0.207,0.429-0.332c0.095,0.118,0.21,0.256,0.314,0.401c0.06,0.079,0.054,0.157-0.059,0.201
		c-0.049,0.017-0.093,0.051-0.133,0.084c-0.157,0.131-0.174,0.277-0.063,0.446c0.022,0.03,0.041,0.064,0.059,0.095
		C5.49,11.448,5.396,11.576,5.391,11.645z"/>
	<path fill-rule="evenodd" clip-rule="evenodd" fill="#B2B2B2" d="M6.589,11.483c0.235,0.225,0.906,0.779,1.087,1.026
		c0.122,0.166,0.154,0.407,0.189,0.622c0.01,0.064-0.093,0.191-0.167,0.215c-0.071,0.022-0.176-0.049-0.264-0.086
		c-0.015-0.007-0.027-0.034-0.029-0.055c-0.052-0.442-1.151-1.341-1.43-1.623C5.93,11.539,6.236,11.396,6.589,11.483z"/>
	<path fill-rule="evenodd" clip-rule="evenodd" fill="#B2B2B2" d="M5.216,11.514c0.105-0.035,0.169-0.021,0.288-0.063
		c0.076,0.112,0.453,0.839,0.544,0.978c0.012,0.017,0.034,0.044,0.029,0.056c-0.091,0.212-0.176,0.428-0.289,0.627
		c-0.021,0.034-0.186,0.027-0.242-0.015c-0.063-0.049-0.096-0.157-0.103-0.243c-0.007-0.066,0.053-0.138,0.069-0.212
		c0.012-0.044,0.005-0.098-0.008-0.146c-0.031-0.115-0.08-0.234-0.117-0.348C5.409,12.148,5.194,11.516,5.216,11.514z"/>
	<path fill-rule="evenodd" clip-rule="evenodd" fill="#B2B2B2" d="M9.182,8.019c0.017-0.057,0.02-0.076,0.026-0.096
		c0.108-0.299,0.108-0.304,0.415-0.286c0.146,0.008,0.233-0.039,0.312-0.168c0.074-0.126,0.196-0.225,0.301-0.332
		c0.017-0.018,0.058-0.032,0.081-0.025c0.129,0.042,0.257,0.091,0.413,0.148c-0.335,0.225-0.633,0.455-0.957,0.634
		C9.61,7.982,9.395,7.977,9.182,8.019z"/>
	<path fill-rule="evenodd" clip-rule="evenodd" fill="#B2B2B2" d="M9.491,7.17C9.528,7.074,9.566,6.981,9.61,6.868
		c0.148,0.049,0.29,0.096,0.459,0.153C9.992,7.103,9.928,7.17,9.87,7.234C9.745,7.212,9.623,7.192,9.491,7.17z"/>
</g>
</svg>
