<?xml version="1.0" encoding="utf-8"?>
<!-- Generator: Adobe Illustrator 16.0.0, SVG Export Plug-In . SVG Version: 6.00 Build 0)  -->
<!DOCTYPE svg PUBLIC "-//W3C//DTD SVG 1.1//EN" "http://www.w3.org/Graphics/SVG/1.1/DTD/svg11.dtd">
<svg version="1.1" id="Layer_1" xmlns="http://www.w3.org/2000/svg" xmlns:xlink="http://www.w3.org/1999/xlink" x="0px" y="0px"
	 width="16px" height="16px" viewBox="0 0 16 16" enable-background="new 0 0 16 16" xml:space="preserve">
<g>
	<path fill-rule="evenodd" clip-rule="evenodd" fill="#B2B2B2" d="M8.596,9.04c0.073,0.045,0.146,0.088,0.219,0.133
		c0.071,0.045,0.137,0.082,0.158,0.183c0.025,0.119,0.191,0.186,0.336,0.169C9.348,9.519,9.396,9.526,9.43,9.546
		c0.521,0.304,1.041,0.609,1.561,0.917c0.029,0.018,0.049,0.054,0.07,0.082c0.064,0.087,0.124,0.179,0.195,0.26
		c0.08,0.09,0.172,0.169,0.271,0.267c-0.039,0.006-0.061,0.01-0.082,0.01c-2.427,0-4.854,0.001-7.282-0.001
		c-0.269,0-0.507-0.093-0.704-0.281c-0.025-0.024-0.055-0.044-0.085-0.062c-0.412-0.256-0.599-0.704-0.483-1.163
		c0.112-0.445,0.511-0.771,0.98-0.794c0.12-0.005,0.241,0.002,0.36,0.017c0.159,0.02,0.284,0.104,0.386,0.228
		c0.023,0.029,0.071,0.054,0.107,0.054C5.984,9.081,7.242,9.081,8.5,9.079c0.029,0,0.059-0.012,0.089-0.02
		C8.592,9.054,8.594,9.048,8.596,9.04z"/>
	<path fill-rule="evenodd" clip-rule="evenodd" fill="#B2B2B2" d="M6.189,8.901c-0.388,0-0.77,0-1.158,0
		C5.029,8.869,5.026,8.841,5.026,8.813c0-0.174-0.005-0.348,0.002-0.521C5.032,8.212,5.002,8.18,4.932,8.152
		c-0.416-0.164-0.83-0.333-1.244-0.5c-0.024-0.01-0.055-0.014-0.072-0.031c-0.1-0.094-0.183-0.041-0.276,0.016
		C3.037,7.821,2.731,7.998,2.421,8.18c0.045,0.071-0.002,0.115-0.042,0.167C2.1,8.71,1.709,8.924,1.321,9.14
		C1.268,9.171,1.225,9.157,1.194,9.106c-0.079-0.135-0.157-0.27-0.236-0.404c-0.033-0.057-0.019-0.1,0.036-0.134
		c0.381-0.235,0.761-0.472,1.222-0.517c0.042-0.004,0.086,0.012,0.13,0.015c0.021,0.001,0.045-0.003,0.063-0.014
		C2.737,7.862,3.064,7.67,3.39,7.475c0.02-0.012,0.038-0.05,0.035-0.074c-0.029-0.219,0.17-0.39,0.376-0.302
		c0.114,0.049,0.193,0.027,0.29-0.031c0.563-0.335,1.13-0.667,1.697-0.997c0.06-0.035,0.08-0.066,0.069-0.137
		C5.832,5.767,5.931,5.638,6.093,5.608c0.146-0.027,0.291,0.073,0.325,0.231c0.068,0.316,0.137,0.632,0.196,0.95
		c0.014,0.073,0.003,0.16-0.024,0.229c-0.116,0.295-0.244,0.586-0.364,0.88C6.204,7.954,6.192,8.017,6.191,8.077
		C6.188,8.348,6.189,8.618,6.189,8.901z M5.896,6.139C5.284,6.498,4.688,6.848,4.077,7.208C4.379,7.333,4.666,7.44,4.941,7.569
		C5.158,7.671,5.377,7.717,5.615,7.7c0.058-0.004,0.088-0.019,0.11-0.074c0.096-0.24,0.197-0.478,0.296-0.717
		c0.01-0.024,0.023-0.052,0.019-0.075C5.995,6.607,5.946,6.381,5.896,6.139z"/>
	<path fill-rule="evenodd" clip-rule="evenodd" fill="#B2B2B2" d="M13.568,8.171c-0.233-0.138-0.479-0.282-0.725-0.427
		c-0.104-0.061-0.205-0.162-0.314-0.171c-0.104-0.009-0.215,0.08-0.323,0.124c-0.384,0.155-0.769,0.312-1.154,0.463
		c-0.056,0.022-0.075,0.049-0.074,0.109c0.005,0.177,0.001,0.354,0.001,0.53c0,0.032,0,0.063,0,0.101c-0.393,0-0.773,0-1.165,0
		c0-0.067-0.001-0.131,0-0.194C9.814,8.47,9.852,8.228,9.807,8C9.763,7.774,9.639,7.563,9.549,7.346
		C9.5,7.229,9.445,7.115,9.404,6.996c-0.02-0.059-0.03-0.128-0.019-0.188c0.062-0.32,0.132-0.639,0.2-0.958
		C9.622,5.678,9.765,5.577,9.92,5.61c0.166,0.035,0.262,0.177,0.227,0.35c-0.012,0.053,0.006,0.073,0.045,0.097
		c0.604,0.354,1.208,0.709,1.814,1.061c0.03,0.018,0.08,0.011,0.119,0.006c0.072-0.01,0.144-0.043,0.213-0.04
		c0.153,0.008,0.258,0.139,0.24,0.292c-0.008,0.061,0.009,0.089,0.059,0.118c0.316,0.182,0.631,0.368,0.945,0.552
		c0.031,0.019,0.059,0.048,0.098,0.003c0.014-0.016,0.063-0.008,0.094-0.001c0.172,0.039,0.344,0.079,0.514,0.124
		c0.059,0.016,0.115,0.043,0.17,0.073c0.178,0.102,0.355,0.208,0.533,0.312c0.088,0.053,0.096,0.08,0.043,0.17
		c-0.07,0.123-0.145,0.244-0.213,0.366c-0.039,0.067-0.088,0.079-0.154,0.04c-0.195-0.115-0.404-0.212-0.582-0.35
		c-0.185-0.144-0.339-0.325-0.502-0.495C13.563,8.268,13.572,8.219,13.568,8.171z M11.928,7.207
		c-0.615-0.36-1.213-0.712-1.818-1.067c-0.051,0.235-0.098,0.453-0.143,0.672C9.962,6.838,9.968,6.87,9.979,6.895
		c0.102,0.248,0.205,0.494,0.307,0.742c0.018,0.045,0.043,0.059,0.091,0.062c0.235,0.015,0.462-0.01,0.675-0.125
		c0.09-0.049,0.189-0.08,0.283-0.12C11.526,7.375,11.718,7.294,11.928,7.207z"/>
	<path fill-rule="evenodd" clip-rule="evenodd" fill="#B2B2B2" d="M9.617,9.08c0.033,0,0.068,0,0.104,0
		c0.668,0,1.337-0.001,2.006,0.001c0.061,0,0.104-0.013,0.141-0.064c0.094-0.125,0.223-0.199,0.379-0.223
		c0.404-0.059,0.775,0.004,1.073,0.311c0.444,0.455,0.382,1.181-0.13,1.556c-0.106,0.077-0.213,0.155-0.329,0.239
		c-0.011-0.133-0.101-0.193-0.202-0.248c-0.109-0.059-0.218-0.118-0.32-0.188c-0.288-0.197-0.62-0.268-0.955-0.304
		c-0.123-0.013-0.217-0.054-0.313-0.11c-0.465-0.266-0.927-0.537-1.393-0.801C9.608,9.208,9.572,9.171,9.617,9.08z"/>
	<path fill-rule="evenodd" clip-rule="evenodd" fill="#B2B2B2" d="M11.235,10.433c-0.554-0.325-1.095-0.643-1.636-0.96
		C9.56,9.448,9.518,9.427,9.479,9.401C9.419,9.36,9.365,9.339,9.286,9.37c-0.103,0.041-0.21-0.043-0.23-0.157
		c-0.005-0.024-0.01-0.059-0.026-0.068c-0.174-0.104-0.35-0.203-0.535-0.31c0.004,0.039,0.007,0.064,0.01,0.095
		C8.48,8.933,8.461,8.937,8.441,8.937c-0.321,0.001-0.643,0-0.964,0.002c-0.058,0-0.085-0.015-0.09-0.075
		C7.371,8.655,7.333,8.447,7.336,8.239c0.004-0.274-0.048-0.539-0.09-0.805C7.163,6.911,7.075,6.389,6.991,5.866
		c-0.029-0.18,0.085-0.298,0.233-0.249C7.308,5.645,7.342,5.71,7.355,5.79C7.393,6.02,7.429,6.249,7.466,6.479
		c0.06,0.375,0.121,0.749,0.18,1.124c0.008,0.052,0.03,0.073,0.086,0.071c0.22-0.007,0.44-0.011,0.661-0.012
		c0.042,0,0.087,0.014,0.127,0.031C8.799,7.811,9.076,7.931,9.355,8.05c0.168,0.072,0.195,0.125,0.176,0.307
		C9.5,8.632,9.475,8.907,9.441,9.183C9.436,9.233,9.453,9.255,9.492,9.278c0.58,0.338,1.158,0.678,1.736,1.019
		c0.035,0.021,0.063,0.04,0.1-0.001c0.012-0.013,0.051-0.006,0.076-0.001c0.328,0.058,0.65,0.134,0.93,0.332
		c0.102,0.071,0.213,0.126,0.319,0.189c0.054,0.031,0.075,0.073,0.04,0.132c-0.079,0.135-0.158,0.27-0.237,0.404
		c-0.03,0.053-0.075,0.065-0.127,0.037c-0.392-0.218-0.784-0.436-1.063-0.801C11.23,10.543,11.178,10.502,11.235,10.433z
		 M9.069,9.026c0.022-0.214,0.044-0.412,0.06-0.61c0.002-0.021-0.03-0.053-0.055-0.063C8.955,8.297,8.832,8.247,8.711,8.195
		C8.629,8.16,8.546,8.125,8.455,8.086C8.45,8.142,8.443,8.183,8.443,8.223c-0.002,0.1,0.002,0.2,0,0.301
		C8.441,8.631,8.484,8.702,8.586,8.747C8.68,8.79,8.766,8.851,8.854,8.901C8.922,8.941,8.989,8.98,9.069,9.026z"/>
	<path fill-rule="evenodd" clip-rule="evenodd" fill="#B2B2B2" d="M8.188,6.656c0.26,0.001,0.464,0.207,0.464,0.466
		c0,0.259-0.206,0.465-0.465,0.466c-0.261,0-0.475-0.214-0.471-0.472C7.72,6.859,7.93,6.655,8.188,6.656z"/>
	<path fill-rule="evenodd" clip-rule="evenodd" fill="#B2B2B2" d="M5.376,6.64c0.246,0,0.444,0.198,0.444,0.441
		c0,0.245-0.206,0.448-0.452,0.445C5.125,7.524,4.93,7.324,4.932,7.078C4.935,6.83,5.128,6.639,5.376,6.64z"/>
	<path fill-rule="evenodd" clip-rule="evenodd" fill="#B2B2B2" d="M11.073,7.079c0.001,0.245-0.194,0.445-0.438,0.448
		c-0.244,0.002-0.445-0.193-0.447-0.437c-0.002-0.254,0.189-0.45,0.441-0.45C10.876,6.64,11.072,6.833,11.073,7.079z"/>
</g>
</svg>
