<?xml version="1.0" encoding="utf-8"?>
<!-- Generator: Adobe Illustrator 16.0.0, SVG Export Plug-In . SVG Version: 6.00 Build 0)  -->
<!DOCTYPE svg PUBLIC "-//W3C//DTD SVG 1.1//EN" "http://www.w3.org/Graphics/SVG/1.1/DTD/svg11.dtd">
<svg version="1.1" id="Layer_1" xmlns="http://www.w3.org/2000/svg" xmlns:xlink="http://www.w3.org/1999/xlink" x="0px" y="0px"
	 width="16px" height="16px" viewBox="0 0 16 16" enable-background="new 0 0 16 16" xml:space="preserve">
<g>
	<path fill-rule="evenodd" clip-rule="evenodd" fill="#B2B2B2" d="M8.811,7.049c1.336,2.011,2.666,4.01,4,6.02
		c-0.066,0-0.125,0-0.184,0c-0.074,0-0.146-0.002-0.221,0c-0.031,0.003-0.047-0.01-0.063-0.034c-0.27-0.407-0.539-0.812-0.811-1.219
		c-0.467-0.702-0.934-1.405-1.4-2.107c-0.365-0.55-0.729-1.101-1.094-1.649c-0.26-0.39-0.521-0.779-0.777-1.168
		C8.181,6.768,8.171,6.637,8.238,6.506c0.068-0.129,0.181-0.192,0.325-0.2c0.023-0.001,0.043,0,0.064,0
		c0.934,0,1.867-0.001,2.799-0.001c0.311,0,0.619,0,0.928,0.001c0.197,0,0.361,0.148,0.377,0.335
		c0.018,0.199-0.113,0.373-0.313,0.402c-0.084,0.012-0.17,0.005-0.256,0.005c-1.1,0-2.199,0-3.299,0
		C8.85,7.049,8.836,7.049,8.811,7.049z"/>
	<path fill-rule="evenodd" clip-rule="evenodd" fill="#B2B2B2" d="M3.527,7.041c1.338,2.014,2.67,4.018,4.005,6.028
		c-0.145,0-0.287,0-0.429-0.002c-0.011,0-0.024-0.013-0.033-0.025c-0.269-0.404-0.539-0.811-0.808-1.215
		c-0.134-0.203-0.268-0.402-0.4-0.604c-0.464-0.695-0.927-1.394-1.39-2.091C3.97,8.378,3.467,7.626,2.972,6.87
		C2.808,6.619,2.991,6.319,3.255,6.303c0.068-0.004,0.137-0.002,0.206-0.002c1.137,0,2.273-0.001,3.41,0
		c0.097,0,0.196-0.004,0.29,0.012c0.182,0.033,0.308,0.214,0.287,0.393C7.426,6.898,7.272,7.041,7.083,7.041
		c-0.673,0.001-1.345,0-2.017,0c-0.498,0-0.996,0-1.494,0C3.562,7.041,3.551,7.041,3.527,7.041z"/>
	<path fill-rule="evenodd" clip-rule="evenodd" fill="#B2B2B2" d="M10.123,10.376c-0.066,0-0.127,0-0.189,0
		c-1.172,0-2.343,0-3.514,0c-0.066,0-0.132,0-0.198-0.003c-0.014,0-0.033-0.007-0.041-0.017c-0.157-0.237-0.314-0.472-0.47-0.708
		C5.708,9.646,5.708,9.641,5.705,9.634c0.016,0,0.028,0,0.041,0c1.282,0,2.564,0,3.846,0c0.033,0,0.051,0.01,0.068,0.034
		c0.148,0.228,0.299,0.451,0.445,0.676C10.111,10.352,10.117,10.361,10.123,10.376z"/>
	<path fill-rule="evenodd" clip-rule="evenodd" fill="#B2B2B2" d="M6.868,5.925c-0.515,0-0.93-0.416-0.93-0.929
		c0-0.513,0.417-0.928,0.93-0.928c0.519,0,0.932,0.416,0.929,0.936C7.795,5.503,7.389,5.928,6.868,5.925z"/>
	<path fill-rule="evenodd" clip-rule="evenodd" fill="#B2B2B2" d="M11.223,5.001c0.002-0.517,0.416-0.928,0.936-0.926
		c0.51,0.002,0.922,0.416,0.922,0.928c0,0.517-0.414,0.929-0.932,0.927C11.635,5.93,11.223,5.517,11.223,5.001z"/>
	<path fill-rule="evenodd" clip-rule="evenodd" fill="#B2B2B2" d="M10.98,9.634c0.992,0,1.98,0,2.971,0c0,0.246,0,0.49,0,0.739
		c-0.012,0-0.025,0.003-0.037,0.003c-0.799,0-1.602,0-2.4,0c-0.031,0-0.049-0.008-0.066-0.034c-0.148-0.225-0.297-0.449-0.445-0.674
		C10.994,9.658,10.988,9.651,10.98,9.634z"/>
	<path fill-rule="evenodd" clip-rule="evenodd" fill="#B2B2B2" d="M2.048,10.371c0-0.247,0-0.488,0-0.737c0.017,0,0.031,0,0.045,0
		c0.741,0,1.481,0,2.223,0c0.021,0,0.041,0,0.055,0.022c0.153,0.231,0.307,0.463,0.46,0.692c0.004,0.008,0.007,0.013,0.012,0.022
		C3.912,10.371,2.982,10.371,2.048,10.371z"/>
	<path fill-rule="evenodd" clip-rule="evenodd" fill="#B2B2B2" d="M4.478,7.786C4.543,7.791,4.603,7.791,4.661,7.8
		c0.333,0.044,0.625,0.192,0.904,0.37C5.983,8.437,6.35,8.766,6.697,9.118C6.739,9.16,6.781,9.202,6.822,9.246
		c0.002,0,0.001,0.005,0.002,0.011c-0.011,0-0.023,0.002-0.035,0.002c-0.332,0-0.664,0-0.996,0c-0.018,0-0.039-0.008-0.051-0.018
		C5.551,9.079,5.355,8.919,5.142,8.783c-0.01-0.008-0.019-0.018-0.024-0.027c-0.21-0.315-0.42-0.629-0.629-0.945
		C4.486,7.807,4.485,7.803,4.478,7.786z"/>
	<path fill-rule="evenodd" clip-rule="evenodd" fill="#B2B2B2" d="M12.109,9.259c-0.129,0-0.248,0-0.365,0
		c-0.225,0-0.447,0-0.668,0.003c-0.027,0-0.047-0.008-0.068-0.027c-0.182-0.158-0.371-0.309-0.574-0.439
		c-0.014-0.01-0.025-0.02-0.033-0.034c-0.207-0.31-0.416-0.623-0.625-0.935C9.773,7.821,9.771,7.814,9.762,7.801
		c0.023-0.002,0.043-0.005,0.063-0.005c0.221,0.009,0.43,0.072,0.629,0.163c0.338,0.155,0.639,0.371,0.924,0.607
		c0.244,0.202,0.471,0.419,0.689,0.648C12.078,9.227,12.092,9.239,12.109,9.259z"/>
	<path fill-rule="evenodd" clip-rule="evenodd" fill="#B2B2B2" d="M3.51,8.361C3.655,8.578,3.799,8.795,3.942,9.01
		C3.895,9.089,3.849,9.165,3.801,9.239c-0.006,0.01-0.023,0.02-0.036,0.02c-0.044,0.003-0.089,0-0.133,0c-0.224,0-0.447,0-0.679,0
		C3.105,8.936,3.283,8.635,3.51,8.361z"/>
	<path fill-rule="evenodd" clip-rule="evenodd" fill="#B2B2B2" d="M8.793,8.368c0.07,0.105,0.137,0.205,0.203,0.307
		C9.068,8.78,9.137,8.887,9.209,8.99c0.014,0.02,0.014,0.034,0,0.057C9.17,9.108,9.133,9.17,9.094,9.231
		C9.084,9.244,9.07,9.257,9.057,9.259c-0.27,0-0.539,0-0.817,0C8.391,8.94,8.568,8.643,8.793,8.368z"/>
</g>
</svg>
