<?xml version="1.0" encoding="utf-8"?>
<!-- Generator: Adobe Illustrator 16.0.0, SVG Export Plug-In . SVG Version: 6.00 Build 0)  -->
<!DOCTYPE svg PUBLIC "-//W3C//DTD SVG 1.1//EN" "http://www.w3.org/Graphics/SVG/1.1/DTD/svg11.dtd">
<svg version="1.1" id="Layer_1" xmlns="http://www.w3.org/2000/svg" xmlns:xlink="http://www.w3.org/1999/xlink" x="0px" y="0px"
	 width="16px" height="16px" viewBox="0 0 16 16" enable-background="new 0 0 16 16" xml:space="preserve">
<g>
	<path fill-rule="evenodd" clip-rule="evenodd" fill="#B2B2B2" d="M10.182,1.87c0.199,0.057,0.391,0.124,0.553,0.264
		c0.342,0.297,0.465,0.799,0.287,1.226c-0.172,0.416-0.604,0.678-1.051,0.654c-0.5-0.026-0.908-0.397-0.998-0.879
		C8.883,2.65,9.143,2.165,9.602,1.96c0.09-0.04,0.188-0.061,0.281-0.091C9.982,1.87,10.082,1.87,10.182,1.87z"/>
	<path fill-rule="evenodd" clip-rule="evenodd" fill="#B2B2B2" d="M6.353,5.241c0.063,0.297,0.186,0.547,0.313,0.795
		c0.057,0.111,0.121,0.224,0.155,0.343c0.073,0.26-0.074,0.525-0.345,0.651C6.212,7.154,5.933,7.103,5.783,6.867
		c-0.411-0.646-0.688-1.34-0.672-2.125c0.006-0.303,0.216-0.566,0.517-0.605C6.166,4.069,6.702,4.02,7.244,4.049
		c0.39,0.021,0.782,0.025,1.171,0.058C8.738,4.134,9.061,4.19,9.355,4.34c0.068,0.034,0.131,0.081,0.186,0.133
		c1.047,0.989,2.256,1.735,3.541,2.367c0.15,0.075,0.291,0.161,0.344,0.333c0.072,0.238-0.006,0.44-0.174,0.607
		c-0.174,0.173-0.389,0.249-0.619,0.147c-0.309-0.136-0.607-0.292-0.902-0.453c-0.664-0.362-1.303-0.761-1.908-1.214
		C9.811,6.252,9.797,6.245,9.781,6.236C9.77,6.249,9.758,6.259,9.752,6.271C9.396,7.023,8.924,7.702,8.459,8.388
		C8.1,8.916,7.783,9.473,7.444,10.015c-0.693,1.107-1.39,2.213-2.082,3.32c-0.141,0.226-0.329,0.351-0.601,0.313
		c-0.258-0.036-0.467-0.228-0.526-0.469c-0.042-0.171,0.021-0.316,0.104-0.457c0.227-0.382,0.456-0.763,0.681-1.146
		c0.436-0.742,0.869-1.487,1.303-2.23C6.279,9.267,6.24,9.265,6.181,9.325c-0.538,0.562-1.102,1.1-1.556,1.738
		c-0.24,0.338-0.681,0.354-0.967,0.059c-0.167-0.172-0.213-0.4-0.081-0.599c0.198-0.3,0.408-0.595,0.638-0.87
		c0.446-0.537,0.911-1.059,1.365-1.587c0.086-0.099,0.217-0.162,0.252-0.305c0.004-0.014,0.049-0.03,0.072-0.026
		c1.103,0.164,2.082-0.874,2.197-1.687c0.016-0.116,0.015-0.24-0.009-0.354C8.033,5.39,7.829,5.23,7.515,5.229
		c-0.334-0.002-0.667,0-1.001,0.001C6.465,5.23,6.417,5.236,6.353,5.241z"/>
	<path fill-rule="evenodd" clip-rule="evenodd" fill="#B2B2B2" d="M6.64,5.632C6.953,5.469,7.263,5.37,7.608,5.44
		c0.188,0.039,0.283,0.158,0.297,0.355c0.026,0.39-0.147,0.706-0.379,0.994C7.277,7.1,6.974,7.342,6.584,7.456
		C6.35,7.525,6.115,7.554,5.873,7.49c-0.113-0.03-0.172-0.096-0.177-0.208c-0.004-0.094,0-0.188,0-0.308
		c0.14,0.126,0.276,0.21,0.447,0.224c0.292,0.024,0.524-0.09,0.699-0.315C7.015,6.66,7.034,6.411,6.914,6.158
		C6.83,5.982,6.735,5.813,6.64,5.632z"/>
</g>
</svg>
