<?xml version="1.0" encoding="utf-8"?>
<!-- Generator: Adobe Illustrator 16.0.0, SVG Export Plug-In . SVG Version: 6.00 Build 0)  -->
<!DOCTYPE svg PUBLIC "-//W3C//DTD SVG 1.1//EN" "http://www.w3.org/Graphics/SVG/1.1/DTD/svg11.dtd">
<svg version="1.1" id="Layer_1" xmlns="http://www.w3.org/2000/svg" xmlns:xlink="http://www.w3.org/1999/xlink" x="0px" y="0px"
	 width="16px" height="16px" viewBox="0 0 16 16" enable-background="new 0 0 16 16" xml:space="preserve">
<g>
	<path fill-rule="evenodd" clip-rule="evenodd" fill="#B2B2B2" d="M7.428,11.211c2.025-2.688,1.285-5.366-0.034-8.094
		c0.176,0.032,0.255,0.028,0.314,0.06c1.639,0.88,3.15,1.924,4.31,3.389c0.641,0.811,1.1,1.715,1.059,2.767
		c-0.019,0.474-0.185,0.941-0.31,1.405c-0.026,0.095-0.165,0.219-0.258,0.226c-1.644,0.107-3.287,0.198-4.932,0.292
		C7.554,11.257,7.529,11.241,7.428,11.211z"/>
	<path fill-rule="evenodd" clip-rule="evenodd" fill="#B2B2B2" d="M7.705,13.563c-1.441,0-2.883-0.011-4.324,0.009
		c-0.337,0.005-0.541-0.084-0.643-0.399c-0.035-0.108-0.103-0.205-0.151-0.31c-0.177-0.374-0.147-0.428,0.268-0.469
		c2.813-0.282,5.627-0.563,8.442-0.845c0.618-0.063,1.236-0.139,1.855-0.196c0.118-0.01,0.243,0.035,0.363,0.055
		c-0.025,0.127-0.021,0.27-0.081,0.378c-0.258,0.455-0.546,0.896-0.8,1.354c-0.113,0.204-0.247,0.287-0.488,0.285
		c-1.48-0.01-2.961-0.005-4.441-0.005C7.705,13.467,7.705,13.515,7.705,13.563z"/>
	<path fill-rule="evenodd" clip-rule="evenodd" fill="#B2B2B2" d="M7.139,4.462C7.035,6.761,6.931,9.06,6.825,11.408
		c-0.982,0.108-1.953,0.217-3.018,0.334c1.104-2.479,2.18-4.894,3.255-7.308C7.087,4.444,7.113,4.453,7.139,4.462z"/>
</g>
</svg>
