<?xml version="1.0" encoding="utf-8"?>
<!-- Generator: Adobe Illustrator 16.0.0, SVG Export Plug-In . SVG Version: 6.00 Build 0)  -->
<!DOCTYPE svg PUBLIC "-//W3C//DTD SVG 1.1//EN" "http://www.w3.org/Graphics/SVG/1.1/DTD/svg11.dtd">
<svg version="1.1" id="Layer_1" xmlns="http://www.w3.org/2000/svg" xmlns:xlink="http://www.w3.org/1999/xlink" x="0px" y="0px"
	 width="16px" height="16px" viewBox="0 0 16 16" enable-background="new 0 0 16 16" xml:space="preserve">
<g>
	<path fill-rule="evenodd" clip-rule="evenodd" fill="#B2B2B2" d="M8.374,7.56C8.786,7.893,9.182,8.224,9.59,8.537
		c0.285,0.219,0.424,0.487,0.416,0.852c-0.012,0.641-0.001,1.281-0.004,1.922c-0.001,0.388-0.227,0.642-0.568,0.652
		c-0.359,0.01-0.605-0.234-0.613-0.632c-0.008-0.502-0.009-1.003,0-1.505c0.004-0.162-0.04-0.27-0.17-0.372
		C8.051,8.98,7.462,8.494,6.868,8.015C6.296,7.554,6.301,6.88,6.878,6.429c0.535-0.418,1.066-0.841,1.599-1.262
		c0.01-0.008,0.014-0.024,0.037-0.063C8.421,5.101,8.342,5.094,8.262,5.094c-0.895-0.001-1.79,0.001-2.686-0.001
		c-0.33-0.001-0.529-0.168-0.545-0.443c-0.018-0.31,0.19-0.51,0.547-0.511C6.504,4.135,7.43,4.137,8.356,4.137
		c0.448,0,0.895-0.002,1.343,0.001c0.473,0.004,0.811,0.227,0.957,0.625c0.143,0.388,0.04,0.772-0.313,1.082
		C9.748,6.37,9.143,6.886,8.543,7.407C8.491,7.451,8.442,7.498,8.374,7.56z"/>
	<path fill-rule="evenodd" clip-rule="evenodd" fill="#B2B2B2" d="M10.715,3.669c-0.006-0.643,0.519-1.177,1.166-1.191
		c0.652-0.014,1.195,0.513,1.209,1.173c0.014,0.65-0.523,1.197-1.179,1.201C11.252,4.856,10.722,4.332,10.715,3.669z"/>
	<path fill-rule="evenodd" clip-rule="evenodd" fill="#B2B2B2" d="M6.452,8.297c0.061,0.046,0.111,0.081,0.159,0.12
		c0.245,0.198,0.49,0.397,0.746,0.604c-0.029,0.04-0.051,0.079-0.081,0.109c-0.642,0.643-1.285,1.286-1.929,1.927
		c-0.17,0.17-0.37,0.245-0.61,0.17c-0.228-0.069-0.39-0.224-0.403-0.454c-0.009-0.162,0.027-0.378,0.13-0.486
		C5.109,9.615,5.778,8.967,6.452,8.297z"/>
	<path fill-rule="evenodd" clip-rule="evenodd" fill="#B2B2B2" d="M9.051,12.546c0.307-0.452,0.62-0.46,0.955-0.023
		c0.207-0.289,0.389-0.374,0.627-0.288c0.215,0.078,0.323,0.238,0.314,0.462c-0.008,0.223-0.129,0.374-0.348,0.437
		c-0.231,0.067-0.408-0.024-0.552-0.253c-0.179,0.094-0.345,0.232-0.527,0.262c-0.213,0.035-0.37-0.124-0.384-0.244
		c-0.109,0.065-0.214,0.15-0.332,0.191c-0.11,0.037-0.242,0.058-0.354,0.035c-0.215-0.045-0.353-0.251-0.343-0.463
		c0.009-0.214,0.159-0.392,0.375-0.443C8.711,12.162,8.883,12.262,9.051,12.546z"/>
	<path fill-rule="evenodd" clip-rule="evenodd" fill="#B2B2B2" d="M4.329,12.01c-0.5,0.106-0.771-0.162-0.681-0.66
		c-0.344,0.081-0.544,0.028-0.666-0.186c-0.111-0.195-0.093-0.389,0.056-0.556c0.143-0.159,0.328-0.197,0.527-0.123
		c0.231,0.087,0.306,0.273,0.274,0.661c0.512-0.141,0.793,0.099,0.718,0.553c0.188,0.054,0.386,0.075,0.541,0.167
		c0.09,0.054,0.146,0.219,0.156,0.339c0.022,0.264-0.221,0.481-0.489,0.47C4.447,12.66,4.287,12.416,4.329,12.01z"/>
</g>
</svg>
