<?xml version="1.0" encoding="utf-8"?>
<!-- Generator: Adobe Illustrator 16.0.0, SVG Export Plug-In . SVG Version: 6.00 Build 0)  -->
<!DOCTYPE svg PUBLIC "-//W3C//DTD SVG 1.1//EN" "http://www.w3.org/Graphics/SVG/1.1/DTD/svg11.dtd">
<svg version="1.1" id="Layer_1" xmlns="http://www.w3.org/2000/svg" xmlns:xlink="http://www.w3.org/1999/xlink" x="0px" y="0px"
	 width="16px" height="16px" viewBox="0 0 16 16" enable-background="new 0 0 16 16" xml:space="preserve">
<g>
	<path fill-rule="evenodd" clip-rule="evenodd" fill="#B2B2B2" d="M7.131,5.812c-0.248-0.16-0.488-0.315-0.729-0.471
		C6.016,5.09,5.629,4.839,5.243,4.588C5.156,4.532,5.134,4.438,5.185,4.36c0.052-0.079,0.146-0.096,0.232-0.041
		c0.161,0.103,0.321,0.207,0.481,0.312c0.455,0.293,0.909,0.588,1.363,0.882C7.28,5.526,7.299,5.538,7.32,5.551
		c0.041-0.046,0.077-0.091,0.117-0.133c0.49-0.5,1.081-0.809,1.772-0.925C9.38,4.465,9.553,4.467,9.722,4.504
		c0.364,0.08,0.607,0.341,0.676,0.713c0.04,0.228,0.016,0.452-0.016,0.677c-0.044,0.31-0.061,0.623-0.054,0.937
		c0.003,0.05,0.019,0.079,0.065,0.103c0.317,0.165,0.625,0.341,0.896,0.577c0.06,0.051,0.114,0.109,0.16,0.172
		c0.113,0.154,0.069,0.342-0.101,0.434c-0.145,0.08-0.299,0.075-0.452,0.044c-0.235-0.044-0.434-0.166-0.627-0.295
		c-0.5-0.332-1.003-0.664-1.504-0.997C8.721,6.839,8.689,6.834,8.645,6.87C8.563,6.932,8.476,6.987,8.387,7.05
		C8.484,7.123,8.579,7.189,8.67,7.261c0.292,0.235,0.586,0.468,0.873,0.708c0.146,0.123,0.251,0.276,0.282,0.472
		C9.851,8.602,9.81,8.75,9.741,8.892C9.613,9.153,9.439,9.383,9.248,9.6c-0.359,0.406-0.719,0.813-1.078,1.217
		c-0.013,0.016-0.026,0.031-0.044,0.053c0.123,0.066,0.24,0.131,0.358,0.195c0.676,0.371,1.353,0.742,2.03,1.111
		c0.292,0.158,0.601,0.254,0.937,0.232c0.291-0.018,0.511-0.154,0.666-0.398c0.008-0.016,0.018-0.027,0.026-0.045
		c0.052-0.07,0.142-0.09,0.214-0.047c0.075,0.041,0.105,0.135,0.063,0.215c-0.138,0.24-0.329,0.424-0.597,0.521
		c-0.316,0.119-0.637,0.094-0.961,0.008c-0.26-0.068-0.494-0.201-0.729-0.328C8.617,11.502,7.1,10.672,5.584,9.842
		c-0.65-0.355-1.301-0.713-1.951-1.068C3.617,8.765,3.6,8.756,3.584,8.746c-0.079-0.05-0.104-0.141-0.06-0.219
		C3.567,8.452,3.66,8.424,3.74,8.466c0.212,0.115,0.424,0.231,0.636,0.348c0.938,0.514,1.876,1.025,2.813,1.541
		c0.029,0.016,0.048,0.025,0.076-0.006c0.354-0.41,0.708-0.82,0.998-1.281c0.05-0.08,0.092-0.167,0.134-0.253
		C8.454,8.7,8.435,8.591,8.36,8.488c-0.106-0.147-0.252-0.249-0.4-0.35c-0.228-0.154-0.46-0.301-0.685-0.46
		c-0.16-0.113-0.304-0.245-0.389-0.428C6.759,6.985,6.759,6.712,6.836,6.434c0.055-0.196,0.145-0.377,0.251-0.55
		C7.101,5.862,7.114,5.84,7.131,5.812z M9.344,6.862C9.334,6.706,9.325,6.564,9.315,6.41C9.202,6.488,9.099,6.559,8.989,6.634
		C9.107,6.71,9.22,6.782,9.344,6.862z"/>
	<path fill-rule="evenodd" clip-rule="evenodd" fill="#B2B2B2" d="M11.559,3.5c0.519,0,0.939,0.421,0.939,0.94
		c0,0.514-0.423,0.937-0.938,0.937c-0.52,0-0.94-0.419-0.94-0.938C10.62,3.919,11.038,3.5,11.559,3.5z"/>
</g>
</svg>
