<?xml version="1.0" encoding="utf-8"?>
<!-- Generator: Adobe Illustrator 16.0.0, SVG Export Plug-In . SVG Version: 6.00 Build 0)  -->
<!DOCTYPE svg PUBLIC "-//W3C//DTD SVG 1.1//EN" "http://www.w3.org/Graphics/SVG/1.1/DTD/svg11.dtd">
<svg version="1.1" id="Layer_1" xmlns="http://www.w3.org/2000/svg" xmlns:xlink="http://www.w3.org/1999/xlink" x="0px" y="0px"
	 width="16px" height="16px" viewBox="0 0 16 16" enable-background="new 0 0 16 16" xml:space="preserve">
<g>
	<path fill-rule="evenodd" clip-rule="evenodd" fill="#B2B2B2" d="M8.785,9.025c-0.232,0.435-0.452,0.844-0.68,1.271
		c0.118,0.107,0.247,0.228,0.376,0.346c0.42,0.379,0.842,0.758,1.262,1.138c0.179,0.184,0.34,0.182,0.348,0.181
		c0.131-0.012,0.271-0.02,0.406-0.043c0.174-0.031,0.311,0.037,0.352,0.191c0.041,0.149-0.041,0.298-0.205,0.344
		c-0.52,0.142-0.968,0.018-1.332-0.321c-0.012-0.011-0.964-0.87-1.001-0.903c-1.252-1.124-2.504-2.25-3.756-3.375
		C4.461,7.771,4.388,7.678,4.422,7.542C4.475,7.33,4.705,7.253,4.873,7.4c0.368,0.321,0.73,0.649,1.094,0.976
		c0.424,0.38,0.848,0.762,1.272,1.143c0.028,0.025,0.059,0.048,0.107,0.087C7.375,9.539,7.397,9.484,7.422,9.43
		C7.667,8.902,7.91,8.373,8.158,7.847c0.153-0.325,0.471-0.422,0.781-0.245c0.309,0.177,0.616,0.355,0.925,0.532
		C9.875,8.141,9.89,8.143,9.913,8.15c0.053-0.109,0.071-0.19-0.065-0.264C9.561,7.73,9.285,7.553,9,7.396
		C8.619,7.186,8.147,7.359,7.961,7.768c-0.031,0.068-0.06,0.137-0.099,0.224C7.615,7.719,7.386,7.462,7.152,7.211
		c-1.285-1.378-2.57-2.755-3.856-4.132C3.04,2.805,3,2.493,3.187,2.232c0.219-0.304,0.647-0.338,0.936-0.068
		c0.875,0.818,1.737,1.65,2.623,2.457C8.1,5.852,9.469,7.067,10.834,8.287c0.223,0.2,0.398,0.429,0.483,0.719
		c0.214,0.725-0.388,1.361-1.125,1.186c-0.347-0.082-0.634-0.27-0.867-0.537C9.148,9.453,8.977,9.249,8.785,9.025z"/>
	<path fill-rule="evenodd" clip-rule="evenodd" fill="#B2B2B2" d="M11.766,11.845c-0.601-0.298-0.849-1.029-0.549-1.619
		c0.303-0.597,1.033-0.842,1.625-0.546c0.6,0.299,0.848,1.022,0.555,1.621C13.1,11.906,12.377,12.148,11.766,11.845z"/>
</g>
</svg>
