<?xml version="1.0" encoding="utf-8"?>
<!-- Generator: Adobe Illustrator 16.0.0, SVG Export Plug-In . SVG Version: 6.00 Build 0)  -->
<!DOCTYPE svg PUBLIC "-//W3C//DTD SVG 1.1//EN" "http://www.w3.org/Graphics/SVG/1.1/DTD/svg11.dtd">
<svg version="1.1" id="Layer_1" xmlns="http://www.w3.org/2000/svg" xmlns:xlink="http://www.w3.org/1999/xlink" x="0px" y="0px"
	 width="16px" height="16px" viewBox="0 0 16 16" enable-background="new 0 0 16 16" xml:space="preserve">
<g>
	<path fill-rule="evenodd" clip-rule="evenodd" fill="#B2B2B2" d="M8.014,7.873C7.541,7.854,7.069,7.83,6.596,7.822
		C6.548,7.821,6.472,7.908,6.455,7.967C6.381,8.23,6.334,8.501,6.256,8.762C6.215,8.9,6.131,9.025,6.052,9.185
		c-0.322-0.286-0.608-0.532-0.883-0.79c-0.038-0.036-0.048-0.13-0.034-0.188c0.093-0.392,0.19-0.781,0.297-1.169
		c0.089-0.324,0.299-0.475,0.639-0.475c0.393-0.001,0.785,0,1.227,0C7.11,6.205,6.945,5.889,6.77,5.553
		C6.206,6.022,5.656,6.48,5.106,6.938c-0.204,0.17-0.406,0.343-0.613,0.51C4.214,7.674,3.858,7.65,3.655,7.397
		c-0.198-0.247-0.153-0.583,0.12-0.812C4.583,5.907,5.39,5.228,6.206,4.559c0.112-0.092,0.267-0.156,0.41-0.181
		c1.379-0.238,2.763-0.453,4.14-0.703c0.359-0.065,0.702-0.225,1.048-0.353c0.354-0.13,0.703-0.277,1.056-0.413
		c0.35-0.133,0.668-0.015,0.789,0.288c0.124,0.308-0.021,0.616-0.365,0.754c-0.636,0.253-1.261,0.541-1.914,0.734
		c-0.543,0.161-1.121,0.206-1.684,0.301C9.566,5.007,9.447,5.025,9.292,5.05c0.056,0.11,0.105,0.206,0.153,0.303
		c0.217,0.439,0.447,0.873,0.645,1.321c0.276,0.628,0.141,1.197-0.371,1.637c-0.326,0.28-0.707,0.499-1.074,0.728
		c-0.11,0.068-0.16,0.126-0.157,0.258c0.008,0.468,0.013,0.935-0.002,1.401c-0.005,0.164-0.072,0.326-0.124,0.543
		c-0.386-0.343-0.713-0.627-1.031-0.922c-0.045-0.041-0.066-0.127-0.067-0.192C7.258,9.668,7.26,9.209,7.262,8.75
		c0.001-0.238,0.112-0.414,0.312-0.537C7.723,8.12,7.871,8.024,8.02,7.93C8.018,7.911,8.016,7.892,8.014,7.873z"/>
	<path fill-rule="evenodd" clip-rule="evenodd" fill="#B2B2B2" d="M8.62,12.978c-0.097-0.006-0.193-0.011-0.289-0.016
		c-0.495-0.028-0.915-0.182-1.3-0.533C5.563,11.09,4.065,9.782,2.577,8.465C2.384,8.293,2.27,8.092,2.319,7.828
		c0.047-0.25,0.196-0.421,0.439-0.497c0.266-0.083,0.483,0.017,0.682,0.195c0.912,0.815,1.827,1.626,2.741,2.44
		c0.944,0.839,1.888,1.679,2.83,2.521c0.108,0.097,0.303,0.194,0.191,0.36c-0.063,0.093-0.254,0.104-0.391,0.14
		C8.752,13.001,8.685,12.981,8.62,12.978L8.62,12.978z"/>
	<path fill-rule="evenodd" clip-rule="evenodd" fill="#B2B2B2" d="M7.253,4.078c-0.556-0.004-0.996-0.449-0.988-1
		C6.272,2.543,6.725,2.1,7.259,2.102c0.548,0.002,0.986,0.451,0.984,1.007C8.24,3.648,7.797,4.082,7.253,4.078z"/>
</g>
</svg>
