<?xml version="1.0" encoding="utf-8"?>
<!-- Generator: Adobe Illustrator 16.0.0, SVG Export Plug-In . SVG Version: 6.00 Build 0)  -->
<!DOCTYPE svg PUBLIC "-//W3C//DTD SVG 1.1//EN" "http://www.w3.org/Graphics/SVG/1.1/DTD/svg11.dtd">
<svg version="1.1" id="Layer_1" xmlns="http://www.w3.org/2000/svg" xmlns:xlink="http://www.w3.org/1999/xlink" x="0px" y="0px"
	 width="16px" height="16px" viewBox="0 0 16 16" enable-background="new 0 0 16 16" xml:space="preserve">
<g>
	<path fill-rule="evenodd" clip-rule="evenodd" fill="#B2B2B2" d="M6.774,8.374C7.344,8.61,7.913,8.847,8.484,9.08
		c0.167,0.069,0.316,0.158,0.406,0.321c0.035,0.063,0.063,0.13,0.08,0.199c0.222,0.943,0.444,1.887,0.66,2.832
		c0.08,0.354-0.149,0.703-0.502,0.791c-0.33,0.085-0.691-0.106-0.785-0.45c-0.136-0.494-0.243-0.995-0.361-1.494
		c-0.074-0.321-0.145-0.642-0.224-0.96c-0.011-0.045-0.056-0.099-0.098-0.117C7.367,10.075,7.07,9.956,6.758,9.829
		c0.023,0.068,0.047,0.124,0.062,0.185c0.037,0.161,0.013,0.321-0.054,0.47c-0.34,0.757-0.683,1.512-1.028,2.266
		c-0.124,0.27-0.333,0.421-0.635,0.413c-0.282-0.008-0.487-0.147-0.602-0.406c-0.087-0.196-0.066-0.389,0.022-0.581
		c0.272-0.598,0.539-1.199,0.813-1.796c0.037-0.08,0.037-0.134-0.022-0.201c-0.315-0.37-0.621-0.748-0.94-1.114
		C3.96,8.588,3.979,7.932,4.439,7.469C5.136,6.768,5.837,6.07,6.538,5.371c0.099-0.099,0.193-0.206,0.306-0.289
		c0.265-0.196,0.625-0.194,0.915-0.001c1.042,0.695,2.083,1.393,3.123,2.088c0.174,0.116,0.35,0.229,0.521,0.35
		c0.28,0.197,0.328,0.494,0.132,0.774c-0.011,0.013-0.021,0.026-0.028,0.04c-0.203,0.356-0.382,0.43-0.783,0.354
		c-0.85-0.162-1.701-0.315-2.554-0.472C7.84,8.154,7.514,8.091,7.187,8.036C7.141,8.028,7.079,8.049,7.042,8.078
		C6.94,8.156,6.848,8.246,6.751,8.332C6.759,8.345,6.767,8.36,6.774,8.374z M8.382,6.755C8.275,6.846,8.179,6.926,8.068,7.02
		C8.386,7.077,8.68,7.129,8.972,7.181c0.003-0.008,0.006-0.017,0.007-0.025C8.771,7.016,8.563,6.876,8.382,6.755z"/>
	<path fill-rule="evenodd" clip-rule="evenodd" fill="#B2B2B2" d="M9.239,3.81c0.018,0.603-0.452,1.086-1.087,1.087
		C7.626,4.897,7.098,4.494,7.1,3.81c0.002-0.551,0.429-1.004,0.992-1.05C8.719,2.709,9.245,3.224,9.239,3.81z"/>
	<path fill-rule="evenodd" clip-rule="evenodd" fill="#B2B2B2" d="M10.8,5.877c-0.002-0.521,0.418-0.944,0.937-0.945
		c0.52,0,0.944,0.42,0.949,0.939c0.005,0.512-0.425,0.943-0.941,0.945C11.222,6.818,10.802,6.4,10.8,5.877z"/>
</g>
</svg>
