<?xml version="1.0" encoding="utf-8"?>
<!-- Generator: Adobe Illustrator 16.0.0, SVG Export Plug-In . SVG Version: 6.00 Build 0)  -->
<!DOCTYPE svg PUBLIC "-//W3C//DTD SVG 1.1//EN" "http://www.w3.org/Graphics/SVG/1.1/DTD/svg11.dtd">
<svg version="1.1" id="Layer_1" xmlns="http://www.w3.org/2000/svg" xmlns:xlink="http://www.w3.org/1999/xlink" x="0px" y="0px"
	 width="16px" height="16px" viewBox="0 0 16 16" enable-background="new 0 0 16 16" xml:space="preserve">
<g>
	<g>
		<path fill-rule="evenodd" clip-rule="evenodd" fill="#B2B2B2" d="M6.461,7.653c-0.087,0.488-0.132,0.98-0.266,1.446
			c-0.382,1.334-1.164,2.435-2.118,3.421c-0.249,0.257-0.591,0.256-0.817,0.026c-0.23-0.231-0.221-0.55,0.03-0.818
			c0.746-0.801,1.384-1.67,1.765-2.707c0.257-0.701,0.31-1.422,0.198-2.209C4.934,7.146,4.76,7.513,4.606,7.89
			C4.553,8.019,4.521,8.156,4.463,8.283c-0.128,0.28-0.424,0.4-0.699,0.294C3.483,8.471,3.323,8.189,3.411,7.903
			c0.322-1.05,0.879-1.938,1.813-2.556c0.308-0.204,0.633-0.138,0.841,0.175c0.419,0.629,0.93,1.154,1.63,1.479
			c0.301,0.14,0.403,0.469,0.272,0.754c-0.13,0.281-0.454,0.419-0.75,0.291C6.955,7.931,6.708,7.782,6.461,7.653z"/>
		<path fill-rule="evenodd" clip-rule="evenodd" fill="#B2B2B2" d="M6.684,8.647C7.25,9.75,7.81,10.833,8.359,11.922
			c0.137,0.271,0.031,0.576-0.209,0.702c-0.273,0.143-0.587,0.054-0.737-0.234c-0.39-0.75-0.771-1.505-1.15-2.261
			c-0.028-0.056-0.042-0.14-0.023-0.197C6.379,9.513,6.527,9.097,6.684,8.647z"/>
		<path fill-rule="evenodd" clip-rule="evenodd" fill="#B2B2B2" d="M5.556,3.253c0.483,0,0.882,0.396,0.884,0.88
			C6.44,4.615,6.038,5.02,5.559,5.019C5.076,5.018,4.674,4.618,4.673,4.137C4.672,3.657,5.074,3.254,5.556,3.253z"/>
	</g>
	<g>
		<path fill-rule="evenodd" clip-rule="evenodd" fill="#B2B2B2" d="M12.132,12.781c-0.191-0.072-0.281-0.22-0.337-0.411
			c-0.209-0.721-0.427-1.441-0.649-2.158c-0.031-0.105-0.102-0.197-0.151-0.291c0.262-0.09,0.546-0.188,0.847-0.292
			c0.014,0.034,0.037,0.081,0.051,0.13c0.247,0.817,0.493,1.634,0.738,2.452c0.077,0.255-0.021,0.453-0.271,0.554
			c-0.008,0.004-0.015,0.011-0.021,0.017C12.269,12.781,12.2,12.781,12.132,12.781z"/>
		<path fill-rule="evenodd" clip-rule="evenodd" fill="#B2B2B2" d="M11.311,3.219c0.037,0.013,0.074,0.026,0.111,0.038
			c0.43,0.13,0.701,0.561,0.632,1.006c-0.067,0.432-0.456,0.765-0.893,0.763c-0.439-0.001-0.837-0.341-0.894-0.764
			c-0.062-0.462,0.205-0.879,0.642-1.008c0.034-0.01,0.069-0.023,0.102-0.035C11.111,3.219,11.211,3.219,11.311,3.219z"/>
		<path fill-rule="evenodd" clip-rule="evenodd" fill="#B2B2B2" d="M10.163,6.166c-0.199,0.116-0.386,0.19-0.48,0.405
			C9.545,6.886,9.374,7.188,9.215,7.494C9.118,7.681,8.903,7.719,8.766,7.577c-0.08-0.081-0.106-0.195-0.053-0.301
			c0.206-0.407,0.415-0.813,0.626-1.219c0.014-0.024,0.05-0.049,0.077-0.051c0.24-0.025,0.415-0.153,0.561-0.334
			c0.031-0.037,0.067-0.073,0.109-0.098c0.149-0.093,0.302-0.184,0.456-0.271c0.224-0.127,0.447-0.111,0.665,0.013
			c0.023,0.014,0.04,0.052,0.045,0.08c0.019,0.083,0.022,0.167,0.044,0.248c0.039,0.135,0.105,0.249,0.242,0.314
			c0.086,0.042,0.168,0.097,0.241,0.159c0.128,0.109,0.122,0.257,0.096,0.404c-0.025,0.141-0.098,0.246-0.242,0.291
			c-0.063,0.019-0.09,0.001-0.112-0.057c-0.118-0.307-0.236-0.615-0.359-0.92c-0.063-0.153-0.189-0.231-0.351-0.228
			c-0.149,0.002-0.288,0.089-0.327,0.232c-0.022,0.082-0.028,0.184,0,0.261c0.179,0.48,0.364,0.958,0.563,1.431
			c0.041,0.102,0.043,0.187,0.028,0.29c-0.031,0.228-0.049,0.457-0.065,0.687c-0.002,0.042,0.022,0.097,0.052,0.129
			c0.256,0.276,0.516,0.549,0.785,0.837c-0.887,0.424-1.788,0.535-2.744,0.268C9.13,9.608,9.153,9.484,9.183,9.361
			c0.129-0.53,0.284-1.05,0.575-1.519c0.208-0.337,0.36-0.696,0.401-1.093C10.179,6.564,10.163,6.375,10.163,6.166z"/>
		<path fill-rule="evenodd" clip-rule="evenodd" fill="#B2B2B2" d="M10.774,9.967c0.043,0.158,0.022,0.303-0.061,0.446
			c-0.402,0.697-0.8,1.398-1.199,2.098c-0.118,0.206-0.328,0.289-0.529,0.212c-0.245-0.095-0.345-0.376-0.211-0.611
			c0.345-0.608,0.693-1.215,1.04-1.823c0.05-0.09,0.098-0.183,0.146-0.273C10.223,9.999,10.494,9.983,10.774,9.967z"/>
		<path fill-rule="evenodd" clip-rule="evenodd" fill="#B2B2B2" d="M10.816,5.696c0.124-0.001,0.217,0.063,0.269,0.195
			c0.156,0.397,0.315,0.796,0.467,1.197c0.029,0.076,0.074,0.12,0.148,0.151c0.341,0.149,0.681,0.304,1.021,0.456
			c0.113,0.05,0.181,0.132,0.185,0.257c0.005,0.104-0.045,0.186-0.135,0.24c-0.08,0.049-0.165,0.051-0.25,0.014
			c-0.417-0.186-0.834-0.37-1.249-0.563c-0.061-0.028-0.119-0.093-0.146-0.158C10.935,7.02,10.753,6.55,10.57,6.082
			C10.496,5.889,10.62,5.7,10.816,5.696z"/>
		<path fill-rule="evenodd" clip-rule="evenodd" fill="#B2B2B2" d="M10.175,3.978c0,0.101,0,0.193,0,0.287
			c0,0.015,0.002,0.034-0.005,0.045c-0.117,0.166-0.095,0.36-0.112,0.547c-0.016,0.183-0.019,0.368-0.06,0.544
			c-0.077,0.326-0.396,0.545-0.71,0.505C9.223,5.897,9.162,5.862,9.1,5.838c0.002-0.012,0.004-0.025,0.006-0.037
			C9.13,5.796,9.154,5.789,9.18,5.788c0.13-0.01,0.232-0.074,0.271-0.194c0.043-0.138,0.07-0.282,0.086-0.426
			C9.558,4.959,9.542,4.744,9.58,4.539C9.636,4.242,9.882,4.022,10.175,3.978z"/>
	</g>
</g>
</svg>
