<?xml version="1.0" encoding="utf-8"?>
<!-- Generator: Adobe Illustrator 16.0.0, SVG Export Plug-In . SVG Version: 6.00 Build 0)  -->
<!DOCTYPE svg PUBLIC "-//W3C//DTD SVG 1.1//EN" "http://www.w3.org/Graphics/SVG/1.1/DTD/svg11.dtd">
<svg version="1.1" id="Layer_1" xmlns="http://www.w3.org/2000/svg" xmlns:xlink="http://www.w3.org/1999/xlink" x="0px" y="0px"
	 width="16px" height="16px" viewBox="0 0 16 16" enable-background="new 0 0 16 16" xml:space="preserve">
<g>
	<path fill-rule="evenodd" clip-rule="evenodd" fill="#B2B2B2" d="M10.199,10.72c-0.221-0.041-0.434-0.082-0.646-0.121
		c-0.415-0.078-0.829-0.156-1.244-0.234c-0.049-0.01-0.086-0.005-0.129,0.03c-1.017,0.829-2.036,1.655-3.054,2.484
		C4.87,13.085,4.616,13.294,4.36,13.5c-0.117,0.093-0.253,0.131-0.402,0.109c-0.358-0.047-0.417-0.471-0.255-0.677
		c0.05-0.065,0.117-0.115,0.174-0.173c0.683-0.691,1.364-1.382,2.046-2.072c0.34-0.345,0.68-0.688,1.021-1.032
		C6.979,9.62,6.989,9.59,6.977,9.538C6.886,9.179,6.803,8.819,6.712,8.46C6.696,8.399,6.664,8.335,6.623,8.289
		C6.168,7.776,5.938,7.16,5.789,6.506C5.681,6.029,5.612,5.546,5.575,5.06C5.558,4.849,5.546,4.638,5.531,4.427
		C5.529,4.405,5.526,4.382,5.523,4.354C5.337,4.373,5.158,4.391,4.974,4.41C4.946,4.261,4.919,4.118,4.891,3.966
		c0.211-0.023,0.414-0.044,0.621-0.066c0.002-0.031,0.004-0.058,0.006-0.086c0.016-0.221,0.128-0.321,0.348-0.314
		C6.028,3.505,6.123,3.59,6.162,3.783C6.173,3.84,6.196,3.848,6.245,3.846c0.54-0.018,1.08-0.046,1.62-0.045
		c0.598,0,1.197,0.027,1.795,0.042c0.054,0.001,0.107,0,0.171,0c0.014-0.128,0.042-0.263,0.174-0.326
		c0.067-0.032,0.154-0.042,0.23-0.034c0.189,0.02,0.266,0.14,0.279,0.418c0.194,0.023,0.392,0.045,0.598,0.068
		c-0.027,0.149-0.054,0.293-0.082,0.443c-0.184-0.02-0.362-0.04-0.549-0.06c-0.015,0.146-0.027,0.289-0.041,0.431
		c-0.105,0.967-0.256,1.924-0.663,2.82C9.705,7.764,9.614,7.916,9.55,8.079C9.511,8.178,9.502,8.291,9.484,8.398
		c-0.04,0.226-0.076,0.454-0.112,0.679C9.37,9.087,9.37,9.096,9.37,9.111c0.211,0.077,0.421,0.152,0.632,0.23
		c0.356,0.133,0.711,0.264,1.066,0.396c0.022,0.008,0.044,0.017,0.064,0.026c0.197,0.088,0.263,0.196,0.232,0.407
		c-0.068,0.457-0.14,0.913-0.212,1.369c-0.081,0.507-0.164,1.013-0.25,1.52c-0.023,0.144-0.07,0.282-0.159,0.401
		c-0.109,0.15-0.271,0.166-0.438,0.147c-0.146-0.014-0.228-0.117-0.275-0.25c-0.064-0.18-0.055-0.363-0.036-0.55
		c0.03-0.314,0.061-0.631,0.093-0.944c0.03-0.312,0.061-0.623,0.091-0.934C10.185,10.865,10.191,10.797,10.199,10.72z M6.247,4.299
		c0.004,0.04,0.006,0.07,0.011,0.099c0.025,0.167,0.052,0.333,0.079,0.5C6.409,5.361,6.49,5.823,6.62,6.273
		c0.104,0.362,0.236,0.712,0.47,1.015c0.321,0.415,0.824,0.565,1.322,0.397c0.3-0.101,0.512-0.306,0.672-0.57
		c0.232-0.379,0.354-0.8,0.437-1.231c0.081-0.417,0.142-0.837,0.21-1.255c0.019-0.107,0.028-0.216,0.042-0.33
		C8.594,4.23,7.424,4.228,6.247,4.299z"/>
	<path fill-rule="evenodd" clip-rule="evenodd" fill="#B2B2B2" d="M3.563,6.638C3.231,6.639,2.97,6.42,2.911,6.107
		C2.733,5.169,2.556,4.23,2.378,3.292C2.304,2.9,2.51,2.583,2.898,2.501c0.2-0.042,0.4-0.08,0.602-0.108
		c0.369-0.052,0.669,0.175,0.737,0.542C4.402,3.82,4.572,4.706,4.738,5.592C4.766,5.736,4.807,5.881,4.767,6.03
		C4.695,6.297,4.523,6.464,4.253,6.521C4.051,6.563,3.848,6.596,3.645,6.632C3.613,6.638,3.579,6.637,3.563,6.638z"/>
	<path fill-rule="evenodd" clip-rule="evenodd" fill="#B2B2B2" d="M11.225,5.832c0.025-0.14,0.061-0.333,0.097-0.526
		c0.124-0.66,0.25-1.321,0.374-1.981c0.025-0.136,0.049-0.271,0.077-0.407c0.082-0.373,0.382-0.582,0.759-0.523
		c0.189,0.03,0.377,0.065,0.565,0.104c0.393,0.082,0.601,0.399,0.525,0.793c-0.173,0.918-0.349,1.836-0.519,2.754
		c-0.053,0.283-0.193,0.484-0.476,0.57c-0.13,0.04-0.259,0.021-0.39-0.005c-0.178-0.037-0.36-0.061-0.537-0.103
		C11.419,6.441,11.22,6.176,11.225,5.832z"/>
	<path fill-rule="evenodd" clip-rule="evenodd" fill="#B2B2B2" d="M7.098,6.393C7.1,5.895,7.507,5.492,8.007,5.494
		C8.502,5.497,8.904,5.903,8.902,6.4C8.901,6.897,8.494,7.301,7.994,7.299C7.5,7.296,7.097,6.89,7.098,6.393z"/>
</g>
</svg>
