<?xml version="1.0" encoding="utf-8"?>
<!-- Generator: Adobe Illustrator 16.0.0, SVG Export Plug-In . SVG Version: 6.00 Build 0)  -->
<!DOCTYPE svg PUBLIC "-//W3C//DTD SVG 1.1//EN" "http://www.w3.org/Graphics/SVG/1.1/DTD/svg11.dtd">
<svg version="1.1" id="Layer_1" xmlns="http://www.w3.org/2000/svg" xmlns:xlink="http://www.w3.org/1999/xlink" x="0px" y="0px"
	 width="16px" height="16px" viewBox="0 0 16 16" enable-background="new 0 0 16 16" xml:space="preserve">
<g>
	<path fill-rule="evenodd" clip-rule="evenodd" fill="#B2B2B2" d="M9.664,9.767C9.367,8.685,9.07,7.602,8.775,6.519
		c-0.42-1.541-0.839-3.083-1.258-4.624C7.502,1.839,7.496,1.779,7.496,1.722c0-0.09,0.05-0.134,0.139-0.116
		c0.063,0.013,0.127,0.039,0.185,0.07c0.259,0.142,0.478,0.336,0.683,0.546C9.029,2.758,9.49,3.349,9.934,3.954
		c0.891,1.215,1.713,2.473,2.436,3.795c0.23,0.423,0.449,0.852,0.609,1.307c0.008,0.02,0.012,0.041,0.02,0.061
		c0.108,0.27,0.061,0.517-0.094,0.758c-0.231,0.364-0.54,0.654-0.877,0.918c-0.381,0.297-0.793,0.545-1.219,0.771
		c-0.029,0.016-0.059,0.032-0.086,0.064c0.08-0.007,0.16-0.012,0.239-0.02c0.491-0.05,0.983-0.099,1.476-0.15
		c0.049-0.005,0.08,0.015,0.075,0.054c-0.009,0.071-0.016,0.157-0.059,0.207c-0.095,0.108-0.202,0.211-0.321,0.293
		c-0.527,0.364-1.11,0.612-1.717,0.81c-0.745,0.243-1.511,0.388-2.29,0.466c-0.767,0.078-1.535,0.076-2.303,0.05
		c-0.553-0.02-1.104-0.062-1.648-0.165c-0.313-0.06-0.624-0.135-0.905-0.293c-0.08-0.046-0.153-0.105-0.218-0.171
		c-0.042-0.041-0.071-0.101-0.09-0.156c-0.041-0.114-0.016-0.145,0.105-0.157c0.582-0.058,1.164-0.116,1.745-0.174
		c0.502-0.05,1.005-0.099,1.507-0.148c0.486-0.048,0.973-0.097,1.459-0.146c0.01-0.001,0.02-0.005,0.045-0.011
		c-0.256-0.474-0.51-0.941-0.776-1.432c0.091,0,0.166,0,0.241,0c0.197-0.002,0.394-0.003,0.59-0.009
		c0.051-0.001,0.074,0.017,0.094,0.062c0.183,0.413,0.369,0.824,0.55,1.238c0.024,0.055,0.049,0.078,0.112,0.065
		c0.079-0.017,0.162-0.019,0.253-0.027C8.83,11.636,8.773,11.468,8.717,11.3c-0.109-0.324-0.219-0.648-0.326-0.975
		c-0.02-0.059-0.048-0.074-0.108-0.074c-0.601,0.013-1.202,0.021-1.803,0.032c-0.153,0.003-0.285-0.05-0.385-0.161
		C5.659,9.642,5.23,9.154,4.862,8.618C4.702,8.385,4.58,8.132,4.556,7.841c-0.027-0.333,0.122-0.58,0.429-0.719
		c0.234-0.105,0.467-0.128,0.709-0.023C5.945,7.206,6.2,7.306,6.45,7.416c0.333,0.147,0.67,0.124,1.005,0.02
		c0.273-0.085,0.542-0.187,0.812-0.28c0.017-0.006,0.034-0.014,0.057-0.021c0.008,0.021,0.016,0.04,0.021,0.059
		c0.043,0.162,0.085,0.324,0.13,0.485c0.011,0.038,0.009,0.063-0.032,0.083C7.983,7.978,7.517,8.178,7.016,8.275
		C6.875,8.302,6.725,8.28,6.58,8.28c-0.025,0-0.051-0.006-0.095-0.012c0.075,0.105,0.14,0.195,0.204,0.285
		C6.794,8.7,6.898,8.849,7.008,8.992C7.034,9.026,7.08,9.058,7.12,9.063c0.359,0.055,0.72,0.103,1.081,0.152
		c0.126,0.018,0.254,0.025,0.378,0.053C8.854,9.33,9.025,9.51,9.096,9.777c0.135,0.508,0.262,1.018,0.393,1.526
		c0.031,0.127,0.062,0.254,0.098,0.379c0.006,0.021,0.033,0.055,0.049,0.053c0.18-0.014,0.358-0.033,0.547-0.051
		c-0.113-0.423-0.226-0.834-0.335-1.236 M9.785,10.03"/>
	<path fill-rule="evenodd" clip-rule="evenodd" fill="#B2B2B2" d="M5.999,5.821C6,6.28,5.625,6.656,5.168,6.655
		c-0.459,0-0.832-0.371-0.833-0.831C4.333,5.362,4.703,4.989,5.161,4.987C5.625,4.985,5.998,5.356,5.999,5.821z"/>
</g>
</svg>
