<?xml version="1.0" encoding="utf-8"?>
<!-- Generator: Adobe Illustrator 16.0.0, SVG Export Plug-In . SVG Version: 6.00 Build 0)  -->
<!DOCTYPE svg PUBLIC "-//W3C//DTD SVG 1.1//EN" "http://www.w3.org/Graphics/SVG/1.1/DTD/svg11.dtd">
<svg version="1.1" id="Layer_1" xmlns="http://www.w3.org/2000/svg" xmlns:xlink="http://www.w3.org/1999/xlink" x="0px" y="0px"
	 width="16px" height="16px" viewBox="0 0 16 16" enable-background="new 0 0 16 16" xml:space="preserve">
<g>
	<path fill-rule="evenodd" clip-rule="evenodd" fill="#B2B2B2" d="M1.277,12.1c0.126-0.176,0.237-0.365,0.382-0.523
		c0.458-0.496,0.933-0.98,1.394-1.475c0.101-0.107,0.189-0.229,0.259-0.359C4.161,8.195,5.005,6.644,5.85,5.093
		c0.419-0.77,0.999-0.876,1.715-0.292C7.432,4.808,7.318,4.814,7.204,4.82C7.202,4.836,7.199,4.853,7.196,4.869
		C7.83,5.007,8.459,5.231,9.098,5.257c0.507,0.021,1.024-0.201,1.537-0.31c0.244-0.052,0.512-0.058,0.643,0.177
		c0.092,0.161,0.143,0.417,0.076,0.573C11.286,5.854,11.068,6,10.889,6.049c-0.523,0.145-1.058,0.293-1.597,0.333
		C8.88,6.413,8.455,6.289,8.039,6.216c-0.34-0.061-0.675-0.148-1.035-0.164C7.658,6.345,8.313,6.639,8.97,6.934
		c-0.431,0.181-0.872,0.367-1.38,0.582c-0.067-0.087-0.19-0.247-0.339-0.44C7.033,7.453,6.822,7.817,6.6,8.203
		c0.561,0.351,1.108,0.709,1.672,1.039c0.348,0.201,0.499,0.463,0.492,0.871c-0.011,0.676,0.031,1.352,0.04,2.029
		c0.007,0.471-0.265,0.783-0.667,0.791c-0.411,0.01-0.7-0.314-0.704-0.789c-0.005-0.539-0.001-1.074-0.019-1.613
		c-0.003-0.1-0.062-0.236-0.14-0.289c-0.666-0.43-1.342-0.844-2.052-1.287C5.062,9.277,4.895,9.578,4.759,9.893
		c-0.233,0.545-0.551,1.023-0.984,1.438c-0.417,0.398-0.798,0.834-1.191,1.256c-0.495,0.529-0.979,0.461-1.307-0.188
		C1.277,12.299,1.277,12.199,1.277,12.1z"/>
	<path fill-rule="evenodd" clip-rule="evenodd" fill="#B2B2B2" d="M14.723,12.398c-0.241,0.477-0.594,0.662-0.962,0.465
		c-0.146-0.078-0.284-0.227-0.355-0.377c-0.393-0.822-0.778-1.648-1.133-2.488c-0.09-0.213-0.061-0.473-0.09-0.742
		c-0.265,0.137-0.566,0.289-0.859,0.453c-0.042,0.023-0.062,0.115-0.065,0.178c-0.042,0.764-0.082,1.529-0.116,2.293
		c-0.021,0.463-0.296,0.766-0.704,0.756c-0.404-0.012-0.684-0.373-0.66-0.83c0.041-0.795,0.069-1.59,0.107-2.385
		c0.007-0.168,0.022-0.336,0.044-0.504c0.032-0.273,0.188-0.45,0.447-0.539c0.354-0.123,0.71-0.246,1.066-0.369
		c0.506-0.176,0.695-0.52,0.571-1.046c-0.078-0.337-0.164-0.673-0.243-1.01c-0.017-0.075-0.035-0.158-0.021-0.231
		c0.052-0.292,0.117-0.582,0.169-0.834c0.157,0.149,0.371,0.339,0.572,0.543c0.432,0.439,0.852,0.893,1.29,1.327
		c0.215,0.213,0.276,0.45,0.211,0.732c-0.122,0.531-0.251,1.06-0.362,1.593C13.604,9.5,13.604,9.643,13.65,9.75
		c0.349,0.787,0.715,1.568,1.072,2.35C14.723,12.199,14.723,12.299,14.723,12.398z"/>
	<path fill-rule="evenodd" clip-rule="evenodd" fill="#B2B2B2" d="M8.481,3.729c-0.644,0.61-1.372,0.395-1.698-0.08
		C6.444,3.157,6.59,2.481,7.101,2.169c0.609-0.371,1.211-0.129,1.604,0.66C9.001,2.524,9.364,2.355,9.77,2.491
		c0.237,0.078,0.486,0.244,0.636,0.442C10.762,3.409,10.579,4.1,10.064,4.4C9.467,4.749,8.87,4.5,8.481,3.729z"/>
	<path fill-rule="evenodd" clip-rule="evenodd" fill="#B2B2B2" d="M11.559,6.326c0,0.348,0.006,0.715-0.001,1.082
		C11.55,7.668,11.39,7.829,11.159,7.91c-0.813,0.284-1.624,0.564-2.44,0.836C8.357,8.865,8.072,8.725,7.956,8.394
		c-0.11-0.315,0.047-0.592,0.42-0.724c0.616-0.217,1.233-0.426,1.849-0.645c0.075-0.026,0.196-0.101,0.191-0.141
		c-0.035-0.289,0.183-0.28,0.355-0.33C11.023,6.482,11.276,6.408,11.559,6.326z"/>
</g>
</svg>
